<svg xmlns="http://www.w3.org/2000/svg" width="512pt" height="512pt" version="1.1" viewBox="0 0 512 512"><g id="#000000ff"><path fill="#000" d="M 117.47 0.00 L 393.54 0.00 C 412.36 0.10 430.15 12.94 436.27 30.70 C 438.97 37.81 439.14 45.50 439.01 53.01 C 439.00 159.00 438.99 264.99 439.01 370.99 C 438.89 374.39 439.43 377.92 438.41 381.23 C 437.39 384.07 434.49 385.42 431.77 386.10 C 428.83 385.59 425.66 384.27 424.59 381.23 C 423.54 377.56 424.11 373.68 423.99 369.93 C 424.01 264.61 423.99 159.30 424.01 53.99 C 423.98 48.44 424.34 42.73 422.69 37.35 C 420.14 28.61 413.54 21.27 405.24 17.60 C 401.08 15.83 396.57 14.97 392.05 15.00 C 303.68 14.99 215.32 15.00 126.95 15.00 C 120.28 15.02 113.35 14.49 107.03 17.09 C 95.33 21.48 86.95 33.41 87.03 45.95 C 86.95 184.63 87.04 323.32 86.98 462.00 C 86.82 467.51 87.35 473.13 89.59 478.23 C 94.51 489.63 106.59 497.40 119.03 497.00 C 207.36 497.00 295.68 497.00 384.01 497.00 C 389.12 496.96 394.29 497.31 399.34 496.27 C 412.89 493.56 423.63 480.91 423.92 467.06 C 424.14 447.02 423.90 426.98 424.02 406.94 C 423.61 402.43 427.50 398.98 431.77 398.64 C 435.79 399.25 439.34 402.61 438.97 406.90 C 439.05 425.27 438.96 443.64 439.01 462.02 C 439.14 468.78 438.50 475.65 436.02 481.99 C 429.78 499.15 412.64 511.47 394.40 512.00 L 117.47 512.00 C 99.19 511.83 81.79 499.77 75.25 482.70 C 72.71 476.47 71.87 469.69 71.99 463.00 C 72.02 324.34 71.98 185.67 72.01 47.01 C 71.84 35.56 76.03 24.13 83.68 15.60 C 92.12 5.98 104.68 0.24 117.47 0.00 Z" opacity="1"/><path fill="#000" d="M 110.33 69.95 C 110.63 57.46 121.54 46.44 134.02 45.98 C 145.68 45.73 157.36 45.89 169.04 45.89 C 173.31 45.56 176.99 49.21 177.20 53.39 C 176.89 57.17 173.97 60.82 169.97 60.81 C 158.31 61.05 146.64 60.66 134.98 60.97 C 129.73 61.09 125.24 65.84 125.30 71.08 C 125.19 91.32 125.32 111.57 125.25 131.82 C 125.26 136.22 124.66 141.40 128.17 144.76 C 131.13 148.11 135.87 148.06 139.97 147.96 C 218.34 147.88 296.71 147.98 375.08 147.91 C 380.93 148.21 386.10 142.91 385.72 137.08 C 385.76 115.37 385.74 93.66 385.73 71.96 C 385.84 68.39 384.30 64.74 381.27 62.74 C 377.91 60.33 373.55 60.95 369.67 60.85 C 312.42 60.88 255.17 60.87 197.91 60.85 C 193.66 61.17 190.22 57.51 189.93 53.42 C 190.07 48.81 194.42 45.27 198.96 45.86 C 257.97 45.90 316.98 45.79 375.99 45.92 C 388.84 45.91 400.37 57.11 400.67 69.97 C 400.80 92.64 400.74 115.32 400.70 138.00 C 400.84 151.15 389.18 162.92 376.03 162.89 C 296.33 162.99 216.63 162.89 136.94 162.94 C 130.76 163.13 124.48 161.25 119.68 157.29 C 113.62 152.46 110.07 144.76 110.27 137.02 C 110.30 114.66 110.18 92.30 110.33 69.95 Z" opacity="1"/><path fill="#000" d="M 135.45 186.66 C 137.94 186.14 140.49 186.01 143.03 185.99 C 160.34 186.00 177.65 186.02 194.97 185.98 C 200.21 185.85 205.56 186.37 210.40 188.53 C 221.62 193.16 229.49 204.77 229.60 216.93 C 229.71 235.27 229.61 253.62 229.65 271.97 C 229.74 277.03 228.94 282.17 226.80 286.79 C 221.99 297.59 210.75 305.14 198.90 305.33 C 181.28 305.51 163.65 305.34 146.03 305.41 C 140.09 305.54 133.98 305.04 128.57 302.40 C 117.72 297.45 110.25 285.99 110.29 274.04 C 110.22 256.03 110.30 238.01 110.25 220.00 C 109.02 204.64 120.26 189.52 135.45 186.66 M 125.29 217.09 C 125.21 235.40 125.30 253.71 125.25 272.02 C 125.37 274.29 125.12 276.73 126.23 278.80 L 127.04 278.99 L 126.63 279.63 C 128.37 286.06 135.43 290.49 142.07 290.37 C 160.69 290.42 179.30 290.43 197.92 290.37 C 206.70 290.59 214.67 282.88 214.61 274.08 C 214.65 255.03 214.68 235.98 214.60 216.93 C 214.50 209.95 209.41 203.85 202.94 201.60 C 200.63 201.20 198.28 200.93 195.93 200.98 C 177.59 201.06 159.24 200.91 140.90 201.05 C 132.58 201.28 125.34 208.78 125.29 217.09 Z" opacity="1"/><path fill="#000" d="M 306.45 186.68 C 309.27 186.08 312.17 185.98 315.05 185.98 C 333.03 186.02 351.02 185.98 369.00 186.00 C 376.44 185.97 383.87 188.64 389.52 193.50 C 396.66 199.47 400.87 208.71 400.72 218.02 C 400.75 236.35 400.73 254.68 400.73 273.01 C 400.85 280.67 398.20 288.36 393.19 294.18 C 387.28 301.26 378.15 305.40 368.94 305.37 C 350.64 305.44 332.33 305.40 314.02 305.39 C 307.84 305.43 301.59 303.94 296.36 300.59 C 287.28 295.06 281.39 284.72 281.38 274.08 C 281.34 255.03 281.31 235.97 281.39 216.92 C 281.42 202.63 292.46 189.43 306.45 186.68 M 296.39 217.08 C 296.31 234.05 296.39 251.02 296.35 267.98 C 296.30 271.66 296.24 275.37 297.03 278.98 L 298.03 278.89 L 297.01 279.01 C 299.54 285.53 305.89 290.52 313.04 290.37 C 331.70 290.42 350.36 290.42 369.01 290.37 C 377.80 290.60 385.77 282.86 385.71 274.06 C 385.75 255.02 385.78 235.98 385.69 216.95 C 385.60 209.96 380.51 203.86 374.05 201.60 C 372.02 201.27 369.99 200.97 367.94 200.99 C 349.61 201.02 331.29 200.98 312.97 201.01 C 304.29 200.76 296.42 208.40 296.39 217.08 Z" opacity="1"/><path fill="#000" d="M 163.19 223.20 C 165.53 217.59 174.45 217.63 176.74 223.26 C 178.20 228.07 177.13 233.24 177.47 238.20 C 182.09 238.38 186.77 237.80 191.35 238.51 C 197.44 239.98 198.56 249.19 193.03 252.10 C 188.17 254.23 182.61 252.77 177.45 253.20 C 177.41 257.16 177.56 261.11 177.41 265.07 C 177.47 269.00 173.92 272.48 170.00 272.41 C 166.34 272.52 162.88 269.53 162.56 265.87 C 162.29 261.65 162.53 257.42 162.45 253.20 C 157.51 252.88 152.36 253.94 147.56 252.47 C 141.70 250.13 141.93 240.74 147.93 238.72 C 152.66 237.58 157.63 238.48 162.45 238.19 C 162.81 233.22 161.64 228.01 163.19 223.20 Z" opacity="1"/><path fill="#000" d="M 320.32 238.36 C 333.54 237.99 346.79 238.29 360.02 238.21 C 364.23 237.92 368.06 241.76 367.77 245.96 C 367.72 249.98 364.01 253.37 360.01 253.17 C 347.34 253.22 334.66 253.23 321.98 253.16 C 318.36 253.30 314.94 250.50 314.42 246.92 C 313.66 243.09 316.45 238.98 320.32 238.36 Z" opacity="1"/><path fill="#000" d="M 138.23 337.37 C 154.16 336.84 170.11 337.28 186.04 337.14 C 193.23 337.35 200.64 336.35 207.60 338.64 C 217.20 341.62 225.07 349.49 228.09 359.06 C 230.07 364.81 229.60 370.96 229.65 376.93 C 229.60 393.33 229.74 409.73 229.58 426.12 C 229.32 441.80 215.74 455.81 200.05 456.41 C 183.38 456.68 166.70 456.45 150.03 456.53 C 144.01 456.48 137.80 456.97 132.03 454.89 C 122.48 451.83 114.66 443.91 111.72 434.32 C 110.17 429.71 110.22 424.80 110.26 420.00 C 110.34 402.31 110.14 384.61 110.35 366.92 C 110.90 352.02 123.42 338.81 138.23 337.37 M 125.30 368.01 C 125.21 384.34 125.29 400.67 125.26 417.00 C 125.30 421.32 124.98 425.69 125.91 429.95 C 128.29 436.61 134.76 441.68 141.96 441.52 C 160.65 441.54 179.34 441.55 198.03 441.51 C 206.85 441.70 214.78 433.86 214.62 425.03 C 214.64 406.04 214.69 387.04 214.60 368.05 C 214.48 361.11 209.44 355.09 203.06 352.78 C 200.74 352.34 198.39 352.07 196.03 352.12 C 177.67 352.19 159.30 352.05 140.94 352.19 C 132.69 352.43 125.46 359.76 125.30 368.01 Z" opacity="1"/><path fill="#000" d="M 309.32 337.37 C 328.87 336.83 348.45 337.29 368.02 337.14 C 376.46 336.91 384.98 340.06 391.03 346.00 C 397.22 351.90 400.78 360.39 400.72 368.94 C 400.76 386.61 400.71 404.29 400.75 421.96 C 400.83 426.66 400.46 431.45 398.74 435.88 C 394.49 447.68 382.69 456.28 370.12 456.47 C 351.76 456.61 333.39 456.48 315.03 456.54 C 310.01 456.62 304.91 455.92 300.31 453.82 C 289.08 449.05 281.30 437.30 281.38 425.08 C 281.35 406.04 281.30 387.00 281.40 367.96 C 281.44 352.69 294.14 338.83 309.32 337.37 M 296.39 368.08 C 296.30 386.73 296.39 405.39 296.35 424.05 C 296.30 426.27 296.74 428.45 297.26 430.61 C 299.76 436.92 306.03 441.60 312.91 441.51 C 331.88 441.53 350.86 441.58 369.83 441.48 C 378.36 441.32 385.81 433.64 385.71 425.12 C 385.76 406.39 385.73 387.65 385.73 368.92 C 385.91 362.00 381.26 355.63 374.93 353.08 C 370.73 351.79 366.32 352.16 362.00 352.13 C 345.65 352.15 329.29 352.10 312.94 352.15 C 304.33 351.95 296.50 359.46 296.39 368.08 Z" opacity="1"/><path fill="#000" d="M 337.48 366.68 C 341.70 364.17 347.79 367.09 348.38 371.97 C 348.61 375.26 348.91 378.70 348.00 381.91 C 346.37 386.58 339.81 388.21 336.17 384.85 C 332.92 382.25 333.53 377.70 333.54 374.01 C 333.37 371.07 334.82 368.06 337.48 366.68 Z" opacity="1"/><path fill="#000" d="M 149.37 385.95 C 146.61 379.96 153.89 373.25 159.64 376.49 C 163.56 379.15 166.47 383.04 169.96 386.22 C 173.46 383.03 176.37 379.13 180.30 376.47 C 186.15 373.22 193.42 380.20 190.43 386.17 C 187.92 390.33 183.80 393.22 180.58 396.81 C 183.75 400.23 187.49 403.17 190.21 406.98 C 193.50 412.55 187.14 420.08 181.08 417.50 C 176.55 415.21 173.81 410.59 169.95 407.42 C 166.05 410.59 163.34 415.31 158.72 417.53 C 152.57 420.06 146.26 412.25 149.81 406.75 C 152.61 403.10 156.23 400.19 159.35 396.83 C 156.10 393.14 151.81 390.26 149.37 385.95 Z" opacity="1"/><path fill="#000" d="M 320.36 389.50 C 333.59 389.12 346.85 389.42 360.09 389.35 C 364.24 389.13 368.01 392.87 367.78 397.03 C 367.77 401.06 364.05 404.54 360.03 404.31 C 347.36 404.35 334.69 404.36 322.02 404.31 C 318.57 404.45 315.29 401.96 314.52 398.61 C 313.44 394.63 316.27 390.13 320.36 389.50 Z" opacity="1"/><path fill="#000" d="M 338.34 407.51 C 342.83 405.56 348.44 409.17 348.49 414.07 C 348.55 418.24 349.45 423.62 345.49 426.40 C 341.43 429.68 334.56 427.13 333.75 421.95 C 333.29 416.93 332.47 409.70 338.34 407.51 Z" opacity="1"/></g><g id="#666666ff"><path fill="#666" d="M 107.03 17.09 C 113.35 14.49 120.28 15.02 126.95 15.00 C 215.32 15.00 303.68 14.99 392.05 15.00 C 396.57 14.97 401.08 15.83 405.24 17.60 C 405.13 153.73 405.23 289.87 405.20 426.01 C 405.13 432.04 405.48 438.09 404.87 444.11 C 403.45 457.25 394.63 469.25 382.59 474.66 C 377.41 477.08 371.69 478.16 365.99 478.19 C 273.86 478.23 181.72 478.16 89.59 478.23 C 87.35 473.13 86.82 467.51 86.98 462.00 C 87.04 323.32 86.95 184.63 87.03 45.95 C 86.95 33.41 95.33 21.48 107.03 17.09 M 110.33 69.95 C 110.18 92.30 110.30 114.66 110.27 137.02 C 110.07 144.76 113.62 152.46 119.68 157.29 C 124.48 161.25 130.76 163.13 136.94 162.94 C 216.63 162.89 296.33 162.99 376.03 162.89 C 389.18 162.92 400.84 151.15 400.70 138.00 C 400.74 115.32 400.80 92.64 400.67 69.97 C 400.37 57.11 388.84 45.91 375.99 45.92 C 316.98 45.79 257.97 45.90 198.96 45.86 C 194.42 45.27 190.07 48.81 189.93 53.42 C 185.69 53.38 181.44 53.40 177.20 53.39 C 176.99 49.21 173.31 45.56 169.04 45.89 C 157.36 45.89 145.68 45.73 134.02 45.98 C 121.54 46.44 110.63 57.46 110.33 69.95 M 135.45 186.66 C 120.26 189.52 109.02 204.64 110.25 220.00 C 110.30 238.01 110.22 256.03 110.29 274.04 C 110.25 285.99 117.72 297.45 128.57 302.40 C 133.98 305.04 140.09 305.54 146.03 305.41 C 163.65 305.34 181.28 305.51 198.90 305.33 C 210.75 305.14 221.99 297.59 226.80 286.79 C 228.94 282.17 229.74 277.03 229.65 271.97 C 229.61 253.62 229.71 235.27 229.60 216.93 C 229.49 204.77 221.62 193.16 210.40 188.53 C 205.56 186.37 200.21 185.85 194.97 185.98 C 177.65 186.02 160.34 186.00 143.03 185.99 C 140.49 186.01 137.94 186.14 135.45 186.66 M 306.45 186.68 C 292.46 189.43 281.42 202.63 281.39 216.92 C 281.31 235.97 281.34 255.03 281.38 274.08 C 281.39 284.72 287.28 295.06 296.36 300.59 C 301.59 303.94 307.84 305.43 314.02 305.39 C 332.33 305.40 350.64 305.44 368.94 305.37 C 378.15 305.40 387.28 301.26 393.19 294.18 C 398.20 288.36 400.85 280.67 400.73 273.01 C 400.73 254.68 400.75 236.35 400.72 218.02 C 400.87 208.71 396.66 199.47 389.52 193.50 C 383.87 188.64 376.44 185.97 369.00 186.00 C 351.02 185.98 333.03 186.02 315.05 185.98 C 312.17 185.98 309.27 186.08 306.45 186.68 M 138.23 337.37 C 123.42 338.81 110.90 352.02 110.35 366.92 C 110.14 384.61 110.34 402.31 110.26 420.00 C 110.22 424.80 110.17 429.71 111.72 434.32 C 114.66 443.91 122.48 451.83 132.03 454.89 C 137.80 456.97 144.01 456.48 150.03 456.53 C 166.70 456.45 183.38 456.68 200.05 456.41 C 215.74 455.81 229.32 441.80 229.58 426.12 C 229.74 409.73 229.60 393.33 229.65 376.93 C 229.60 370.96 230.07 364.81 228.09 359.06 C 225.07 349.49 217.20 341.62 207.60 338.64 C 200.64 336.35 193.23 337.35 186.04 337.14 C 170.11 337.28 154.16 336.84 138.23 337.37 M 309.32 337.37 C 294.14 338.83 281.44 352.69 281.40 367.96 C 281.30 387.00 281.35 406.04 281.38 425.08 C 281.30 437.30 289.08 449.05 300.31 453.82 C 304.91 455.92 310.01 456.62 315.03 456.54 C 333.39 456.48 351.76 456.61 370.12 456.47 C 382.69 456.28 394.49 447.68 398.74 435.88 C 400.46 431.45 400.83 426.66 400.75 421.96 C 400.71 404.29 400.76 386.61 400.72 368.94 C 400.78 360.39 397.22 351.90 391.03 346.00 C 384.98 340.06 376.46 336.91 368.02 337.14 C 348.45 337.29 328.87 336.83 309.32 337.37 Z" opacity="1"/></g><g id="#4d4d4dff"><path fill="#4d4d4d" d="M 405.24 17.60 C 413.54 21.27 420.14 28.61 422.69 37.35 C 424.34 42.73 423.98 48.44 424.01 53.99 C 423.99 159.30 424.01 264.61 423.99 369.93 C 424.11 373.68 423.54 377.56 424.59 381.23 C 425.66 384.27 428.83 385.59 431.77 386.10 C 431.77 390.28 431.77 394.46 431.77 398.64 C 427.50 398.98 423.61 402.43 424.02 406.94 C 423.90 426.98 424.14 447.02 423.92 467.06 C 423.63 480.91 412.89 493.56 399.34 496.27 C 394.29 497.31 389.12 496.96 384.01 497.00 C 295.68 497.00 207.36 497.00 119.03 497.00 C 106.59 497.40 94.51 489.63 89.59 478.23 C 181.72 478.16 273.86 478.23 365.99 478.19 C 371.69 478.16 377.41 477.08 382.59 474.66 C 394.63 469.25 403.45 457.25 404.87 444.11 C 405.48 438.09 405.13 432.04 405.20 426.01 C 405.23 289.87 405.13 153.73 405.24 17.60 Z" opacity="1"/></g><g id="#62e8f1ff"><path fill="#62e8f1" d="M 177.20 53.39 C 181.44 53.40 185.69 53.38 189.93 53.42 C 190.22 57.51 193.66 61.17 197.91 60.85 C 255.17 60.87 312.42 60.88 369.67 60.85 C 369.43 75.90 369.60 90.96 369.58 106.01 C 369.50 111.49 370.22 117.41 367.41 122.39 C 364.28 128.27 357.72 131.92 351.09 131.74 C 275.81 131.80 200.53 131.63 125.25 131.82 C 125.32 111.57 125.19 91.32 125.30 71.08 C 125.24 65.84 129.73 61.09 134.98 60.97 C 146.64 60.66 158.31 61.05 169.97 60.81 C 173.97 60.82 176.89 57.17 177.20 53.39 Z" opacity="1"/></g><g id="#57ced6ff"><path fill="#57ced6" d="M 369.67 60.85 C 373.55 60.95 377.91 60.33 381.27 62.74 C 384.30 64.74 385.84 68.39 385.73 71.96 C 385.74 93.66 385.76 115.37 385.72 137.08 C 386.10 142.91 380.93 148.21 375.08 147.91 C 296.71 147.98 218.34 147.88 139.97 147.96 C 135.87 148.06 131.13 148.11 128.17 144.76 C 124.66 141.40 125.26 136.22 125.25 131.82 C 200.53 131.63 275.81 131.80 351.09 131.74 C 357.72 131.92 364.28 128.27 367.41 122.39 C 370.22 117.41 369.50 111.49 369.58 106.01 C 369.60 90.96 369.43 75.90 369.67 60.85 Z" opacity="1"/></g><g id="#c5c9f7ff"><path fill="#c5c9f7" d="M 125.29 217.09 C 125.34 208.78 132.58 201.28 140.90 201.05 C 159.24 200.91 177.59 201.06 195.93 200.98 C 198.28 200.93 200.63 201.20 202.94 201.60 C 202.79 219.43 203.01 237.25 202.84 255.07 C 202.77 263.93 197.27 272.41 189.28 276.19 C 185.48 278.11 181.18 278.66 176.98 278.63 C 162.64 278.58 148.31 278.65 133.98 278.58 C 131.66 278.59 129.32 278.56 127.04 278.99 L 126.23 278.80 C 125.12 276.73 125.37 274.29 125.25 272.02 C 125.30 253.71 125.21 235.40 125.29 217.09 M 163.19 223.20 C 161.64 228.01 162.81 233.22 162.45 238.19 C 157.63 238.48 152.66 237.58 147.93 238.72 C 141.93 240.74 141.70 250.13 147.56 252.47 C 152.36 253.94 157.51 252.88 162.45 253.20 C 162.53 257.42 162.29 261.65 162.56 265.87 C 162.88 269.53 166.34 272.52 170.00 272.41 C 173.92 272.48 177.47 269.00 177.41 265.07 C 177.56 261.11 177.41 257.16 177.45 253.20 C 182.61 252.77 188.17 254.23 193.03 252.10 C 198.56 249.19 197.44 239.98 191.35 238.51 C 186.77 237.80 182.09 238.38 177.47 238.20 C 177.13 233.24 178.20 228.07 176.74 223.26 C 174.45 217.63 165.53 217.59 163.19 223.20 Z" opacity="1"/><path fill="#c5c9f7" d="M 296.39 217.08 C 296.42 208.40 304.29 200.76 312.97 201.01 C 331.29 200.98 349.61 201.02 367.94 200.99 C 369.99 200.97 372.02 201.27 374.05 201.60 C 373.87 219.42 374.11 237.25 373.94 255.07 C 373.95 266.97 363.85 277.76 351.96 278.47 C 333.99 279.00 315.98 278.12 298.03 278.89 L 297.03 278.98 C 296.24 275.37 296.30 271.66 296.35 267.98 C 296.39 251.02 296.31 234.05 296.39 217.08 M 320.32 238.36 C 316.45 238.98 313.66 243.09 314.42 246.92 C 314.94 250.50 318.36 253.30 321.98 253.16 C 334.66 253.23 347.34 253.22 360.01 253.17 C 364.01 253.37 367.72 249.98 367.77 245.96 C 368.06 241.76 364.23 237.92 360.02 238.21 C 346.79 238.29 333.54 237.99 320.32 238.36 Z" opacity="1"/><path fill="#c5c9f7" d="M 125.30 368.01 C 125.46 359.76 132.69 352.43 140.94 352.19 C 159.30 352.05 177.67 352.19 196.03 352.12 C 198.39 352.07 200.74 352.34 203.06 352.78 C 203.03 370.52 203.13 388.27 203.02 406.01 C 203.07 415.27 197.23 424.15 188.75 427.83 C 184.47 429.84 179.65 430.02 175.00 429.97 C 158.64 429.91 142.27 429.95 125.91 429.95 C 124.98 425.69 125.30 421.32 125.26 417.00 C 125.29 400.67 125.21 384.34 125.30 368.01 M 149.37 385.95 C 151.81 390.26 156.10 393.14 159.35 396.83 C 156.23 400.19 152.61 403.10 149.81 406.75 C 146.26 412.25 152.57 420.06 158.72 417.53 C 163.34 415.31 166.05 410.59 169.95 407.42 C 173.81 410.59 176.55 415.21 181.08 417.50 C 187.14 420.08 193.50 412.55 190.21 406.98 C 187.49 403.17 183.75 400.23 180.58 396.81 C 183.80 393.22 187.92 390.33 190.43 386.17 C 193.42 380.20 186.15 373.22 180.30 376.47 C 176.37 379.13 173.46 383.03 169.96 386.22 C 166.47 383.04 163.56 379.15 159.64 376.49 C 153.89 373.25 146.61 379.96 149.37 385.95 Z" opacity="1"/><path fill="#c5c9f7" d="M 296.39 368.08 C 296.50 359.46 304.33 351.95 312.94 352.15 C 329.29 352.10 345.65 352.15 362.00 352.13 C 366.32 352.16 370.73 351.79 374.93 353.08 C 374.63 367.73 374.87 382.39 374.80 397.05 C 374.69 403.33 375.48 409.96 372.84 415.87 C 369.28 424.47 360.40 430.50 351.07 430.51 C 333.14 430.63 315.20 430.42 297.26 430.61 C 296.74 428.45 296.30 426.27 296.35 424.05 C 296.39 405.39 296.30 386.73 296.39 368.08 M 337.48 366.68 C 334.82 368.06 333.37 371.07 333.54 374.01 C 333.53 377.70 332.92 382.25 336.17 384.85 C 339.81 388.21 346.37 386.58 348.00 381.91 C 348.91 378.70 348.61 375.26 348.38 371.97 C 347.79 367.09 341.70 364.17 337.48 366.68 M 320.36 389.50 C 316.27 390.13 313.44 394.63 314.52 398.61 C 315.29 401.96 318.57 404.45 322.02 404.31 C 334.69 404.36 347.36 404.35 360.03 404.31 C 364.05 404.54 367.77 401.06 367.78 397.03 C 368.01 392.87 364.24 389.13 360.09 389.35 C 346.85 389.42 333.59 389.12 320.36 389.50 M 338.34 407.51 C 332.47 409.70 333.29 416.93 333.75 421.95 C 334.56 427.13 341.43 429.68 345.49 426.40 C 349.45 423.62 348.55 418.24 348.49 414.07 C 348.44 409.17 342.83 405.56 338.34 407.51 Z" opacity="1"/></g><g id="#9fa2c7ff"><path fill="#9fa2c7" d="M 202.94 201.60 C 209.41 203.85 214.50 209.95 214.60 216.93 C 214.68 235.98 214.65 255.03 214.61 274.08 C 214.67 282.88 206.70 290.59 197.92 290.37 C 179.30 290.43 160.69 290.42 142.07 290.37 C 135.43 290.49 128.37 286.06 126.63 279.63 L 127.04 278.99 C 129.32 278.56 131.66 278.59 133.98 278.58 C 148.31 278.65 162.64 278.58 176.98 278.63 C 181.18 278.66 185.48 278.11 189.28 276.19 C 197.27 272.41 202.77 263.93 202.84 255.07 C 203.01 237.25 202.79 219.43 202.94 201.60 Z" opacity="1"/><path fill="#9fa2c7" d="M 374.05 201.60 C 380.51 203.86 385.60 209.96 385.69 216.95 C 385.78 235.98 385.75 255.02 385.71 274.06 C 385.77 282.86 377.80 290.60 369.01 290.37 C 350.36 290.42 331.70 290.42 313.04 290.37 C 305.89 290.52 299.54 285.53 297.01 279.01 L 298.03 278.89 C 315.98 278.12 333.99 279.00 351.96 278.47 C 363.85 277.76 373.95 266.97 373.94 255.07 C 374.11 237.25 373.87 219.42 374.05 201.60 Z" opacity="1"/><path fill="#9fa2c7" d="M 203.06 352.78 C 209.44 355.09 214.48 361.11 214.60 368.05 C 214.69 387.04 214.64 406.04 214.62 425.03 C 214.78 433.86 206.85 441.70 198.03 441.51 C 179.34 441.55 160.65 441.54 141.96 441.52 C 134.76 441.68 128.29 436.61 125.91 429.95 C 142.27 429.95 158.64 429.91 175.00 429.97 C 179.65 430.02 184.47 429.84 188.75 427.83 C 197.23 424.15 203.07 415.27 203.02 406.01 C 203.13 388.27 203.03 370.52 203.06 352.78 Z" opacity="1"/><path fill="#9fa2c7" d="M 374.93 353.08 C 381.26 355.63 385.91 362.00 385.73 368.92 C 385.73 387.65 385.76 406.39 385.71 425.12 C 385.81 433.64 378.36 441.32 369.83 441.48 C 350.86 441.58 331.88 441.53 312.91 441.51 C 306.03 441.60 299.76 436.92 297.26 430.61 C 315.20 430.42 333.14 430.63 351.07 430.51 C 360.40 430.50 369.28 424.47 372.84 415.87 C 375.48 409.96 374.69 403.33 374.80 397.05 C 374.87 382.39 374.63 367.73 374.93 353.08 Z" opacity="1"/></g></svg>