<?xml version="1.0" encoding="UTF-8" ?>
<!DOCTYPE svg PUBLIC "-//W3C//DTD SVG 1.1//EN" "http://www.w3.org/Graphics/SVG/1.1/DTD/svg11.dtd">
<svg width="512pt" height="512pt" viewBox="0 0 512 512" version="1.1" xmlns="http://www.w3.org/2000/svg">
<g id="#000000ff">
<path fill="#000000" opacity="1.00" d=" M 8.34 100.39 C 14.69 93.06 24.32 88.82 34.01 89.01 C 130.67 88.99 227.33 89.01 323.99 89.00 C 327.63 89.07 331.33 88.65 334.92 89.43 C 338.10 90.33 339.66 93.55 340.28 96.55 C 339.64 99.51 338.06 102.68 334.92 103.56 C 331.35 104.34 327.67 103.94 324.05 104.01 C 229.69 103.99 135.33 104.01 40.97 103.99 C 35.64 104.07 29.92 103.37 25.04 106.02 C 18.78 109.13 14.76 116.02 15.00 122.99 C 14.97 190.10 15.05 257.21 14.96 324.32 C 14.35 331.39 16.86 339.01 23.03 342.98 C 27.91 346.64 34.25 346.29 40.02 346.21 C 134.42 346.17 228.82 346.23 323.22 346.19 C 321.97 338.97 321.22 331.64 321.55 324.31 C 321.64 322.25 321.78 320.19 321.92 318.14 C 244.94 318.13 167.95 318.13 90.97 318.14 C 87.63 318.11 84.28 318.30 80.95 318.01 C 77.36 317.87 74.19 314.60 74.30 310.99 C 74.23 306.65 74.46 302.19 73.02 298.02 C 69.75 287.27 59.83 278.79 48.59 277.67 C 45.60 277.21 42.06 277.62 39.78 275.23 C 37.72 273.41 37.47 270.53 37.48 267.96 C 37.52 237.98 37.50 208.00 37.48 178.03 C 37.46 175.47 37.87 172.63 39.97 170.90 C 42.12 168.78 45.36 169.10 48.11 168.68 C 61.38 167.66 72.93 156.20 74.06 142.94 C 74.50 140.04 74.16 136.61 76.46 134.39 C 78.59 131.97 82.04 132.04 84.99 132.03 C 96.32 132.09 107.66 132.08 119.00 132.03 C 121.50 132.11 124.30 131.90 126.40 133.53 C 128.47 134.88 129.16 137.38 129.72 139.63 C 129.19 143.47 126.26 147.18 122.08 147.01 C 110.99 147.18 99.90 146.99 88.80 147.07 C 85.73 165.20 70.66 180.32 52.52 183.39 C 52.49 209.90 52.50 236.41 52.51 262.92 C 64.79 265.19 76.00 272.58 82.61 283.22 C 86.40 289.21 88.48 296.11 89.30 303.12 C 167.77 303.14 246.23 303.15 324.70 303.11 C 326.81 295.82 329.58 288.70 333.25 282.05 C 342.25 265.97 355.72 252.33 372.03 243.65 C 381.46 238.88 391.53 235.34 401.98 233.67 C 402.02 216.91 402.01 200.14 401.98 183.38 C 394.83 181.95 387.97 179.04 382.20 174.55 C 373.56 167.80 367.70 157.82 365.70 147.07 C 296.46 147.06 227.23 147.06 157.99 147.07 C 154.43 146.98 150.77 147.46 147.29 146.55 C 144.31 145.56 142.85 142.52 142.28 139.65 C 142.70 135.27 146.41 131.57 150.96 132.07 C 224.34 132.05 297.73 132.08 371.11 132.05 C 374.45 131.81 378.16 133.24 379.46 136.54 C 380.40 139.69 380.19 143.04 380.93 146.23 C 383.48 157.83 393.79 167.33 405.64 168.61 C 408.74 169.12 412.47 168.61 414.79 171.17 C 416.98 173.13 417.01 176.25 417.04 178.97 C 417.01 196.77 416.96 214.57 417.07 232.37 L 417.06 232.56 C 424.62 232.55 432.12 233.62 439.48 235.28 C 439.51 197.86 439.49 160.43 439.50 123.01 C 439.71 116.15 435.88 109.37 429.78 106.20 C 426.17 104.10 421.90 103.94 417.85 103.97 C 398.88 104.01 379.90 104.04 360.92 103.96 C 356.57 104.32 353.30 100.59 352.72 96.55 C 353.31 94.43 353.90 92.09 355.77 90.70 C 358.01 88.70 361.22 89.06 364.00 88.96 C 383.68 89.12 403.36 88.83 423.04 89.10 C 439.62 89.65 454.08 104.36 454.43 120.94 C 454.60 160.76 454.45 200.58 454.50 240.40 C 472.12 248.13 487.39 261.16 497.54 277.53 C 506.56 291.84 511.46 308.60 512.00 325.48 L 512.00 332.22 C 511.04 348.04 506.50 363.70 498.15 377.22 C 487.94 394.07 472.38 407.59 454.29 415.39 C 438.48 422.19 420.80 424.59 403.76 422.17 C 384.15 419.51 365.47 410.50 351.18 396.82 C 340.74 386.94 332.65 374.65 327.54 361.22 C 229.38 361.16 131.21 361.24 33.05 361.18 C 22.91 361.17 13.02 356.13 6.90 348.08 C 2.99 343.11 0.86 337.00 0.00 330.79 L 0.00 119.58 C 0.87 112.56 3.56 105.68 8.34 100.39 M 373.94 260.01 C 356.53 271.25 343.17 289.08 338.55 309.40 C 331.48 339.19 343.22 372.71 367.63 391.24 C 386.38 406.67 412.76 411.50 436.13 405.72 C 455.54 400.96 472.90 388.56 483.82 371.84 C 502.05 344.78 501.39 306.17 481.33 280.26 C 466.82 260.32 442.51 248.22 417.96 247.67 C 402.49 247.26 386.93 251.59 373.94 260.01 Z" />
<path fill="#000000" opacity="1.00" d=" M 215.76 161.88 C 230.60 159.18 246.40 161.83 259.41 169.51 C 271.69 176.67 281.58 187.91 286.86 201.12 C 293.20 216.68 293.03 234.74 286.41 250.18 C 280.56 264.01 269.67 275.59 256.31 282.42 C 238.53 291.55 216.45 291.69 198.62 282.61 C 178.46 272.68 164.24 251.56 163.11 229.05 C 162.08 213.55 166.99 197.78 176.64 185.61 C 186.24 173.33 200.38 164.60 215.76 161.88 M 222.07 176.14 C 213.29 177.08 204.79 180.41 197.74 185.73 C 186.35 194.19 178.93 207.77 178.12 221.95 C 177.20 235.09 181.90 248.48 190.81 258.18 C 200.59 269.03 215.36 275.17 229.96 274.26 C 242.86 273.64 255.35 267.58 263.91 257.93 C 272.42 248.50 277.05 235.69 276.43 223.00 C 275.94 209.77 269.75 196.91 259.79 188.20 C 249.66 179.09 235.60 174.67 222.07 176.14 Z" />
<path fill="#000000" opacity="1.00" d=" M 369.47 320.63 C 370.96 320.31 372.50 320.34 374.03 320.31 C 403.37 320.39 432.71 320.25 462.05 320.38 C 466.12 320.25 469.79 323.89 469.61 327.97 C 469.65 331.97 466.02 335.53 462.00 335.31 C 432.00 335.36 401.99 335.32 371.99 335.33 C 368.51 335.61 365.08 333.31 364.17 329.92 C 362.94 326.05 365.51 321.53 369.47 320.63 Z" />
</g>
<g id="#10bb67ff">
<path fill="#10bb67" opacity="1.00" d=" M 340.28 96.55 C 344.42 96.53 348.57 96.53 352.72 96.55 C 353.30 100.59 356.57 104.32 360.92 103.96 C 379.90 104.04 398.88 104.01 417.85 103.97 C 417.58 144.64 417.85 185.32 417.81 225.99 C 417.70 228.13 417.35 230.25 417.07 232.37 C 416.96 214.57 417.01 196.77 417.04 178.97 C 417.01 176.25 416.98 173.13 414.79 171.17 C 412.47 168.61 408.74 169.12 405.64 168.61 C 393.79 167.33 383.48 157.83 380.93 146.23 C 380.19 143.04 380.40 139.69 379.46 136.54 C 378.16 133.24 374.45 131.81 371.11 132.05 C 297.73 132.08 224.34 132.05 150.96 132.07 C 146.41 131.57 142.70 135.27 142.28 139.65 C 138.09 139.59 133.91 139.59 129.72 139.63 C 129.16 137.38 128.47 134.88 126.40 133.53 C 124.30 131.90 121.50 132.11 119.00 132.03 C 107.66 132.08 96.32 132.09 84.99 132.03 C 82.04 132.04 78.59 131.97 76.46 134.39 C 74.16 136.61 74.50 140.04 74.06 142.94 C 72.93 156.20 61.38 167.66 48.11 168.68 C 45.36 169.10 42.12 168.78 39.97 170.90 C 37.87 172.63 37.46 175.47 37.48 178.03 C 37.50 208.00 37.52 237.98 37.48 267.96 C 37.47 270.53 37.72 273.41 39.78 275.23 C 42.06 277.62 45.60 277.21 48.59 277.67 C 59.83 278.79 69.75 287.27 73.02 298.02 C 74.46 302.19 74.23 306.65 74.30 310.99 C 74.19 314.60 77.36 317.87 80.95 318.01 C 84.28 318.30 87.63 318.11 90.97 318.14 C 167.95 318.13 244.94 318.13 321.92 318.14 C 321.78 320.19 321.64 322.25 321.55 324.31 C 272.71 324.60 223.85 324.36 175.01 324.43 C 121.66 324.36 68.31 324.59 14.96 324.32 C 15.05 257.21 14.97 190.10 15.00 122.99 C 14.76 116.02 18.78 109.13 25.04 106.02 C 29.92 103.37 35.64 104.07 40.97 103.99 C 135.33 104.01 229.69 103.99 324.05 104.01 C 327.67 103.94 331.35 104.34 334.92 103.56 C 338.06 102.68 339.64 99.51 340.28 96.55 Z" />
</g>
<g id="#0d9653ff">
<path fill="#0d9653" opacity="1.00" d=" M 417.85 103.97 C 421.90 103.94 426.17 104.10 429.78 106.20 C 435.88 109.37 439.71 116.15 439.50 123.01 C 439.49 160.43 439.51 197.86 439.48 235.28 C 432.12 233.62 424.62 232.55 417.06 232.56 L 417.07 232.37 C 417.35 230.25 417.70 228.13 417.81 225.99 C 417.85 185.32 417.58 144.64 417.85 103.97 Z" />
<path fill="#0d9653" opacity="1.00" d=" M 14.96 324.32 C 68.31 324.59 121.66 324.36 175.01 324.43 C 223.85 324.36 272.71 324.60 321.55 324.31 C 321.22 331.64 321.97 338.97 323.22 346.19 C 228.82 346.23 134.42 346.17 40.02 346.21 C 34.25 346.29 27.91 346.64 23.03 342.98 C 16.86 339.01 14.35 331.39 14.96 324.32 Z" />
</g>
<g id="#32d736ff">
<path fill="#32d736" opacity="1.00" d=" M 129.72 139.63 C 133.91 139.59 138.09 139.59 142.28 139.65 C 142.85 142.52 144.31 145.56 147.29 146.55 C 150.77 147.46 154.43 146.98 157.99 147.07 C 227.23 147.06 296.46 147.06 365.70 147.07 C 367.70 157.82 373.56 167.80 382.20 174.55 C 381.55 187.04 382.04 199.55 381.89 212.06 C 381.76 219.23 382.77 226.88 379.47 233.55 C 377.48 237.24 374.58 240.34 372.03 243.65 C 355.72 252.33 342.25 265.97 333.25 282.05 C 328.54 282.69 323.80 283.13 319.05 283.08 C 304.72 283.02 290.39 283.07 276.06 283.05 C 269.47 283.00 262.85 283.48 256.31 282.42 C 269.67 275.59 280.56 264.01 286.41 250.18 C 293.03 234.74 293.20 216.68 286.86 201.12 C 281.58 187.91 271.69 176.67 259.41 169.51 C 246.40 161.83 230.60 159.18 215.76 161.88 C 200.38 164.60 186.24 173.33 176.64 185.61 C 166.99 197.78 162.08 213.55 163.11 229.05 C 164.24 251.56 178.46 272.68 198.62 282.61 C 189.43 283.45 180.20 282.92 170.99 283.05 C 141.53 283.16 112.07 282.84 82.61 283.22 C 76.00 272.58 64.79 265.19 52.51 262.92 C 52.50 236.41 52.49 209.90 52.52 183.39 C 70.66 180.32 85.73 165.20 88.80 147.07 C 99.90 146.99 110.99 147.18 122.08 147.01 C 126.26 147.18 129.19 143.47 129.72 139.63 Z" />
</g>
<g id="#2ab52dff">
<path fill="#2ab52d" opacity="1.00" d=" M 382.20 174.55 C 387.97 179.04 394.83 181.95 401.98 183.38 C 402.01 200.14 402.02 216.91 401.98 233.67 C 391.53 235.34 381.46 238.88 372.03 243.65 C 374.58 240.34 377.48 237.24 379.47 233.55 C 382.77 226.88 381.76 219.23 381.89 212.06 C 382.04 199.55 381.55 187.04 382.20 174.55 Z" />
<path fill="#2ab52d" opacity="1.00" d=" M 198.62 282.61 C 216.45 291.69 238.53 291.55 256.31 282.42 C 262.85 283.48 269.47 283.00 276.06 283.05 C 290.39 283.07 304.72 283.02 319.05 283.08 C 323.80 283.13 328.54 282.69 333.25 282.05 C 329.58 288.70 326.81 295.82 324.70 303.11 C 246.23 303.15 167.77 303.14 89.30 303.12 C 88.48 296.11 86.40 289.21 82.61 283.22 C 112.07 282.84 141.53 283.16 170.99 283.05 C 180.20 282.92 189.43 283.45 198.62 282.61 Z" />
</g>
<g id="#c5c9f7ff">
<path fill="#c5c9f7" opacity="1.00" d=" M 222.07 176.14 C 235.60 174.67 249.66 179.09 259.79 188.20 C 269.75 196.91 275.94 209.77 276.43 223.00 C 277.05 235.69 272.42 248.50 263.91 257.93 C 255.35 267.58 242.86 273.64 229.96 274.26 C 215.36 275.17 200.59 269.03 190.81 258.18 C 181.90 248.48 177.20 235.09 178.12 221.95 C 178.93 207.77 186.35 194.19 197.74 185.73 C 204.79 180.41 213.29 177.08 222.07 176.14 Z" />
</g>
<g id="#fd481eff">
<path fill="#fd481e" opacity="1.00" d=" M 373.94 260.01 C 386.93 251.59 402.49 247.26 417.96 247.67 C 442.51 248.22 466.82 260.32 481.33 280.26 C 481.43 282.83 481.64 285.41 482.22 287.93 C 486.37 305.00 485.06 323.31 478.77 339.70 C 471.44 358.58 457.41 374.82 439.68 384.63 C 424.11 393.43 405.78 397.18 388.01 395.29 C 381.08 394.67 374.39 392.75 367.63 391.24 C 343.22 372.71 331.48 339.19 338.55 309.40 C 343.17 289.08 356.53 271.25 373.94 260.01 M 369.47 320.63 C 365.51 321.53 362.94 326.05 364.17 329.92 C 365.08 333.31 368.51 335.61 371.99 335.33 C 401.99 335.32 432.00 335.36 462.00 335.31 C 466.02 335.53 469.65 331.97 469.61 327.97 C 469.79 323.89 466.12 320.25 462.05 320.38 C 432.71 320.25 403.37 320.39 374.03 320.31 C 372.50 320.34 370.96 320.31 369.47 320.63 Z" />
</g>
<g id="#d63d19ff">
<path fill="#d63d19" opacity="1.00" d=" M 481.33 280.26 C 501.39 306.17 502.05 344.78 483.82 371.84 C 472.90 388.56 455.54 400.96 436.13 405.72 C 412.76 411.50 386.38 406.67 367.63 391.24 C 374.39 392.75 381.08 394.67 388.01 395.29 C 405.78 397.18 424.11 393.43 439.68 384.63 C 457.41 374.82 471.44 358.58 478.77 339.70 C 485.06 323.31 486.37 305.00 482.22 287.93 C 481.64 285.41 481.43 282.83 481.33 280.26 Z" />
</g>
</svg>
