<?xml version="1.0" encoding="UTF-8"?>
<svg id="Camada_2" data-name="Camada 2" xmlns="http://www.w3.org/2000/svg" viewBox="0 0 2480.52 3001.38">
  <defs>
    <style>
      .cls-1 {
        fill: #fff;
      }

      .cls-2 {
        opacity: .5;
      }

      .cls-3 {
        opacity: .2;
      }

      .cls-4 {
        fill: #ff6464;
      }

      .cls-5 {
        opacity: .35;
      }

      .cls-6 {
        opacity: .3;
      }

      .cls-7 {
        fill: #020772;
      }

      .cls-8 {
        fill: none;
      }

      .cls-9 {
        fill: #000072;
      }

      .cls-10 {
        fill: #f70200;
      }

      .cls-11 {
        opacity: .25;
      }
    </style>
  </defs>
  <g id="Layer_1" data-name="Layer 1">
    <g>
      <g>
        <g>
          <g>
            <path class="cls-1" d="M1663.93,1349.57s-388.87,138.96-1070.29,38.53c-2.6,1.09-5.68,.76-7.99-1.16-.49-.41-49.42-40.77-125.41-62.76-101.45-29.36-200.51-13.82-294.42,46.18C-5.71,1479.95,8.42,1712.5,53.48,1806.95c16.07,33.69,35.55,50.47,52.07,44.99,39.97-13.32,57.07-47.89,72.16-78.39,15.16-30.64,29.56-59.55,63.85-57.13,32.74,2.34,49.11,32.54,63.57,59.19,18.22,33.59,27.68,46.26,48.23,35.98,15.9-7.95,30.51-26.41,45.98-45.95,33.46-42.28,74.82-94.45,148.9-51.9,3.37-11.91,5.9-24.55,7.63-37.03,2.25-15.96,3.27-32.15,2.92-48.35,.01-4.06-.1-8.11-.44-12.15-.29-4.04-.45-8.11-.85-12.15-1.03-8.05-1.75-16.19-3.45-24.16-2.63-16.13-7.46-31.79-12.73-47.34,6.47,15.05,12.59,30.43,16.53,46.49,2.35,7.94,3.74,16.1,5.43,24.22,.74,4.08,1.22,8.19,1.85,12.3,.67,4.1,1.11,8.23,1.43,12.37,1.67,16.54,1.95,33.25,.93,49.93-1.02,16.45-3.01,32.49-7.1,49.13-.01,.08,0,.16-.01,.23-.2,.95-20.49,96.09-55.89,222.14-3.67,13.05-7.49,25.87-11.25,38.45-32.78,109.76-58.67,196.44,71.65,262.83,64.96,33.09,119.83,28.58,168.25,24.6,62.42-5.12,116.32-9.55,161.08,71.52,25.01,45.31,39.11,96.36,52.74,145.73,27.64,100.08,49.47,179.14,147.69,159.29,79.82-16.11,114.45-112.69,145.02-197.91,27.48-76.64,51.2-142.8,103.58-135.36l4.99,.71c46.24,6.62,69.46,9.94,85.94,3.17,15.92-6.55,27.79-23.32,53.12-60.62,28.88-42.51,77.57-48.86,120.52-54.47,37.29-4.87,69.49-9.07,81.99-34.66,30.92-63.32,22.1-155.08-24.21-251.79-46.08-79.78-60.95-190.59-62.25-200.81-.01-.06-.04-.12-.04-.18-.03-.22-.05-.45-.06-.67-.68-15.51-.66-30.64-.29-45.92,.39-15.24,1.26-30.46,2.59-45.62,1.4-15.16,3.4-30.26,5.99-45.23,2.78-14.95,6.31-29.74,10.89-44.15-3.34,14.77-5.56,29.7-7.04,44.68-1.29,15.01-1.98,30.04-2.08,45.08-.03,15.04,.41,30.06,1.3,45.05,.68,11.14,1.68,22.31,2.88,33.35,24.57-11.29,86.68-32.29,126.94,20.17,5.51,7.18,10.81,14.27,15.94,21.13,42.01,56.19,65.52,84.52,99.56,62.84,17.63-11.22,28.03-32.72,37.19-51.7,9.73-20.12,18.13-37.5,33.85-41.4,9.25-2.3,19.3,.66,30.69,9.02,19.27,14.17,30.49,37.21,41.32,59.49,18.65,38.31,33.36,68.61,80.86,56.51,22.39-5.69,35.67-27.27,42.87-44.37,29.75-70.69,19.98-219.26-47.68-336.02-82.47-142.32-237.63-184.38-415.07-112.52Z"/>
            <g>
              <path class="cls-7" d="M1065.61,2678.69c-91.93,.01-117.13-91.27-141.59-179.85-13.27-48.04-26.99-97.71-50.65-140.58-37.34-67.63-77.52-64.33-138.33-59.33-49.02,4.03-110.01,9.04-180.98-27.11-147.96-75.38-116.71-180.01-83.62-290.8,3.72-12.47,7.51-25.16,11.14-38.08,28.25-100.55,46.78-181.18,53.11-209.62-52.22-29.32-78.88-.75-116.74,47.08-17.15,21.67-33.35,42.15-53.97,52.46-43.14,21.58-65.16-19.04-79.74-45.91-14.88-27.43-26.01-45.51-44.38-46.82-16.71-1.31-24.93,11.78-40.86,43.96-16.29,32.94-36.58,73.94-85.94,90.39-13.94,4.64-49.7,8.35-81.02-57.3-22.87-47.93-41.84-133.58-26.48-230.2,11.49-72.31,46.4-172.06,147.47-236.63,124.72-79.69,239.84-70.53,314.45-48.8,80.59,23.46,131.3,65.4,133.42,67.17,6.77,5.67,7.66,15.74,2,22.51-5.66,6.76-15.73,7.66-22.5,2.01-.71-.59-48.74-39.99-123.06-61.35-98.88-28.42-195.48-13.15-287.1,45.39C2.97,1484.14,16.88,1711.18,60.89,1803.41c13.69,28.7,30.21,44.72,42.06,40.74,36.73-12.24,52.32-43.76,67.4-74.24,14.97-30.25,32.11-64.52,71.78-61.67,37.23,2.66,55.51,36.38,70.21,63.47,19.29,35.57,24.98,38.73,37.34,32.56,14.27-7.13,28.33-24.9,43.21-43.71,34.89-44.09,82.65-104.47,168.59-48.33,5.52,3.61,8.26,10.24,6.89,16.69-.2,.95-20.54,96.35-56.02,222.66-3.68,13.09-7.52,25.95-11.29,38.58-32.92,110.24-56.71,189.89,67.51,253.17,62.88,32.03,116.52,27.63,163.85,23.74,62.54-5.15,121.61-9.99,168.93,75.73,25.49,46.16,39.72,97.69,53.48,147.52,30.29,109.68,51.7,170.88,138.15,153.42,75.28-15.2,109.09-109.47,138.92-192.64,27.5-76.7,53.49-149.09,112.47-140.71l5,.71c43.37,6.21,67.25,9.62,81.65,3.7,13.74-5.65,25.09-21.75,49.46-57.63,30.94-45.56,81.57-52.17,126.25-58,34.94-4.56,65.12-8.5,75.68-30.13,29.79-60.99,21-150.03-24.1-244.36-48.02-83.34-62.61-199.39-63.21-204.3-.76-6.24,2.2-12.33,7.57-15.6,31.94-19.39,104.02-40.83,148.24,16.8,5.54,7.22,10.86,14.33,16.02,21.23,43.09,57.62,61.88,77.79,88.57,60.83,15.67-9.97,25.52-30.36,34.21-48.34,10.19-21.07,19.8-40.97,39.25-45.8,11.81-2.92,24.07,.47,37.53,10.38,20.9,15.37,32.57,39.33,43.85,62.5,20,41.11,32.25,62.1,71.45,52.14,19.12-4.86,30.85-24.22,37.33-39.6,28.98-68.88,19.17-214.15-47.22-328.73-80.22-138.45-231.59-179.21-404.89-109.03-8.18,3.32-17.5-.63-20.81-8.81-3.31-8.18,.63-17.5,8.82-20.81,189.41-76.71,355.6-30.86,444.54,122.63,72.28,124.73,81.68,279.54,49.02,357.15-13.32,31.65-33.69,51.77-58.92,58.18-66.17,16.85-89.42-30.83-108.06-69.13-10.02-20.59-19.49-40.04-34.04-50.74-6.29-4.62-9.88-5.38-10.9-5.11-4.9,1.22-12.89,17.74-18.17,28.68-10.02,20.74-22.5,46.56-45.83,61.4-54.2,34.5-91.67-15.61-131.32-68.65-5.08-6.79-10.32-13.8-15.77-20.9-29.89-38.94-77.27-22.92-97.15-13.68,4.78,30.41,21.08,118.28,57.88,181.85,.21,.36,.41,.73,.58,1.1,49.58,103.4,58.42,202.82,24.26,272.75-18.11,37.07-59.87,42.52-100.26,47.8-39.85,5.2-81.06,10.58-103.95,44.26-54.11,79.66-60.17,82.2-162.07,67.62l-4.99-.71c-33.12-4.73-54.88,55.78-77.87,119.86-31.06,86.62-69.73,194.42-162.68,213.18-12.14,2.45-23.35,3.61-33.7,3.61Z"/>
              <path class="cls-7" d="M537.54,1720.7c13.83-36.71,18.68-77.01,16.9-116.23-1.34-24.46-5.86-48.35-13.14-71.92,11.05,22.17,19.67,45.92,25.01,70.29,7.14,33.19,9.13,67.39,5.76,101.3-1.03,9.1-1.99,17.09-4.13,26.38-1.99,8.63-10.61,14.01-19.24,12.02-9.61-2.12-15.06-12.82-11.17-21.84h0Z"/>
              <path class="cls-7" d="M1595.05,1719.98c.06-31.37,2.34-61.67,6.36-92.52,2.09-15.23,4.78-30.36,8.06-45.31,3.46-14.93,7.68-29.64,12.92-43.88-7.9,44.55-6.24,89.96-1.66,134.69,1.6,14.82,3.6,29.93,6.16,44.14,3.12,22.83-30.79,25.97-31.85,2.88h0Z"/>
            </g>
            <g>
              <path class="cls-8" d="M450.14,1371.45c-70.04-64.83-175.01-48.86-186.07-46.96-33.28,10.1-66.07,25.31-98.25,45.87C-5.71,1479.95,8.42,1712.5,53.48,1806.95c16.07,33.69,35.55,50.47,52.07,44.99,39.97-13.32,57.07-47.89,72.16-78.39,15.16-30.64,29.56-59.55,63.85-57.13,32.74,2.34,49.11,32.54,63.57,59.19,18.22,33.59,27.68,46.26,48.23,35.98,15.9-7.95,30.51-26.41,45.98-45.95,31.92-40.34,71.06-89.62,138.92-57.11v-.04c13.41-80.74-14.11-268.55-88.11-337.05Z"/>
              <path class="cls-8" d="M2079,1462.09c-51.51-88.89-131.38-138.67-227.32-146.01-39.77,5.5-100.76,21.89-142.4,70.25-66.5,77.22-86.87,308.89-86.87,308.89v9.04c27.17-11.42,84.22-26.91,122,22.33,5.51,7.18,10.81,14.27,15.94,21.13,42.01,56.19,65.52,84.52,99.56,62.84,17.63-11.22,28.03-32.72,37.19-51.7,9.73-20.12,18.13-37.5,33.85-41.4,9.25-2.3,19.3,.66,30.69,9.02,19.27,14.17,30.49,37.21,41.32,59.49,18.65,38.31,33.36,68.61,80.86,56.51,22.39-5.69,35.67-27.27,42.87-44.37,29.75-70.69,19.98-219.26-47.68-336.02Z"/>
              <g class="cls-11">
                <path class="cls-7" d="M1622.4,1741.2v-20.05c-1.11,.54-2.13,1.06-3.01,1.52,.59,4.08,1.58,10.46,3.01,18.53Z"/>
              </g>
            </g>
          </g>
          <g class="cls-11">
            <path class="cls-7" d="M721.49,2276.18s-170.49-30.02-205.93-105.84c-44.92-96.11,48.19-408.99,47.69-421.86-.5-12.87,1.86-132.93,1.86-132.93l-9.51-42.96s43.62,64.35,37.9,153.01c-5.72,88.66-52.2,380.39,2.15,417.57,54.34,37.18,117.26,35.75,158.73-74.36,41.47-110.11,67.21-193.04,78.65-144.43,11.44,48.61,62.92,230.23,134.42,378.95s75.79,250.25,138.71,233.09c62.92-17.16,104.39-394.69,147.29-454.75,42.9-60.06,71.5,122.98,107.25,157.3,35.75,34.32,100.1-154.44,121.55-147.29,21.45,7.15,72.56,65.78,126.37,48.62,53.81-17.16,43.43-121.55,0-211.64-43.43-90.09-27.7-280.29,.9-336.06l5.01,65.07s63.64-34.32,102.25-13.59c38.61,20.74,83.66,85.8,105.11,74.36,21.45-11.44,15.73-195.2,40.76-188.05,25.03,7.15,158.73,211.37,197.34,210.79,38.61-.58,37.18-179.33,37.18-179.33,0,0,42.19,130.85,16.45,216.65s-77.49,67.89-92.32,41.26c-14.83-26.63-57.44-105.79-91.42-93.72-33.98,12.07-47.92,101.62-95.65,96.8-47.73-4.83-100.28-132.38-156.05-125.49-55.77,6.9-66.86,24.13-62.66,38.61,4.21,14.48,28.08,119.94,67.89,205.65,39.81,85.71,42.28,215.65,6.72,244.71-35.55,29.05-132.13,29.04-167.5,52.24-35.37,23.21-44.6,86.37-89.32,92.36-44.72,6-104.42-14.76-131.46,10.8-27.04,25.56-74.14,297.12-204.99,313.12-130.85,15.99-124.7-85.14-161.74-175.79s-42.76-219.32-213.64-202.89Z"/>
          </g>
          <g class="cls-11">
            <path class="cls-7" d="M559.89,1668.41s-57.2-31.1-89.38-19.31c-32.18,11.8-90.09,69.71-114.76,67.57-24.67-2.14-54.7-203.78-68.64-193.05-13.94,10.73-121.19,194.24-144.79,193.11-23.6-1.13-76.15-87.65-76.15-87.65,0,0-32.8,173.65,39.37,222.86,21.76,14.88,67.88-50,85.04-93.44,17.16-43.44,68.35-45.11,89.64-9.18,21.29,35.93,35.85,90.69,76.6,69.24s81.2-103.17,121.84-110.57c40.64-7.41,76.57,23.16,76.57,23.16l4.65-62.74Z"/>
          </g>
        </g>
        <g>
          <path class="cls-1" d="M403.88,1192.4c10.29,21.98,21.44,40.45,32.52,55.93,16.5,18.31,34.12,35.47,52.46,51.69,15.53,13.55,31.37,26.74,47.9,39.09,16.42,12.48,33.51,24.2,51.43,34.57,17.92,10.33,36.25,20.1,55.28,28.38,9.38,4.46,19.14,8.01,28.72,12.03,9.8,3.42,19.44,7.39,29.4,10.36,39.48,13.13,80.33,22.46,121.76,28.18,.43,.06,.72,.45,.67,.88-.06,.41-.43,.7-.84,.67-18.29-1.61-36.54-3.96-54.69-7l.28,.09s166.04,51.95,317.62,51.95c130.03,0,256.38-38.2,289.7-49.07-11.91,1.58-23.84,2.93-35.79,4.03-.43,.04-.81-.28-.85-.7-.04-.42,.26-.79,.67-.84,49.85-6.67,99.11-17.44,146.67-33.11l17.82-5.87,17.56-6.61,8.77-3.3,8.62-3.67,17.22-7.36c22.6-10.6,44.85-21.92,65.99-35.09,22.04-13.61,42.85-28.94,62.58-45.52,.51-.84,1.18-1.61,2.02-2.23,2.02-1.5,3.93-3.05,5.9-4.57,15.33-13.35,30.01-27.41,44.01-42.08,11.57-12.03,22.4-24.74,32.71-37.9,67.26-95.44,81.56-210.6,79.42-300.34-3.08-129.51-39.96-235.86-40.33-236.92-.48-1.37-.57-2.85-.25-4.26,51.28-230.76,66.43-596.12-63.9-647.46-135.7-53.45-399.26,161.75-401.91,163.93-2.03,1.67-4.78,2.2-7.29,1.41-245.65-77.68-466.9-.88-469.1-.09-2.87,1.03-6.1,.27-8.22-1.94C756,92.87,529.53-11.54,459.78,34.78c-157.9,213.67-67.45,623.41-66.52,627.53,.26,1.16,.26,2.36-.02,3.52-65.71,276.01-30.49,438.7,10.64,526.58Zm968.99-512.56c47.46,0,86.07,43.9,86.07,97.87s-38.61,97.87-86.07,97.87c-8.92,0-17.53-1.56-25.63-4.43,3.35,2.75,6.83,5.36,10.51,7.74,17.18,11.28,36.94,18.97,57.33,24.25,20.42,5.41,41.61,8.24,62.92,10.01,.43,.03,.75,.41,.72,.84-.03,.4-.36,.7-.75,.72-21.46,.7-43.07-.47-64.53-3.97-21.33-3.91-42.61-10.34-62.12-21.2-9.81-5.3-19.06-11.86-27.53-19.46-8.41-7.65-15.56-16.85-20.81-27-4.55-8.82-7.72-18.26-9.57-27.87-4.23-11.56-6.59-24.22-6.59-37.5,0-53.96,38.61-97.87,86.07-97.87Zm-645.07,233.3c21.31-1.78,42.5-4.6,62.92-10.01,20.38-5.28,40.15-12.96,57.33-24.25,3.67-2.38,7.16-4.99,10.51-7.74-8.1,2.88-16.71,4.43-25.63,4.43-47.46,0-86.07-43.9-86.07-97.87s38.61-97.87,86.07-97.87,86.07,43.9,86.07,97.87c0,13.27-2.36,25.92-6.58,37.47-1.86,9.62-5.02,19.07-9.58,27.9-5.26,10.15-12.4,19.34-20.81,27-8.46,7.6-17.72,14.16-27.53,19.46-19.51,10.86-40.79,17.29-62.12,21.2-21.46,3.49-43.07,4.67-64.53,3.97-.43-.01-.77-.37-.75-.8,.01-.4,.33-.72,.72-.75Z"/>
          <ellipse class="cls-7" cx="1372.87" cy="777.71" rx="70.52" ry="82.32"/>
          <path class="cls-7" d="M903.44,777.71c0-45.39-31.63-82.32-70.51-82.32s-70.52,36.93-70.52,82.32,31.63,82.32,70.52,82.32,70.51-36.93,70.51-82.32Z"/>
          <path class="cls-4" d="M727.83,914.7c21.46,.7,43.07-.47,64.53-3.97,21.33-3.91,42.61-10.34,62.12-21.2,9.81-5.3,19.06-11.86,27.53-19.46,8.41-7.65,15.56-16.85,20.81-27,4.56-8.83,7.73-18.28,9.58-27.9,4.23-11.55,6.58-24.2,6.58-37.47,0-53.96-38.61-97.87-86.07-97.87s-86.07,43.9-86.07,97.87,38.61,97.87,86.07,97.87c8.92,0,17.53-1.56,25.63-4.43-3.35,2.75-6.84,5.36-10.51,7.74-17.18,11.28-36.95,18.97-57.33,24.25-20.42,5.41-41.61,8.24-62.92,10.01-.39,.03-.71,.35-.72,.75-.01,.43,.32,.79,.75,.8Zm105.09-54.67c-38.88,0-70.52-36.93-70.52-82.32s31.63-82.32,70.52-82.32,70.51,36.93,70.51,82.32-31.63,82.32-70.51,82.32Z"/>
          <path class="cls-4" d="M1302.97,843.07c5.26,10.15,12.4,19.34,20.81,27,8.46,7.6,17.72,14.16,27.53,19.46,19.51,10.86,40.79,17.29,62.12,21.2,21.46,3.49,43.07,4.67,64.53,3.97,.39-.01,.72-.32,.75-.72,.03-.43-.29-.8-.72-.84-21.31-1.78-42.5-4.6-62.92-10.01-20.38-5.28-40.15-12.96-57.33-24.25-3.67-2.38-7.16-4.99-10.51-7.74,8.1,2.88,16.71,4.43,25.63,4.43,47.46,0,86.07-43.9,86.07-97.87s-38.61-97.87-86.07-97.87-86.07,43.9-86.07,97.87c0,13.28,2.36,25.94,6.59,37.5,1.86,9.61,5.02,19.05,9.57,27.87Zm69.9-147.68c38.88,0,70.52,36.93,70.52,82.32s-31.63,82.32-70.52,82.32-70.52-36.93-70.52-82.32,31.63-82.32,70.52-82.32Z"/>
          <g class="cls-11">
            <path class="cls-7" d="M428.11,518.21c.47-6.44-40.28-357.15,58.39-419.36,98.67-62.21,233.81,169.05,233.81,169.05,0,0-152.3-18.89-160.88-11.39-8.58,7.51-131.32,261.7-131.32,261.7Z"/>
          </g>
          <g class="cls-11">
            <path class="cls-7" d="M1767.73,522.18c-.47-6.44,42.73-361.11-55.94-423.32-98.67-62.21-233.81,169.05-233.81,169.05,0,0,152.3-18.89,160.88-11.39,8.58,7.51,128.88,265.66,128.88,265.66Z"/>
          </g>
          <g class="cls-11">
            <path class="cls-7" d="M743.19,911.47s-78.65-115.76,0-231.63c78.65-115.87,168.2,44.3,168.2,44.3,0,0-54.87-71.32-114.4-21.99-59.52,49.34-32.37,135.05-32.37,135.05,0,0,47.39,36.24,54.98,37.2,7.59,.96,34.64,8.03,34.64,8.03,0,0-76.91,32.97-111.05,29.04Z"/>
          </g>
          <g class="cls-11">
            <path class="cls-7" d="M1462.6,911.47s78.65-115.76,0-231.63c-78.65-115.87-168.2,44.3-168.2,44.3,0,0,54.87-71.32,114.4-21.99,59.52,49.34,32.37,135.05,32.37,135.05,0,0-47.39,36.24-54.98,37.2-7.59,.96-34.64,8.03-34.64,8.03,0,0,76.91,32.97,111.05,29.04Z"/>
          </g>
          <g class="cls-11">
            <path class="cls-7" d="M1100.98,1141.79s43.33-.8,74.07,35.67c0,0-44.54-12.87-74.47-12.87s-65.67,12.87-65.67,12.87c0,0,30.61-35.67,66.07-35.67Z"/>
          </g>
          <g>
            <path class="cls-7" d="M505.77,1340.68c-2.32,0-4.68-.51-6.92-1.59-2.75-1.33-67.85-33.65-115.83-135.19-62.47-132.19-67.09-313.87-13.74-540-9.63-44.57-86.98-430.7,72.21-644.36,1.02-1.37,2.26-2.56,3.65-3.54,84.07-58.89,318.16,56.16,423.29,159.98,45.97-14.36,243.07-67.29,466.23,.49,44.03-35.05,281.59-216.37,418.97-162.25,69.85,27.52,108.61,122.96,115.21,283.68,5.67,138.1-14.63,289.35-35.87,386.66,7.19,21.82,37.26,119.71,40.17,239.42,4.34,178.37-55,318.41-171.62,404.96-7.09,5.27-17.1,3.78-22.36-3.31-5.26-7.09-3.78-17.1,3.31-22.36,109.27-81.1,162.67-208.17,158.74-377.69-2.98-128.28-39.51-233.77-39.88-234.82-.99-2.82-1.17-5.85-.52-8.76,52.67-237.02,61.5-590.62-58.9-638.05-131.15-51.67-391.07,160.49-393.68,162.63-4.17,3.44-9.79,4.54-14.98,2.9-243.04-76.85-461.69-.96-463.88-.18-5.93,2.11-12.54,.54-16.89-3.99C754.82,103.49,532.53-.84,465.5,40.85c-154.44,210.92-65.16,615.56-64.23,619.64,.54,2.38,.53,4.86-.04,7.23-64.91,272.61-30.71,433.12,9.41,519.77,42.93,92.71,101.59,122.55,102.18,122.84,7.89,3.9,11.17,13.45,7.3,21.36-2.77,5.67-8.44,8.98-14.35,8.98Z"/>
            <path class="cls-7" d="M405.07,1208.76c42.37,46.68,88.03,85.16,136.45,123.76,47.55,38.92,103.53,67.34,161.29,88,38.91,14.12,79.44,24.07,120.65,31.28,.87,.15,1.46,.98,1.31,1.85-.14,.81-.86,1.37-1.66,1.33-41.98-2.17-83.82-8.87-124.98-19.18-41.14-10.45-81.18-25.88-119.22-45.55-19.07-9.74-37.76-20.4-55.9-32.07-36.2-23.47-67.21-54.83-91.46-90.43-12.03-17.86-22.72-36.73-29.29-57.49-.5-1.61,1.72-2.93,2.82-1.5h0Z"/>
            <path class="cls-7" d="M1825,1142.27c-14.84,75.39-66.36,144.48-127.12,190.06-52.15,37.72-109.79,67.9-170.95,87.64-60.2,19.69-123.73,30.98-186.53,35.01-.88,.06-1.64-.62-1.69-1.5-.05-.83,.54-1.55,1.34-1.68,49.62-8.17,98.59-19.56,145.56-36.22,46.49-15.97,92.35-37.38,133.82-63.61,41.37-26.41,77.3-59.81,111.81-94.3,34.15-34.68,65.08-72.97,90.72-116.37,.68-1.57,3.42-.81,3.05,.96h0Z"/>
            <path class="cls-7" d="M832.92,883.79c-51.98,0-94.28-47.59-94.28-106.07s42.29-106.07,94.28-106.07,94.27,47.59,94.27,106.07-42.29,106.07-94.27,106.07Zm0-180.19c-34.36,0-62.31,33.25-62.31,74.11s27.95,74.11,62.31,74.11,62.31-33.25,62.31-74.11-27.95-74.11-62.31-74.11Z"/>
            <path class="cls-7" d="M912.81,777.56c10.1,22.05,7.18,47.88-2.85,69.57-20.37,41.72-73.98,61.79-116.73,67.62-21.98,2.67-43.85,2.76-65.38,.78-.88-.08-1.54-.86-1.45-1.75,.07-.76,.66-1.34,1.38-1.45,21.24-3.06,42.17-6.97,62.07-13.2,19.37-6.15,38.36-14.26,54.8-25.85,15.91-11,26.25-26.88,37.52-41.93,10.81-15.11,19.5-32.51,27.46-53.47,.34-1.48,2.57-1.73,3.18-.31h0Z"/>
            <path class="cls-7" d="M1372.87,883.79c-51.98,0-94.28-47.59-94.28-106.07s42.29-106.07,94.28-106.07,94.28,47.59,94.28,106.07-42.29,106.07-94.28,106.07Zm0-180.19c-34.36,0-62.31,33.25-62.31,74.11s27.95,74.11,62.31,74.11,62.31-33.25,62.31-74.11-27.95-74.11-62.31-74.11Z"/>
            <path class="cls-7" d="M1296.17,777.87c7.95,20.97,16.65,38.36,27.46,53.47,11.27,15.05,21.61,30.93,37.52,41.93,16.44,11.6,35.42,19.7,54.8,25.85,19.9,6.24,40.83,10.14,62.07,13.2,.88,.12,1.5,.93,1.38,1.81-.1,.75-.72,1.31-1.45,1.38-21.53,1.98-43.39,1.89-65.38-.78-42.74-5.82-96.36-25.9-116.73-67.61-10.03-21.7-12.95-47.52-2.85-69.57,.66-1.4,2.81-1.18,3.18,.31h0Z"/>
            <path class="cls-7" d="M1099.98,889.97s-57.92-36.47-50.77-51.48c7.15-15.02,73.65-25.74,102.96,0,5.72,17.97-52.2,51.48-52.2,51.48Z"/>
            <path class="cls-7" d="M955.91,1093.53c-2.59-14.23-.17-28.89,5.7-42.11,16.6-37.39,63.53-124.98,138.98-124.98,95.92,0,140.96,107.97,145.97,141.57,5.01,33.61-25.74,64.35-55.06,56.49-29.32-7.87-46.69-54.34-90.91-54.34s-62.1,56.83-106.43,55.58c-26.6-.75-35.44-16.75-38.25-32.21Z"/>
            <path class="cls-7" d="M434.3,582.51s-32.89-386.11,52.91-453.32,233.09,138.71,233.09,138.71c0,0-181.61,121.55-286.01,314.61Z"/>
            <path class="cls-7" d="M1763.98,582.51s32.89-386.11-52.91-453.32-233.09,138.71-233.09,138.71c0,0,181.61,121.55,286.01,314.61Z"/>
          </g>
          <ellipse class="cls-1" cx="860.96" cy="752.19" rx="28.04" ry="42.89"/>
          <g class="cls-5">
            <ellipse class="cls-1" cx="803.88" cy="808.63" rx="17.72" ry="32.58" transform="translate(-296.61 510.28) rotate(-30)"/>
          </g>
          <ellipse class="cls-1" cx="1338.99" cy="752.19" rx="28.04" ry="42.89"/>
          <g class="cls-5">
            <ellipse class="cls-1" cx="1396.08" cy="808.63" rx="32.58" ry="17.72" transform="translate(-2.25 1613.35) rotate(-60)"/>
          </g>
          <g class="cls-11">
            <path class="cls-7" d="M474.21,1302.2s-97.11-202.95-79.95-348.81c0,0,126.51,378.06,708.8,378.06s700.49-336.59,700.49-336.59c0,0,37.86,298.81-281.37,412.17-319.24,113.36-699.12,63.83-866.44,5.59-115.61-40.24-181.53-110.43-181.53-110.43Z"/>
          </g>
        </g>
      </g>
      <g class="cls-3">
        <ellipse class="cls-7" cx="1083.36" cy="2909.62" rx="637.69" ry="91.76"/>
      </g>
      <g>
        <path class="cls-10" d="M2085.61,576.68c-22.58-36.95-33.72-81.31-28.96-127.71,11.56-112.63,112.25-194.57,224.88-183,112.63,11.56,194.57,112.25,183,224.88-11.56,112.63-112.25,194.57-224.88,183-31.33-3.22-60.27-13.35-85.5-28.69l-94.87,21.28,26.33-89.75Z"/>
        <g class="cls-2">
          <path class="cls-1" d="M2277.51,305.19c-105.22-10.8-199.98,59.99-221.43,161.17-.03-7.23,.29-14.52,1.04-21.87,11.56-112.63,112.25-194.57,224.88-183,112.63,11.56,194.57,112.25,183,224.88-.76,7.38-1.92,14.63-3.42,21.73-.4-103.48-78.82-192.1-184.07-202.91Z"/>
        </g>
        <g class="cls-6">
          <path class="cls-9" d="M2113.28,579.99c50.34,46.9,120.13,66.92,189.83,47.07,77.29-22.02,134.72-87.44,155.92-166.32,.39,10.42,.06,21.03-1.04,31.75-11.56,112.63-103.46,195.47-205.26,185.02-28.31-2.91-54.4-12.74-77.08-27.83l-86.05,22.18,24.7-89.92c-.35-.64-.68-1.31-1.02-1.96Z"/>
        </g>
        <path class="cls-7" d="M2261.01,689.82c-7.59,0-15.21-.39-22.87-1.17-30.79-3.16-59.85-12.47-86.46-27.69l-89.13,19.99c-5.14,1.14-10.51-.5-14.12-4.35-3.6-3.84-4.9-9.31-3.42-14.36l24.5-83.56c-22.83-39.97-32.39-85.2-27.66-131.24,6-58.43,34.39-111.02,79.95-148.1,45.56-37.08,102.85-54.18,161.25-48.19,58.43,6,111.03,34.39,148.1,79.95,37.08,45.56,54.19,102.83,48.19,161.25-6,58.43-34.39,111.02-79.95,148.1-39.59,32.22-88.03,49.36-138.38,49.36Zm-106.85-59.55c2.71,0,5.39,.74,7.73,2.17,24.22,14.74,50.9,23.69,79.28,26.6,50.52,5.19,100.03-9.61,139.43-41.67,39.39-32.06,63.94-77.53,69.13-128.05,5.19-50.52-9.6-100.04-41.66-139.43-32.06-39.39-77.53-63.94-128.05-69.13-50.53-5.19-100.04,9.61-139.43,41.67-39.39,32.06-63.94,77.53-69.13,128.05-4.29,41.73,5,82.68,26.85,118.43,2.19,3.58,2.76,7.92,1.58,11.95l-19.21,65.52,70.23-15.75c1.08-.24,2.17-.36,3.26-.36Z"/>
        <path class="cls-1" d="M2373.07,489.44l-75.56-125.94c-9.92-16.53-25.09-25.98-41.65-25.98s-31.73,9.46-41.65,25.96l-75.56,125.96c-10.05,16.73-11.14,34.57-3,48.95,8.13,14.39,24,22.65,43.53,22.65h153.36c19.53,0,35.4-8.26,43.53-22.63,8.14-14.38,7.04-32.22-3-48.96Zm-117.21,27.49c-10.91,0-19.81-8.88-19.81-19.8s8.88-19.82,19.81-19.82,19.81,8.9,19.81,19.82-8.9,19.8-19.81,19.8Zm20.87-94.88c-.14,.4-17.91,44.32-17.91,44.32-.49,1.2-1.66,1.99-2.95,1.99s-2.47-.79-2.95-1.99l-17.78-43.94c-1.15-2.98-1.65-5.66-1.65-8.37,0-12.33,10.03-22.37,22.37-22.37s22.37,10.03,22.37,22.37c0,2.71-.5,5.39-1.5,7.99Z"/>
      </g>
    </g>
  </g>
</svg>