<svg xmlns="http://www.w3.org/2000/svg" id="Camada_2" data-name="Camada 2" viewBox="0 0 2427.63 2809.27"><defs><style>.cls-1{opacity:.7}.cls-2{fill:#fff}.cls-3{fill:#ff9fa4}.cls-4{opacity:.5}.cls-5{fill:#ff5f67}.cls-6{opacity:.2}.cls-7{opacity:.15}.cls-8{opacity:.3}.cls-9{fill:#6b184e}.cls-10{fill:#ff9522}.cls-11{fill:#ffe3e1}.cls-12{fill:#000072}.cls-13{fill:#e5711a}.cls-14{fill:#f9a528}.cls-15{opacity:.25}</style></defs><g id="Layer_1" data-name="Layer 1"><g><g class="cls-6"><ellipse cx="1343.76" cy="2671.16" class="cls-12" rx="916.31" ry="138.12"/></g><path d="M999.46,2556.25c-287.53,164.71-560.63,14.3-602-213.37-8.13-44.72-7.29-92.45,4.13-141.35,6.69-28.65,17-57.72,31.34-86.88,12.63-25.77,25.59-51.64,38.17-77.5,43.93-90.32,83.26-180.45,90.23-264.55,3.3-39.94-.7-78.52-15.05-115.12-7.57-19.32-19.83-35.99-34.92-49.22-25.82-22.75-59.86-35.43-92.36-33.99-64.73,2.74-123.47,61.34-99.79,207.43,33.25,205.25-189.92,269.42-271.88,93.43-3.62-7.8-6.92-16.07-9.94-24.66-1.02-2.97-2.04-6.04-3.02-9.1-51.22-163.87,10.82-447.65,263.99-507.13,11.61-2.79,23.68-5.01,36.13-6.78,48.76-6.87,95.24-5.53,138.38,2.93,205.62,40.26,335.13,242.72,270.26,496.64-34.83,136.29-175.81,393.32-116.14,517.44,18.9,39.33,76.9,69.89,145.58,66.68,1.76-.05,3.58-.14,5.39-.28h.05c49.55-3.58,104.25-24.8,153.47-72.81l67.98,218.2Z" class="cls-2"/><g class="cls-6"><path d="M636.51,1703.45c-12.63,152.91-117.95,282.47-165.41,333.69,43.93-90.32,83.26-180.45,90.23-264.55,3.3-39.94-.7-78.52-15.05-115.12-7.57-19.32-19.83-35.99-34.92-49.22-25.82-22.75-59.86-35.43-92.36-33.99-64.73,2.74-123.47,61.34-99.79,207.43,33.25,205.25-189.92,269.42-271.88,93.43-3.62-7.8-6.92-16.07-9.94-24.66,41.24,30.97,138.29,90.5,201.44,20.62l76.48-348.55c74.3-108.15,337.59-17.37,321.2,180.92Z" class="cls-12"/></g><path d="M511.36,1608.25c-25.82-22.75-59.86-35.43-92.36-33.99-64.73,2.74-123.47,61.34-99.79,207.43,33.25,205.25-189.92,269.42-271.88,93.43-3.62-7.8-6.92-16.07-9.94-24.66-1.02-2.97-2.04-6.04-3.02-9.1-51.22-163.87,10.82-447.65,263.99-507.13,11.61-2.79,23.68-5.01,36.13-6.78,48.76-6.87,95.24-5.53,138.38,2.93,21.45,34.13,45,90.04,46.9,172.56,.74,31.21-1.67,66.22-8.4,105.32Z" class="cls-10"/><path d="M511.36,1608.25c-25.82-22.75-59.86-35.43-92.36-33.99-64.73,2.74-123.47,61.34-99.79,207.43,33.25,205.25-189.92,269.42-271.88,93.43-3.62-7.8-6.92-16.07-9.94-24.66,41.24,30.97,138.29,90.5,201.44,20.62,73.37-81.22-8.76-239.28,76.48-348.55,42.17-54.06,129.28-58.7,204.46-19.6,.74,31.21-1.67,66.22-8.4,105.32Z" class="cls-13"/><path d="M754.81,2643.28c-12.99,0-25.89-.59-38.71-1.78-88.14-8.14-167.48-43.18-229.43-101.33-117.38-110.15-144.62-280.19-69.41-433.19,4.78-9.72,9.6-19.46,14.42-29.21,71.47-144.45,145.38-293.82,98.38-413.94-19.7-50.36-80.39-82.68-129.88-69.16-56.97,15.57-80.2,82.73-63.75,184.26,18.86,116.4-39.66,189.09-106.02,209.48-65.11,20-151.87-4.98-198.88-105.95-49.77-106.88-39.8-263.89,24.25-381.8,40.67-74.87,121.63-168.69,276.32-190.45,136.89-19.24,263.53,23.49,347.49,117.27,90.78,101.4,120.1,248.61,80.43,403.88-10.21,39.97-29.24,89.83-49.39,142.62-47.79,125.22-107.28,281.07-67.93,362.89,12.38,25.74,46.76,47.04,87.59,54.26,65.51,11.58,134.4-12.31,189.03-65.55,6.9-6.72,17.94-6.58,24.66,.32,6.72,6.89,6.58,17.93-.32,24.65-62.76,61.17-142.75,88.49-219.44,74.92-52.32-9.25-95.6-37.41-112.95-73.48-45.84-95.34,13.99-252.12,66.78-390.43,19.78-51.83,38.46-100.79,48.18-138.82,36.74-143.82,10.27-279.4-72.62-371.99-76.07-84.97-191.49-123.61-316.65-105.99-140.31,19.74-213.68,104.73-250.53,172.56-65.91,121.34-61.6,268.14-23.28,350.44,38.16,81.94,106.37,102.91,157.02,87.33,48.11-14.79,98.41-68.33,81.84-170.57-28.67-176.96,60.86-215.79,88.98-223.48,66.76-18.24,145.31,23.02,171.55,90.09,52.61,134.48-24.77,290.87-99.6,442.11-4.81,9.72-9.62,19.43-14.38,29.13-69.35,141.08-45.6,291.43,61.98,392.38,121.19,113.74,309.69,124.07,480.21,26.35,8.35-4.79,19.01-1.9,23.8,6.46,4.79,8.36,1.9,19.01-6.46,23.8-82.67,47.38-169.47,71.93-253.27,71.93Z" class="cls-12"/><g class="cls-6"><path d="M999.46,2556.25c-287.53,164.71-560.63,14.3-602-213.37,34.75,114.95,222.68,189.25,375.11,68.26,1.76-.05,3.58-.14,5.39-.28h.05c49.55-3.58,104.25-24.8,153.47-72.81l67.98,218.2Z" class="cls-12"/></g><path d="M1996.3,2566.79c-101.65,119.39-293.85,59.3-505.18,59.3s-403.58,60.09-505.18-59.3c-95.06-111.63-109.17-243.42-85.3-380.31,22.48-129.05,78.66-262.6,132.48-388.11l79.55-199.82,39.33-98.77,675.46-85.4c0,52.89,15.32,113.72,38.64,179.85,61.9,176.04,180.22,389.74,215.51,592.29,23.82,136.89,9.71,268.63-85.3,380.27Z" class="cls-2"/><path d="M1278.86,2597.16s-91.32-644.05,205.01-678.91c0,0,335.36-3.08,222.06,696.34h-376.95l-50.11-17.43Z" class="cls-10"/><g class="cls-6"><path d="M1866.1,1594.23c-94.82,42.3-230.74,68.77-381.71,68.77s-277.46-24.7-371.72-64.45l39.33-98.77,675.46-85.4c0,52.89,15.32,113.72,38.64,179.85Z" class="cls-12"/></g><g class="cls-6"><path d="M1996.3,2566.79c-101.65,119.39-293.85,59.3-505.18,59.3s-403.58,60.09-505.18-59.3c-95.06-111.63-109.17-243.42-85.3-380.31,72.67-29.49,204.18-72.95,322.08-59.25l-83.03-99.42s263.85-57.53,258.56,66.5c-1.86,42.63-13.23,73.88-26.89,96.36,4.88,4.46,9.61,9.19,14.16,14.21,78.52,86.23,50.52,221.27,105.6,221.27s27.03-135.04,105.6-221.27c127.84-140.33,374.37-63.2,484.89-18.34,23.82,136.89,9.71,268.63-85.3,380.27Z" class="cls-12"/></g><path d="M1195.86,2658.68c-90.89,0-168.21-15.96-223.21-80.57-194.84-228.89-62.16-538.14,44.46-786.63,3.8-8.85,14.06-12.94,22.9-9.15,8.85,3.8,12.95,14.05,9.15,22.9-102.81,239.63-230.77,537.86-49.95,750.27,69.13,81.21,189.6,71.99,329.09,61.3,52.39-4.01,106.56-8.16,162.81-8.16s110.42,4.15,162.81,8.16c139.5,10.68,259.96,19.91,329.09-61.3,180.94-212.55,55.11-505.58-55.89-764.11-60.21-140.24-117.09-272.7-117.09-377.02,0-9.63,7.81-17.44,17.44-17.44s17.44,7.81,17.44,17.44c0,97.15,55.5,226.41,114.26,363.26,115.01,267.86,245.36,571.45,50.4,800.48-80.64,94.74-209.32,84.87-358.3,73.47-51.74-3.96-105.23-8.06-160.15-8.06s-108.41,4.1-160.15,8.06c-47.38,3.63-92.72,7.1-135.1,7.1Z" class="cls-12"/><g><path d="M948.94,1999.79c-120.8,375-98.97,703.64,249.6,703.64,101.61,0,205.41,13.35,221.82-83.9,10.58-62.72-50.28-99.43-97.26-110.35,98.87-68.83,119.1-355.1-171.05-416.29" class="cls-2"/><path d="M965.54,2005.13c-16.73,52.16-31.24,104.99-42.59,158.38-11.47,53.35-19.25,107.38-22.12,161.41-2.56,53.93,.17,108.2,13.01,159.57,6.61,25.56,15.75,50.29,28.17,73.05,12.41,22.73,28.07,43.49,47.05,60.74,19,17.22,41.04,30.95,64.81,41.21,23.76,10.26,49.15,17.49,75.34,21.2l9.77,1.63,9.91,.95,19.84,1.83,20.02,.6,10.02,.3,10.49,.05c27.9,.2,55.39,1.12,82.09,.08,26.47-1.15,52.93-4.16,73.65-14.42,5.18-2.5,9.87-5.53,14.02-9.02,4.24-3.41,7.85-7.38,10.95-11.81,6.33-8.74,10.3-19.61,12.6-31.38,2.1-11.39,1.89-22.02-1.45-32.16-3.26-10.08-9.49-19.46-17.75-27.62-16.6-16.32-40.29-27.77-64.21-33.54h-.02c-9.39-2.26-15.17-11.7-12.92-21.09,.97-4.04,3.27-7.42,6.33-9.77l.58-.44c7.64-5.88,14.5-13.09,20.78-21.06,5.93-8.3,11.62-16.98,15.88-26.65,9.03-18.99,14.74-39.94,17.71-61.22,5.89-42.64,.49-87.04-16.25-126.63-8.41-19.77-19.61-38.34-33.21-55.07-13.59-16.77-29.78-31.42-47.38-44.36-17.53-13.13-37.14-23.56-57.22-33.33-5.11-2.28-10.2-4.63-15.3-7.03-5.23-2.07-10.51-4.06-15.75-6.23-2.63-1.05-5.24-2.21-7.9-3.18l-8.07-2.79c-5.39-1.87-10.77-3.86-16.17-5.9l-.38-.14c-4.53-1.71-6.82-6.76-5.11-11.29,1.43-3.8,5.23-6.02,9.09-5.63,47.39,4.86,95.04,19.89,136.37,47.28,41.05,27.39,75.72,66.51,95.67,112.71,20.3,45.99,26.77,97.5,19.53,147.05-1.7,12.42-4.64,24.68-8.09,36.79-2.01,5.99-3.99,11.99-6.33,17.88-2.55,5.83-4.78,11.76-7.87,17.4-5.49,11.52-12.78,22.34-20.71,32.72-8.29,10.22-18.13,19.45-29.36,27.29l-6.01-31.29h.02c14.91,3.55,29.17,8.78,42.81,15.73,13.6,6.98,26.61,15.72,38.03,26.99,11.37,11.21,21.1,25.33,26.36,41.58,5.43,16.16,5.58,33.97,2.52,49.67-2.99,15.28-8.48,31.07-18.37,44.84-4.82,6.88-10.63,13.22-17.14,18.5-6.44,5.39-13.49,9.87-20.74,13.39-14.51,7.31-29.57,11.1-44.26,13.79-14.72,2.49-29.22,3.66-43.52,4.27-28.57,1.1-56.39,.13-83.77-.05l-10.24-.04-10.7-.31-21.43-.65c-7.15-.56-14.3-1.31-21.45-1.97l-10.72-1.04-10.69-1.77c-28.53-4.08-56.86-12.01-83.8-23.66-26.93-11.62-52.43-27.47-74.43-47.44-21.99-19.99-40.07-43.99-54.12-69.73-14.08-25.79-24.18-53.3-31.4-81.24-13.99-56.09-16.69-113.5-14.04-169.85,2.99-56.41,11.07-112.17,22.83-166.92,11.65-54.78,26.48-108.72,43.52-161.85,2.94-9.17,12.76-14.22,21.93-11.28,9.17,2.94,14.22,12.76,11.28,21.93v.04Z" class="cls-12"/></g><path d="M1332.04,2524.7c-2.82,1.45-4.68,2.24-6.92,3.2-2.16,.96-4.27,1.74-6.4,2.57-4.25,1.6-8.47,3.09-12.72,4.4-8.48,2.68-16.99,4.91-25.55,6.73-17.1,3.71-34.33,5.91-51.54,7.12-8.62,.28-17.21,.9-25.79,.64-4.29-.07-8.58,0-12.85-.19l-12.81-.74c-8.54-.31-16.99-1.67-25.45-2.46-8.43-1.11-16.8-2.63-25.17-3.92-4.75-.74-8.01-5.19-7.27-9.94,.69-4.47,4.67-7.62,9.09-7.36l.61,.04c8.15,.49,16.26,1.21,24.37,1.52,8.13,0,16.23,.56,24.32,.09l12.11-.41c4.03-.19,8.04-.64,12.06-.94,8.04-.49,15.98-1.83,23.92-2.81,15.8-2.6,31.38-6.09,46.42-10.84,7.53-2.34,14.91-5.02,22.04-8.03,3.58-1.47,7.08-3.09,10.47-4.74,1.68-.84,3.4-1.66,4.96-2.55,1.52-.81,3.38-1.87,4.2-2.42,8.23-5.53,19.39-3.34,24.92,4.9,5.53,8.23,3.34,19.39-4.9,24.92-.56,.37-1.13,.71-1.71,1.02l-.44,.22Z" class="cls-12"/><g><path d="M1182.43,2569.27c49.77,10.93,82.22,86.32,.52,133.93" class="cls-2"/><path d="M1184.3,2560.75c16.78,3.06,32.29,12.24,43.33,25.44,11.12,13.08,18.12,30.4,18.1,48.45,.2,18.08-6.7,35.73-16.91,49.7-10.26,14.1-23.39,24.95-37.09,33.92-8.07,5.28-18.89,3.03-24.17-5.04-5.28-8.07-3.03-18.89,5.04-24.17,.48-.31,.97-.6,1.47-.87l.1-.05c11.71-6.1,22.52-13.53,30.71-22.71,8.14-9.15,13.6-20.01,14.71-31.68,1.25-11.63-2.13-23.94-9.18-34.19-6.96-10.32-17.73-18.26-29.85-21.77l-.25-.07c-4.63-1.34-7.29-6.18-5.95-10.8,1.25-4.33,5.6-6.93,9.94-6.15Z" class="cls-12"/></g><g><path d="M1308.2,2562.09c47.27,30.81,52.6,95.96,0,140.5" class="cls-2"/><path d="M1312.96,2554.78c13.02,7.58,24.62,18.47,32.72,31.95,8.15,13.42,12.68,29.28,12.88,45.3,.27,16.04-3.74,32.05-10.8,46.29-7.05,14.3-16.99,26.84-28.3,37.57-7,6.64-18.05,6.35-24.69-.64-6.64-7-6.35-18.05,.64-24.69,.44-.42,.89-.81,1.36-1.17l.14-.11c9.48-7.29,17.85-15.83,24.1-25.66,6.25-9.8,10.33-20.87,11.4-32.36,1.1-11.47-.85-23.31-5.87-34.08-4.98-10.79-13.04-20.39-23.11-27.78l-.04-.03c-3.88-2.86-4.72-8.32-1.86-12.2,2.66-3.62,7.62-4.57,11.43-2.38Z" class="cls-12"/></g><path d="M1337.7,2140.97c-75.51,151.29-353.43,77.55-430.98-32.78-81.96-116.6-37.29-339.45,157-531.56,36.17-35.85,77.6-70.58,124.36-103.37l-22.66,145.35-22.38,143.72c-28.84,192.34,305.09,157.37,194.66,378.64Z" class="cls-2"/><g class="cls-6"><path d="M1188.08,1473.26l-22.66,145.35c-1.3-.37-51.92-15.09-101.7-41.98,36.17-35.85,77.6-70.58,124.36-103.37Z" class="cls-9"/></g><path d="M1172.9,2244.03c-107.83,0-229.7-53.63-280.45-125.82-38-54.05-50.88-129.75-36.28-213.16,27.94-159.61,145.27-322.19,321.92-446.06,7.88-5.53,18.76-3.62,24.29,4.27,5.53,7.88,3.62,18.76-4.27,24.29-166.63,116.84-281.62,275.17-307.58,423.52-12.99,74.22-2.17,140.66,30.46,187.08,47.3,67.29,171.97,117.82,272.36,110.25,43.23-3.24,100.65-18.93,128.74-75.23,52.68-105.55-4.43-141.98-76.72-188.1-15.48-9.87-31.5-20.09-46.41-31.18-7.73-5.75-9.34-16.67-3.59-24.39,5.74-7.73,16.67-9.35,24.4-3.59,13.92,10.35,29.39,20.22,44.36,29.77,73.06,46.61,155.87,99.43,89.17,233.07-28.02,56.15-82.43,88.81-157.34,94.43-7.58,.57-15.29,.85-23.05,.85Z" class="cls-12"/><g><path d="M809.94,1349.13c-6.91-8.42-13.66-17.1-20.14-26.06l20.14,26.06Z" class="cls-2"/><path d="M2179.15,1351.85l20.16-25.94c-6.43,8.93-13.21,17.55-20.16,25.94Z" class="cls-2"/><g class="cls-15"><path d="M2199.72,1305.88c-.13,.27-.26,.54-.39,.82,.13-.23,.22-.5,.3-.73,.04-.05,.09-.05,.09-.09Z" class="cls-9"/></g><path d="M2202.93,1239.97c-.2,.32-.33,.67-.41,1.02,.07-.18,.13-.36,.19-.59,.08-.13,.15-.3,.22-.43Z" class="cls-2"/><path d="M2367.85,1174.82c-3.95,35.57-72.67,1.72-87.67-6.04-1.21-.65-2.46,.65-2.14,2.18,1.35,6.13,5.01,19.97,14.4,42.07,11.56,27.26,20.99,48.39,15.7,62.69-5.67,15.14-29.07,20.94-58.18,17.46-10.31-1.25-21.04,4.23-31.53,13.05-6.13,5.15-12.17,11.42-17.92,18.11l-.05,.05-.09,.09-1.07,1.44c.28-.42,.56-.79,.84-1.21-4.13,4.83-8.13,9.84-11.93,14.86-3.2,4.23-6.32,8.4-9.24,12.44-26.24,31.53-55.82,59.44-88.04,84.1-41.61,30.69-87.49,54.89-135.78,73.83v-.37s-66.31,25.68-164.34,49.13c0,0-87.63,19.6-167.68,30.32,0,0-61.25,7.57-128.58,7.43-67.29-.14-129.56-7.94-129.56-7.94-79.96-11.05-167.54-30.97-167.54-30.97-97.89-23.87-164.11-49.78-164.11-49.78v.32c-48.29-19.09-94.03-43.51-135.5-74.34-32.13-24.8-61.62-52.8-87.72-84.42-3.39-4.74-7.01-9.66-10.77-14.63-3.39-4.41-6.87-8.78-10.49-13,.33,.46,.65,.93,.98,1.39l-1.16-1.58s.14,.09,.19,.14c-5.53-6.45-11.24-12.49-17.09-17.55l-.05-.05c-10.68-9.24-21.73-15.14-32.32-13.88-29.16,3.39-52.52-2.51-58.14-17.69-5.25-14.3,4.27-35.38,15.93-62.64,9.47-22.01,13.19-35.85,14.58-41.98,.33-1.53-.93-2.83-2.14-2.23-15,7.76-83.86,41.33-87.67,5.76-2.14-19.74,28.28-79.22,38.96-140.24,30.93-176.83,39.89-211.75,39.89-211.75,.23-1.16,30.14-127.89,74.67-221.18-44.07-124.63-72.35-487.81,1.9-563.55,59.62-60.74,283.08,67.47,366.85,157.05,127.1-55.68,323.99-63.71,352.78-63.57,9.89,0,39.66,1.02,79.64,4.69,76.3,6.97,189.65,23.45,272.77,60.27,84.14-89.25,308.1-216.58,367.54-155.56,73.97,75.97,44.21,439.1-.33,563.5,27.91,59.07,49.97,131.46,62.36,177.02,7.29,26.61,11.33,44.02,11.42,44.49,0,0,8.78,34.97,39.01,211.89,10.45,61.06,40.63,120.69,38.45,140.38Z" class="cls-2"/><path d="M1491.1,1144.51c-52.33,0-94.9-44.94-94.9-100.19,0-51.49,37.85-129.33,94.9-129.33s94.9,77.84,94.9,129.33c0,55.24-42.57,100.19-94.9,100.19Zm0-190.29c-26.88,0-55.67,52.88-55.67,90.1,0,33.61,24.97,60.95,55.67,60.95s55.67-27.34,55.67-60.95c0-37.22-28.79-90.1-55.67-90.1Z" class="cls-9"/><g class="cls-6"><path d="M2218.6,1303.12l-.19,3.11c-6.13,5.15-12.17,11.42-17.92,18.11l-.05,.05-.09,.09-1.07,1.44c.28-.42,.56-.79,.84-1.21-4.13,4.83-8.13,9.84-11.93,14.86-3.2,4.23-6.32,8.4-9.24,12.44-26.24,31.53-55.82,59.44-88.04,84.1-41.61,30.69-87.49,54.89-135.78,73.83v-.37s-66.31,25.68-164.34,49.13c0,0-87.63,19.6-167.68,30.32,0,0-61.25,7.57-128.58,7.43-67.29-.14-129.56-7.94-129.56-7.94-79.96-11.05-167.54-30.97-167.54-30.97-97.89-23.87-164.11-49.78-164.11-49.78v.32c-48.29-19.09-94.03-43.51-135.5-74.34-32.13-24.8-61.62-52.8-87.72-84.42-3.39-4.74-7.01-9.66-10.77-14.63-3.39-4.41-6.87-8.78-10.49-13,.33,.46,.65,.93,.98,1.39l-1.16-1.58s.14,.09,.19,.14c-5.53-6.45-11.24-12.49-17.09-17.55,24.38,13.84,308.01,169.17,722.41,169.17s724.45-170.14,724.45-170.14Z" class="cls-9"/></g><path d="M2279,778.08c-25.36,3.26-51.19,4.89-77.37,4.84-342.15-.68-619.67-290.64-624.98-650.09,76.27,6.96,189.63,23.45,272.77,60.3,84.12-89.25,308.1-216.6,367.52-155.58,73.98,75.99,44.24,439.09-.3,563.52,27.91,59.05,49.93,131.43,62.37,177.01Z" class="cls-14"/><g class="cls-1"><path d="M2235.38,66.75c-82.24-22.33-267.1,82.56-356.15,166.98-9.36,8.87-22.89,11.46-34.91,6.78-83.72-32.64-189.13-48.5-264.96-55.91-1.54-17.09-2.42-34.34-2.69-51.78,76.22,6.99,189.62,23.44,272.74,60.33,84.12-89.25,308.06-216.59,367.5-155.58,7.07,7.25,13.19,17.14,18.46,29.19Z" class="cls-2"/></g></g><g><path d="M809.94,1349.13c-6.91-8.42-13.66-17.1-20.14-26.06l20.14,26.06Z" class="cls-2"/><path d="M2179.15,1351.85l20.16-25.94c-6.43,8.93-13.21,17.55-20.16,25.94Z" class="cls-2"/><g class="cls-15"><path d="M2199.72,1305.88c-.13,.27-.26,.54-.39,.82,.13-.23,.22-.5,.3-.73,.04-.05,.09-.05,.09-.09Z" class="cls-9"/></g><path d="M2202.93,1239.97c-.2,.32-.33,.67-.41,1.02,.07-.18,.13-.36,.19-.59,.08-.13,.15-.3,.22-.43Z" class="cls-2"/><path d="M2367.85,1174.82c-3.95,35.57-72.67,1.72-87.67-6.04-1.21-.65-2.46,.65-2.14,2.18,1.35,6.13,5.01,19.97,14.4,42.07,11.56,27.26,20.99,48.39,15.7,62.69-5.67,15.14-29.07,20.94-58.18,17.46-10.31-1.25-21.04,4.23-31.53,13.05-6.13,5.15-12.17,11.42-17.92,18.11l-.05,.05-.09,.09-1.07,1.44c.28-.42,.56-.79,.84-1.21-4.13,4.83-8.13,9.84-11.93,14.86-3.2,4.23-6.32,8.4-9.24,12.44-26.24,31.53-55.82,59.44-88.04,84.1-41.61,30.69-87.49,54.89-135.78,73.83v-.37s-66.31,25.68-164.34,49.13c0,0-87.63,19.6-167.68,30.32,0,0-61.25,7.57-128.58,7.43-67.29-.14-129.56-7.94-129.56-7.94-79.96-11.05-167.54-30.97-167.54-30.97-97.89-23.87-164.11-49.78-164.11-49.78v.32c-48.29-19.09-94.03-43.51-135.5-74.34-32.13-24.8-61.62-52.8-87.72-84.42-3.39-4.74-7.01-9.66-10.77-14.63-3.39-4.41-6.87-8.78-10.49-13,.33,.46,.65,.93,.98,1.39l-1.16-1.58s.14,.09,.19,.14c-5.53-6.45-11.24-12.49-17.09-17.55l-.05-.05c-10.68-9.24-21.73-15.14-32.32-13.88-29.16,3.39-52.52-2.51-58.14-17.69-5.25-14.3,4.27-35.38,15.93-62.64,9.47-22.01,13.19-35.85,14.58-41.98,.33-1.53-.93-2.83-2.14-2.23-15,7.76-83.86,41.33-87.67,5.76-2.14-19.74,28.28-79.22,38.96-140.24,30.93-176.83,39.89-211.75,39.89-211.75,.23-1.16,30.14-127.89,74.67-221.18-44.07-124.63-72.35-487.81,1.9-563.55,59.62-60.74,283.08,67.47,366.85,157.05,127.1-55.68,323.99-63.71,352.78-63.57,9.89,0,39.66,1.02,79.64,4.69,76.3,6.97,189.65,23.45,272.77,60.27,84.14-89.25,308.1-216.58,367.54-155.56,73.97,75.97,44.21,439.1-.33,563.5,27.91,59.07,49.97,131.46,62.36,177.02,7.29,26.61,11.33,44.02,11.42,44.49,0,0,8.78,34.97,39.01,211.89,10.45,61.06,40.63,120.69,38.45,140.38Z" class="cls-2"/><path d="M1566.4,1044.33c0,3.53-.23,6.97-.65,10.36-4.74,39.61-36.36,70.21-74.62,70.21s-69.93-30.6-74.67-70.21c-.42-3.39-.65-6.83-.65-10.36,0-44.49,33.71-109.73,75.32-109.73s75.27,65.24,75.27,109.73Z" class="cls-12"/><path d="M1565.75,1054.68c-4.74,39.61-36.36,70.21-74.62,70.21s-69.93-30.6-74.67-70.21c9.05-5.25,19.6-8.27,30.79-8.27,17.18,0,32.74,7.06,43.88,18.39,11.1-11.33,26.65-18.39,43.79-18.39,11.24,0,21.78,3.02,30.83,8.27Z" class="cls-3"/><path d="M1491.1,1144.51c-52.33,0-94.9-44.94-94.9-100.19,0-51.49,37.85-129.33,94.9-129.33s94.9,77.84,94.9,129.33c0,55.24-42.57,100.19-94.9,100.19Zm0-190.29c-26.88,0-55.67,52.88-55.67,90.1,0,33.61,24.97,60.95,55.67,60.95s55.67-27.34,55.67-60.95c0-37.22-28.79-90.1-55.67-90.1Z" class="cls-12"/><g class="cls-6"><path d="M2218.6,1303.12l-.19,3.11c-6.13,5.15-12.17,11.42-17.92,18.11l-.05,.05-.09,.09-1.07,1.44c.28-.42,.56-.79,.84-1.21-4.13,4.83-8.13,9.84-11.93,14.86-3.2,4.23-6.32,8.4-9.24,12.44-26.24,31.53-55.82,59.44-88.04,84.1-41.61,30.69-87.49,54.89-135.78,73.83v-.37s-66.31,25.68-164.34,49.13c0,0-87.63,19.6-167.68,30.32,0,0-61.25,7.57-128.58,7.43-67.29-.14-129.56-7.94-129.56-7.94-79.96-11.05-167.54-30.97-167.54-30.97-97.89-23.87-164.11-49.78-164.11-49.78v.32c-48.29-19.09-94.03-43.51-135.5-74.34-32.13-24.8-61.62-52.8-87.72-84.42-3.39-4.74-7.01-9.66-10.77-14.63-3.39-4.41-6.87-8.78-10.49-13,.33,.46,.65,.93,.98,1.39l-1.16-1.58s.14,.09,.19,.14c-5.53-6.45-11.24-12.49-17.09-17.55,24.38,13.84,308.01,169.17,722.41,169.17s724.45-170.14,724.45-170.14Z" class="cls-12"/></g><path d="M2279,778.08c-25.36,3.26-51.19,4.89-77.37,4.84-342.15-.68-619.67-290.64-624.98-650.09,76.27,6.96,189.63,23.45,272.77,60.3,84.12-89.25,308.1-216.6,367.52-155.58,73.98,75.99,44.24,439.09-.3,563.52,27.91,59.05,49.93,131.43,62.37,177.01Z" class="cls-10"/><g class="cls-1"><path d="M2235.38,66.75c-82.24-22.33-267.1,82.56-356.15,166.98-9.36,8.87-22.89,11.46-34.91,6.78-83.72-32.64-189.13-48.5-264.96-55.91-1.54-17.09-2.42-34.34-2.69-51.78,76.22,6.99,189.62,23.44,272.74,60.33,84.12-89.25,308.06-216.59,367.5-155.58,7.07,7.25,13.19,17.14,18.46,29.19Z" class="cls-2"/></g></g><g class="cls-8"><path d="M2237.89,1241.46s.15-.1,.2-.15l-1.38,1.71c.39-.49,.79-1.03,1.18-1.57Z" class="cls-9"/></g><path d="M942.3,351.59c-58.83,62.75-95.92,150.55-101.15,140.29-.51-.98-1.02-2.16-1.53-3.53-11.15-28.76-29.56-142.75-29.31-244.31,.08-16.38,.53-30.84,1.39-43.59,2.3-34.42,7.22-56.48,13.25-70.59,7.47-17.25,24.22-22.51,39.03-16.69,39.39,15.52,151.22,89.3,187.62,136.55,6.49,8.4-50.42,39.13-109.3,101.88Z" class="cls-5"/><g class="cls-7"><path d="M942.3,351.59c-58.83,62.75-95.92,150.55-101.15,140.29-.51-.98-1.02-2.16-1.53-3.53,13.17-53.28,49.34-126.86,77.06-180.05,37.89-72.65-14.06-130.51-59.16-147.86-15.47-5.96-33.88,19.45-45.82,40.02,2.3-34.42,7.22-56.48,13.25-70.59,7.47-17.25,24.22-22.51,39.03-16.69,39.39,15.52,151.22,89.3,187.62,136.55,6.49,8.4-50.42,39.13-109.3,101.88Z" class="cls-12"/></g><path d="M842.57,512.5c-.33,0-.67,0-1.02-.02-7.61-.26-14.53-4.71-18.05-11.62-13.23-25.93-33.26-151.33-32.97-256.87,.15-56.92,5.46-96.81,16.24-121.93,11.28-26.1,38.38-37.55,64.45-27.31,41.69,16.4,156.29,91.23,196.08,142.85,4.84,6.27,10.31,19.35-7.41,36.42-5.59,5.38-13.59,11.76-23.72,19.84-21.03,16.77-49.83,39.72-79.41,71.26-32.51,34.67-58.48,77.98-75.66,106.63-18.06,30.12-24.42,40.73-38.53,40.73Zm16.21-29.63h0Zm-6.57-352.17c-3.14,0-6.68,1.5-9.07,7.03-5.83,13.6-12.84,43.13-13.01,106.38h0c-.2,75.53,10.23,157.22,19.33,203.42,18.03-30.04,44.49-73.3,78.41-109.47,31.54-33.63,62.88-58.61,83.61-75.14,5.12-4.09,10.61-8.46,14.98-12.13-41.58-44.3-137.19-106.36-169.74-119.16-1.23-.48-2.81-.92-4.51-.92Zm-41.88,113.35h0Z" class="cls-12"/><path d="M2046.13,353.78c58.58,62.98,95.32,150.93,100.59,140.69,.51-.98,1.03-2.16,1.54-3.53,11.26-28.71,30.13-142.64,30.28-244.19-.01-16.38-.4-30.84-1.22-43.6-2.16-34.43-7-56.5-12.97-70.64-7.4-17.28-24.13-22.6-38.97-16.85-39.45,15.37-151.57,88.7-188.16,135.8-6.52,8.37,50.26,39.33,108.89,102.31Z" class="cls-5"/><g class="cls-7"><path d="M2046.13,353.78c58.58,62.98,95.32,150.93,100.59,140.69,.51-.98,1.03-2.16,1.54-3.53-12.96-53.33-48.83-127.05-76.34-180.36-37.6-72.8,14.58-130.46,59.75-147.63,15.49-5.9,33.8,19.58,45.66,40.2-2.16-34.43-7-56.5-12.97-70.64-7.4-17.28-24.13-22.6-38.97-16.85-39.45,15.37-151.57,88.7-188.16,135.8-6.52,8.37,50.26,39.33,108.89,102.31Z" class="cls-12"/></g><path d="M2145.33,515.09c-14.19,0-20.5-10.61-38.48-40.88-17.07-28.73-42.86-72.13-75.24-106.93-29.45-31.66-58.16-54.74-79.13-71.58-10.1-8.12-18.08-14.53-23.64-19.93-17.65-17.13-12.13-30.19-7.27-36.45,40.01-51.47,154.9-125.84,196.66-142.07,26.12-10.15,53.17,1.42,64.32,27.51,10.7,25.21,15.85,65.11,15.78,122.04-.13,105.53-20.66,230.84-33.99,256.73-3.55,6.89-10.49,11.32-18.1,11.55-.3,0-.61,.01-.9,.01Zm-182.97-262.45c4.36,3.68,9.83,8.08,14.93,12.18,20.67,16.61,51.91,41.72,83.32,75.48,33.78,36.31,60.06,79.68,77.97,109.79,9.29-46.16,20.04-127.81,20.14-203.34h0c.08-63.25-6.81-92.81-12.61-106.48-3.63-8.48-10.03-7.47-13.54-6.11-32.6,12.67-128.45,74.35-170.21,118.48Z" class="cls-12"/><path d="M1363.82,1596.93c-28.7-1.95-57.2-5.48-85.57-9.63-28.46-4.19-56.4-9.09-84.95-14.77-28.28-6.48-56.07-13.38-83.73-21.62-27.73-8.17-54.87-16.87-82.44-27.32l23.22-15.81v.35s-.03,24.98-.03,24.98l-23.25-9.19c-44.01-17.39-86.57-39.28-125.74-66.56-9.79-6.7-19.65-14.24-28.7-21.75-9.2-7.55-18.18-15.38-26.9-23.49-8.72-8.12-17.19-16.52-25.38-25.19-4.11-4.32-8.12-8.74-12.08-13.2l-5.88-6.75-2.89-3.42-1.44-1.72-.72-.86-.36-.43-.18-.21c-.38-.42-1.45-1.97-1.29-1.78-.08-.13,.07,.12,.38,.57,.64,.87,2.03,2.86,5.07,4.75l-4.34-3.76c-7.58-9.17-14.92-18.62-21.89-28.4l.75,.98-.16-.15,27.08-21.61,21.48,27.78-27.83,20.75c-11.56-15.97-23.45-31.72-36.45-42.82-6.29-5.51-13.33-9.1-16.77-9.16-.41,.02-.82-.04-1.15,.02h-.29s-1.05,.12-1.05,.12l-2.11,.22c-2.82,.27-5.66,.47-8.53,.6-5.74,.23-11.6,.15-17.63-.45-6.03-.62-12.25-1.73-18.73-3.94-6.42-2.24-13.39-5.57-19.69-11.82-3.1-3.13-5.92-7.01-7.86-11.38-1.94-4.41-2.85-8.69-3.29-12.78-.69-8.1,.5-14.81,1.89-20.79,2.96-11.89,7.11-21.64,11.07-31.23l5.96-14.01c1.9-4.46,3.7-8.93,5.39-13.41,1.69-4.47,3.25-8.95,4.66-13.39,.69-2.21,1.35-4.42,1.94-6.58l.82-3.19,.18-.77,.09-.38,.04-.19c.05-.19,.02-.12-.12,.57-.67,3.93,.01,8.78,3.75,13.05,1.87,2.1,4.79,4.19,8.72,5.02,3.84,.94,8.5-.12,10.81-1.45l-1.8,.93-3.6,1.8-7.24,3.45c-4.85,2.24-9.77,4.37-14.81,6.37-10.1,3.97-20.48,7.56-32.29,9.79-5.94,1.06-12.25,1.85-19.73,1.29-3.74-.31-7.85-1.01-12.29-2.7-4.41-1.67-9.25-4.61-13.05-8.86-3.83-4.23-6.23-9.35-7.42-13.9-.62-2.33-.97-4.42-1.19-6.64-.08-1.18-.16-2.45-.17-3.56l.1-3.07c.62-7.48,2.07-12.98,3.52-18.4,2.98-10.67,6.38-20.31,9.68-29.94,6.65-19.15,13.12-37.82,18.29-56.61,2.59-9.38,4.85-18.76,6.67-28.12l5.22-29.57,10.63-59.79c7.28-39.9,14.45-79.58,22.95-119.72,4.55-20.54,9.84-40.01,15.34-59.78,5.55-19.67,11.41-39.26,17.75-58.73,12.69-38.94,26.91-77.53,44.65-115.23l-.74,14c-7.28-20.85-12.45-41.56-17-62.34-4.51-20.77-8.19-41.57-11.41-62.41-6.37-41.68-10.81-83.49-13.65-125.46-2.78-41.96-3.98-84.07-2.82-126.35,1.34-42.28,4.44-84.73,14.12-127.44,5.13-21.3,11.51-42.89,24.68-63.91,3.4-5.23,7.34-10.35,12.09-15.25,5.24-5.3,11.42-9.58,17.79-12.65,12.83-6.15,25.84-8.07,37.94-8.49,24.29-.51,46.23,4.5,67.29,10.66,21.04,6.3,41.09,14.32,60.6,23.2,38.97,17.87,75.82,39.17,111.11,62.92,17.62,11.91,34.82,24.48,51.48,37.92,16.65,13.47,32.81,27.73,47.96,43.81l-21.86-4.5c28.85-12.5,58.41-22.06,88.19-29.75,29.78-7.77,59.81-13.74,89.92-18.72,30.12-4.88,60.34-8.72,90.63-11.62,15.15-1.45,30.31-2.66,45.52-3.62,15.32-.94,30.2-1.75,46.26-1.88,16.06,.15,30.94,1.01,46.25,2.02,15.21,1.02,30.37,2.29,45.51,3.8,30.28,3.02,60.48,6.97,90.59,11.96,30.09,5.1,60.1,11.18,89.85,19.07,29.76,7.8,59.28,17.47,88.09,30.09l-21.99,4.43c15.22-16.03,31.43-30.22,48.14-43.63,16.72-13.38,33.97-25.89,51.64-37.73,35.38-23.61,72.32-44.78,111.36-62.51,19.55-8.81,39.64-16.76,60.71-22.98,21.09-6.09,43.07-11.01,67.38-10.41,12.12,.48,25.14,2.44,37.98,8.66,6.37,3.1,12.55,7.41,17.79,12.75,4.74,4.93,8.67,10.07,12.06,15.32,13.1,21.1,19.41,42.73,24.46,64.06,9.52,42.76,12.46,85.24,13.64,127.53,1,42.29-.36,84.4-3.3,126.36-3,41.96-7.6,83.77-14.13,125.42-3.3,20.83-7.06,41.62-11.65,62.38-4.63,20.77-9.87,41.47-17.24,62.31l-.69-14.21c17.6,37.79,31.68,76.44,44.22,115.43,6.27,19.5,12.05,39.11,17.53,58.81,5.43,19.79,10.65,39.28,15.12,59.85,8.35,40.19,15.37,79.89,22.5,119.82l10.41,59.83,5.11,29.58c1.78,9.36,4,18.74,6.56,28.12,5.1,18.79,11.49,37.48,18.07,56.66,3.27,9.64,6.63,19.3,9.57,30,1.43,5.43,2.87,10.95,3.46,18.48l.09,3.1c0,1.12-.1,2.41-.18,3.6-.22,2.24-.59,4.34-1.23,6.69-1.22,4.6-3.67,9.76-7.56,14.03-3.86,4.29-8.77,7.24-13.23,8.91-4.49,1.69-8.64,2.37-12.4,2.68-7.53,.54-13.86-.28-19.82-1.37-11.84-2.28-22.22-5.92-32.32-9.93-5.03-2.02-9.95-4.17-14.8-6.43l-7.23-3.48-3.6-1.82-1.8-.93c2.36,1.37,7.12,2.48,11.06,1.53,4.03-.83,7.03-2.96,8.95-5.11,3.85-4.35,4.57-9.32,3.9-13.36-.13-.71-.16-.78-.12-.59l.04,.19,.09,.38,.18,.77,.8,3.18c.58,2.16,1.22,4.36,1.91,6.57,1.39,4.43,2.93,8.91,4.6,13.39,1.67,4.48,3.46,8.95,5.33,13.42l5.91,14.04c3.92,9.61,8.04,19.38,10.97,31.33,1.38,6.01,2.55,12.77,1.82,20.94-.46,4.13-1.39,8.45-3.37,12.9-1.98,4.41-4.85,8.33-7.99,11.47-6.39,6.28-13.42,9.6-19.89,11.84-6.53,2.19-12.78,3.28-18.83,3.88-6.05,.58-11.93,.64-17.69,.39-2.88-.13-5.72-.35-8.55-.63l-2.11-.23-1.05-.12h-.27c-.31-.06-.7,0-1.09-.03-3.28,.03-10.28,3.53-16.56,9-12.98,11-24.92,26.68-36.54,42.6l-28.45-21.38,21.58-27.7,27.68,22.27-.17,.15,.78-1c-7.02,9.76-14.4,19.19-22.02,28.34l-4.47,3.84c3.49-2.17,4.88-4.4,5.42-5.15,1.48-2.07-1.67,2.29-1.15,1.54l-.2,.24-.4,.48-.81,.95-1.62,1.91-3.25,3.8-6.61,7.5c-4.43,4.97-9.01,9.82-13.62,14.63-9.28,9.56-18.87,18.81-28.77,27.69-9.93,8.87-20.09,17.4-30.62,25.6-5.16,4.11-11.2,8.33-16.84,12.05-5.68,3.76-11.39,7.24-17.1,10.68-22.88,13.5-46.05,25.51-69.43,37.08-11.69,5.78-23.42,11.39-35.28,16.89l-4.47,2.06-1.6,.72-1.72,.67-2.36,.88-9.31,3.38-18.57,6.41c-24.79,8.27-49.68,16.04-74.86,22.79-25.13,6.83-50.37,13.26-76.34,18.02-51.06,9.28-102.46,16.93-154.52,19.61-4.7,.24-8.7-3.37-8.94-8.06-.22-4.2,2.65-7.85,6.62-8.74h.06c50.14-11.35,100.22-22.54,150.1-34.41,48.98-12.15,98.57-26.18,146.7-42.33l17.98-6.24,8.87-3.23,2.17-.81,.53-.2,.6-.29,4.31-2c11.53-5.37,23.05-10.91,34.47-16.57,22.82-11.33,45.44-23.13,66.96-35.88,5.33-3.22,10.62-6.46,15.69-9.83,5.1-3.4,9.66-6.55,14.59-10.47,9.81-7.66,19.39-15.74,28.68-24.06,9.28-8.35,18.24-17.03,26.91-25.99,4.3-4.51,8.57-9.05,12.71-13.7l6.17-7.02,3.03-3.55,1.51-1.78,.75-.89,.38-.45,.19-.22c.58-.83-2.51,3.45-.98,1.3,.61-.83,2.05-3.14,5.63-5.36l-4.47,3.84c7.14-8.6,13.98-17.37,20.42-26.37l.62-.86,.16-.15,.16-.15,27.68,22.27-21.54,27.73-28.45-21.38c12.22-16.6,24.59-33.7,42.42-49.05,4.52-3.81,9.54-7.48,15.48-10.69,5.93-3.16,13.05-5.95,21.53-6.6,2.14-.1,4.28-.16,6.48,.05l2.45,.23,1.66,.18c2.2,.21,4.4,.38,6.57,.47,4.34,.19,8.59,.11,12.6-.28,3.99-.39,7.75-1.13,10.8-2.18,3.06-1.01,5.27-2.42,6.08-3.28,.77-.95,.66-.54,1.01-2.6,.18-1.92-.13-5.3-1.06-9.1-1.86-7.71-5.45-16.71-9.22-25.77l-5.87-13.9c-2.05-4.85-4.02-9.76-5.89-14.75-1.87-4.99-3.64-10.06-5.28-15.27-.81-2.61-1.59-5.26-2.33-7.98l-1.06-4.16-.25-1.07-.39-1.87c-.91-5.27,.14-11.6,4.83-16.9,2.34-2.62,5.9-5.1,10.55-6.07,4.56-1.08,9.98,.16,12.9,1.82l1.56,.81,3.17,1.59,6.43,3.08c4.31,2,8.66,3.89,13.01,5.63,8.66,3.45,17.5,6.4,25.53,7.91,3.97,.76,7.76,1.06,10.33,.84,1.27-.09,2.14-.34,2.38-.43,.26-.12-.26,.08-.72,.61-.49,.52-.63,1.03-.54,.75,.03-.08,.1-.48,.12-.76-.03-.07,0-.05,0-.19-.02-.23-.03-.46-.02-.69-.19-2.55-1.08-6.92-2.29-11.23-2.42-8.8-5.69-18.25-8.93-27.74-6.56-19.04-13.32-38.62-18.84-58.84-2.77-10.11-5.23-20.41-7.25-30.91l-5.26-30.16-10.47-59.63c-7.14-39.65-14.28-79.56-22.44-118.52-4.14-18.93-9.38-38.51-14.69-57.68-5.38-19.24-11.07-38.4-17.2-57.37-12.26-37.93-26.01-75.36-42.63-110.86l-3.25-6.95,2.56-7.26c6.47-18.35,11.48-38.01,15.84-57.79,4.35-19.82,7.96-39.94,11.13-60.16,6.27-40.45,10.71-81.33,13.56-122.26,2.81-40.93,4.05-81.98,3.02-122.78-1.16-40.69-4.23-81.55-12.89-119.96-4.38-18.99-10.47-37.73-19.48-51.97-2.25-3.48-4.71-6.57-7.15-9.15-2.05-2.08-4.49-3.83-7.46-5.27-5.92-2.89-13.85-4.43-22.43-4.71-17.34-.48-36.55,3.44-55.23,8.96-18.79,5.57-37.43,12.94-55.73,21.24-36.61,16.68-72.01,37.01-105.69,59.58-16.83,11.32-33.22,23.25-48.92,35.87-15.68,12.61-30.74,25.92-44.11,40.06l-9.39,9.93-12.6-5.49c-26.23-11.43-53.95-20.53-82.29-27.9-28.31-7.46-57.23-13.28-86.35-18.17-29.15-4.79-58.53-8.59-88.01-11.47-14.74-1.44-29.51-2.65-44.26-3.62-14.64-.93-29.76-1.76-43.73-1.93-13.97,.08-29.09,.83-43.74,1.71-14.76,.91-29.53,2.06-44.28,3.43-29.49,2.76-58.89,6.44-88.06,11.11-29.14,4.76-58.09,10.47-86.44,17.81-28.37,7.25-56.13,16.24-82.42,27.56l-12.56,5.41-9.29-9.91c-13.32-14.2-28.33-27.58-43.96-40.25-15.65-12.68-32-24.69-48.78-36.07-33.59-22.72-68.91-43.19-105.46-60.03-18.27-8.37-36.89-15.82-55.66-21.48-18.67-5.61-37.88-9.61-55.25-9.2-8.59,.25-16.55,1.75-22.52,4.64-2.99,1.44-5.45,3.19-7.53,5.27-2.46,2.58-4.95,5.67-7.21,9.15-9.08,14.24-15.25,32.96-19.72,51.95-8.82,38.4-12.06,79.26-13.39,119.95-1.2,40.8-.13,81.86,2.51,122.81,2.69,40.95,6.95,81.85,13.06,122.34,3.08,20.23,6.61,40.37,10.88,60.22,4.28,19.8,9.21,39.49,15.61,57.89l2.49,7.17-3.23,6.83c-16.77,35.44-30.68,72.82-43.1,110.71-6.21,18.96-11.98,38.09-17.44,57.31-5.38,19.16-10.71,38.71-14.93,57.64-8.33,38.94-15.63,78.82-22.94,118.43l-10.72,59.59-5.39,30.14c-2.06,10.48-4.56,20.75-7.37,30.85-5.6,20.19-12.44,39.72-19.08,58.74-3.28,9.48-6.59,18.92-9.05,27.72-1.23,4.32-2.15,8.7-2.35,11.3,0,.24,0,.48-.03,.72,0,.15,.03,.14,0,.22,.02,.3,.09,.71,.13,.82,.1,.32-.02-.14-.46-.6-.42-.48-.87-.65-.57-.51,.28,.11,1.19,.37,2.48,.47,2.62,.23,6.45-.06,10.43-.8,8.08-1.48,16.94-4.4,25.64-7.82,4.36-1.72,8.72-3.6,13.05-5.58l6.45-3.06,3.18-1.58,1.57-.8c2.86-1.62,8.18-2.81,12.64-1.73,4.55,.96,8.03,3.41,10.32,5.99,4.58,5.21,5.58,11.42,4.67,16.59l-.4,1.85-.26,1.07-1.07,4.15c-.74,2.71-1.53,5.35-2.35,7.96-1.66,5.19-3.44,10.25-5.33,15.23-1.89,4.98-3.88,9.87-5.94,14.71l-5.93,13.88c-3.81,9.05-7.45,18.05-9.35,25.8-.95,3.82-1.29,7.24-1.11,9.23,.34,2.13,.28,1.84,1.11,2.86,.87,.93,3.13,2.37,6.23,3.41,3.09,1.07,6.87,1.83,10.89,2.24,4.03,.41,8.3,.5,12.66,.33,2.18-.09,4.38-.25,6.59-.45l1.66-.17,2.43-.21c2.18-.2,4.31-.14,6.42-.03,8.4,.68,15.45,3.48,21.33,6.64,5.89,3.22,10.87,6.89,15.36,10.71,17.71,15.37,30,32.51,42.15,49.15l-27.83,20.75-21.42-27.82,27.08-21.61,.16,.15,.16,.14,.6,.84c6.41,9.03,13.22,17.84,20.33,26.48l-4.34-3.76c3.12,1.94,4.57,4,5.26,4.94l.46,.69c.18,.23-.86-1.28-1.21-1.67l.17,.2,.34,.4,.67,.8,1.34,1.6,2.69,3.2,5.49,6.33c3.7,4.18,7.45,8.33,11.29,12.39,7.66,8.14,15.58,16.04,23.76,23.68,8.18,7.63,16.61,15.01,25.25,22.14,8.73,7.26,17.22,13.77,26.48,20.15,36.66,25.63,76.78,46.41,118.65,63.06l-23.27,15.79v-.35s.07-24.68,.07-24.68l23.14,8.87c12.69,4.86,26.19,9.56,39.46,14.01,13.33,4.5,26.74,8.87,40.21,13.02,26.94,8.16,54.16,16.25,81.24,23.35,27.07,6.81,55.01,13.21,82.57,19.55,27.66,6.34,55.38,12.32,83.13,18.29h.04c4.59,1,7.51,5.52,6.52,10.11-.9,4.19-4.74,6.98-8.89,6.7Z" class="cls-12"/><g><path d="M1101.38,587.14c-8.05-12.55,56.75-151.36,158.31-121.44,37.2,10.96,31.04,43.8,9.56,54.2-20.45,9.91-52.14,9.24-78.37,20.24-51.14,21.45-81.45,59.54-89.5,47Z" class="cls-12"/><path d="M1889.08,570.63c8.1-12.51-56.15-151.58-157.83-122.07-37.25,10.81-31.21,43.67-9.77,54.17,20.41,9.99,52.1,9.44,78.29,20.55,51.06,21.65,81.21,59.87,89.31,47.35Z" class="cls-12"/></g><ellipse cx="2103.1" cy="1053.33" class="cls-3" rx="48.75" ry="101.56" transform="translate(1045.6 3154.34) rotate(-89.89)"/><ellipse cx="886.88" cy="1051.44" class="cls-3" rx="48.75" ry="101.56" transform="translate(-166.31 1936.23) rotate(-89.89)"/><path d="M1622.98,980.94s-22.59,58.91-75.18,45.2c-59.86-15.61-52.52-87.02-52.52-87.02h-2.21s7.06,71.43-52.87,86.81c-52.64,13.51-75-45.5-75-45.5,0,0-.78-146.12,128.65-145.86,129.43,.26,129.14,146.37,129.14,146.37Z" class="cls-2"/><g class="cls-6"><path d="M1616.22,994.08c-10.17,16.49-32.18,41.51-68.4,32.04-59.9-15.6-52.57-87.02-52.57-87.02h-2.18s7.06,71.47-52.89,86.84c-36.22,9.29-58.14-15.79-68.26-32.32,10.12,.93,21.13,.14,33.11-2.93,98.96-25.4,87.3-122.36,87.3-122.36h3.67s-12.12,96.91,86.74,122.73c12.12,3.16,23.26,3.99,33.48,3.02Z" class="cls-12"/></g><path d="M1374.46,976.92c1.81,2.74,4.13,6.3,6.46,9.24,2.27,3.11,4.81,5.96,7.32,8.71,5.11,5.41,10.69,9.92,16.5,12.91,5.77,3.13,11.74,4.57,17.88,5.05,3.17-.3,6.25,.09,9.53-.86,1.61-.39,3.24-.48,4.88-.94l4.9-1.61c13.08-4.27,22.86-13.24,29.79-25.73,3.45-6.21,6.01-13.34,7.87-20.79,1.01-3.71,1.67-7.57,2.32-11.44,.58-3.76,1.09-8.05,1.31-11.37l.06-.89c.37-5.46,5.09-9.59,10.55-9.22,4.64,.31,8.33,3.78,9.1,8.17,.93,5.28,1.31,9.65,1.45,14.5,.18,4.74-.04,9.5-.51,14.29-1.04,9.53-3,19.27-7.18,28.58-7.53,18.73-24.52,35.78-44.42,42.31l-7.38,2.51c-2.5,.75-5.2,1.1-7.81,1.57-5.16,1.18-10.8,.88-16.23,.94-11.11-.83-21.94-4.8-30.93-10.62-8.99-5.93-16.13-13.52-21.64-21.68-2.73-4.11-5.14-8.35-7.19-12.71-2.1-4.46-3.67-8.64-5.14-13.88-1.48-5.26,1.59-10.73,6.86-12.2,4.25-1.19,8.62,.58,10.93,4.07l.73,1.12Z" class="cls-12"/><path d="M1632.22,984.49c-1.49,5.23-3.07,9.41-5.19,13.86-2.07,4.36-4.5,8.58-7.24,12.68-5.55,8.14-12.72,15.71-21.73,21.6-9.01,5.78-19.85,9.71-30.97,10.5-5.43-.08-11.08,.2-16.23-1-2.61-.49-5.31-.84-7.8-1.61l-7.37-2.54c-19.88-6.61-36.8-23.72-44.25-42.49-4.14-9.32-6.06-19.07-7.06-28.6-.46-4.79-.65-9.54-.46-14.29,.16-4.85,.56-9.22,1.51-14.5,.97-5.39,6.12-8.97,11.51-8,4.58,.82,7.86,4.68,8.14,9.12l.05,.9c.21,3.33,.7,7.61,1.27,11.38,.63,3.87,1.28,7.73,2.27,11.44,1.83,7.46,4.36,14.6,7.78,20.82,6.88,12.52,16.62,21.52,29.69,25.84l4.89,1.63c1.63,.47,3.26,.57,4.87,.96,3.27,.96,6.36,.59,9.53,.9,6.14-.45,12.12-1.87,17.9-4.98,5.82-2.96,11.41-7.46,16.55-12.84,2.52-2.74,5.08-5.57,7.36-8.68,2.34-2.94,4.68-6.48,6.5-9.22l.73-1.1c3.03-4.55,9.17-5.79,13.72-2.76,3.67,2.44,5.18,6.93,4.04,10.95Z" class="cls-12"/><g><path d="M1566.39,901.82c-.03,16.89-22.1,31.78-42.35,41.88-21.18,10.57-44.89,10.52-66.03-.13-20.21-10.18-42.22-25.15-42.19-42.05,.1-50.96,150.67-50.66,150.57,.3Z" class="cls-12"/><g class="cls-4"><path d="M1520.97,891.74c0,4.87-8.76,9.16-16.78,12.07-8.4,3.04-17.8,3.02-26.18-.05-8.02-2.94-16.75-7.26-16.74-12.13,.03-14.69,59.73-14.58,59.7,.12Z" class="cls-2"/></g></g><g><path d="M1903.82,968.31c-1.88-31.83-7.97-64.98-21.58-90.4-13.62-25.79-34.75-41.84-63.01-48.17-13.93-3.4-27.71-4.47-40.78-2.26-13.04,2.23-25.46,7.64-36.66,16.12-22.68,16.84-39.45,44.71-49.6,75.26l-.06,.2c-2.13,6.41-9.06,9.89-15.47,7.76-5.27-1.75-8.55-6.74-8.37-12.02,.62-18.62,4.92-37.23,12.3-55,7.57-17.65,18.41-34.66,33.39-48.71,14.89-14,34.11-24.82,54.9-29.44,20.77-4.85,42.16-3.6,61.61,1.02,19.36,4.16,39.47,13.11,55.67,26.85,8.11,6.84,15.37,14.68,21.37,23.2,5.92,8.57,10.82,17.63,14.56,26.94,7.7,18.6,10.75,37.89,11.66,56.61,.29,9.4,0,18.7-.89,27.9-1.04,9.31-2.4,18.03-5.03,27.61-1.78,6.5-8.5,10.32-15,8.54-5.17-1.42-8.65-5.96-8.95-11.03l-.05-.97Z" class="cls-12"/><path d="M1058.51,966.42c-2.51-9.61-3.77-18.34-4.69-27.67-.79-9.21-.96-18.51-.55-27.9,1.14-18.71,4.43-37.96,12.35-56.46,3.85-9.27,8.86-18.26,14.89-26.76,6.1-8.45,13.46-16.2,21.65-22.93,16.37-13.54,36.59-22.24,55.99-26.16,19.51-4.38,40.91-5.36,61.62-.26,20.73,4.88,39.82,15.93,54.54,30.11,14.81,14.23,25.44,31.37,32.79,49.11,7.16,17.86,11.24,36.52,11.63,55.15,.14,6.76-5.22,12.35-11.98,12.49-5.55,.12-10.31-3.48-11.92-8.51l-.06-.21c-9.77-30.67-26.2-58.75-48.67-75.87-11.09-8.62-23.45-14.18-36.46-16.57-13.04-2.37-26.84-1.47-40.8,1.76-28.33,5.98-49.66,21.77-63.59,47.39-13.92,25.25-20.42,58.32-22.69,90.12l-.07,.94c-.48,6.72-6.32,11.79-13.04,11.31-5.35-.38-9.65-4.17-10.94-9.09Z" class="cls-12"/></g><path d="M1936.49,1875.45l-131.79-320.13c71.98-16.72,139.4-20.2,181.57-38.5,43.19-18.71,59.81-53.03,27.68-133.04,.6-7.8,2-15.42,4.13-22.75,32.09-113.68,230.79-166.06,311.63-31.62,206.73,343.91-4.78,546.09-393.22,546.04Z" class="cls-2"/><g class="cls-6"><path d="M2277.1,1441.87c-30.04,119.16-209.94,93.15-290.83,74.95,43.19-18.71,59.81-53.03,27.68-133.04,.6-7.8,2-15.42,4.13-22.75,58.6-6.13,285.35-23.45,259.02,80.85Z" class="cls-12"/></g><path d="M1800.76,1538.33c28.36-6.55,56.85-11.33,84.86-15.87,27.9-4.67,55.87-8.82,80.72-16.79,12.25-4.05,23.68-9.21,31.77-16.06,4.1-3.39,7.06-7.3,9.62-11.43,2.13-4.38,3.98-9,4.69-14.4,1.82-10.6,.43-23.13-2.41-35.63-2.95-12.57-7.36-25.27-12.26-37.87v-.02s-1.53-4.03-1.53-4.03l.31-3.82c2.56-31.13,16.31-60.66,36.33-83.19,20.06-22.61,45.23-39.58,72.46-50.67,13.58-5.68,27.74-9.9,42.21-12.55,14.45-2.67,29.19-4.22,44-3.72,14.78,.45,29.63,2.15,44.09,5.96,14.43,3.84,28.51,9.28,41.74,16.46,13.08,7.44,25.32,16.35,36.23,26.68,2.7,2.59,5.19,5.4,7.79,8.1l3.85,4.09,3.48,4.38c2.3,2.93,4.66,5.83,6.9,8.8l6.14,9.28,3.02,4.64,2.57,4.5,5.14,9.01,10.28,18.02c6.26,12.37,12.83,24.58,18.67,37.2,23.14,50.4,41.42,104.41,45.38,161.53,1.93,28.43,.46,57.43-5.78,85.75-6.22,28.31-17.7,55.56-33.14,80.08-30.99,49.32-77.39,86.59-127.52,112.07-6.25,3.3-12.51,6.59-18.99,9.3-6.44,2.83-12.82,5.83-19.32,8.5-13.13,4.92-26.21,10.06-39.61,13.97-13.27,4.48-26.82,7.7-40.29,11.26-6.74,1.75-13.57,2.99-20.38,4.41-6.81,1.35-13.6,2.9-20.46,3.86-54.63,8.37-110.13,15.17-164.84,4.06-4.81-.98-7.92-5.67-6.95-10.49,.73-3.58,3.51-6.22,6.87-6.93h.08c53.5-11.33,106.35-12.49,158.34-22.89,6.53-1.01,12.92-2.59,19.36-3.96,6.41-1.5,12.91-2.65,19.27-4.26,12.69-3.33,25.51-6.32,37.91-10.48,12.61-3.6,24.72-8.41,36.98-12.86,6.05-2.38,11.95-5.07,17.94-7.59,6.05-2.41,11.81-5.35,17.57-8.28,11.74-5.52,22.69-12.29,33.73-18.89l15.82-10.91c5.2-3.73,9.97-7.95,14.99-11.88,19.42-16.43,36.57-35.31,49.97-56.54,13.36-21.23,23.25-44.59,28.65-69.18,5.4-24.59,6.74-50.13,5.02-75.63-3.48-51.2-20.28-101.57-42.19-149.24-5.52-11.94-11.8-23.58-17.74-35.35l-9.84-17.24-4.92-8.62-2.46-4.31-2.53-3.85-5.04-7.66-5.64-7.16-2.82-3.58-3.12-3.28c-2.1-2.17-4.09-4.45-6.26-6.54-8.77-8.27-18.53-15.36-28.96-21.33-42.25-23.46-96.42-23.27-141.92-4.44-22.86,9.26-43.62,23.5-59.51,41.4-15.87,17.94-25.8,39.98-27.79,62.93l-1.2-7.85v.03c5.4,13.86,10.38,28.03,13.91,43.12,3.35,15.1,5.65,31.35,2.85,48.88-1.23,8.71-4.33,17.57-8.65,25.82-4.72,8.05-10.69,15.37-17.55,21.08-13.74,11.47-28.96,17.72-43.52,22.63-29.35,9.31-57.86,13.29-85.9,18.05-28.05,4.54-55.61,9.19-82.6,15.43h-.05c-9.38,2.18-18.75-3.67-20.91-13.06-2.17-9.38,3.68-18.75,13.07-20.91Z" class="cls-12"/><g class="cls-6"><path d="M2277.1,1441.87s-11.98,27.95-62.41,30.83c-21.59,1.21-53.26-7.15-53.26-7.15,0,0-24.19,9.1-59.81,7.57-20.06-.88-45.69-5.57-53.68-11.89-38.22,7.1-70.54-11.38-79.64-59.44-1.72-9.1-2.46-18.25-2.23-27.4,17.55,16.81,47.55,33.43,70.4-17.04,0,0,20.99,99.09,105.27,11.1,0,0,57.58,101.09,135.36,73.42Z" class="cls-12"/></g><path d="M2285.1,1445.3l-.76,3.07c-.21,.91-.49,1.76-.79,2.55-.56,1.68-1.24,3.2-1.99,4.76-1.51,3.01-3.34,5.85-5.4,8.47-4.13,5.24-9.13,9.71-14.59,13.19-10.93,7.19-23.29,10.68-35.19,12.85l-8.97,1.08c-2.94,.33-6.51,.49-9.51,.49-6.23-.09-12.09-.57-17.82-1.33-11.49-1.68-22.05-4.09-33.06-7.99h-.02s10.55-.53,10.55-.53c-3.5,1.24-5.75,1.85-8.54,2.63-2.65,.7-5.28,1.34-7.91,1.89-5.25,1.12-10.5,2.02-15.77,2.66-10.52,1.37-21.11,1.79-31.67,1.51-10.66-.29-20.96-1.42-31.38-3.24-5.22-.94-10.46-2.05-15.94-3.62-2.73-.77-5.59-1.74-8.58-2.91-3.14-1.39-6.29-2.63-10.66-5.95l14.03,3.49c-8.11,1.39-16.5,2.07-25.11,1.52-8.62-.71-17.39-2.67-25.7-6.19-16.73-7.05-30.33-20.91-37.92-35.9-7.99-15.07-11.56-30.77-13.06-46.25-1.48-15.61-.48-31.5,3.05-46.85,7.06-30.76,25.03-58.8,49.11-78.58,24.08-20.01,53.36-31.71,82.63-37.5,29.44-5.68,59.12-5.63,87.96-2.44,7.21,.81,14.36,1.93,21.51,3.02,7.06,1.41,14.22,2.5,21.2,4.19,6.98,1.67,14.04,3.11,20.9,5.13,6.91,1.91,13.66,3.59,21.24,6.41,14.69,5.26,28.54,12.76,40.96,21.9,12.41,9.18,23.3,19.97,32.91,31.54,19.2,23.24,33.2,49.52,43.68,76.82,3.45,8.99-1.04,19.08-10.03,22.53-8.99,3.45-19.08-1.04-22.53-10.03h0s-.05-.15-.05-.15c-9.31-24.29-21.8-47.46-37.9-66.91-8.06-9.69-16.98-18.5-26.84-25.79-9.88-7.25-20.61-13.02-31.96-17.09-5.38-2.07-12.06-3.78-18.49-5.55-6.42-1.9-12.93-3.21-19.4-4.76-6.47-1.57-13.01-2.55-19.51-3.86-6.53-.99-13.06-2.02-19.59-2.75-26.11-2.9-52.38-2.82-77.36,2.01-24.85,4.93-48.45,14.63-67.07,30.13-18.63,15.36-32.01,36.38-37.4,59.64-2.66,11.62-3.42,23.68-2.3,35.61,1.1,12,4.04,23.77,9.12,33.17,1.13,2.5,2.74,4.48,4.09,6.7,1.63,1.9,3.11,3.99,4.95,5.57,3.53,3.35,7.38,6.2,11.87,7.98,4.44,1.85,9.3,2.99,14.47,3.45,5.22,.3,10.67-.11,16.21-1.03l14.03,3.49c-.52-.36,.78,.42,2.07,.94,1.51,.58,3.23,1.19,5.16,1.73,3.82,1.1,8.05,2.02,12.35,2.79,8.64,1.52,17.62,2.5,26.31,2.72,8.77,.24,17.59-.1,26.25-1.24,4.34-.53,8.64-1.27,12.84-2.17,2.11-.44,4.18-.95,6.21-1.48,1.88-.5,4.28-1.23,5.34-1.6,3.4-1.2,6.92-1.35,10.19-.62l.36,.09h.01c9.43,1.24,19.58,2.9,29,3.95,4.73,.56,9.38,1.02,13.68,1.13,2.27,.13,3.98,.18,6.28,.06l6.76-.39c8.99-.46,17.29-2.54,25.14-4.98,3.96-1.22,7.84-2.61,11.56-4.41,1.91-.86,3.7-1.85,5.61-2.85l2.7-1.6,1.32-.79c.43-.18,.93-.66,1.1-.41,1.9-4.43,7.02-6.48,11.45-4.58,4.43,1.9,6.48,7.02,4.58,11.45Z" class="cls-12"/><path d="M1780.79,2703.4c-101.6,0-205.39,13.37-221.83-83.86-1.63-9.66-1.53-18.71-.05-27.17,7.94-46.25,57.58-73.93,97.33-83.21-98.86-68.82-119.11-355.1,171.02-416.25l203.11-93.1c32.18,99.84,54.24,196.43,62.69,284.38v.09c23.31,242.3-56.56,419.13-312.28,419.13Z" class="cls-2"/><g class="cls-6"><path d="M1780.79,2703.4c-101.6,0-205.39,13.37-221.83-83.86-1.63-9.66-1.53-18.71-.05-27.17,16.35,17.32,42.54,29.67,80.8,6.78,0,0,61.02,57.53,118.13-2.93,0,0,300.12,107.83,335.22-311.96,23.31,242.3-56.56,419.13-312.28,419.13Z" class="cls-12"/></g><g class="cls-6"><path d="M1198.55,2703.4c101.6,0,205.39,13.37,221.83-83.86,1.63-9.66,1.53-18.71,.05-27.17-16.35,17.32-42.54,29.67-80.8,6.78,0,0-61.02,57.53-118.13-2.93,0,0-300.12,107.83-335.22-311.96-23.31,242.3,56.56,419.13,312.28,419.13Z" class="cls-12"/></g><path d="M2047,1994.44c17.04,53.13,31.86,107.06,43.52,161.85,11.76,54.74,19.84,110.51,22.83,166.92,2.65,56.35-.05,113.76-14.04,169.85-7.22,27.94-17.32,55.45-31.4,81.24-14.05,25.74-32.13,49.74-54.12,69.73-21.99,19.97-47.5,35.82-74.43,47.44-26.94,11.65-55.27,19.58-83.8,23.66l-10.69,1.77-10.72,1.04c-7.15,.66-14.3,1.41-21.45,1.97l-21.43,.65-10.7,.31-10.24,.04c-27.38,.18-55.2,1.15-83.77,.05-14.29-.61-28.8-1.77-43.52-4.27-14.69-2.69-29.75-6.47-44.26-13.79-7.25-3.53-14.3-8-20.74-13.39-6.51-5.28-12.32-11.61-17.14-18.5-9.88-13.77-15.38-29.56-18.37-44.84-3.05-15.71-2.91-33.52,2.52-49.67,5.26-16.25,15-30.37,26.36-41.58,11.42-11.28,24.44-20.02,38.03-26.99,13.64-6.95,27.91-12.18,42.81-15.73h.02s-6.01,31.29-6.01,31.29c-11.23-7.84-21.07-17.07-29.36-27.29-7.93-10.38-15.22-21.2-20.71-32.72-3.09-5.64-5.32-11.57-7.87-17.4-2.34-5.89-4.32-11.89-6.33-17.88-3.45-12.12-6.38-24.37-8.09-36.79-7.24-49.54-.77-101.06,19.53-147.05,19.95-46.2,54.62-85.32,95.67-112.71,41.33-27.39,88.98-42.42,136.37-47.28,4.81-.49,9.12,3.01,9.61,7.82,.41,4.04-1.99,7.72-5.62,9.09l-.39,.15c-5.4,2.03-10.78,4.03-16.17,5.9l-8.07,2.79c-2.67,.98-5.27,2.13-7.9,3.18-5.24,2.18-10.52,4.16-15.75,6.23-5.1,2.4-10.19,4.75-15.3,7.03-20.08,9.77-39.69,20.19-57.22,33.33-17.6,12.94-33.79,27.59-47.38,44.36-13.6,16.73-24.79,35.3-33.21,55.07-16.73,39.6-22.14,83.99-16.25,126.63,2.97,21.28,8.68,42.23,17.71,61.22,4.26,9.67,9.96,18.35,15.88,26.65,6.28,7.97,13.14,15.18,20.78,21.06l.56,.43c7.66,5.89,9.09,16.86,3.2,24.52-2.53,3.3-6.03,5.44-9.78,6.34h-.02c-23.92,5.76-47.61,17.22-64.21,33.54-8.26,8.16-14.49,17.54-17.75,27.62-3.34,10.15-3.55,20.78-1.45,32.16,2.3,11.77,6.27,22.64,12.6,31.38,3.1,4.43,6.71,8.4,10.95,11.81,4.15,3.49,8.84,6.51,14.02,9.02,20.72,10.27,47.18,13.27,73.65,14.42,26.7,1.04,54.18,.12,82.09-.08l10.5-.05,10.02-.3,20.02-.6,19.84-1.83,9.91-.95,9.77-1.63c26.2-3.71,51.58-10.94,75.34-21.2,23.77-10.26,45.81-23.99,64.81-41.21,18.98-17.25,34.64-38.01,47.05-60.74,12.42-22.76,21.56-47.49,28.17-73.05,12.83-51.37,15.57-105.63,13.01-159.57-2.87-54.03-10.65-108.06-22.12-161.41-11.36-53.38-25.86-106.21-42.59-158.38v-.04c-2.95-9.17,2.09-18.99,11.26-21.93,9.17-2.94,18.99,2.11,21.93,11.28Z" class="cls-12"/><g><path d="M1504.45,1781.72c-21.19,29.38-42.2,58.46-63.43,87.49,6.76,4.53,13.64,8.94,20.58,13.21,41.06,25.81,84.48,49.08,128.2,71.27,27.25,13.77,83.48,41.98,81.21,52.22-5.71,26.2-136.79,8.72-272.36-78.68-13.86,18.88-27.86,37.84-42.02,57.02-8.54,11.55-17.18,23.19-25.85,34.87,20.88,13.82,42.5,26.9,64.56,39.32,25.94,14.73,52.48,28.73,79.25,42.28,26.42,13.34,80.99,40.72,78.81,50.7-4.01,18.44-72.06,14.56-159.29-21.36-33.09-13.56-68.92-31.78-105.06-55.06-22.93,30.47-46.47,61.68-70.92,93.81,35.83,23.67,73.98,44.81,112.69,64.82,5.84,3.05,11.64,6.02,17.52,8.98,24.02,12.16,73.71,37.05,71.75,46.21-3.79,17.39-70.49,12.9-154.32-23.37-27.42-11.9-56.71-27.11-86.23-46.16-12.42,16.22-25.11,32.69-38.06,49.48-12.6,16.35-25.41,32.96-38.54,49.87,33.09,21.62,68.57,40.8,104.36,58.98,19.62,9.94,60.2,30.25,58.59,37.71-4.1,18.7-97.6,6.41-194.77-55.8-10.07,12.9-20.27,25.98-30.69,39.23,5.54,18.79,11.2,38.8,16.65,59.24,30.43,114.52,54.01,242.72,15.65,245.99-41.41,3.53-164.39-174.19-164.39-174.19,0,0-206.67-63.21-215.87-103.79-3.62-15.82,17.35-27.9,51.7-37.01,61.51-16.35,165.96-23.1,248.91-24.85,9.5-13.91,18.83-27.59,28.07-41.02-89.15-73.54-131.56-157.63-112.29-168.79,5.71-3.31,38.27,28.68,53.75,44.38,28.16,28.68,57.19,56.63,87.88,81.6,7.15-10.42,14.25-20.71,21.27-30.86,17.04-24.76,33.7-48.78,50.09-72.23-110.38-90.45-162.95-194.51-139.19-208.15,6.97-4.05,46.91,35.09,65.78,54.36,35.22,35.7,71.4,70.62,109.85,101.66,23.15-33,45.73-64.91,67.87-95.99-121.36-99.35-179.16-213.73-153.05-228.73,7.67-4.45,51.44,38.58,72.19,59.72,38.93,39.49,78.95,78.03,121.45,112.25,9.07-12.6,18.09-25.15,27.11-37.62,13.34-18.48,26.59-36.75,39.84-54.97-124.98-102.31-184.53-220.1-157.63-235.62,7.89-4.53,52.96,39.76,74.37,61.51,30.99,31.43,62.64,62.34,95.64,90.98,9.9,8.67,19.88,17.04,30.03,25.2,21.27-29.03,42.55-57.93,64.12-86.97-120.05-96.21-174.06-191.37-174.06-191.37,1.96-3.05,4.01-6.1,6.19-9.11,95.16-134.31,385.44-265.13,497.52-183.17,45.9,33.57,66.91,106.45,68.88,189.89v.04c2.88,124.8-36.79,273.06-99.22,348.39,0,0-107.06-22.58-235.14-107.8Z" class="cls-11"/><g class="cls-6"><path d="M1072.76,2703.99c-41.41,3.53-164.39-174.19-164.39-174.19,0,0-206.67-63.21-215.87-103.79-3.62-15.82,17.35-27.9,51.7-37.01,1.05,15.04,14.12,32.48,55.89,47.82,82.3,30.25,128.25,35.4,128.25,35.4,0,0,142.46,166.35,128.77-14.21,30.43,114.52,54.01,242.72,15.65,245.99Z" class="cls-12"/></g><g class="cls-6"><path d="M1739.6,1889.52s-107.08-22.57-235.15-107.78c-21.18,29.35-42.21,58.42-63.43,87.49,6.78,4.5,13.65,8.92,20.57,13.19-.14-.05-.28-.09-.42-.19-41-20.85-80.52-51.03-115.02-85.58,9.89,8.64,19.87,17.04,30,25.17,21.27-29.02,42.58-57.91,64.13-86.98-120.04-96.17-174.04-191.36-174.04-191.36,1.95-3.02,3.99-6.08,6.18-9.1,75.78,73.37,487.72,448.25,566.38,6.78,2.88,124.77-36.78,273.05-99.19,348.36Z" class="cls-12"/></g><g class="cls-4"><path d="M1448.86,1450.41c22.05-36.04,126.02-87.46,206.16-67.92,75.39,18.39-228.22,103.96-206.16,67.92Z" class="cls-2"/></g><g class="cls-6"><path d="M1289.08,2074.98c-22.94,30.51-46.48,61.71-70.95,93.85,35.85,23.64,73.97,44.81,112.7,64.82-17.92,14.02-39.52,25.08-65.06,31.81-27.4-11.89-56.7-27.12-86.19-46.16-12.44,16.21-25.12,32.69-38.08,49.45-24.84-3.95-48.06-10.59-69.7-19.32,17.04-24.75,33.71-48.76,50.1-72.21-110.38-90.46-162.94-194.52-139.22-208.17,6.97-4.04,46.9,35.11,65.8,54.38,35.2,35.71,71.37,70.63,109.82,101.65,23.17-33.02,45.74-64.92,67.89-95.98-121.34-99.33-179.15-213.75-153.05-228.75,7.66-4.41,51.45,38.59,72.21,59.72,38.91,39.52,78.94,78.06,121.43,112.28,9.06-12.63,18.11-25.17,27.12-37.61,21.13,13.56,42.35,28.84,62.74,49.5-8.54,11.56-17.18,23.17-25.87,34.87,20.9,13.84,42.49,26.89,64.55,39.33,4.27,22.71,3.95,47.36-1.21,71.6-33.06-13.56-68.91-31.76-105.04-55.07Z" class="cls-12"/></g><path d="M1071.21,2721.5c-17.48,0-45.12-13.19-109.67-92.26-29.37-35.98-54.95-71.71-64.02-84.59-15.02-4.74-56.84-18.27-100.03-35.33-100.63-39.77-118.14-62.48-121.99-79.45-2.28-10,.04-19.79,6.7-28.32,30.99-39.66,179.06-51.67,301.57-54.61,4.74-6.96,9.46-13.87,14.14-20.72-65.03-57.16-113.85-128.93-110.88-164.7,1.12-13.4,8.73-19.7,13.16-22.27,13.57-7.82,26.29-2.09,74.86,47.25,27.55,28.02,50.37,49.65,71.96,68.16,17.12-24.86,34.36-49.76,51.46-74.32-89.93-77.41-141.82-163.89-138.68-202.16,1.2-14.67,9.4-21.48,14.18-24.23,14.31-8.23,29.86,3.86,48.69,20.52,14.3,12.65,30.11,28.46,38.25,36.75,25.45,25.82,58.34,58.33,93.97,88.44,15.71-22.33,31.47-44.63,47.74-67.53-99.12-84.89-156.37-179.78-152.92-221.57,1.26-15.35,9.79-22.43,14.76-25.28,13.45-7.82,27.31,.97,51.43,22.31,14.7,13.01,30.9,29.07,41.9,40.24,40.83,41.5,74.1,72.77,105.69,99.25,14.64-20.33,30.03-41.6,46.6-64.4-102.11-87.36-161.15-185.01-157.64-227.98,1.27-15.58,9.89-22.76,14.91-25.66,13.64-7.88,27.77,1.12,52.42,22.94,15.07,13.34,31.78,29.89,43.14,41.43,29.63,30.09,68.12,68.13,110.05,103.23,14.41-19.61,28.85-39.18,43.37-58.8-112.15-93.37-163.09-181.9-165.28-185.76-3.2-5.63-3.01-12.57,.49-18.02,61.13-95.25,222.75-193.62,360.29-219.28,71.81-13.41,130.03-5.67,168.38,22.36,38.34,28.03,63.38,81.16,72.4,153.66,17.28,138.84-27.4,322.69-99.61,409.84-4.14,4.99-10.69,7.28-17.02,5.94-4.34-.91-104.16-22.57-227.16-101.11-14.28,19.8-28.55,39.5-42.87,59.17,46.18,29.31,94.09,54.42,131.72,73.51l2.73,1.39c70.7,35.86,92.01,50.22,87.63,70.18-1.13,5.16-5.01,14.66-18.34,20.17-40.71,16.83-155.52-11.24-266.6-79.27-17.09,23.24-32.49,44.09-47.26,64,44.6,28.23,90.53,52.29,126.61,70.57l2.23,1.13c69.2,35.05,90.06,49.13,85.73,68.88-1.11,5.1-4.95,14.51-18.11,19.94-39.61,16.33-151.11-10.83-258.93-76.84-17.02,22.63-33.52,44.46-49.95,66.1,39.47,24.8,80.43,46.27,112.78,62.7l1.77,.89c65.02,32.88,83.3,45.34,79.16,64.53-1.09,5-4.79,14.11-17.43,19.32-36.23,14.99-137.71-9.53-235.95-69.31-18.33,23.9-36.85,47.92-55.29,71.69,30.65,18.92,61.91,35.27,86.75,47.88l1.48,.75c51.31,25.97,70.31,37.55,66.22,56.22-1.01,4.63-4.44,13.15-16.05,17.97-29.67,12.3-111.78-6.84-191.6-54.41-5.13,6.58-10.31,13.2-15.54,19.87,34.37,117.64,67.87,262.37,39.48,303.93-6.1,8.93-14.73,14.11-24.96,14.98-.98,.08-2,.13-3.05,.13Zm-361.43-298.74c8.75,17.82,101.24,59.01,203.71,90.35,3.75,1.15,7.01,3.53,9.24,6.75,60.73,87.78,127.75,163.16,147.94,166.64,10.61-13.29,7.16-99.97-46.92-282.79-1.6-5.42-.48-11.26,3-15.71,10.39-13.24,20.58-26.28,30.61-39.17,5.53-7.11,15.57-8.84,23.16-3.98,56.28,36.01,106.6,52.5,138.57,58.42-7.4-3.91-14.22-7.36-18.15-9.35l-1.49-.76c-29.98-15.21-69.12-35.78-106.05-59.95-4.07-2.67-6.85-6.91-7.65-11.72-.8-4.8,.44-9.72,3.43-13.57,25.48-32.8,51.23-66.19,76.54-99.24,5.52-7.22,15.66-8.97,23.29-4.05,84.06,54.19,157.64,73.12,194.35,76.21-14.79-8.45-32.92-17.63-41.13-21.77l-1.8-.91c-37.5-19.04-86.37-44.74-131.91-74.79-4.03-2.66-6.78-6.87-7.59-11.63-.81-4.76,.39-9.64,3.32-13.49,23.27-30.58,46.46-61.25,70.87-93.76,5.5-7.31,15.72-9.15,23.4-4.18,95.47,61.62,182.92,83.12,221.69,84.6-17.03-10.17-41.09-22.36-51.29-27.52l-2.24-1.14c-41.1-20.83-94.79-49.04-145.55-82.59-4-2.64-6.73-6.82-7.56-11.53-.83-4.72,.32-9.58,3.19-13.42,20.83-27.99,42.39-57.17,67.84-91.84,5.46-7.44,15.76-9.33,23.5-4.33,100.43,64.79,191.8,86.52,230.78,87.32-17.54-10.64-43.45-23.78-54.25-29.26l-2.73-1.39c-42.64-21.62-98.29-50.88-150.5-85.45-3.97-2.63-6.69-6.76-7.53-11.45-.84-4.69,.27-9.51,3.07-13.36,21.18-29.05,42.22-58.1,63.33-87.4,5.48-7.61,15.99-9.51,23.8-4.33,101,67.17,189.43,94.7,218.8,102.61,62.92-83.83,100.85-248.59,85.14-374.76-7.81-62.71-27.99-107.6-58.38-129.81-30.39-22.21-79.28-27.82-141.4-16.24-124.99,23.33-270.47,109.46-331.25,194.86,16.44,25.57,69.51,101.48,164.17,177.34,7.31,5.86,8.68,16.46,3.1,23.99-21.51,29.01-42.81,57.87-64.06,86.87-2.81,3.84-7.08,6.36-11.8,6.98-4.72,.62-9.49-.72-13.2-3.71-48.76-39.24-93.56-83.41-127.14-117.5-22.57-22.91-38.38-37.44-48.77-46.14,10.71,34.76,58.86,115.43,155.51,194.54,7.15,5.85,8.49,16.27,3.05,23.75-24.49,33.65-46.38,63.91-66.92,92.51-2.8,3.89-7.07,6.46-11.82,7.11-4.75,.63-9.55-.7-13.29-3.71-47.44-38.24-90.6-80.83-122.9-113.65-20.9-21.24-35.83-35.05-45.89-43.58,11.4,34.48,58.24,111.63,150.17,186.89,7.1,5.81,8.48,16.12,3.16,23.6-23.35,32.83-45.53,64.2-67.79,95.92-2.77,3.95-7.06,6.58-11.84,7.25-4.78,.69-9.63-.67-13.38-3.7-42.48-34.3-81.8-73.06-111.3-102.99-16.34-16.63-28.7-28.25-37.66-36.1,12.81,33.5,56.28,100.03,134.54,164.17,7.04,5.77,8.46,15.99,3.25,23.46-23.64,33.89-47.62,68.54-71.28,102.98-2.76,4.01-7.07,6.69-11.89,7.39-4.83,.67-9.71-.66-13.49-3.74-27.06-22.01-54.61-47.57-89.33-82.88-7.3-7.41-13.61-13.59-19.01-18.71,15.01,28.77,48.11,73.74,101.07,117.42,6.97,5.75,8.4,15.86,3.29,23.32-9.22,13.44-18.55,27.1-27.99,40.99-3.17,4.67-8.41,7.51-14.06,7.63-190.83,3.96-274.44,27.03-283.72,41.16Z" class="cls-12"/><path d="M1531.71,1619.45c7.52-1.17,9.13-32.08,4.28-71.76,39.27-7.43,68.24-18.34,67.07-25.86-1.17-7.56-32.09-9.17-71.76-4.32-7.43-39.27-18.34-68.24-25.86-67.07-7.56,1.17-9.13,32.08-4.28,71.76-39.27,7.43-68.24,18.34-67.07,25.9,1.17,7.52,32.08,9.13,71.76,4.28,7.43,39.27,18.3,68.25,25.86,67.07Z" class="cls-12"/></g><path d="M1365.28,2146.45c-70.49,153.66-381.01,72.07-458.56-38.26-54.01-76.76-53.03-199.63,9.38-329.47,10.87-22.66,23.68-45.55,38.36-68.45l188.58,52.05c-17.92,119.67,110.15,157.05,186.02,219.27,46.11,37.8,72.95,84.75,36.22,164.85Z" class="cls-2"/><g class="cls-6"><path d="M1365.28,2146.45c-70.49,153.66-381.01,72.07-458.56-38.26-54.01-76.76-53.03-199.63,9.38-329.47-28.74,96.54-50.38,251.5,67.89,333.55,105.83,73.46,282.24,98.07,263.43,59.62,49.18,3.9,90.55-26,61.06-86.23,47.74-4.37,33.29-58.65,20.57-104.06,46.11,37.8,72.95,84.75,36.22,164.85Z" class="cls-9"/></g><path d="M969.14,1719.68c-30.92,49.54-55.91,102.88-70.21,158.7-7.17,27.86-11.41,56.33-12.02,84.61-.57,28.25,2.62,56.39,10.76,82.64,4.09,13.11,9.45,25.7,16.13,37.43,3.32,5.8,7.06,11.65,10.89,16.8,3.88,5.17,8.27,10.16,12.98,14.96,19.12,19.16,43.12,34.97,68.38,48.1,25.35,13.14,52.34,23.66,79.97,31.67,27.63,8.01,56.03,13.49,84.44,15.8,28.36,2.36,56.9,1.62,83.81-4.13,26.8-5.75,51.92-16.87,70.41-34.63,9.26-8.82,16.84-19.22,22.49-30.82,5.85-12.2,10.94-25.38,13.78-38.18,1.59-6.45,2.35-12.86,2.9-19.21,.31-6.33,.1-12.57-.72-18.68-1.87-12.14-6.17-23.74-13.2-34.42-13.85-21.58-36.52-39.31-60.46-55.64-24.12-16.41-50.15-31.63-75.51-49.45-12.68-8.91-25.24-18.52-36.87-29.68-11.72-11.04-22.42-23.83-30.83-38.4-8.33-14.55-14.1-31-15.87-47.64-2.06-16.63-.19-33.19,4.05-48.49,1.29-4.67,6.13-7.41,10.8-6.12,3.86,1.07,6.41,4.56,6.44,8.38v.32c.11,14.34,1.12,28.21,4.82,41.07,1.65,6.47,4.13,12.62,6.87,18.57,2.73,5.97,6.12,11.61,9.91,17.04,15.06,21.79,37.03,39.65,60.76,56.18,23.85,16.52,49.79,31.44,75.42,48.55,12.81,8.6,25.58,17.77,37.78,28.32,12.13,10.61,23.81,22.64,33.26,37.12,9.58,14.3,16.29,31.35,19.02,48.84,1.27,8.75,1.62,17.55,1.24,26.2-.61,8.59-1.65,17.11-3.56,25.26-3.61,16.51-9.32,31.54-16.29,46.42-7.35,15.43-17.59,29.74-29.96,41.69-12.34,12.01-26.67,21.65-41.72,28.96-15.05,7.39-30.83,12.47-46.69,16.06-31.79,7-63.88,7.99-95.24,5.53-31.39-2.59-62.19-8.61-92.15-17.32-29.96-8.72-59.14-20.11-87.04-34.61-27.83-14.57-54.68-31.97-78.04-55.34-5.79-5.9-11.33-12.2-16.45-19.02-5.11-6.89-9.43-13.72-13.55-20.93-8.14-14.35-14.55-29.53-19.38-45.06-9.7-31.11-12.94-63.44-11.95-95.09,1-31.69,6.04-62.9,14.1-93.04,16.04-60.4,43.36-116.69,76.95-168.15,5.26-8.07,16.07-10.34,24.13-5.07,7.96,5.2,10.28,15.79,5.27,23.82l-.05,.09Z" class="cls-12"/><path d="M1665.19,2493.65c.82,.55,2.68,1.61,4.2,2.42,1.56,.89,3.29,1.7,4.96,2.55,3.39,1.65,6.89,3.27,10.47,4.74,7.13,3.01,14.51,5.7,22.04,8.03,15.04,4.75,30.62,8.24,46.42,10.84,7.94,.98,15.88,2.32,23.92,2.81,4.01,.3,8.03,.75,12.06,.94l12.11,.41c8.09,.46,16.19-.1,24.32-.09,8.12-.31,16.23-1.03,24.37-1.52l.57-.03c4.8-.29,8.93,3.37,9.22,8.17,.27,4.52-2.98,8.44-7.36,9.13-8.37,1.3-16.73,2.82-25.17,3.92-8.46,.79-16.91,2.14-25.45,2.46l-12.81,.74c-4.28,.19-8.56,.12-12.85,.19-8.59,.26-17.17-.36-25.79-.64-17.2-1.21-34.44-3.42-51.54-7.12-8.56-1.82-17.07-4.04-25.55-6.73-4.25-1.31-8.47-2.79-12.72-4.4-2.12-.83-4.23-1.61-6.4-2.57-2.24-.95-4.1-1.75-6.92-3.2l-.34-.18c-8.82-4.53-12.3-15.36-7.76-24.18,4.53-8.82,15.36-12.29,24.18-7.76,.6,.31,1.25,.7,1.8,1.06Z" class="cls-12"/><path d="M1798.79,2577.78c-12.12,3.51-22.89,11.46-29.85,21.77-7.05,10.25-10.43,22.56-9.18,34.19,1.11,11.67,6.57,22.53,14.71,31.68,8.18,9.18,19,16.6,30.71,22.71l.08,.04c8.55,4.46,11.87,15,7.41,23.55-4.46,8.55-15.01,11.87-23.56,7.41-.51-.27-1.02-.57-1.49-.88-13.7-8.97-26.83-19.82-37.09-33.92-10.21-13.97-17.11-31.62-16.91-49.7-.02-18.05,6.98-35.38,18.1-48.45,11.04-13.19,26.55-22.38,43.33-25.44,4.74-.86,9.28,2.28,10.15,7.02,.81,4.43-1.89,8.69-6.11,9.93l-.29,.08Z" class="cls-12"/><path d="M1675.91,2569.39c-10.07,7.4-18.13,16.99-23.11,27.78-5.02,10.77-6.97,22.61-5.87,34.08,1.07,11.49,5.14,22.57,11.4,32.36,6.25,9.83,14.61,18.37,24.1,25.66l.13,.1c7.65,5.88,9.08,16.84,3.21,24.49-5.88,7.65-16.84,9.08-24.49,3.21-.48-.37-.95-.77-1.38-1.18-11.31-10.73-21.25-23.27-28.3-37.57-7.06-14.24-11.07-30.26-10.8-46.29,.2-16.02,4.74-31.88,12.88-45.3,8.1-13.48,19.7-24.37,32.72-31.95,4.17-2.43,9.51-1.01,11.94,3.15,2.26,3.88,1.19,8.79-2.34,11.4l-.07,.05Z" class="cls-12"/><path d="M2152.35,1367.44c-1.76,3.47-3.65,7.92-5,12.06-1.47,4.2-2.59,8.49-3.38,12.76-1.61,8.52-1.78,16.99-.27,24.62,.52,1.87,.75,3.8,1.41,5.57l2.06,5.21c.81,1.66,1.91,3.18,2.79,4.77,.77,1.64,2.09,3.01,3.3,4.4,1.31,1.34,2.11,2.93,3.71,4.09l4.32,3.68c1.25,1.33,3.2,2.2,4.81,3.28l4.95,3.14,1.63,1.03c8.17,5.19,10.59,16.01,5.41,24.19-5.19,8.17-16.01,10.59-24.19,5.41-.69-.44-1.42-.98-2.02-1.5l-6.67-5.73c-2.17-1.99-4.47-3.64-6.37-6.07l-5.83-6.84c-2-2.18-3.36-5.08-5.01-7.59-3.4-5.01-5.39-10.98-7.45-16.62l-1.99-8.83c-.55-2.94-.58-5.92-.84-8.85-.45-11.75,1.71-22.95,5.28-33.18,1.78-5.13,3.91-10.05,6.39-14.76,2.48-4.81,5.01-9.09,8.45-13.86,2.81-3.9,8.26-4.79,12.16-1.97,3.53,2.55,4.59,7.24,2.68,11.01l-.31,.6Z" class="cls-12"/><path d="M2046.77,1355.87c-3.19,8.12-5.72,17.53-7.25,26.41-1.5,8.99-2.18,17.99-1.4,26.48,.83,8.47,3.05,16.29,6.48,22.97,3.53,6.66,8.86,11.69,14.58,16.15l.76,.59c7.62,5.94,8.99,16.93,3.04,24.56-5.94,7.62-16.93,8.99-24.56,3.04-.58-.45-1.19-1-1.69-1.5-8.75-8.86-16.21-19.28-20.25-30.98-3.93-11.63-5.13-23.49-4.52-34.73,.68-11.25,3.17-21.86,6.44-31.96,3.42-10.18,7.39-19.49,12.91-29.06,2.4-4.17,7.73-5.6,11.91-3.2,3.79,2.19,5.32,6.79,3.76,10.74l-.2,.51Z" class="cls-12"/><g class="cls-4"><path d="M96.78,1652.66c-32.24-12.66,14.74-197.31,130.83-232.82,60.96-18.65,9.01,39.88-27.86,108.99-43.33,81.2-76.37,134.28-102.97,123.83Z" class="cls-2"/></g><g class="cls-4"><path d="M320.75,1412.23c-13.06,2.2-70.47,1.87-40.43-24.35,30.05-26.22,93.42-25.13,96.7-10.38,3.28,14.75-21.17,28.82-56.27,34.73Z" class="cls-2"/></g><path d="M1287.26,2068.94c7.51,2.19,15.99,3.89,24,4.86,8.1,1,16.19,1.34,23.79,.58,7.55-.78,14.81-2.26,20.54-5.21,5.74-2.94,9.92-6.88,13.06-11.4,5.51-7.94,16.41-9.91,24.35-4.41,7.94,5.51,9.91,16.41,4.41,24.35-.53,.76-1.1,1.46-1.72,2.11l-.13,.13c-8.39,8.7-18.96,14.83-29.64,17.94-10.73,3.15-21.15,3.3-31.01,2.66-9.89-.71-19.22-2.76-28.2-5.41-9.06-2.72-17.44-5.85-26.19-10.09-4.33-2.1-6.15-7.32-4.04-11.66,1.89-3.89,6.28-5.75,10.3-4.57l.48,.14Z" class="cls-12"/><path d="M1251.68,2164.31c7.42,3.1,16.17,5.65,24.41,7.23,8.36,1.59,16.73,2.25,24.74,1.88,8.01-.47,15.51-2.29,22.21-5.06,6.76-2.74,12.22-7.31,17.25-12.06l.72-.68c7.04-6.63,18.12-6.31,24.75,.73,6.63,7.04,6.31,18.12-.73,24.75-.58,.55-1.28,1.11-1.91,1.56-9.42,6.65-19.73,12.19-30.78,14.76-10.94,2.6-21.95,3.21-32.4,2.14-10.44-1.17-20.36-3.66-29.77-7.04-9.49-3.5-18.12-7.47-27.02-13-4.09-2.54-5.35-7.91-2.81-12,2.29-3.69,6.88-5.08,10.77-3.45l.57,.24Z" class="cls-12"/></g></g></svg>