<?xml version="1.0" encoding="UTF-8"?>
<svg id="Camada_2" data-name="Camada 2" xmlns="http://www.w3.org/2000/svg" viewBox="0 0 2441.05 3278.11">
  <defs>
    <style>
      .cls-1 {
        opacity: .7;
      }

      .cls-2 {
        fill: #ff999e;
      }

      .cls-3 {
        fill: #fff;
      }

      .cls-4 {
        fill: #369673;
      }

      .cls-5 {
        fill: #ff5c64;
      }

      .cls-6 {
        fill: #58bfa0;
      }

      .cls-7 {
        fill: #ffd62c;
      }

      .cls-8 {
        opacity: .5;
      }

      .cls-9 {
        fill: #ff9c43;
      }

      .cls-10 {
        opacity: .2;
      }

      .cls-11 {
        opacity: .15;
      }

      .cls-12 {
        fill: #fc7581;
      }

      .cls-13 {
        fill: #3a3a3a;
      }

      .cls-14 {
        fill: #f47e1e;
      }

      .cls-15 {
        fill: #ffc933;
      }

      .cls-16 {
        fill: #000072;
      }

      .cls-17 {
        fill: #e8e8e8;
      }

      .cls-18 {
        fill: #ffb42e;
      }

      .cls-19 {
        fill: #f9a528;
      }

      .cls-20 {
        fill: #ff7683;
      }

      .cls-21 {
        fill: #efefef;
      }

      .cls-22 {
        fill: #259e72;
      }

      .cls-23 {
        fill: #1b7751;
      }

      .cls-24 {
        fill: #ff7a45;
      }
    </style>
  </defs>
  <g id="Layer_1" data-name="Layer 1">
    <g>
      <path class="cls-16" d="M607.89,2565.64c-51.38,40.61-119.4,54.76-183.55,59.54-28.67,1.61-32.33-39.95-3.76-43.32,1.99-.18,3.92-.05,5.83,.26,13.4,2,31.97,4.54,45.32,5.18,45.98,2.38,94.04-1.23,136.15-21.66h0Z"/>
      <path class="cls-22" d="M419.01,2853.15c-110.67-61.48-192.19-152.32-245.64-226.95,6.43,3.72-.36-14.5,7.15-8.61,44.92,35.22,170.45,60.39,266.46,63.3,0,0-30.63,110.16-3.57,177.64,.99,2.46-24.78-7.93-24.39-5.38Z"/>
      <path class="cls-6" d="M368.79,2655.36c-14.29,36.98,.88,104.13,70.02,91.44,64.83-11.9,11.23-76.13,11.23-76.13"/>
      <path class="cls-6" d="M1520.45,2807.48c77.08-39.3,124.76-2.04,124.55,50.53-.17,42.03-100.44,65.16-100.44,65.16"/>
      <path class="cls-6" d="M990.14,2796.42c53.21-14.3,88.6,25.18,76.46,79.63-12.3,55.15-106.28-14.29-106.28-14.29,0,0-9.49-54.77,29.82-65.33Z"/>
      <g>
        <g>
          <g>
            <circle class="cls-7" cx="398.11" cy="1799.34" r="376.56"/>
            <path class="cls-18" d="M774.65,1799.35c0,207.93-168.56,376.53-376.53,376.53-145.27,0-271.32-82.24-334.11-202.73,67.55,100.85,182.52,167.2,313.02,167.2,207.97,0,376.57-168.6,376.57-376.57,0-62.55-15.25-121.57-42.3-173.48,40.02,59.79,63.35,131.7,63.35,209.05Z"/>
            <g class="cls-1">
              <path class="cls-3" d="M756.84,1684.66c-51.66-120.53-164.43-208.69-299.37-225.42v.2c.6,14.13-27.21,26.77-62.07,28.29-34.9,1.48-63.63-8.76-64.23-22.89v-.12c-169.84,36.42-297.17,187.44-297.17,368.17,0,39.82,6.16,78.15,17.65,114.17-19.37-45.34-30.09-95.28-30.09-147.71,0-207.97,168.6-376.57,376.57-376.57,168,0,310.26,110.01,358.72,261.88Z"/>
            </g>
            <path class="cls-16" d="M398.11,2197.45C178.59,2197.45,0,2018.86,0,1799.34s178.59-398.11,398.11-398.11,398.11,178.59,398.11,398.11-178.59,398.11-398.11,398.11Zm0-753.12c-195.75,0-355,159.25-355,355s159.25,355,355,355,355-159.25,355-355-159.25-355-355-355Z"/>
            <circle class="cls-9" cx="398.11" cy="1799.34" r="283.05" transform="translate(-1155.72 808.52) rotate(-45)"/>
            <circle class="cls-9" cx="398.11" cy="1799.34" r="283.05" transform="translate(-1155.72 808.52) rotate(-45)"/>
            <path class="cls-24" d="M681.17,1799.35c0,156.31-126.74,283.05-283.05,283.05-127.94,0-235.99-84.84-271.04-201.33,42.46,102.65,143.58,174.88,261.6,174.88,156.35,0,283.05-126.74,283.05-283.05,0-28.41-4.16-55.83-11.97-81.68,13.81,33.3,21.41,69.83,21.41,108.13Z"/>
            <path class="cls-24" d="M115.06,1799.34c0-156.31,126.74-283.05,283.05-283.05,127.94,0,235.99,84.84,271.04,201.33-42.46-102.65-143.58-174.88-261.6-174.88-156.35,0-283.05,126.74-283.05,283.05,0,28.41,4.16,55.83,11.97,81.68-13.81-33.3-21.41-69.83-21.41-108.13Z"/>
          </g>
          <path class="cls-7" d="M491.35,1862.02c0,37.57-28.97,66.54-67.89,75.59v45.26h-50.69v-46.17c-39.38-10.41-70.16-41.65-73.32-44.81l36.21-36.21c2.72,3.17,30.78,32.59,63.37,32.59,24.44,0,40.29-12.22,40.29-25.8,0-40.74-133.98-48.43-133.98-126.28,0-37.57,28.52-66.53,67.44-75.13v-45.26h50.69v46.17c39.38,10.41,70.16,41.19,73.32,44.36l-35.76,36.21c-3.17-3.62-31.68-31.68-63.82-31.68-24.44,0-40.28,11.31-40.28,24.89,0,40.73,134.43,48.43,134.43,126.28Z"/>
        </g>
        <g>
          <ellipse class="cls-15" cx="381.97" cy="1243.82" rx="269.71" ry="371.23" transform="translate(-340.23 161.5) rotate(-16.64)"/>
          <path class="cls-15" d="M640.4,1166.57c58.72,196.45-9.4,390.27-152.12,432.93-142.72,42.66-305.99-81.99-364.72-278.44-17.98-60.15-24.08-120.05-19.75-175.44,1.26-16.32,3.4-32.26,6.47-47.67,1.73-9.04,3.82-17.89,6.21-26.58,11.04-40.64,28.42-77.04,51.43-106.9,28.07-36.57,64.48-63.39,107.72-76.32,142.72-42.66,306.03,81.98,364.75,278.43Z"/>
          <g class="cls-1">
            <path class="cls-3" d="M378.15,901.62l25.11,84.02-286.77,85.72c11.04-40.64,28.42-77.04,51.43-106.9l210.22-62.84Z"/>
          </g>
          <g class="cls-1">
            <path class="cls-3" d="M410.05,1008.34l12.55,41.99-318.78,95.29c1.26-16.32,3.4-32.26,6.47-47.67l299.76-89.6Z"/>
          </g>
          <path class="cls-16" d="M430.39,1629.51c-56.82,0-115.1-21.25-169.04-62.43-72.48-55.33-128.75-140.51-158.44-239.84-62.03-207.51,12.69-413.76,166.57-459.75l78.27-23.39c11.39-3.41,23.4,3.06,26.82,14.46,35.2,117.5,210.87,704.05,212.93,712.41,2.74,11.16-3.75,22.51-14.76,25.79l-78.27,23.39c-20.93,6.26-42.41,9.35-64.08,9.35Zm-90.93-737.94l-57.63,17.23c-131.1,39.19-192.84,221.37-137.62,406.11,27.11,90.68,78,168.07,143.3,217.92,63.26,48.29,132.38,64.64,194.62,46.04l57.72-17.25c-26.33-88.69-135.41-453.08-200.39-670.04Z"/>
          <path class="cls-16" d="M295.4,954.2l-122.25,19.67,112.99-50.65c22.73-8.86,33.14,25.89,9.26,30.97h0Z"/>
          <path class="cls-16" d="M250.94,1288.14l-117.33,18.2,108.07-49.18c22.83-9.02,33.3,25.98,9.26,30.97h0Z"/>
          <path class="cls-16" d="M242.09,1227l-117.33,18.2,108.07-49.18c22.83-9.02,33.3,25.98,9.26,30.97h0Z"/>
          <path class="cls-16" d="M233.01,1165.09l-117.33,18.2,108.07-49.18c22.83-9.02,33.3,25.98,9.26,30.97h0Z"/>
          <path class="cls-16" d="M237.73,1100.72l-117.33,18.2,108.07-49.18c22.83-9.02,33.31,25.98,9.26,30.97h0Z"/>
          <path class="cls-16" d="M245.93,1034.48l-117.33,18.2,108.07-49.18c22.83-9.02,33.3,25.98,9.26,30.97h0Z"/>
          <path class="cls-16" d="M471.37,1542.89l-122.25,19.67,112.99-50.65c22.73-8.86,33.14,25.89,9.26,30.97h0Z"/>
          <path class="cls-16" d="M277.09,1344.11l-117.33,18.2,108.07-49.18c22.83-9.02,33.3,25.98,9.26,30.97h0Z"/>
          <path class="cls-16" d="M303.47,1400.84l-117.33,18.2,108.07-49.18c22.83-9.02,33.31,25.98,9.26,30.97h0Z"/>
          <path class="cls-16" d="M342.75,1452.06l-117.33,18.2,108.07-49.18c22.83-9.02,33.3,25.98,9.26,30.97h0Z"/>
          <path class="cls-16" d="M385.96,1502.94l-117.33,18.2,108.07-49.18c22.83-9.02,33.3,25.98,9.26,30.97h0Z"/>
          <path class="cls-13" d="M508.65,1606.11c-56.82,0-115.1-21.25-169.04-62.43-72.48-55.33-128.75-140.51-158.44-239.84-29.7-99.33-29.4-201.42,.82-287.45,31.07-88.45,89.94-149.64,165.75-172.3,75.81-22.67,158.6-3.81,233.12,53.07,72.48,55.33,128.75,140.51,158.44,239.84,62.03,207.51-12.69,413.75-166.57,459.75-20.93,6.26-42.41,9.35-64.08,9.35Zm-97.04-728.2c-17.51,0-34.76,2.47-51.52,7.48-62.24,18.61-111.05,70.2-137.43,145.29-27.23,77.51-27.3,170.14-.19,260.81,27.11,90.68,78,168.07,143.3,217.92,63.26,48.29,132.38,64.64,194.62,46.04,131.1-39.19,192.84-221.37,137.62-406.11-27.11-90.68-78-168.08-143.3-217.92-46.23-35.29-95.59-53.52-143.1-53.52Z"/>
          <ellipse class="cls-15" cx="460.24" cy="1220.43" rx="269.71" ry="371.23" transform="translate(-330.25 182.93) rotate(-16.64)"/>
          <ellipse class="cls-15" cx="460.24" cy="1220.43" rx="241.12" ry="342.64" transform="translate(-330.25 182.93) rotate(-16.64)"/>
          <g class="cls-1">
            <path class="cls-3" d="M517.51,914.92c-43.64-18.2-89.2-22.45-132.48-9.51-131.88,39.42-193.6,224-137.58,411.41,11.5,38.47,27.05,74.1,45.69,106.09-26.87-38.26-48.96-83.37-63.93-133.42-54.11-181.03,5.49-359.26,132.87-397.34,50.99-15.24,105.24-5.75,155.41,22.77Z"/>
          </g>
          <ellipse class="cls-9" cx="477.66" cy="1215.22" rx="186.01" ry="285.13" transform="translate(-328.03 187.7) rotate(-16.64)"/>
          <path class="cls-24" d="M656.84,1384.74c13.19-56.29,11-124.36-9.62-193.35-45.11-150.9-161.41-249.35-259.87-219.92-45.24,13.52-78.84,51.7-97.5,103.66,15.58-66.81,52.76-117.14,106.14-133.1,98.46-29.43,214.82,69.05,259.91,219.91,24.37,81.51,22.97,161.69,.95,222.8Z"/>
          <path class="cls-16" d="M508.65,1606.11c-56.82,0-115.1-21.25-169.04-62.43-72.48-55.33-128.75-140.51-158.44-239.84-29.7-99.33-29.4-201.42,.82-287.45,31.07-88.45,89.94-149.64,165.75-172.3,75.81-22.67,158.6-3.81,233.12,53.07,72.48,55.33,128.75,140.51,158.44,239.84,62.03,207.51-12.69,413.75-166.57,459.75-20.93,6.26-42.41,9.35-64.08,9.35Zm-97.04-728.2c-17.51,0-34.76,2.47-51.52,7.48-62.24,18.61-111.05,70.2-137.43,145.29-27.23,77.51-27.3,170.14-.19,260.81,27.11,90.68,78,168.07,143.3,217.92,63.26,48.29,132.38,64.64,194.62,46.04,131.1-39.19,192.84-221.37,137.62-406.11-27.11-90.68-78-168.08-143.3-217.92-46.23-35.29-95.59-53.52-143.1-53.52Z"/>
          <path class="cls-15" d="M583.09,1245.07c12.02,40.21-1.7,78.09-29.69,97.01l14.48,48.45-40.23,12.03-14.77-49.41c-34.58-1.8-69-27.93-72.52-30.57l17.15-47.34c3.17,2.75,34.85,27.58,60.71,19.85,19.4-5.8,28.06-22.63,23.72-37.17-13.03-43.6-121.81-20.06-146.72-103.39-12.02-40.21,1.34-77.98,29.48-96.42l-14.48-48.45,40.23-12.03,14.77,49.41c34.58,1.8,68.85,27.45,72.38,30.08l-16.79,47.24c-3.67-3.13-35.28-26.4-60.78-18.77-19.4,5.8-28.35,21.67-24,36.2,13.03,43.6,122.17,19.95,147.08,103.28Z"/>
        </g>
        <path class="cls-6" d="M223.58,1701.53s281.57,211.4,258.38,463.41c0,0,374.52-148.92,687.15-84.31,262.73,54.29-12.21-310.26-12.21-310.26,0,0-381.1-289.1-933.32-68.84Z"/>
        <path class="cls-6" d="M1169.14,2080.6c-190.15-39.28-403.14,.38-540.86,37.5-88.8,23.92-146.34,46.82-146.34,46.82,23.22-252-258.36-463.38-258.36-463.38,82.01-32.71,160.19-54.2,233.95-67.03,423.02-73.76,699.37,135.83,699.37,135.83,0,0,274.95,364.56,12.23,310.25Z"/>
        <path class="cls-4" d="M1169.14,2080.6c-190.15-39.28-403.14,.38-540.86,37.5-20.91-204.96-121.66-399.26-170.75-483.58,423.02-73.76,699.37,135.83,699.37,135.83,0,0,274.95,364.56,12.23,310.25Z"/>
        <path class="cls-4" d="M1197.43,2003.66c-3.56-.54-7.54-1.29-11.96-2.21-57.54-11.85-118.11,8.24-184.65,8.24-136.26,0-276.73,24.84-380.51,50.54-24.95-144.72-84.54-279.16-130.28-366.82,282.12-39.39,561.33,93.81,594.52,116.11,45.1,61.86,99.73,152.7,112.88,194.13Z"/>
        <path class="cls-22" d="M545.49,2080.62c-15.31-161.84-123.64-277.83-193.38-352.74,321.91-120.47,693.82,55.7,732.42,81.67,45.1,61.82,99.78,152.69,112.91,194.09-3.55-.54-7.53-1.25-11.98-2.17-57.54-11.89-118.13,8.21-184.65,8.21-172.86,0-352.42,39.98-455.32,70.93Z"/>
        <path class="cls-23" d="M1197.43,2003.66c-3.56-.54-7.54-1.29-11.96-2.21-57.54-11.85-118.11,8.24-184.65,8.24-136.26,0-276.73,24.84-380.51,50.54-24.95-144.72-84.54-279.16-130.28-366.82,282.12-39.39,561.33,93.81,594.52,116.11,45.1,61.86,99.73,152.7,112.88,194.13Z"/>
        <path class="cls-4" d="M976.31,1934.1c-51.05-20.99-176.74,25.43-201.54-71.09-17.77-69.18,151-99.4,196.43-46.31,30.05,35.12,56.15,138.4,5.1,117.4Z"/>
        <path class="cls-6" d="M401.04,1799.34c52.97-5.1,83.4-51.56,55.65-100.49-33.32-58.77-127.63,14.22-127.63,14.22,0,0,24.05,61.25,71.97,86.27Z"/>
        <path class="cls-16" d="M481.96,2186.49c-4.58,0-9.13-1.46-12.91-4.29-6-4.49-9.24-11.77-8.56-19.24,21.84-237.28-247.13-442.15-249.85-444.2-6.23-4.68-9.45-12.36-8.42-20.08,1.03-7.72,6.14-14.29,13.38-17.18,290.8-115.99,534.32-90.65,687.39-48.96,166.42,45.32,262.91,117.58,266.94,120.64,1.58,1.2,2.99,2.61,4.18,4.19,28.93,38.36,170.6,233.86,118.54,316.13-20.29,32.07-63.32,41.56-127.9,28.22-302.81-62.57-671.14,81.77-674.83,83.23-2.57,1.02-5.28,1.53-7.96,1.53Zm-215.93-478.09c69.87,60.33,238.05,226.18,238.86,425.07,97.08-34.28,401.89-129.07,668.59-73.95,43.92,9.08,73.31,5.87,82.75-9.05,26.47-41.82-50.5-178.89-114.61-264.58-15.26-10.88-106.52-73.02-251.89-112.27-140.27-37.88-360.16-61.28-623.69,34.78Z"/>
        <path class="cls-6" d="M289.35,1311.12s227.28,245.5,329.06,568.19c0,0,308.31-173.55,620.95-108.95,262.73,54.29-82.46-469.35-82.46-469.35,0,0-497.03-157.47-867.55,10.1Z"/>
        <path class="cls-4" d="M824.09,1834.05s-30.8-156.65-255.4-311.37c-223.29-153.82-107.59-250.46-66.2-251.8,18.3-.59,894.78,212.1,894.78,212.1v351.08"/>
        <path class="cls-23" d="M1255.84,1691.26c-.05-.05-.11-.05-.11-.05-44.24-9.11-238.31-19.88-470.65,52.7-34.81-59.27-99.25-140.52-216.39-221.23-36.21-24.95-63.47-48.33-83.57-70.1-17.67-19.07-29.85-36.85-37.66-53.23-16.38-34.11-14.17-62.18-3.99-83.3,13.85-28.72,42.4-44.61,59-45.15,3.07-.11,30.33,5.82,73.66,15.73,121.07,27.75,367.52,86.8,558.96,132.98,15.41,26.19,33.03,57.38,50.06,90.3,51.78,100.06,66.7,154.8,70.69,181.36Z"/>
        <path class="cls-4" d="M446.76,1397.82c-20.53-43.97-10.08-77.8,8.19-99.46,2.05,.11,4.04,.27,6.03,.54,51.89,43.91,14.33,87.83-14.22,98.93Z"/>
        <path class="cls-22" d="M664.94,1788.11c-70.72-180.46-197.78-375.69-272.58-456.34,421.32-139.65,649.91,21.62,712.87,38.54,18.38,29.45,50.05,81.87,79.91,139.56,51.81,100.11,66.7,154.84,70.68,181.36-.03,0-.07-.02-.1-.02-51.64-10.67-307.99-23.57-590.78,96.9Z"/>
        <path class="cls-23" d="M1255.84,1691.26c-.05-.05-.11-.05-.11-.05-44.24-9.11-238.31-19.88-470.65,52.7-34.81-59.27-99.25-140.52-216.39-221.23-36.21-24.95-63.47-48.33-83.57-70.1-12.88-19.07-25.49-36.91-37.66-53.23-20.1-27.05-38.85-50-55.12-67.57,17.35-5.76,34.43-10.99,51.13-15.73,46.77-13.36,90.95-22.95,132.65-29.42,305.07-47.58,475.98,69.4,529.11,83.68,7.92,12.66,18.27,29.53,29.85,49.3,15.41,26.19,33.03,57.38,50.06,90.3,51.78,100.06,66.7,154.8,70.69,181.36Z"/>
        <path class="cls-6" d="M461.01,1298.88c59.64,50.5,1.11,100.94-26.12,101.63-27.22,.68-60.57-77.57-60.57-77.57,0,0,46.28-29.28,86.69-24.05Z"/>
        <path class="cls-4" d="M446.76,1397.82c-20.53-43.97-10.08-77.8,8.19-99.46,2.05,.11,4.04,.27,6.03,.54,51.89,43.91,14.33,87.83-14.22,98.93Z"/>
        <path class="cls-6" d="M630.91,1702.69c90.52-35.39,109.84,59.89,99.73,71.67-17.73,20.67-105.85,27.75-105.85,27.75,0,0-34.28-104.65,6.13-99.42Z"/>
        <path class="cls-16" d="M618.41,1900.86c-2.68,0-5.37-.5-7.92-1.51-6.04-2.39-10.68-7.37-12.63-13.56-99.06-314.08-322.09-557.62-324.32-560.04-4.71-5.08-6.68-12.12-5.3-18.91,1.38-6.79,5.93-12.51,12.24-15.36,373.75-169.04,862.33-17.54,882.94-11.01,4.71,1.49,8.77,4.56,11.48,8.68,.59,.9,59.85,91.07,110.36,191.74,71.81,143.13,91.24,235.52,59.41,282.46-20.04,29.55-56.94,39-109.67,28.11-301.24-62.26-603,104.93-606.02,106.62-3.27,1.84-6.91,2.77-10.57,2.77Zm-293.19-581.63c56.73,66.4,218.12,269.83,305.76,529.17,78.53-39.24,341.69-155.15,612.74-99.14,33.99,7.03,55.96,3.64,65.27-10.09,40.3-59.41-78.63-286.02-165.8-419.76-60.42-17.64-486.64-133.58-817.97-.17Z"/>
        <path class="cls-4" d="M351.47,2716.77s-207.2-124.64-255.5-220.24c-38.61-76.41-57.68-184.95-61.11-221.47,0,0,302.92,240.09,706.14,20.86,162.46,279.91,144.85,474.67,144.85,474.67,0,0-230.97,179.14-391.64,117.56-112.26-43.03-142.73-171.39-142.73-171.39Z"/>
        <path class="cls-23" d="M132.03,2395.54l227.32,315.12s63.3,116.38,89.84,123.19c26.54,6.81,287.89,2.02,415.21-112.3-63.34-104.81-130.04-379.78-130.04-379.78,0,0-253.18,145.65-602.33,53.77Z"/>
        <path class="cls-4" d="M567.95,2545.62s-91.1,38.07-59.28,107.41c32.23,70.23,186.22,54.28,222.97,16.8,33.18-33.83,69.42-81.77,29.27-126.38-8.34-9.26-76.91-43.77-192.95,2.17Z"/>
        <path class="cls-16" d="M568.51,2922.59c-28.14,0-55.82-4.26-82.02-14.3-104.91-40.21-143.94-145.82-153.51-177.57-38.48-23.83-210.48-133.9-256.24-224.46-41.92-82.97-60.23-196.08-63.34-229.17-.81-8.59,3.59-16.84,11.18-20.96,7.59-4.11,16.9-3.3,23.66,2.05,.71,.56,74.93,58.3,195.75,89.15,161.35,41.18,325.1,17.53,486.71-70.34,10.25-5.57,23.08-1.98,28.93,8.12,164.02,282.59,148.42,479.2,147.68,487.43-.54,5.96-3.53,11.42-8.26,15.09-8.31,6.44-176.11,134.95-330.54,134.96Zm-196.08-210.84c.28,1.18,29.55,117.98,129.48,156.28,131.61,50.45,321.94-79.05,362.83-108.63,.7-40.19-5.06-207.71-132.13-434.68-206.6,105.99-385.92,93.67-501.29,63.84-74.84-19.35-132.35-47.88-168.1-68.94,9.02,48.56,26.19,116.13,51.99,167.18,44.98,89.02,245.35,210.27,247.37,211.49,4.96,2.98,8.51,7.83,9.85,13.45h0Z"/>
        <path class="cls-3" d="M854.52,2744.17c-82.23-4.83-248.95-109.61-327.54-123.97-84.26-15.39-231.05-31.14-274.01-63.72-143.3-108.68,29.98-288.61,29.98-288.61,0,0,113.82-250.93,394.12-251.86,232.25-.77,304.05,249.57,304.05,249.57"/>
        <path class="cls-16" d="M854.54,2765.73c-.43,0-.85-.01-1.28-.04-49.41-2.9-121.8-36.57-191.81-69.14-51.99-24.19-105.76-49.19-138.33-55.14-18.49-3.38-40.19-6.8-63.17-10.42-85.44-13.46-182.27-28.72-219.99-57.33-39.54-29.99-61.34-67.71-64.8-112.12-7.42-95.38,74.25-189.06,89.86-206.03,15.58-31.13,139.6-260.15,411.99-261.05h1.14c244.82,0,322.94,262.53,323.7,265.18,3.28,11.44-3.33,23.38-14.77,26.66-11.45,3.3-23.38-3.34-26.66-14.77-2.76-9.54-70.21-233.96-282.26-233.96-.34,0-.66,0-.99,0-262.62,.87-370.13,229.51-374.58,239.24-1.01,2.22-2.4,4.27-4.09,6.02-.86,.89-86.95,91.67-80.34,175.47,2.52,32,18.18,58.5,47.86,81.01,29.08,22.06,128.24,37.68,200.65,49.09,23.25,3.66,45.2,7.12,64.21,10.59,38,6.94,91.81,31.97,148.77,58.47,63.26,29.42,134.96,62.77,176.16,65.19,11.88,.7,20.95,10.9,20.25,22.78-.67,11.45-10.17,20.29-21.49,20.29Z"/>
        <path class="cls-3" d="M388.88,2530.95s-77.2,83.99-180.13,8.78c-34.93-25.52-92.38-108.67-103.64-251.16-12.46-157.73,26.81-308.23,160.81-308.3,107.55-.06,169.82,124.6,146.51,287.63,0,0,4.87,22.73,4.87,139.17s-28.42,123.87-28.42,123.87Z"/>
        <path class="cls-20" d="M286.79,2426.73c-8.14,27.1-23.11,38.42-42.73,40.57-28.45,3.18-69.94-33.3-81.2-114.39,14.49,31.57,39.01,70.85,73.28,77,19.18,3.45,35.94,1.94,50.65-3.18Z"/>
        <path class="cls-5" d="M292.77,2392.79c-4.31,52.16-22.31,71.61-48.71,74.52-27.91,3.07-68.48-31.95-80.55-110.02,11.75,21.23,31.36,42.67,63.36,46.44,25.97,3.07,47.79-1.78,65.9-10.94Z"/>
        <path class="cls-2" d="M244.04,2467.31c-29.14,3.24-72.01-35.13-82-120.55-9.5-81.32,15.62-126.27,55.93-126.53,33.94-.22,70.88,48.78,74.89,117.7,5.48,94.08-14.61,125.57-48.82,129.38Z"/>
        <path class="cls-20" d="M286.79,2426.73c-8.14,27.1-23.11,38.42-42.73,40.57-28.45,3.18-69.94-33.3-81.2-114.39,14.49,31.57,39.01,70.85,73.28,77,19.18,3.45,35.94,1.94,50.65-3.18Z"/>
        <path class="cls-2" d="M266.96,2220.23c-11.95-.23-28.55-18.05-26.77-53.07,1.42-28.09,10.47-45.94,26.78-43.91,13.73,1.71,27.17,20.14,26.57,47.26-.72,32.37-12.55,49.99-26.58,49.72Z"/>
        <path class="cls-2" d="M212,2176.05c-10.89-.21-24.83-16.41-24.39-48.35,.42-30.41,11.84-45.75,26.7-43.91,12.51,1.56,23.75,21.38,21.91,46.96-2.52,34.91-11.43,45.55-24.22,45.3Z"/>
        <path class="cls-2" d="M167.78,2220.23c-9.14-.18-20.84-13.77-20.47-40.57,.35-25.52,9.93-38.39,22.4-36.84,10.5,1.3,19.93,17.94,18.39,39.4-2.11,29.3-9.59,38.22-20.32,38.01Z"/>
        <path class="cls-16" d="M388.88,2530.95c-16.81,40.92-63.52,64.6-106.97,60.93-37.19-3.13-72.52-20.15-99.95-44.58-83.37-84.29-106.3-209.07-105.97-322.94,1.97-82.71,16.37-174.46,82.76-232.5,46.72-39.61,117.71-47.86,172.48-20.89,101.05,53.49,126.27,199.6,81.2,296.94-12.21-72.44-13.98-149.3-54.22-211.56-12.66-18.61-29.01-33.64-47.87-42.18-36.67-16.82-87.24-9.56-117.71,17.56-33.3,29.59-48.54,76.57-56.16,120.82-17.24,112.74-2.76,282.91,83.09,366.34,49.27,42.26,110.55,36.19,169.31,12.06h0Z"/>
        <path class="cls-3" d="M1015.97,1879.31c-46.8-119.44-245-270.93-380.64-384.2-64.33-53.72-148.47-129.99-174.32-190.57-29.79-69.8-16.29-135.96,32.91-178.11,124.93-107.03,367.02,24.09,474.3,131.17,114.3,114.08,188.68,235.44,188.68,235.44"/>
        <path class="cls-3" d="M1156.91,1493.03l-53.07,145.48-87.88,240.79c-46.77-119.45-245-270.91-380.61-384.17-64.33-53.72-148.5-130.01-174.36-190.58-29.74-69.83-16.27-136,32.92-178.13,124.95-107.01,367.04,24.09,474.31,131.2,43.91,43.86,82.01,88.8,112.13,127.48,48.38,61.96,76.56,107.92,76.56,107.92Z"/>
        <path class="cls-3" d="M1156.91,1493.03l-53.07,145.48-41,112.34-46.88,128.45c-46.77-119.45-245-270.91-380.61-384.17-64.33-53.72-148.5-130.01-174.36-190.58-27.69-65.09-17.89-127,23.38-169.13,3.02-3.18,6.2-6.14,9.54-9,124.95-107.01,367.04,24.09,474.31,131.2,43.91,43.86,82.01,88.8,112.13,127.48,48.38,61.96,76.56,107.92,76.56,107.92Z"/>
        <g class="cls-11">
          <path class="cls-16" d="M1062.84,1750.85l-46.88,128.45c-46.77-119.45-245-270.91-380.61-384.17-64.33-53.72-148.5-130.01-174.36-190.58-27.69-65.09-17.89-127,23.38-169.13-1.56,3.66-43.48,105.07,58.03,213.96,131.36,140.95,313.86,252.27,371.4,308.63,77.53,75.81,121.77,95.15,149.03,92.84Z"/>
        </g>
        <g class="cls-10">
          <path class="cls-16" d="M1156.91,1493.03l-53.07,145.48c-177.75-74.95-284.01-208.2-290.15-269.67l266.66,16.27c48.38,61.96,76.56,107.92,76.56,107.92Z"/>
        </g>
        <path class="cls-21" d="M1734.78,1561.3c-3.18,37.23-47.58,75.76-173.5,107.38-192.57,48.44-357.18,17.57-482.5-41.33l90.36-147.63,547.65,31.74c4.36,5.66,8.08,11.48,10.99,17.35,5.23,10.56,7.92,21.44,7,32.49Z"/>
        <path class="cls-2" d="M613.47,1182.51c-18.29,12.11-30.77,59.37,4.94,98.43,28.97,31.69,91.79,51.16,118.67,23.94,16.49-16.7,6.03-58.82-12.85-89.39-23.62-38.26-80.24-53.19-110.77-32.97Z"/>
        <path class="cls-2" d="M518.55,1209.92c-5.64,7.68-7.06,28.38,13.63,38.9,19.96,10.15,40,2.08,45.33-6.43,5.07-8.11,5.07-24.34-10.48-35.46-16.55-11.82-38.67-10.37-48.48,2.98Z"/>
        <path class="cls-2" d="M546.8,1142.83c-5.88,6.88-8.69,26.39,10.17,37.82,18.2,11.02,37.76,4.8,43.4-2.89,5.38-7.33,6.52-22.71-7.43-34.33-14.85-12.37-35.91-12.55-46.14-.59Z"/>
        <path class="cls-2" d="M620.41,1127.03c-5.25,4.35-9.83,18.48,2.7,29.38,12.1,10.52,27.42,8.4,32.59,3.42,4.93-4.75,7.75-16.02-1.12-26.44-9.44-11.09-25.05-13.92-34.18-6.35Z"/>
        <path class="cls-16" d="M1015.98,1900.87c-8.61,0-16.74-5.19-20.07-13.69-38.89-99.26-195.18-227.86-320.76-331.19-18.58-15.29-36.59-30.11-53.62-44.33-99.89-83.42-158.88-148.4-180.33-198.65-33.23-77.84-18.76-153.71,38.71-202.94,141.09-120.85,397.58,26.52,503.55,132.29,114.79,114.57,188.73,234.39,191.83,239.43,6.22,10.15,3.03,23.41-7.11,29.63-10.14,6.22-23.41,3.05-29.64-7.1-.73-1.19-74.52-120.65-185.53-231.46-98.94-98.75-332.29-226.68-445.05-130.06-43.06,36.89-52.95,92.76-27.11,153.29,18.45,43.23,75.08,104.63,168.31,182.49,16.95,14.16,34.89,28.91,53.38,44.13,136.18,112.05,290.52,239.05,333.51,348.75,4.34,11.08-1.12,23.59-12.2,27.93-2.58,1.01-5.24,1.49-7.86,1.49Z"/>
        <path class="cls-3" d="M1723.76,1511.82s162.21,642.63-38.09,1073.45c-71.7,154.22-285.03,313.56-663.47,230.02-118.75-26.21-288.39-80.25-345.81-203.63,0,0-40.01-104.56-29.83-238.5,8.85-116.46,59.19-235.65,59.19-235.65,64.59-191.14,246.91-299.62,317.28-419.02l146.07-238.79,554.64,32.12Z"/>
        <g class="cls-11">
          <path class="cls-16" d="M1730.71,1956.51c-29.6-50-102.09,318.74-336.17,361.16-570.45,103.39-636.42-260.05-669.37-146.01-5.98,20.71-16.23,106.21-64.38,159.01-57.94,46.87-143.59,73.55-245.35-25.82-20.79-21.86-31.51-36.41-31.51-36.41,0,0-24.25,183.59-147.78,161.47-58.66-10.5-88.86-118.08-88.86-118.08,2.59,124.55,69.08,260.78,252.68,207.15,0,0,30.66,59.81,213.91,31.74,15.42,51.7,86.9,106.06,165.19,123.33,149.11,73.96,379.83,94.33,625.43,18.28,134.32-136.85,424.51-569.76,326.2-735.83Z"/>
        </g>
        <g class="cls-11">
          <path class="cls-16" d="M1734.78,1561.3c-3.18,37.23-47.58,75.76-173.5,107.38-192.57,48.44-357.18,17.57-482.5-41.33l90.36-147.63,547.65,31.74,6.95,.38s1.51,5.93,4.04,16.97c1.83,8.14,4.26,19.07,7,32.49Z"/>
        </g>
        <path class="cls-16" d="M695.55,2134.06c22.18-88.34,75.9-165.62,136.76-232,58.45-65.82,127.02-121,181.45-189.04,3.53-5.13,10.75-6.36,15.66-2.43,4.11,3.25,5.21,8.88,2.91,13.37-5.18,10.11-10.02,20.82-16.18,30.39-17.67,28.81-39.44,55.46-61.88,80.56-47.69,52.91-99.18,101.77-144.34,156.7-9.08,11.78-21.05,26.01-29.35,38.28-25.22,34.64-46.86,71.6-64.61,111.06-5.18,11.9-23.57,5.9-20.42-6.9h0Z"/>
        <path class="cls-16" d="M1744.66,1506.54c77.94,341.65,110,769.19-39.85,1094.48-49.42,101.47-142.3,177.21-246,217.82-137.14,53.82-289.53,50.35-431.37,19.89-116.74-26.03-242.21-63.7-323.03-158.17-15.94-19.24-29.04-41.05-37.78-64.35-2.1-5.59,.74-11.82,6.33-13.91,5.02-1.88,10.55,.21,13.14,4.7,22.61,39.06,56.09,69.74,93.81,94.13,77.27,48.54,167.17,75.91,256.58,94.71,175.41,37.29,376.57,29.1,521.14-87.52,74.52-58.44,113.48-135.8,142.05-223.97,72.32-221.72,71.59-460.58,48.44-690.9-10.18-92.46-24.62-185.95-45.25-276.34-6.61-26.97,33.71-38.97,41.79-10.55h0Z"/>
        <path class="cls-16" d="M797.61,1001.39c-57.54-68.97-130.29-127.03-211.56-165.85-27.24-13.91-55.98-24.21-84.58-35.32-7.96-2.58-12.31-11.4-9.07-19.21,2.69-6.59,9.73-10.1,16.45-8.57l23.59,5.35c7.82,1.99,15.85,3.41,23.47,6.12,54.28,16.12,106.82,41.93,152.67,75.14,46.37,34.4,87.84,75.62,113.93,128.01,7.21,16.04-14.62,28.57-24.91,14.33h0Z"/>
        <path class="cls-16" d="M769.28,1117.73c-91.17-52.25-199.4-91.92-304.97-64.96-12.99,3.31-19.15-15.62-6.6-20.52,81.77-31.85,175.57-16.85,252.61,21.22,25.71,12.94,49.9,27.71,72.01,47.1,4.48,3.93,4.93,10.75,1,15.23-3.61,4.13-9.62,4.78-14.05,1.92h0Z"/>
        <path class="cls-3" d="M951.73,722.55l259.71-166.82,300.11-192.72C1377.69,188.52,1097.62-17.56,998.95,27.63c-18.69,8.59-35.14,31.24-48.73,64.5-51.02,124.78-61.76,398.16,1.5,630.41Z"/>
        <g class="cls-11">
          <path class="cls-16" d="M951.73,722.55l259.71-166.82c-44.31-162.16-159.05-534.45-261.22-463.59-51.02,124.78-61.76,398.16,1.5,630.41Z"/>
        </g>
        <g class="cls-8">
          <path class="cls-3" d="M944.6,106.93c10.6-18.51,22.58-31.32,35.57-37.29,95.01-43.56,357.91,145.69,496.88,315.53l34.49-22.16C1377.69,188.52,1097.62-17.56,998.95,27.63c-21.32,9.77-39.76,38-54.35,79.3Z"/>
        </g>
        <path class="cls-16" d="M951.73,744.11c-9.48,0-18.17-6.3-20.78-15.89-37.7-138.34-52.44-302.33-40.44-449.92,5.7-70.17,26.81-236.96,99.44-270.24,116.73-53.49,407.25,170.5,538.68,341.84,7.25,9.44,5.46,22.97-3.98,30.22-9.45,7.24-22.98,5.46-30.22-3.98C1353.93,192.96,1085.63,11.61,1007.91,47.25c-71.13,32.59-115.45,375.79-35.37,669.63,3.13,11.49-3.65,23.33-15.13,26.46-1.9,.52-3.8,.76-5.68,.76Z"/>
        <path class="cls-2" d="M995.72,497.47c56.99-61.06,103.51-101.82,143.48-131.69,35.05-26.11,65.02-43.8,92.61-59.25-2.89-31.74-176.98-225.87-213.93-175.33-11.05,15.11-20.32,38.97-27.42,67.81-22.12,89.31-23.79,226.31,5.26,298.47Z"/>
        <path class="cls-20" d="M990.46,199.01c14.59-14.5,36.23-31.18,53.41-24.74,29.25,10.97,80.98,118.79,95.33,191.51,35.05-26.11,65.02-43.8,92.61-59.25-2.89-31.74-176.98-225.87-213.93-175.33-11.05,15.11-20.32,38.97-27.42,67.81Z"/>
        <path class="cls-16" d="M988.4,536.9l-12.65-31.38c-40.32-100.02-26.46-317.06,24.73-387.05h0c6.62-9.05,22.2-22.97,52.25-14.63,66.84,18.55,197.1,162.75,200.53,200.77l1.25,13.91-12.18,6.83c-59.86,33.54-127,75.6-230.84,186.83l-23.09,24.73Zm46.54-392.54c-34.42,47.95-51.67,212.24-29.34,311.55,84.61-86.58,145.04-127.46,198.41-158.37-11.58-18.05-37.64-51.17-73.95-86.85-54.21-53.26-86.78-67.49-95.12-66.33Zm-17.07-13.18l17.39,12.72s.02-.02,.03-.03l-17.42-12.69Z"/>
        <path class="cls-19" d="M1719.38,394.03l295.47,380.46,127.69,164.41c149.95-204.17,235.67-481.21,219.02-610.28-3.43-26.56-11.18-46.8-23.59-58.94-80.91-79.06-426.85,10.34-618.59,124.36Z"/>
        <path class="cls-14" d="M2014.85,774.48l127.69,164.41c149.95-204.17,235.67-481.21,219.02-610.28-24.41-41.38-68.7-75-131.69,37.04-65.3,116.01-160.63,301.71-215.03,408.84Z"/>
        <g class="cls-8">
          <path class="cls-3" d="M1719.38,394.03l18.63,23.97c196.13-104.33,531.77-170.68,591.37-126.35,48.45,36.04,13.06,219.87-33.24,364.08,68.93-176.46,88.9-340.1,41.83-386.06-80.91-79.06-426.85,10.34-618.59,124.36Z"/>
        </g>
        <path class="cls-16" d="M2142.51,960.43c-4.43,0-8.9-1.36-12.74-4.18-9.59-7.05-11.66-20.53-4.61-30.13,180.48-245.73,256.16-584.03,197.76-641.06-64.18-62.68-390.91,7.61-592.53,127.48-10.23,6.08-23.45,2.72-29.54-7.51-6.08-10.23-2.72-23.46,7.51-29.54,187.99-111.76,549.51-214.19,644.67-121.27,59.28,57.89,21.9,222.19,3.08,290.15-39.61,142.98-111.12,291.42-196.22,407.27-4.22,5.75-10.76,8.79-17.39,8.79Z"/>
        <path class="cls-3" d="M1903.24,336.16c-65.77-43.65-135.03-76.76-196.71-93.71-99.56-27.35-285.28-77.82-476.06-10.83-348.63,122.42-420.41,467.92-476.43,614.35-11.28,29.47-87.06,133.94-75.83,281.35,11.09,145.63,97.6,388.34,543.56,498.41l280.66,44.82c348.21,29.24,569.38-73.91,658.78-246.29,103.03-198.68,91.6-483.72,42.49-664.24"/>
        <path class="cls-3" d="M2161.2,1424.28c-41.54,80.12-111.59,145.26-209.65,189.12-112.83,50.54-262.78,72.79-449.1,57.17l-280.67-44.83c-306.15-75.54-442.85-213.64-502.12-339.88-27.05-57.65-37.93-112.88-41.43-158.52-11.26-147.42,64.55-251.89,75.81-281.37,56.04-146.45,127.81-491.93,476.41-614.35,190.79-66.97,376.52-16.54,476.09,10.83,61.64,16.92,130.93,50.06,196.67,93.7l300.49,423.88c49.09,180.5,60.51,465.53-42.51,664.24Z"/>
        <g class="cls-11">
          <path class="cls-16" d="M1951.55,1613.4c-112.83,50.54-262.78,72.79-449.1,57.17l-280.67-44.83c-306.15-75.54-442.85-213.64-502.12-339.88,19.77-18.64,79.43-.4,104.42,18.68,118.54,90.52,357.43,381.62,1146.1,168.88,8.03,33.46-.05,84.59-18.64,139.98Z"/>
        </g>
        <path class="cls-19" d="M1604.03,447.17c-21.65,268.66,226.57,507.87,554.48,534.3,26.95,2.17,53.6,2.84,79.79,2.05-.04-1.24-.09-2.48-.18-3.73-.94-16.11-2.17-32.11-3.71-47.79-.25-2.21-.41-4.41-.66-6.57-4.16-39.93-10.17-78.11-17.65-113.5-3.78-18.1-7.94-35.48-12.42-51.92,0,0-44.56-103.4-106.23-203-61.66-99.6-194.22-220.88-194.22-220.88-65.78-43.61-135.07-76.7-196.71-93.66-7.45-2.03-15.33-4.09-23.63-6.14-44.58,61.84-72.61,133.35-78.86,210.85Z"/>
        <path class="cls-2" d="M2012.94,444.8c46.29,52.93,99.88,119.51,164.79,266.65,5.75-6.08,11.44-13.04,16.93-20.69,38.67-53.28,71.38-140.58,85.81-215.79,9.01-46.8,11.01-88.91,2.95-115.26-18.61-61.1-256.63,56.39-270.48,85.09Z"/>
        <path class="cls-20" d="M2012.94,444.8c46.29,52.93,99.88,119.51,164.79,266.65,5.75-6.08,11.44-13.04,16.93-20.69,2.25-55.31-31.06-121.27-40.15-169.85-18.88-100.79,63.56-147.75,89.17-133.39,15.18,8.52,30.7,63.47,36.78,87.46,9.01-46.8,11.01-88.91,2.95-115.26-18.61-61.1-256.63,56.39-270.48,85.09Z"/>
        <path class="cls-16" d="M2177.72,733c-1.21,0-2.43-.1-3.65-.31-7.12-1.22-13.16-5.93-16.07-12.55-63.06-142.97-114.25-207.4-161.27-261.13-5.69-6.5-6.95-15.77-3.2-23.55,16.42-34.07,189.47-120.09,263.56-114.36,33.04,2.54,43.58,21.35,46.93,32.34h0c25.82,84.74-36.21,293.78-110.62,372.79-4.11,4.36-9.8,6.78-15.69,6.78Zm-135.22-286.95c41.78,49.07,87.03,110.23,140.23,224.25,56.89-84.63,97.58-246.85,80.07-304.31h0l-.02-.05c.03,.1-3.29-2.05-13.55-2.05-2.73,0-5.96,.15-9.76,.53-59.57,5.97-162.03,56.59-196.97,81.62Z"/>
        <path class="cls-17" d="M660.05,1124.25c12.42,2.38,24.67,3.37,36.5,2.99-12.82-29.87-22.2-59.33-28.97-87.52-5.35,28.03-8.49,56.9-7.53,84.53Z"/>
        <ellipse class="cls-2" cx="1870.31" cy="1311.12" rx="102.18" ry="146.88" transform="translate(228.61 2899.17) rotate(-79.08)"/>
        <path class="cls-2" d="M660.03,1124.27c68.73,13.23,132.5-17.7,142.42-69.08,9.92-51.42-37.83-103.88-106.68-117.16-18.13,51.8-37.94,122.28-35.74,186.23Z"/>
        <path class="cls-12" d="M660.05,1124.25c12.42,2.38,24.67,3.37,36.5,2.99-12.82-29.87-22.2-59.33-28.97-87.52-5.35,28.03-8.49,56.9-7.53,84.53Z"/>
        <path class="cls-16" d="M1661.22,1663.83c50.34-13.17,102.04-18.23,152.65-29.62,122.08-26.34,242.9-86.98,310.64-194.78,65.54-109.9,87.48-240.02,92.17-366.79,5.01-104.36-13.48-205.95-23.4-309.92-.53-6.01,3.92-11.31,9.93-11.84,4.71-.42,9,2.25,10.88,6.31,22.72,49.27,33.94,102.47,40.09,155.7,6.52,53.28,9.25,107,8.46,160.77-3.18,145.29-30.42,308.05-121.75,425.76-77.01,98.54-197.94,153.57-317.94,177.58-39.43,8.31-80.24,13.69-120.56,12.09-13.47-.6-26.93-1.72-40.33-3.72-5.99-.89-10.12-6.47-9.22-12.46,.69-4.6,4.12-8.07,8.38-9.08h0Z"/>
        <path class="cls-16" d="M1897.28,345.14c-69.76-40.17-141.79-72.78-220.07-90.18-77.21-19.38-155.82-33.98-235.45-34.76-211.63-5.8-414.65,112.06-522.22,293.07-56.76,90.58-92.33,191.14-126.08,292.9-5.47,16.03-11.19,32.81-17.34,48.88-3.8,9.07-10.47,21.41-14.88,29.74-37.32,67.92-62.22,143.44-59.88,220.86,2.78,102.75,43.74,203.38,113.21,279.45,70.36,78.38,162.8,132.6,260.14,171.78,49.27,19.87,99.64,36.9,149.71,58.42,5.54,2.38,8.1,8.8,5.72,14.34-1.9,4.42-6.39,6.94-10.94,6.56-110.68-10.39-214.88-55.65-309.87-112.3-202.88-121.33-314.14-357.2-225.87-585.24,12.31-32.86,28.67-63.53,44.84-93.85,8.3-17.69,13.44-35.54,20.05-53.98,34.37-103.6,72.51-208.91,131.78-302.25,157.69-255.17,438.33-359.44,727.39-292.21,54.2,12.56,107.04,25.83,158.77,47.38,51.22,22.07,99.02,50.36,142.91,83.44,10.31,8.49,.02,24.41-11.92,17.96h0Z"/>
        <path class="cls-16" d="M2031.54,1283.63c91.48-39.75,196.28-36.8,291.03-11.77,31.68,8.08,62,20.52,91.65,34.07,5.42,2.43,7.85,8.79,5.42,14.22-2.37,5.33-8.48,7.64-13.77,5.65-15.11-4.48-29.74-10.13-44.82-14.28-29.1-8.09-61.21-15.72-91.29-19.7-45.96-6.93-92.85-7.56-139.09-3.61-30.8,2.68-62.19,7.54-91.93,15.61-12.49,3.24-19.04-14.75-7.2-20.19h0Z"/>
        <path class="cls-13" d="M1993.25,1422.39c87.84-3.48,177.19,24.57,245.57,80.07,22.86,18.78,42.48,41.57,57.81,66.63,3.11,5.08,1.51,11.72-3.57,14.84-4.76,2.92-10.89,1.69-14.2-2.63-68.11-87.41-179.88-122.86-285.77-137.35-13.17-1.14-13.1-20.66,.15-21.55h0Z"/>
        <g>
          <path class="cls-3" d="M1686.21,237.13c-59.29-18.26-135.97-4.59-229.05-137.87-64.82-92.91-99.79-4.18-99.95,53.48,0,0-180.75-93.31-220.93-50.29-49.12,52.6,74.17,141.49,32.68,170.05"/>
          <path class="cls-16" d="M1168.97,294.05c-6.86,0-13.59-3.26-17.77-9.34-6.6-9.59-4.37-22.63,4.9-29.52-.53-7.73-12.67-27.64-20.07-39.79-22.45-36.85-53.19-87.31-15.5-127.67,40.24-43.07,155.78,2.48,218.29,31.91,6.21-34.06,22.07-70.76,52.04-80.13,27.75-8.66,55.99,7.28,83.98,47.41,69.72,99.85,127.45,110.87,178.38,120.59,13.65,2.6,26.53,5.06,39.34,9.01,11.38,3.5,17.76,15.57,14.26,26.94-3.5,11.38-15.55,17.76-26.94,14.26-10.54-3.25-22.29-5.49-34.73-7.87-56.08-10.71-125.87-24.03-205.64-138.26-19.08-27.35-31.73-32.2-35.77-30.94-11.15,3.49-24.86,37.46-24.96,72.14l-.1,35.25-31.33-16.17c-87.03-44.9-180.12-70.99-195.29-54.73-14.26,15.27-.37,41.06,20.81,75.82,18.66,30.63,44.21,72.57,8.33,97.27-3.73,2.57-7.99,3.8-12.2,3.8Z"/>
        </g>
        <path class="cls-16" d="M1870.43,593.53c8.53-12.06-48.4-147.78-151.27-127.25-28.45,5.68-25.68,34.02-11.88,53.22,24.94,34.69,154.62,86.09,163.15,74.03Z"/>
        <path class="cls-16" d="M1004.73,415.59c-2.85-12.33,86.35-101.54,161.3-51.88,20.73,13.73,9.33,35.32-7.85,46.08-31.04,19.43-150.6,18.13-153.46,5.8Z"/>
        <path class="cls-13" d="M1533.18,1308.48c-12.88,12.97-28.4,25.02-46.85,35.89-129.96,76.35-312.6,50.87-403.38-37.35-10.41-9.95-19.54-20.91-27.31-32.51-24.02-35.98-49.22-122.01,.82-178.36,78.45-88.49,177.35,3.29,294.61-19.27,68.77-13.15,170.23-31.23,215.43,31.6,29.5,40.91,36.16,131.14-33.33,200Z"/>
        <path class="cls-16" d="M1575.57,1245.29c-8.67,21.71-22.36,43.32-42.4,63.2-12.88,12.99-28.4,25-46.82,35.88-95.85,56.31-220.37,57.22-315.58,18.43-33.84-13.79-64.01-32.65-87.83-55.77-10.4-9.97-19.5-20.91-27.26-32.54-24.03-35.94-49.25-121.99,.81-178.35,78.45-88.47,177.32,3.29,294.62-19.29,68.75-13.15,170.21-31.2,215.42,31.63,21.01,29.1,30.44,83.19,9.05,136.8Z"/>
        <path class="cls-2" d="M1575.57,1245.29c-8.67,21.71-22.36,43.32-42.4,63.2-12.88,12.99-28.4,25-46.82,35.88-95.85,56.31-220.37,57.22-315.58,18.43,4.58-26.78,20.58-86.32,74.73-114.07,54.74-28.02,128.4,9.91,128.4,9.91,0,0,34.27-46.34,94.94-50.11,37.29-2.32,75.49,4.9,106.74,36.75Z"/>
        <path class="cls-3" d="M1194.41,1062.79c-11.53,39.87-28.23,85.24-44.77,85.24s-25.49-46.28-30.87-88.96c23.82-4.63,49.03-1.45,75.65,3.72Z"/>
        <path class="cls-3" d="M1510.75,1070.77c-11.53,40.3-28.5,86.91-45.26,86.91s-26.02-49.25-31.3-92.94c26.51-1.78,53.07-.81,76.56,6.03Z"/>
        <path class="cls-16" d="M1311.07,1405.82c-22.83,0-45.86-1.95-68.72-5.92-88.06-15.29-161.01-57.73-200.15-116.44h0c-30.93-46.39-50.7-138.51,2.16-198.08,53.2-59.93,116.48-46.43,177.69-33.38,40.34,8.6,82.06,17.5,126,9.05,67.12-12.9,179.45-34.5,231.6,38,21.87,30.39,29.61,76.98,20.21,121.59-8.3,39.4-33.31,95.26-105.36,137.66-52.93,31.15-117.31,47.52-183.44,47.52Zm-241.97-140.29c73.85,110.76,276.45,142.92,409.02,64.9,61.88-36.42,83.16-83.43,90.12-116.46,9.07-43.08-2.31-78.67-14.82-96.05-40.1-55.73-139.72-36.58-199.26-25.13-50.38,9.68-97.38-.33-138.85-9.18-59.27-12.64-106.08-22.63-146.77,23.23-44.97,50.66-18.45,130.19,.55,158.69h0Z"/>
        <path class="cls-3" d="M1522.98,1681.3c147.78-113.53,388.55-370.24,681.38-365.42,161.29,2.65,327.48,199.03,106.48,335.69-147.78,91.39-378.76,148.15-556.88,335.09"/>
        <g class="cls-11">
          <path class="cls-16" d="M1679.62,2024.24s-91.95-28.89-47.89-132.39c65.34-153.5,355.27-199.25,518.62-245.65,101.95-28.96,247.57-87.29,226.22-181.04,0,0,62.7,110.03-232.47,227.44-328.14,130.52-434.86,242.62-464.48,331.63Z"/>
        </g>
        <ellipse class="cls-2" cx="2191.29" cy="1476.07" rx="99.38" ry="78.05"/>
        <ellipse class="cls-2" cx="2345.39" cy="1500.21" rx="31.18" ry="26.79"/>
        <ellipse class="cls-2" cx="2314.2" cy="1415.47" rx="31.18" ry="26.79" transform="translate(-72.04 125.15) rotate(-3.05)"/>
        <ellipse class="cls-2" cx="2234.62" cy="1368.85" rx="30.55" ry="26.25" transform="translate(-69.69 120.88) rotate(-3.05)"/>
        <path class="cls-16" d="M1516.41,1672.75c189.01-179.69,410.59-381.3,688.46-380.81,110.78,2.23,230.8,85.31,236.18,202.98-1.02,143.92-161.32,200.3-269.68,252.61-147.11,65.65-291.9,135.03-409.61,246.55-9.63,8.95-24.43-4.28-15.6-14.87,26.82-31.33,56.42-60.39,88.12-86.81,94.38-79.45,208.26-134.07,318.6-184.95,69.07-33.91,147.28-65.05,200.71-119.27,54.84-55.84,52.27-128.05-3.24-183.85-56.59-56.63-126.55-71.92-204.14-62.04-158.84,16.95-297.81,104.62-421.97,201.24-64.61,49.41-125.58,102.42-194.68,146.31-10.58,6.71-22.79-8-13.13-17.09h0Z"/>
        <g>
          <path class="cls-3" d="M1194.02,2429.68c18.71-153.98,157.41-284.41,324.06-262.29,294.92,39.15,262.29,568.95-81.02,731.44"/>
          <path class="cls-16" d="M1194.02,2429.68c-.79-138.12,114.33-269.01,252.89-284.96,78.92-11.47,166.14,12.34,219.76,74.08,63.64,71.45,80.14,173.3,72.65,264.43-13.31,151.76-90.82,297.9-214.33,388.25-24.73,17.96-51.13,33.65-78.72,46.82-26.04,11.5-44-26.04-18.44-38.96,152.86-71.65,255.14-232.69,267.45-399.58,5.84-81.39-9.57-167.58-64.15-228.89-53.42-60.36-142.92-74.66-218.66-54.74-110.07,28.62-191.37,123.2-218.46,233.55h0Z"/>
        </g>
        <g>
          <path class="cls-3" d="M1242.16,2894.54c41.23,31.56,163.7,44.07,228.99-23.97,143.82-149.88,174.7-435.9,9.32-499.57-142.46-54.85-257.44,31.67-301.48,250.79-8.15,40.55-36.07,196.77,63.17,272.75Z"/>
          <path class="cls-13" d="M1338.65,2941.58c-44.33,0-85.49-11.47-109.59-29.93-98.25-75.23-86.78-216.56-71.2-294.11,26.26-130.67,78.64-220.9,151.48-260.93,52.21-28.69,114.06-30.68,178.87-5.73,61.02,23.49,101.87,74.46,118.12,147.4,27.51,123.46-22.8,286.3-119.63,387.21-38.29,39.9-95.4,56.08-148.05,56.08Zm61.89-565.08c-25.19,0-48.73,5.97-70.44,17.89-61.36,33.72-106.3,113.82-129.98,231.64-13.61,67.7-24.53,190.39,55.14,251.39h0c30.7,23.52,141.04,40.01,200.33-21.77,87.56-91.25,133.26-237.6,108.66-347.99-9.04-40.57-32.26-93.73-91.53-116.55-25.31-9.74-49.42-14.62-72.18-14.62Z"/>
        </g>
        <path class="cls-16" d="M1453.3,955.24c50.53-94.35,231.99-140.54,287.91-28.08,6.96,14.93,10.62,30.66,11.09,46.29-34.72-51.71-76.4-73.96-136.63-68.83-55.53,5.16-112.7,22.91-162.37,50.62h0Z"/>
        <path class="cls-16" d="M1116.46,922.5c-35.12-59.35-94.9-107.17-165.18-92.21-21.05,4.6-41.26,16.79-60.9,35.45,1.66-13.48,7.05-26.62,15.31-38.34,25.93-37.28,78.89-49.17,120.77-35.3,55.37,16.38,96.76,73.72,90,130.4h0Z"/>
        <path class="cls-4" d="M1999.31,2186.31s146.81-89.06,123.32-415.95c0,0,182.34-.09,165.12,257.4-14.66,219.3-288.44,158.55-288.44,158.55Z"/>
        <path class="cls-16" d="M2079.37,2215.65c-46.26,0-81.75-7.64-84.73-8.3-8.59-1.91-15.16-8.85-16.6-17.53-1.42-8.63,2.51-17.27,9.95-21.85,1.93-1.23,135.17-89.36,113.13-396.06-.43-5.97,1.64-11.84,5.72-16.22,4.08-4.38,9.79-6.87,15.77-6.87h0c3.08,0,72.55,.7,126.63,58.48,46.35,49.52,66.53,124.18,60,221.91-4.16,62.24-27.95,110.03-70.69,142.05-47.55,35.62-109.56,44.4-159.19,44.4Zm-80.06-29.34h0Zm48.54-15.15c45.49,3.58,116.56,1.84,164.97-34.49,32.17-24.14,50.14-61.26,53.42-110.34,5.68-84.95-10.45-148.55-47.95-189.04-24.19-26.13-52.95-37.21-72.59-41.92,9.98,215.86-54.4,326.42-97.85,375.79Z"/>
        <path class="cls-6" d="M2122.63,1770.36c339.94,103.42-71.62,280.89-452.14,51.88l-52.33,743.39s459.19,106.73,667.26-134.48c44.04-51.06,57.39-309.43,16.93-499.96-10.17-47.91-23.01-150.75-179.73-160.83Z"/>
        <path class="cls-6" d="M2309.59,2371.13c-6.47,27.96-14.6,48.92-24.19,60.02-208.03,241.22-667.26,134.49-667.26,134.49l52.37-743.39c380.51,228.99,792.05,51.51,452.11-51.89,127.91,8.24,159.97,78.24,172.96,129.69,2.96,11.64,4.9,22.31,6.79,31.14,31.63,149.03,30.39,339.56,7.22,439.94Z"/>
        <path class="cls-6" d="M2309.59,2371.13c-6.47,27.96-14.6,48.92-24.19,60.02-208.03,241.22-667.26,134.49-667.26,134.49l52.37-743.39c380.51,228.99,792.05,51.51,452.11-51.89,127.91,8.24,159.97,78.24,172.96,129.69,2.96,11.64,4.9,22.31,6.79,31.14,31.63,149.03,30.39,339.56,7.22,439.94Z"/>
        <path class="cls-6" d="M2309.59,2371.13c-3.5,15.14-7.49,28.18-11.91,38.74-3.77,9-7.87,16.16-12.28,21.28-208.03,241.22-667.26,134.49-667.26,134.49l33.3-472.64,19.07-270.75c150.71,90.68,306.26,117.62,418.06,110.67,17.24-1.08,33.41-2.96,48.38-5.55,133.25-22.9,170.26-100.86-14.33-157.01,127.91,8.24,159.97,78.24,172.96,129.69,2.96,11.64,4.9,22.31,6.79,31.14,31.63,149.03,30.39,339.56,7.22,439.94Z"/>
        <path class="cls-4" d="M2297.68,2409.87c-3.77,9-7.87,16.16-12.28,21.28-208.03,241.22-667.26,134.49-667.26,134.49l33.3-472.64c44.13-24.62,107.92-68.48,157.6-135.78,42.19,33.35,94.61,132.06,94.61,132.06,0,0,124.79-56.09,184.92-156.36,17.24-1.08,33.41-2.96,48.38-5.55l160.73,482.5Z"/>
        <path class="cls-4" d="M2289.7,2385.94c-96.77,68.43-277.38,144.72-584.82,113.96l30.98-465.26c2.86-2.32,5.66-4.74,8.51-7.33,2.75-2.37,5.5-4.85,8.24-7.44,3.39-3.12,6.79-6.3,10.13-9.59,2.37-2.32,4.69-4.69,7-7.06,2.8-2.86,5.6-5.77,8.3-8.73,2.64-2.8,5.23-5.66,7.76-8.57,.54-.59,1.02-1.13,1.51-1.72,2.37-2.69,4.74-5.44,7-8.24,2.69-3.18,5.33-6.47,7.87-9.81,2.37-2.91,4.63-5.93,6.84-8.94,5.12,4.09,10.4,9.11,15.73,14.82,38.47,41.11,78.88,117.24,78.88,117.24,0,0,65.14-29.26,123.93-83.35h.05c46.34,3.02,92.41,1.94,133.41-6.25l128.67,386.27Z"/>
        <path class="cls-4" d="M1836.94,1986.04c-9.27,60.4-75.43,65.2-109.54,55.6,27.91-22.47,56.57-50.43,81.63-84.43,9,7.17,18.53,17.3,27.91,28.83Z"/>
        <path class="cls-23" d="M2289.7,2385.94c-96.77,68.43-277.38,144.72-584.82,113.96l30.98-465.26c22.68-19.07,45.58-41.81,66.33-68.48,7.06,1.89,14.6,3.88,22.58,5.87,38.47,41.11,78.88,117.24,78.88,117.24,0,0,65.14-29.26,123.93-83.35,46.34,3.02,92.46,1.94,133.46-6.25l128.67,386.27Z"/>
        <path class="cls-22" d="M2309.59,2371.13c-90.95,71.5-274.79,161.8-604.71,128.78l36.75-551.52s479.65,160.94,553.95-48.33c2.96,11.64,4.9,22.31,6.79,31.14,31.63,149.03,30.39,339.56,7.22,439.94Z"/>
        <path class="cls-23" d="M2289.7,2385.94c-96.77,68.43-277.38,144.72-584.82,113.96l30.98-465.26c2.86-2.37,5.66-4.85,8.51-7.33,2.75-2.42,5.5-4.9,8.24-7.44,3.39-3.12,6.79-6.3,10.13-9.59,2.37-2.32,4.69-4.69,7-7.06,2.8-2.86,5.55-5.77,8.3-8.73,2.64-2.8,5.23-5.66,7.76-8.57,.54-.59,1.02-1.13,1.51-1.72,2.37-2.69,4.69-5.44,7-8.24,2.69-3.18,5.33-6.47,7.87-9.81,7.06,1.89,14.6,3.88,22.58,5.87,38.47,41.11,78.88,117.24,78.88,117.24,0,0,65.14-29.26,123.93-83.35h.05c46.34,3.02,92.41,1.94,133.41-6.25l128.67,386.27Z"/>
        <path class="cls-6" d="M1708.64,2031.76c14.97,19.49,131.7,32.33,129.31-63.47-1.71-68.75-133.07-59.72-133.07-59.72,0,0-11.21,103.7,3.76,123.19Z"/>
        <path class="cls-4" d="M1836.94,1986.04c-9.27,60.4-75.43,65.2-109.54,55.6,27.91-22.47,56.57-50.43,81.63-84.43,9,7.17,18.53,17.3,27.91,28.83Z"/>
        <path class="cls-16" d="M1849.22,2611.29c-126.77,0-227.11-22.61-235.94-24.66-10.32-2.4-17.36-11.94-16.62-22.51l52.33-743.4c.53-7.48,4.9-14.15,11.56-17.61,6.65-3.46,14.63-3.21,21.06,.66,235.73,141.87,464.2,118.99,528.73,76.01,6.99-4.65,18.51-13.87,17.12-23.29-2.25-15.32-32.7-41.66-111.1-65.51-10.47-3.18-16.89-13.71-14.93-24.47,1.96-10.77,11.69-18.33,22.59-17.66,165.37,10.64,187.35,118.62,197.91,170.51l1.52,7.36c40.85,192.4,29.7,458.92-21.69,518.51-115.98,134.46-302.69,166.06-452.52,166.06Zm-208.24-63.02c85.49,16.02,453.73,70.97,628.11-131.2,34.58-40.09,54.58-281.68,12.17-481.4l-1.59-7.72c-3.02-14.83-6.49-31.88-13.19-48.8-4.71,11.61-14.2,24.47-32.27,36.5-85.79,57.14-318.25,66.13-544.65-57.62l-48.59,690.23Z"/>
        <path class="cls-6" d="M1809.74,2051.25c-34.58,0-191.83,303.73-906.28,285.78l13.7,600.92s801.65,66.55,1044.36-353.04c0,0-58.28-351.63-151.78-533.67Z"/>
        <path class="cls-6" d="M1961.51,2584.93c-109.43,189.12-332.45,279.48-544.36,321.72-9.91-198.87-66.33-466.34-97.47-602.01,106.68-21.98,190.58-52.8,256.58-85.35,159.97-78.83,214.72-168.05,233.47-168.05,15.52,30.17,30.01,64.98,43.48,102.1,67.73,186.86,108.3,431.59,108.3,431.59Z"/>
        <path class="cls-4" d="M1483,2705.89c-31.52,3.72-61.91-.11-87.93-9.21-9.48-64.6-20.91-129.42-32.54-189.66,22.09-17.89,48.28-28.13,69.99-31.57,48.92-7.76,153.78-14.01,179.8,44.67,59.21,133.41-81.09,180.12-129.31,185.78Z"/>
        <path class="cls-4" d="M1961.51,2584.93c-109.43,189.12-332.45,279.48-544.36,321.72-9.91-198.87-66.33-466.34-97.47-602.01,106.68-21.98,190.58-52.8,256.58-85.35,98.49-7.43,203.08-25.7,276.95-65.95,67.73,186.86,108.3,431.59,108.3,431.59Z"/>
        <path class="cls-4" d="M1832.04,2248.66c-57.38,31.3-96.23-3.83-100.81-51.67,31.95-7.38,62.34-16.65,89.87-28.29,21.23,25.7,42.84,62.56,10.94,79.96Z"/>
        <path class="cls-23" d="M1876.49,2568.49c-97.47,160.94-285.95,237.67-463.91,273.45-14.55-162.83-52.32-354.05-80.34-481.43,220.75-42.94,372.42-114.07,446.35-176.08,50,139.01,85.13,315.04,97.9,384.06Z"/>
        <path class="cls-22" d="M992.65,2868.56l-16.33-469.95c416.89-12.25,693.59-123.03,802.29-214.16,49.98,139.02,85.14,315.03,97.9,384.05-214.85,354.68-871.36,300.33-883.85,300.07Z"/>
        <path class="cls-23" d="M1876.49,2568.49c-97.47,160.94-285.95,237.67-463.91,273.45-14.55-162.83-52.32-354.05-80.34-481.43,220.75-42.94,372.42-114.07,446.35-176.08,50,139.01,85.13,315.04,97.9,384.06Z"/>
        <path class="cls-6" d="M1483.02,2705.9c-87.12,10.21-165.39-36.75-167.77-94.24-3.56-85.85,68.28-128.51,117.23-136.23,48.95-7.72,153.82-13.97,179.85,44.67,59.21,133.4-81.12,180.16-129.31,185.8Z"/>
        <path class="cls-4" d="M1483,2705.89c-31.52,3.72-61.91-.11-87.93-9.21-9.48-64.6-20.91-129.42-32.54-189.66,22.09-17.89,48.28-28.13,69.99-31.57,48.92-7.76,153.78-14.01,179.8,44.67,59.21,133.41-81.09,180.12-129.31,185.78Z"/>
        <path class="cls-6" d="M1731.44,2175.06c-6.81,57.85,34.71,109.55,100.61,73.59,51.76-28.24-37.32-107.65-37.32-107.65,0,0-23.14,4.08-63.3,34.06Z"/>
        <path class="cls-4" d="M1832.04,2248.66c-57.38,31.3-96.23-3.83-100.81-51.67,31.95-7.38,62.34-16.65,89.87-28.29,21.23,25.7,42.84,62.56,10.94,79.96Z"/>
        <path class="cls-16" d="M1037.2,2963.27c-73.91,0-120.86-3.75-121.82-3.83-10.99-.91-19.51-9.97-19.77-20.99l-13.7-600.93c-.13-5.89,2.15-11.59,6.32-15.75,4.17-4.16,9.94-6.41,15.76-6.29,577.93,14.48,781.51-180.8,858.12-254.33,21.83-20.95,32.78-31.46,47.62-31.46,8.08,0,15.48,4.52,19.17,11.71,93.96,182.93,151.47,525.5,153.87,539.99,.82,4.93-.1,9.99-2.61,14.31-102.62,177.4-319.96,296.48-628.54,344.37-120.48,18.7-233.58,23.19-314.43,23.19Zm-98.95-45.59c121.84,6.37,784.03,23.5,1000.68-336.89-8.74-49.91-60.22-331.12-137.55-497.51-3.07,2.88-6.32,6-9.42,8.98-77.34,74.23-278.39,267.08-827.7,267.1-12.75,0-25.61-.1-38.74-.31l12.74,558.63Z"/>
        <path class="cls-6" d="M2196.67,1864.42c-34.58,0-152.04,445.21-788.22,479.96l96.49,605.36s647.35-7.87,829.15-609.65c0,0,11.98-175.16-137.42-475.67Z"/>
        <path class="cls-22" d="M1501.93,2417.43c396.34-46.98,610.64-256.02,692.31-422.08,74.82,169.58,92.41,309.66,92.89,338.25-57.16,198.28-314.77,504.7-714.96,534.96l-70.25-451.13Z"/>
        <path class="cls-16" d="M1504.93,2971.29c-10.58,0-19.61-7.69-21.28-18.16l-96.49-605.35c-.96-6.03,.68-12.18,4.51-16.93,3.84-4.75,9.5-7.65,15.6-7.98,502.78-27.47,674.23-317.3,738.78-426.41,22.42-37.9,31.7-53.59,50.62-53.59,8.18,0,15.66,4.63,19.3,11.96,150.27,302.27,140.13,479.34,139.62,486.73-.11,1.61-.4,3.21-.87,4.76-96.34,318.9-322.39,471.93-495.06,544.15-186.29,77.91-347.67,80.74-354.45,80.82-.09,0-.18,0-.27,0Zm-71.47-606.89l89.72,562.89c47.12-3.14,177.97-16.99,321.24-77.17,237.08-99.59,394.61-272.42,468.25-513.66,.54-20.02,.39-177.28-120.82-432.64-2.85,4.73-5.84,9.77-8.7,14.6-66.72,112.78-242.25,409.53-749.69,445.99Z"/>
        <path class="cls-6" d="M95.96,2496.53s128.92,289.4,398.23,391.63c0,0-30.64-135.18,22.43-254.91,0,0-287.5-5.55-420.67-136.72Z"/>
        <path class="cls-6" d="M494.18,2888.17c-26.4-10.02-51.46-21.82-75.16-35.02-110.67-61.48-192.19-152.32-245.64-226.95-52-72.52-77.43-129.69-77.43-129.69,133.19,131.2,420.7,136.75,420.7,136.75-53.07,119.72-22.47,254.91-22.47,254.91Z"/>
        <path class="cls-16" d="M494.19,2909.71c-2.57,0-5.16-.46-7.65-1.4-274.54-104.21-404.86-390.86-410.27-403-4.22-9.46-1.1-20.59,7.41-26.49,8.52-5.9,20.02-4.91,27.4,2.36,125.41,123.54,403.17,130.47,405.96,130.53,7.21,.14,13.88,3.89,17.75,9.97,3.88,6.09,4.45,13.71,1.53,20.31-49.6,111.91-21.41,240.13-21.12,241.41,1.76,7.74-.89,15.82-6.88,21.03-3.99,3.47-9.03,5.29-14.14,5.29Zm-332.01-339c54.06,84.78,155.36,213.49,304.79,282.62-5.03-45.28-7.52-123,18.72-200.02-62.84-4.29-209.21-20.69-323.5-82.6Z"/>
        <g>
          <path class="cls-16" d="M1319.62,989.94c-11.91,26.23-68.96,44.74-102.56,38.35-36.06-6.86-71.03-42.27-73.17-66.74-1.57-17.92,33.73-40.05,101.16-27.69,58.23,10.68,83.37,36.69,74.57,56.08Z"/>
          <g class="cls-1">
            <path class="cls-3" d="M1239.28,951.11c-1.04,4.73-18.29,10.86-25.78,9.62-5.42-.9-19.66-5.35-20.65-11.8-.58-3.77,6.68-8.8,22.95-7.98,16.37,.82,24.49,5.54,23.48,10.16Z"/>
          </g>
        </g>
        <path class="cls-16" d="M1399.85,1212.23l4.67,18.6s-34.39,18.5-53.53,84.98c-3.8-67.85,31.14-96.34,48.86-103.58Z"/>
        <path class="cls-6" d="M1490.85,2488.96c72.99,3.57,101.39-45.94,82.18-95.45-15.2-39.19-106.17-9.7-106.17-9.7"/>
        <path class="cls-6" d="M2165.66,2017.81c-.51,41.35,49.51,54.62,55.13,24.5,5.61-30.12-23.99-74.02-23.99-74.02l-35.73,18.36"/>
        <path class="cls-6" d="M2288.89,2356.75c-26.24-8.51-24.2-44.92-6.85-67.38,26.67-34.51,22.06,20.07,22.06,20.07,0,0,7.19,54.57-15.22,47.31Z"/>
        <path class="cls-6" d="M1929.84,2611.66c-17.33,1.89-121.49,.47-111.28-79.78,7.46-58.64,74.86-101.75,132.72-139.4,38.26-24.9,68.14-42.57,98.01-46.62,55.13-7.49,103.45,61.22,47.64,156.54-36.49,62.31-107.53,102.77-167.09,109.26Z"/>
        <path class="cls-6" d="M1047.22,2395.51c23.02,46.48-7.74,100.43-66.09,93.62-56.13-6.55-16.72-109.05-16.72-109.05,0,0,64.75-21.05,82.81,15.42Z"/>
        <g>
          <ellipse class="cls-15" cx="1303.87" cy="2892.42" rx="269.71" ry="371.23" transform="translate(-773.76 494.58) rotate(-16.64)"/>
          <path class="cls-15" d="M1562.29,2815.17c58.72,196.45-9.4,390.27-152.12,432.93-142.72,42.66-305.99-81.99-364.72-278.44-17.98-60.15-24.08-120.05-19.75-175.44,1.26-16.32,3.4-32.26,6.47-47.67,1.73-9.04,3.82-17.89,6.21-26.58,11.04-40.64,28.42-77.04,51.43-106.9,28.07-36.57,64.48-63.39,107.72-76.32,142.72-42.66,306.03,81.98,364.75,278.43Z"/>
          <g class="cls-1">
            <path class="cls-3" d="M1300.04,2550.22l25.11,84.02-286.77,85.72c11.04-40.64,28.42-77.04,51.43-106.9l210.22-62.84Z"/>
          </g>
          <g class="cls-1">
            <path class="cls-3" d="M1331.94,2656.94l12.55,41.99-318.78,95.29c1.26-16.32,3.4-32.26,6.47-47.67l299.76-89.6Z"/>
          </g>
          <path class="cls-16" d="M1352.28,3278.11c-56.82,0-115.1-21.25-169.04-62.43-72.48-55.33-128.75-140.51-158.44-239.84-62.03-207.51,12.69-413.76,166.57-459.75l78.27-23.39c11.39-3.41,23.4,3.06,26.82,14.46,35.2,117.5,210.87,704.05,212.93,712.41,2.74,11.16-3.75,22.51-14.76,25.79l-78.27,23.39c-20.93,6.26-42.41,9.35-64.08,9.35Zm-90.93-737.94l-57.63,17.23c-131.1,39.19-192.84,221.37-137.62,406.11,27.11,90.68,78,168.07,143.3,217.92,63.26,48.29,132.38,64.64,194.62,46.04l57.72-17.25c-26.33-88.69-135.41-453.08-200.39-670.04Z"/>
          <path class="cls-16" d="M1217.3,2602.8l-122.25,19.67,112.99-50.65c22.73-8.86,33.14,25.89,9.26,30.97h0Z"/>
          <path class="cls-16" d="M1172.83,2936.74l-117.33,18.2,108.07-49.18c22.83-9.02,33.3,25.98,9.26,30.97h0Z"/>
          <path class="cls-16" d="M1163.98,2875.6l-117.33,18.2,108.07-49.18c22.83-9.02,33.3,25.98,9.26,30.97h0Z"/>
          <path class="cls-16" d="M1154.9,2813.69l-117.33,18.2,108.07-49.18c22.83-9.02,33.3,25.98,9.26,30.97h0Z"/>
          <path class="cls-16" d="M1159.62,2749.32l-117.33,18.2,108.07-49.18c22.83-9.02,33.31,25.98,9.26,30.97h0Z"/>
          <path class="cls-16" d="M1167.82,2683.08l-117.33,18.2,108.07-49.18c22.83-9.02,33.3,25.98,9.26,30.97h0Z"/>
          <path class="cls-16" d="M1393.27,3191.49l-122.25,19.67,112.99-50.65c22.73-8.86,33.14,25.89,9.26,30.97h0Z"/>
          <path class="cls-16" d="M1198.99,2992.71l-117.33,18.2,108.07-49.18c22.83-9.02,33.3,25.98,9.26,30.97h0Z"/>
          <path class="cls-16" d="M1225.37,3049.44l-117.33,18.2,108.07-49.18c22.83-9.02,33.31,25.98,9.26,30.97h0Z"/>
          <path class="cls-16" d="M1264.64,3100.66l-117.33,18.2,108.07-49.18c22.83-9.02,33.3,25.98,9.26,30.97h0Z"/>
          <path class="cls-16" d="M1307.85,3151.54l-117.33,18.2,108.07-49.18c22.83-9.02,33.3,25.98,9.26,30.97h0Z"/>
          <path class="cls-13" d="M1430.55,3254.71c-56.82,0-115.1-21.25-169.04-62.43-72.48-55.33-128.75-140.51-158.44-239.84-29.7-99.33-29.4-201.42,.82-287.45,31.07-88.45,89.94-149.64,165.75-172.3,75.81-22.67,158.6-3.81,233.12,53.07,72.48,55.33,128.75,140.51,158.44,239.84,62.03,207.51-12.69,413.75-166.57,459.75-20.93,6.26-42.41,9.35-64.08,9.35Zm-97.04-728.2c-17.51,0-34.76,2.47-51.52,7.48-62.24,18.61-111.05,70.2-137.43,145.29-27.23,77.51-27.3,170.14-.19,260.81,27.11,90.68,78,168.07,143.3,217.92,63.26,48.29,132.38,64.64,194.62,46.04,131.1-39.19,192.84-221.37,137.62-406.11-27.11-90.68-78-168.08-143.3-217.92-46.23-35.29-95.59-53.52-143.1-53.52Z"/>
          <ellipse class="cls-15" cx="1382.14" cy="2869.03" rx="269.71" ry="371.23" transform="translate(-763.78 516.02) rotate(-16.64)"/>
          <ellipse class="cls-15" cx="1382.13" cy="2869.03" rx="241.12" ry="342.64" transform="translate(-763.78 516.02) rotate(-16.64)"/>
          <g class="cls-1">
            <path class="cls-3" d="M1439.41,2563.52c-43.64-18.2-89.2-22.45-132.48-9.51-131.88,39.42-193.6,224-137.58,411.41,11.5,38.47,27.05,74.1,45.69,106.09-26.87-38.26-48.96-83.37-63.93-133.42-54.11-181.03,5.49-359.26,132.87-397.34,50.99-15.24,105.24-5.75,155.41,22.77Z"/>
          </g>
          <ellipse class="cls-9" cx="1399.55" cy="2863.82" rx="186.01" ry="285.13" transform="translate(-761.56 520.79) rotate(-16.64)"/>
          <path class="cls-24" d="M1578.74,3033.34c13.19-56.29,11-124.36-9.62-193.35-45.11-150.9-161.41-249.35-259.87-219.92-45.24,13.52-78.84,51.7-97.5,103.66,15.58-66.81,52.76-117.14,106.14-133.1,98.46-29.43,214.82,69.05,259.91,219.91,24.37,81.51,22.97,161.69,.95,222.8Z"/>
          <path class="cls-16" d="M1430.55,3254.71c-56.82,0-115.1-21.25-169.04-62.43-72.48-55.33-128.75-140.51-158.44-239.84-29.7-99.33-29.4-201.42,.82-287.45,31.07-88.45,89.94-149.64,165.75-172.3,75.81-22.67,158.6-3.81,233.12,53.07,72.48,55.33,128.75,140.51,158.44,239.84,62.03,207.51-12.69,413.75-166.57,459.75-20.93,6.26-42.41,9.35-64.08,9.35Zm-97.04-728.2c-17.51,0-34.76,2.47-51.52,7.48-62.24,18.61-111.05,70.2-137.43,145.29-27.23,77.51-27.3,170.14-.19,260.81,27.11,90.68,78,168.07,143.3,217.92,63.26,48.29,132.38,64.64,194.62,46.04,131.1-39.19,192.84-221.37,137.62-406.11-27.11-90.68-78-168.08-143.3-217.92-46.23-35.29-95.59-53.52-143.1-53.52Z"/>
          <path class="cls-15" d="M1504.99,2893.67c12.02,40.21-1.7,78.09-29.69,97.01l14.48,48.45-40.23,12.03-14.77-49.41c-34.58-1.8-69-27.93-72.52-30.57l17.15-47.34c3.17,2.75,34.85,27.58,60.71,19.85,19.4-5.8,28.06-22.63,23.72-37.17-13.03-43.6-121.81-20.06-146.72-103.39-12.02-40.21,1.34-77.98,29.48-96.42l-14.48-48.45,40.23-12.03,14.77,49.41c34.58,1.8,68.85,27.45,72.38,30.08l-16.79,47.24c-3.67-3.13-35.28-26.4-60.78-18.77-19.4,5.8-28.35,21.67-24,36.2,13.03,43.6,122.17,19.95,147.08,103.28Z"/>
        </g>
      </g>
    </g>
  </g>
</svg>