<svg xmlns="http://www.w3.org/2000/svg" width="512pt" height="512pt" version="1.1" viewBox="0 0 512 512"><g id="#000000ff"><path fill="#000" d="M 17.94 92.82 C 23.13 90.02 29.08 88.90 34.95 88.99 C 134.02 89.04 233.10 88.94 332.17 89.04 C 336.58 88.70 339.66 92.55 340.33 96.55 C 339.63 100.55 336.49 104.30 332.12 103.96 C 232.72 104.06 133.32 103.96 33.93 104.01 C 26.99 103.79 20.17 107.77 17.05 113.98 C 14.24 119.20 15.11 125.30 14.99 130.98 C 14.98 195.46 15.05 259.95 14.96 324.44 C 14.85 329.33 15.36 334.54 18.47 338.54 C 21.94 343.48 27.93 346.36 33.94 346.20 C 130.37 346.20 226.80 346.22 323.23 346.19 C 321.98 338.84 321.26 331.38 321.64 323.92 C 321.73 321.99 321.85 320.06 321.97 318.13 C 282.98 318.08 244.00 317.90 205.02 318.00 C 166.34 317.90 127.65 318.42 88.97 318.25 C 85.23 318.09 81.34 318.39 77.77 317.13 C 73.73 314.94 74.22 309.90 74.24 306.02 C 74.36 292.21 63.06 279.42 49.36 277.79 C 45.96 277.17 41.76 277.76 39.34 274.77 C 37.62 272.95 37.54 270.33 37.48 267.99 C 37.52 237.98 37.50 207.97 37.49 177.97 C 37.54 175.67 37.74 173.13 39.46 171.41 C 41.57 168.84 45.17 169.11 48.14 168.66 C 61.35 167.65 72.87 156.27 74.03 143.07 C 74.52 140.14 74.15 136.65 76.46 134.40 C 78.58 131.98 82.03 132.06 84.97 132.03 C 96.34 132.09 107.70 132.08 119.07 132.03 C 121.54 132.11 124.30 131.95 126.40 133.52 C 128.45 134.88 129.13 137.37 129.76 139.61 C 129.14 143.43 126.29 147.20 122.07 147.00 C 110.99 147.20 99.90 146.98 88.82 147.07 C 86.54 159.16 79.39 170.29 68.95 176.89 C 63.99 180.21 58.27 182.11 52.50 183.43 C 52.51 209.92 52.49 236.41 52.51 262.91 C 64.75 265.19 75.92 272.54 82.54 283.12 C 86.39 289.13 88.44 296.08 89.32 303.12 C 167.79 303.14 246.25 303.14 324.72 303.12 C 326.84 295.83 329.58 288.70 333.26 282.05 C 342.02 266.37 355.05 252.99 370.82 244.33 C 380.58 239.21 391.09 235.51 401.99 233.74 C 402.01 216.96 402.00 200.18 401.99 183.40 C 394.82 181.91 387.91 179.04 382.13 174.49 C 373.51 167.75 367.72 157.78 365.68 147.07 C 296.80 147.07 227.92 147.06 159.04 147.07 C 155.14 146.98 151.15 147.49 147.32 146.55 C 144.28 145.60 142.89 142.48 142.23 139.62 C 142.79 135.33 146.31 131.60 150.88 132.08 C 224.27 132.03 297.68 132.09 371.08 132.05 C 373.45 132.08 376.08 132.36 377.82 134.19 C 380.34 136.40 379.94 140.07 380.45 143.07 C 381.62 155.99 392.68 167.21 405.57 168.58 C 408.68 169.14 412.46 168.62 414.81 171.18 C 417.00 173.16 416.99 176.31 417.04 179.03 C 416.98 196.77 417.00 214.50 417.04 232.24 L 417.01 232.64 C 424.58 232.65 432.11 233.64 439.49 235.30 C 439.50 197.87 439.50 160.44 439.49 123.01 C 439.70 116.14 435.87 109.36 429.75 106.18 C 426.12 104.09 421.83 103.95 417.75 103.96 C 398.78 104.01 379.79 104.06 360.82 103.95 C 356.45 104.28 353.37 100.52 352.66 96.55 C 353.33 92.55 356.39 88.70 360.80 89.04 C 380.86 88.94 400.93 89.01 420.99 89.02 C 434.36 88.81 447.21 97.52 452.06 109.95 C 454.92 116.59 454.53 123.93 454.51 130.99 C 454.50 167.46 454.50 203.92 454.51 240.39 C 470.33 247.39 484.33 258.57 494.33 272.72 C 505.39 288.12 511.50 306.89 512.00 325.82 L 512.00 331.06 C 511.07 362.37 493.58 392.50 466.84 408.81 C 448.46 420.36 425.99 425.16 404.48 422.27 C 383.67 419.62 363.88 409.79 349.17 394.85 C 339.67 385.33 332.33 373.75 327.52 361.21 C 229.66 361.19 131.80 361.20 33.94 361.20 C 25.42 361.33 16.93 358.11 10.72 352.27 C 4.44 346.55 0.69 338.36 0.00 329.93 L 0.00 120.39 C 0.75 108.91 7.69 98.09 17.94 92.82 M 373.31 260.30 C 355.45 271.99 342.24 290.84 338.05 311.84 C 332.03 340.93 343.80 373.03 367.43 391.06 C 387.01 407.22 414.83 411.95 439.03 404.94 C 458.45 399.39 475.48 386.15 485.75 368.77 C 502.40 341.28 500.57 303.25 479.95 278.33 C 466.28 260.43 444.28 249.58 421.96 247.92 C 404.98 246.61 387.55 250.89 373.31 260.30 Z" opacity="1"/><path fill="#000" d="M 213.23 162.39 C 228.35 159.00 244.71 161.25 258.24 168.84 C 271.04 175.96 281.40 187.47 286.85 201.10 C 293.20 216.67 293.04 234.74 286.40 250.19 C 280.53 264.08 269.56 275.71 256.12 282.52 C 238.43 291.56 216.60 291.59 198.83 282.77 C 179.55 273.23 165.52 253.63 163.37 232.15 C 161.58 216.40 165.90 200.05 175.35 187.31 C 184.45 174.84 198.13 165.71 213.23 162.39 M 222.18 176.13 C 210.28 177.34 198.92 183.08 190.89 191.96 C 182.21 201.35 177.49 214.25 178.06 227.03 C 178.48 239.91 184.31 252.48 193.80 261.19 C 204.44 271.15 219.65 276.00 234.09 273.85 C 247.89 272.03 260.66 263.89 268.29 252.26 C 274.98 242.29 277.74 229.80 275.95 217.93 C 274.29 206.27 268.19 195.34 259.23 187.71 C 249.18 178.95 235.43 174.72 222.18 176.13 Z" opacity="1"/><path fill="#000" d="M 409.31 282.11 C 409.33 278.12 413.08 274.73 417.04 275.01 C 421.14 275.05 424.54 278.91 424.23 282.97 C 424.29 295.42 424.22 307.88 424.25 320.33 C 436.85 320.38 449.45 320.25 462.05 320.38 C 466.12 320.25 469.79 323.89 469.61 327.98 C 469.64 331.99 466.00 335.54 461.97 335.30 C 449.40 335.38 436.82 335.30 424.25 335.33 C 424.21 347.91 424.32 360.50 424.21 373.08 C 424.40 377.09 420.90 380.75 416.88 380.72 C 412.76 380.91 409.07 377.18 409.28 373.06 C 409.19 360.48 409.28 347.91 409.25 335.34 C 396.48 335.27 383.70 335.43 370.94 335.27 C 366.39 335.28 362.87 330.37 364.10 326.05 C 364.89 322.51 368.43 320.15 371.97 320.35 C 384.40 320.29 396.82 320.36 409.25 320.33 C 409.31 307.59 409.15 294.85 409.31 282.11 Z" opacity="1"/></g><g id="#10bb67ff"><path fill="#10bb67" d="M 340.33 96.55 C 344.44 96.53 348.55 96.53 352.66 96.55 C 353.37 100.52 356.45 104.28 360.82 103.95 C 379.79 104.06 398.78 104.01 417.75 103.96 C 417.65 140.31 417.81 176.65 417.77 213.00 C 417.92 219.42 418.12 225.87 417.04 232.24 C 417.00 214.50 416.98 196.77 417.04 179.03 C 416.99 176.31 417.00 173.16 414.81 171.18 C 412.46 168.62 408.68 169.14 405.57 168.58 C 392.68 167.21 381.62 155.99 380.45 143.07 C 379.94 140.07 380.34 136.40 377.82 134.19 C 376.08 132.36 373.45 132.08 371.08 132.05 C 297.68 132.09 224.27 132.03 150.88 132.08 C 146.31 131.60 142.79 135.33 142.23 139.62 C 138.07 139.60 133.92 139.60 129.76 139.61 C 129.13 137.37 128.45 134.88 126.40 133.52 C 124.30 131.95 121.54 132.11 119.07 132.03 C 107.70 132.08 96.34 132.09 84.97 132.03 C 82.03 132.06 78.58 131.98 76.46 134.40 C 74.15 136.65 74.52 140.14 74.03 143.07 C 72.87 156.27 61.35 167.65 48.14 168.66 C 45.17 169.11 41.57 168.84 39.46 171.41 C 37.74 173.13 37.54 175.67 37.49 177.97 C 37.50 207.97 37.52 237.98 37.48 267.99 C 37.54 270.33 37.62 272.95 39.34 274.77 C 41.76 277.76 45.96 277.17 49.36 277.79 C 63.06 279.42 74.36 292.21 74.24 306.02 C 74.22 309.90 73.73 314.94 77.77 317.13 C 81.34 318.39 85.23 318.09 88.97 318.25 C 127.65 318.42 166.34 317.90 205.02 318.00 C 244.00 317.90 282.98 318.08 321.97 318.13 C 321.85 320.06 321.73 321.99 321.64 323.92 C 316.12 324.53 310.57 324.61 305.04 324.49 C 208.34 324.43 111.65 324.55 14.96 324.44 C 15.05 259.95 14.98 195.46 14.99 130.98 C 15.11 125.30 14.24 119.20 17.05 113.98 C 20.17 107.77 26.99 103.79 33.93 104.01 C 133.32 103.96 232.72 104.06 332.12 103.96 C 336.49 104.30 339.63 100.55 340.33 96.55 Z" opacity="1"/></g><g id="#0d9653ff"><path fill="#0d9653" d="M 417.75 103.96 C 421.83 103.95 426.12 104.09 429.75 106.18 C 435.87 109.36 439.70 116.14 439.49 123.01 C 439.50 160.44 439.50 197.87 439.49 235.30 C 432.11 233.64 424.58 232.65 417.01 232.64 L 417.04 232.24 C 418.12 225.87 417.92 219.42 417.77 213.00 C 417.81 176.65 417.65 140.31 417.75 103.96 Z" opacity="1"/><path fill="#0d9653" d="M 305.04 324.49 C 310.57 324.61 316.12 324.53 321.64 323.92 C 321.26 331.38 321.98 338.84 323.23 346.19 C 226.80 346.22 130.37 346.20 33.94 346.20 C 27.93 346.36 21.94 343.48 18.47 338.54 C 15.36 334.54 14.85 329.33 14.96 324.44 C 111.65 324.55 208.34 324.43 305.04 324.49 Z" opacity="1"/></g><g id="#32d736ff"><path fill="#32d736" d="M 129.76 139.61 C 133.92 139.60 138.07 139.60 142.23 139.62 C 142.89 142.48 144.28 145.60 147.32 146.55 C 151.15 147.49 155.14 146.98 159.04 147.07 C 227.92 147.06 296.80 147.07 365.68 147.07 C 367.72 157.78 373.51 167.75 382.13 174.49 C 381.65 187.00 381.95 199.51 381.89 212.02 C 381.80 217.69 382.33 223.45 381.10 229.03 C 379.70 235.22 375.18 240.00 370.82 244.33 C 355.05 252.99 342.02 266.37 333.26 282.05 C 328.53 282.69 323.77 283.12 319.00 283.09 C 306.67 283.03 294.34 283.08 282.01 283.06 C 273.38 283.00 264.72 283.40 256.12 282.52 C 269.56 275.71 280.53 264.08 286.40 250.19 C 293.04 234.74 293.20 216.67 286.85 201.10 C 281.40 187.47 271.04 175.96 258.24 168.84 C 244.71 161.25 228.35 159.00 213.23 162.39 C 198.13 165.71 184.45 174.84 175.35 187.31 C 165.90 200.05 161.58 216.40 163.37 232.15 C 165.52 253.63 179.55 273.23 198.83 282.77 C 184.89 283.32 170.95 282.96 157.01 283.07 C 132.19 283.09 107.37 283.00 82.54 283.12 C 75.92 272.54 64.75 265.19 52.51 262.91 C 52.49 236.41 52.51 209.92 52.50 183.43 C 58.27 182.11 63.99 180.21 68.95 176.89 C 79.39 170.29 86.54 159.16 88.82 147.07 C 99.90 146.98 110.99 147.20 122.07 147.00 C 126.29 147.20 129.14 143.43 129.76 139.61 Z" opacity="1"/></g><g id="#2ab52dff"><path fill="#2ab52d" d="M 382.13 174.49 C 387.91 179.04 394.82 181.91 401.99 183.40 C 402.00 200.18 402.01 216.96 401.99 233.74 C 391.09 235.51 380.58 239.21 370.82 244.33 C 375.18 240.00 379.70 235.22 381.10 229.03 C 382.33 223.45 381.80 217.69 381.89 212.02 C 381.95 199.51 381.65 187.00 382.13 174.49 Z" opacity="1"/><path fill="#2ab52d" d="M 198.83 282.77 C 216.60 291.59 238.43 291.56 256.12 282.52 C 264.72 283.40 273.38 283.00 282.01 283.06 C 294.34 283.08 306.67 283.03 319.00 283.09 C 323.77 283.12 328.53 282.69 333.26 282.05 C 329.58 288.70 326.84 295.83 324.72 303.12 C 246.25 303.14 167.79 303.14 89.32 303.12 C 88.44 296.08 86.39 289.13 82.54 283.12 C 107.37 283.00 132.19 283.09 157.01 283.07 C 170.95 282.96 184.89 283.32 198.83 282.77 Z" opacity="1"/></g><g id="#c5c9f7ff"><path fill="#c5c9f7" d="M 222.18 176.13 C 235.43 174.72 249.18 178.95 259.23 187.71 C 268.19 195.34 274.29 206.27 275.95 217.93 C 277.74 229.80 274.98 242.29 268.29 252.26 C 260.66 263.89 247.89 272.03 234.09 273.85 C 219.65 276.00 204.44 271.15 193.80 261.19 C 184.31 252.48 178.48 239.91 178.06 227.03 C 177.49 214.25 182.21 201.35 190.89 191.96 C 198.92 183.08 210.28 177.34 222.18 176.13 Z" opacity="1"/></g><g id="#17ace8ff"><path fill="#17ace8" d="M 373.31 260.30 C 387.55 250.89 404.98 246.61 421.96 247.92 C 444.28 249.58 466.28 260.43 479.95 278.33 C 481.70 285.50 483.66 292.67 484.27 300.05 C 486.09 318.70 481.58 337.87 471.75 353.82 C 462.64 368.75 448.96 380.86 432.99 388.02 C 415.72 395.84 395.86 397.82 377.39 393.50 C 374.06 392.71 370.72 391.99 367.43 391.06 C 343.80 373.03 332.03 340.93 338.05 311.84 C 342.24 290.84 355.45 271.99 373.31 260.30 M 409.31 282.11 C 409.15 294.85 409.31 307.59 409.25 320.33 C 396.82 320.36 384.40 320.29 371.97 320.35 C 368.43 320.15 364.89 322.51 364.10 326.05 C 362.87 330.37 366.39 335.28 370.94 335.27 C 383.70 335.43 396.48 335.27 409.25 335.34 C 409.28 347.91 409.19 360.48 409.28 373.06 C 409.07 377.18 412.76 380.91 416.88 380.72 C 420.90 380.75 424.40 377.09 424.21 373.08 C 424.32 360.50 424.21 347.91 424.25 335.33 C 436.82 335.30 449.40 335.38 461.97 335.30 C 466.00 335.54 469.64 331.99 469.61 327.98 C 469.79 323.89 466.12 320.25 462.05 320.38 C 449.45 320.25 436.85 320.38 424.25 320.33 C 424.22 307.88 424.29 295.42 424.23 282.97 C 424.54 278.91 421.14 275.05 417.04 275.01 C 413.08 274.73 409.33 278.12 409.31 282.11 Z" opacity="1"/></g><g id="#1391c4ff"><path fill="#1391c4" d="M 479.95 278.33 C 500.57 303.25 502.40 341.28 485.75 368.77 C 475.48 386.15 458.45 399.39 439.03 404.94 C 414.83 411.95 387.01 407.22 367.43 391.06 C 370.72 391.99 374.06 392.71 377.39 393.50 C 395.86 397.82 415.72 395.84 432.99 388.02 C 448.96 380.86 462.64 368.75 471.75 353.82 C 481.58 337.87 486.09 318.70 484.27 300.05 C 483.66 292.67 481.70 285.50 479.95 278.33 Z" opacity="1"/></g></svg>