<?xml version="1.0" encoding="UTF-8"?>
<svg id="Camada_2" data-name="Camada 2" xmlns="http://www.w3.org/2000/svg" xmlns:xlink="http://www.w3.org/1999/xlink" viewBox="0 0 1982.91 2233.12">
  <defs>
    <style>
      .cls-1 {
        fill: #fff;
      }

      .cls-2 {
        fill: #f9dd6a;
      }

      .cls-3 {
        fill: #e67e22;
      }

      .cls-4 {
        fill: #66142e;
      }

      .cls-5 {
        opacity: .3;
      }

      .cls-6 {
        fill: #1ebc61;
      }

      .cls-7 {
        opacity: .55;
      }

      .cls-8 {
        fill: #f7c714;
      }

      .cls-9 {
        clip-path: url(#clippath);
      }

      .cls-10, .cls-11 {
        fill: none;
      }

      .cls-12 {
        fill: #4eec91;
      }

      .cls-13 {
        fill: #d3623b;
      }

      .cls-14 {
        fill: #f89e1d;
      }

      .cls-11 {
        stroke: #66142e;
        stroke-miterlimit: 10;
        stroke-width: 0px;
      }

      .cls-15 {
        fill: #fce5e5;
      }

      .cls-16 {
        opacity: .27;
      }
    </style>
    <clipPath id="clippath">
      <ellipse class="cls-10" cx="482.64" cy="1280.01" rx="101.94" ry="243.06" transform="translate(-739.01 664.43) rotate(-42.6)"/>
    </clipPath>
  </defs>
  <g id="Layer_1" data-name="Layer 1">
    <g>
      <g>
        <path class="cls-3" d="M1427.52,2216.28c-8.09,0-16.26-.83-24.28-2.48-1.15-.2-2.37-.46-3.59-.79L110.68,1909.73c-29.15-6.83-54.97-23.77-72.84-47.78l-.81-1.03c-16.05-21.94-24.53-47.93-24.53-75.18V673.81c0-22.8,6.68-44.86,19.32-63.79l4.38,2.37c-8.73,20.35-8.98,39.72-.74,56.01,9.82,19.4,31.13,33.8,60.01,40.52l1359.29,311.95c54.61,12.83,92.74,60.96,92.74,117.04v958.1c0,66.32-53.82,120.28-119.98,120.28Z"/>
        <path class="cls-4" d="M33.9,611.4c-21.35,49.8,8.4,87.7,61,99.95,.15,.05,.3,.05,.45,.1l1358.85,311.85c53.2,12.5,90.8,59.95,90.8,114.6v958.1c0,66.47-54.32,117.78-117.48,117.78-7.82,0-15.77-.79-23.77-2.43-1.15-.2-2.3-.45-3.45-.75L111.25,1907.3c-29.85-7-55.05-24.4-72.15-47.85h-.05c-15.25-20.85-24.05-46.4-24.05-73.7V673.81c0-23.1,6.95-44.5,18.9-62.4m-4.16-2.78c-12.92,19.35-19.74,41.88-19.74,65.18V1785.75c0,27.77,8.65,54.28,25.01,76.66l1.5,2.05h.08c18.2,23.94,44.21,40.84,73.52,47.71l1289.04,303.3c1.13,.3,2.43,.58,3.74,.81,8.04,1.65,16.37,2.5,24.63,2.5,67.53,0,122.48-55.08,122.48-122.78v-958.1c0-57.25-38.92-106.37-94.66-119.47L96.68,706.63l-.15-.05-.43-.08h-.06c-28.15-6.57-48.87-20.5-58.35-39.23-7.9-15.61-7.62-34.24,.81-53.89l-8.75-4.75h0Z"/>
      </g>
      <g>
        <path class="cls-1" d="M40.41,783.89c-1.68,0-3.39-.42-4.96-1.32-10.73-6.15-19.82-13.33-27.79-21.96-3.75-4.06-3.5-10.39,.56-14.13,4.06-3.75,10.38-3.5,14.13,.56,6.57,7.11,14.11,13.06,23.04,18.18,4.79,2.74,6.45,8.86,3.71,13.65-1.85,3.22-5.22,5.03-8.69,5.03Z"/>
        <path class="cls-1" d="M1405.87,2139.73c-.76,0-1.53-.08-2.3-.26l-63-14.82c-5.38-1.27-8.71-6.65-7.44-12.03,1.27-5.38,6.66-8.71,12.02-7.45l63,14.82c5.38,1.27,8.71,6.65,7.44,12.03-1.08,4.6-5.19,7.71-9.72,7.71Zm55.7-17.74c-1.4,0-2.83-.29-4.19-.92-5.01-2.31-7.2-8.26-4.88-13.27,1.66-3.6,2.5-7.56,2.5-11.79v-48.22c0-5.52,4.48-10,10-10s10,4.48,10,10v48.22c0,7.14-1.46,13.94-4.35,20.18-1.69,3.66-5.31,5.81-9.08,5.81Zm-181.69-11.9c-.76,0-1.53-.08-2.3-.26l-62.99-14.82c-5.38-1.27-8.71-6.65-7.44-12.03,1.26-5.38,6.66-8.71,12.02-7.45l62.99,14.82c5.38,1.27,8.71,6.65,7.44,12.03-1.08,4.6-5.19,7.71-9.72,7.71Zm-125.99-29.64c-.76,0-1.53-.08-2.3-.26l-62.99-14.82c-5.38-1.27-8.71-6.65-7.44-12.03,1.27-5.38,6.67-8.72,12.02-7.45l62.99,14.82c5.38,1.27,8.71,6.65,7.44,12.03-1.08,4.6-5.19,7.71-9.73,7.71Zm-125.99-29.64c-.76,0-1.53-.08-2.3-.26l-63-14.82c-5.38-1.27-8.71-6.65-7.44-12.03,1.26-5.37,6.65-8.71,12.02-7.45l63,14.82c5.38,1.27,8.71,6.65,7.44,12.03-1.08,4.6-5.19,7.71-9.73,7.71Zm-125.99-29.64c-.76,0-1.53-.08-2.3-.26l-62.99-14.82c-5.38-1.27-8.71-6.65-7.44-12.03,1.26-5.37,6.64-8.7,12.02-7.45l62.99,14.82c5.38,1.27,8.71,6.65,7.44,12.03-1.08,4.6-5.19,7.71-9.73,7.71Zm563.09-28.1c-5.52,0-10-4.48-10-10v-64.71c0-5.52,4.48-10,10-10s10,4.48,10,10v64.71c0,5.52-4.48,10-10,10Zm-689.07-1.55c-.76,0-1.53-.08-2.3-.26l-62.99-14.82c-5.38-1.27-8.71-6.65-7.44-12.03,1.26-5.37,6.64-8.72,12.02-7.45l62.99,14.82c5.38,1.27,8.71,6.65,7.44,12.03-1.08,4.6-5.19,7.71-9.72,7.71Zm-125.99-29.64c-.76,0-1.53-.08-2.3-.26l-62.99-14.82c-5.38-1.27-8.71-6.65-7.44-12.03,1.26-5.37,6.64-8.72,12.02-7.45l62.99,14.82c5.38,1.27,8.71,6.65,7.44,12.03-1.08,4.6-5.19,7.71-9.72,7.71Zm-125.99-29.64c-.76,0-1.53-.08-2.3-.26l-62.99-14.82c-5.38-1.27-8.71-6.65-7.44-12.03,1.26-5.38,6.66-8.7,12.02-7.45l62.99,14.82c5.38,1.27,8.71,6.65,7.44,12.03-1.08,4.6-5.19,7.71-9.72,7.71Zm-125.99-29.64c-.76,0-1.53-.08-2.3-.26l-63-14.82c-5.38-1.27-8.71-6.65-7.44-12.03,1.26-5.38,6.66-8.7,12.02-7.45l63,14.82c5.38,1.27,8.71,6.65,7.44,12.03-1.08,4.6-5.19,7.71-9.72,7.71Zm-125.99-29.64c-.76,0-1.53-.08-2.3-.26l-62.99-14.82c-5.38-1.27-8.71-6.65-7.44-12.03,1.27-5.38,6.67-8.71,12.02-7.45l62.99,14.82c5.38,1.27,8.71,6.65,7.44,12.03-1.08,4.6-5.19,7.71-9.72,7.71Zm1193.02-9.31c-5.52,0-10-4.48-10-10v-64.71c0-5.52,4.48-10,10-10s10,4.48,10,10v64.71c0,5.52-4.48,10-10,10Zm-1319.02-20.34c-.76,0-1.53-.08-2.3-.27l-16.4-3.86c-17.91-3.34-33.55-7.44-47.36-12.41-5.2-1.87-7.89-7.6-6.02-12.8,1.87-5.2,7.61-7.88,12.8-6.02,12.79,4.6,27.42,8.42,44.72,11.67l16.85,3.96c5.38,1.26,8.71,6.65,7.44,12.02-1.08,4.6-5.19,7.71-9.73,7.71Zm1319.02-109.09c-5.52,0-10-4.48-10-10v-64.71c0-5.52,4.48-10,10-10s10,4.48,10,10v64.71c0,5.52-4.48,10-10,10Zm0-129.43c-5.52,0-10-4.48-10-10v-64.71c0-5.52,4.48-10,10-10s10,4.48,10,10v64.71c0,5.52-4.48,10-10,10Zm0-129.43c-5.52,0-10-4.48-10-10v-64.71c0-5.52,4.48-10,10-10s10,4.48,10,10v64.71c0,5.52-4.48,10-10,10Zm0-129.42c-5.52,0-10-4.48-10-10v-64.72c0-5.52,4.48-10,10-10s10,4.48,10,10v64.72c0,5.52-4.48,10-10,10Zm0-129.43c-5.52,0-10-4.48-10-10v-64.72c0-5.52,4.48-10,10-10s10,4.48,10,10v64.72c0,5.52-4.48,10-10,10Zm-39.05-107.59c-.74,0-1.49-.08-2.25-.25l-63.07-14.47c-5.38-1.24-8.75-6.6-7.51-11.98,1.24-5.39,6.61-8.73,11.98-7.51l63.07,14.47c5.38,1.24,8.75,6.6,7.51,11.98-1.06,4.63-5.18,7.76-9.74,7.76Zm-126.15-28.95c-.74,0-1.49-.08-2.25-.25l-63.07-14.48c-5.38-1.24-8.75-6.6-7.51-11.98,1.24-5.38,6.62-8.73,11.98-7.51l63.07,14.48c5.38,1.24,8.75,6.6,7.51,11.98-1.06,4.63-5.18,7.76-9.74,7.76Zm-126.15-28.95c-.74,0-1.49-.08-2.25-.25l-63.08-14.48c-5.38-1.24-8.75-6.6-7.51-11.98,1.24-5.38,6.62-8.73,11.98-7.51l63.08,14.48c5.38,1.24,8.75,6.6,7.51,11.98-1.06,4.63-5.18,7.76-9.74,7.76Zm-126.15-28.95c-.74,0-1.49-.08-2.25-.25l-63.07-14.48c-5.38-1.24-8.75-6.6-7.51-11.98,1.24-5.39,6.61-8.73,11.98-7.51l63.07,14.48c5.38,1.24,8.75,6.6,7.51,11.98-1.06,4.63-5.18,7.76-9.74,7.76Zm-126.15-28.96c-.74,0-1.49-.08-2.25-.25l-63.08-14.47c-5.38-1.24-8.75-6.6-7.51-11.98,1.24-5.38,6.62-8.72,11.98-7.51l63.08,14.47c5.38,1.24,8.75,6.6,7.51,11.98-1.06,4.63-5.18,7.76-9.74,7.76Zm-126.15-28.95c-.74,0-1.49-.08-2.25-.25l-63.07-14.47c-5.38-1.24-8.75-6.6-7.51-11.98,1.24-5.38,6.62-8.72,11.98-7.51l63.07,14.47c5.38,1.24,8.75,6.6,7.51,11.98-1.06,4.63-5.18,7.76-9.74,7.76Zm-126.15-28.95c-.74,0-1.49-.08-2.25-.25l-63.08-14.47c-5.38-1.24-8.75-6.6-7.51-11.98,1.24-5.38,6.61-8.73,11.98-7.51l63.08,14.47c5.38,1.24,8.75,6.6,7.51,11.98-1.06,4.63-5.18,7.76-9.74,7.76Zm-126.15-28.95c-.74,0-1.49-.08-2.25-.25l-63.07-14.48c-5.38-1.24-8.75-6.6-7.51-11.98,1.24-5.38,6.62-8.72,11.98-7.51l63.07,14.48c5.38,1.24,8.75,6.6,7.51,11.98-1.06,4.63-5.18,7.76-9.74,7.76Zm-126.15-28.95c-.74,0-1.49-.08-2.25-.25l-63.07-14.48c-5.38-1.24-8.75-6.6-7.51-11.98,1.24-5.38,6.61-8.72,11.98-7.51l63.07,14.48c5.38,1.24,8.75,6.6,7.51,11.98-1.06,4.63-5.18,7.76-9.74,7.76Zm-126.15-28.95c-.74,0-1.49-.08-2.25-.25l-63.07-14.48c-5.38-1.24-8.75-6.6-7.51-11.98,1.24-5.38,6.62-8.73,11.98-7.51l63.07,14.48c5.38,1.24,8.75,6.6,7.51,11.98-1.06,4.63-5.18,7.76-9.74,7.76Zm-126.15-28.95c-.74,0-1.49-.08-2.25-.25l-63.07-14.48c-5.38-1.24-8.75-6.6-7.51-11.98,1.24-5.38,6.62-8.73,11.98-7.51l63.07,14.48c5.38,1.24,8.75,6.6,7.51,11.98-1.06,4.63-5.18,7.76-9.74,7.76Z"/>
        <path class="cls-1" d="M29.38,1792.66c-2.9,0-5.78-1.26-7.76-3.68-7.92-9.73-13.43-20.77-16.35-32.8-1.3-5.37,1.99-10.78,7.36-12.08,5.37-1.32,10.77,2,12.08,7.36,2.21,9.12,6.39,17.49,12.41,24.88,3.49,4.28,2.85,10.58-1.44,14.07-1.86,1.51-4.09,2.25-6.31,2.25Z"/>
      </g>
      <g class="cls-7">
        <path class="cls-1" d="M29.2,659.1c-9.05,16.2-14.2,34.85-14.2,54.7v-40c0-23.1,6.95-44.5,18.9-62.4-7.55,17.6-8.7,33.7-4.7,47.7Z"/>
        <path class="cls-11" d="M29.2,659.1c-9.05,16.2-14.2,34.85-14.2,54.7v-40c0-23.1,6.95-44.5,18.9-62.4-7.55,17.6-8.7,33.7-4.7,47.7Z"/>
      </g>
      <g class="cls-7">
        <path class="cls-1" d="M1545,1137.9v40c0-54.65-37.6-102.1-90.8-114.6L95.35,751.45c-.15-.05-.3-.05-.45-.1-48.8-11.35-77.95-44.8-64.8-89.35,8.2,24.2,32.05,41.75,64.8,49.35,.15,.05,.3,.05,.45,.1l1358.85,311.85c53.2,12.5,90.8,59.95,90.8,114.6Z"/>
      </g>
      <g class="cls-7">
        <path class="cls-1" d="M33.9,651.4c-1.55,3.6-2.8,7.15-3.8,10.6-.35-.95-.65-1.9-.9-2.9,1.45-2.6,3-5.2,4.7-7.7Z"/>
        <path class="cls-11" d="M33.9,651.4c-1.55,3.6-2.8,7.15-3.8,10.6-.35-.95-.65-1.9-.9-2.9,1.45-2.6,3-5.2,4.7-7.7Z"/>
      </g>
      <path class="cls-4" d="M1427.49,2228.77c-8.89,0-17.85-.9-26.75-2.72-1.13-.19-2.69-.53-4.26-.94L107.82,1921.9C44.34,1906.99,0,1851.01,0,1785.75V673.81c0-25.28,7.41-49.74,21.42-70.73,4.31-6.45,12.81-8.54,19.63-4.86,6.81,3.7,9.69,11.97,6.64,19.1-7.33,17.09-7.69,32.38-1.08,45.44,8.12,16.04,26.46,28.11,51.64,33.98,.15,.03,.3,.06,.45,.1l1358.85,311.85c60.35,14.18,102.45,67.31,102.45,129.22v958.1c0,40.04-17.8,77.52-48.82,102.84-23.98,19.56-53.47,29.93-83.69,29.93ZM30,691.51V1785.75c0,51.26,34.82,95.23,84.68,106.94l1289.05,303.31c1.12,.29,1.86,.44,2.59,.58,30.72,6.29,61.87-1.38,85.89-20.99,24.02-19.59,37.79-48.6,37.79-79.59v-958.1c0-47.92-32.58-89.04-79.23-100L91.99,726.07c-.15-.03-.32-.07-.5-.11h0c-26.38-6.14-47.61-18.13-61.5-34.45Z"/>
      <g>
        <path class="cls-3" d="M1632.5,1059.95c0-31.22-12.3-60.47-34.65-82.36-14.98-14.68-33.72-24.99-54.17-29.8L120.43,633.55H1633.9c36.71,0,70.94,16.47,93.9,45.19,17.23,21.44,26.35,47.39,26.35,75.06v964.55c0,13.38-2.2,26.53-6.54,39.07-11.58,33.72-37.3,60.37-70.57,73.12-13.42,5.13-27.55,7.81-42.02,7.96l-2.53,.02v-778.57Z"/>
        <path class="cls-4" d="M1633.9,636.05c37.25,0,70.4,17.3,91.95,44.25,16.2,20.15,25.8,45.7,25.8,73.5v964.55c0,13.4-2.25,26.25-6.4,38.25-11.3,32.9-36.75,59.2-69.1,71.6-12.8,4.9-26.65,7.65-41.15,7.8v-776.05c0-32.55-13.35-62.55-35.4-84.15-14.95-14.65-33.9-25.4-55.35-30.45L143.35,636.05H1633.9m0-5H97.51l44.76,9.88,1400.9,309.3c19.94,4.69,38.27,14.78,52.93,29.14,21.86,21.42,33.9,50.03,33.9,80.58v781.1l5.05-.05c14.76-.16,29.19-2.89,42.89-8.13,33.96-13.02,60.22-40.22,72.04-74.64,4.42-12.8,6.67-26.22,6.67-39.88V753.81c0-28.25-9.3-54.75-26.9-76.64-23.43-29.31-58.37-46.12-95.85-46.12h0Z"/>
      </g>
      <g class="cls-5">
        <path class="cls-4" d="M1751.65,753.8v964.55c0,13.4-2.25,26.25-6.4,38.25-11.3,32.9-36.75,59.2-69.1,71.6-12.8,4.9-26.65,7.65-41.15,7.8v-776.05c0-32.55-13.35-62.55-35.4-84.15v-211.15l26.65-15c63.6-1.8,112.5-13.9,99.6-69.35,16.2,20.15,25.8,45.7,25.8,73.5Z"/>
      </g>
      <path class="cls-4" d="M1635,1851c-3.95,0-7.74-1.56-10.55-4.34-2.85-2.82-4.45-6.66-4.45-10.66v-776.05c0-47.91-32.56-89.03-79.19-100L140.11,650.7c-7.47-1.65-12.51-8.67-11.68-16.27,.83-7.61,7.26-13.37,14.91-13.37H1633.9c73.2,0,132.75,59.55,132.75,132.75v964.55c0,14.78-2.43,29.3-7.22,43.15-12.78,37.2-41.18,66.62-77.91,80.7-14.81,5.67-30.41,8.63-46.36,8.79h-.16ZM280.86,651.05l1266.62,279.65c60.44,14.21,102.52,67.34,102.52,129.25v759.79c7.1-1.12,14.05-2.97,20.79-5.55,28.41-10.89,50.38-33.66,60.27-62.47,3.71-10.73,5.59-21.95,5.59-33.38V753.81c0-56.66-46.09-102.75-102.75-102.75H280.86Z"/>
      <g class="cls-5">
        <polygon class="cls-4" points="168.33 641.57 464.75 641.57 476.95 702.15 168.33 641.57"/>
      </g>
      <g class="cls-5">
        <path class="cls-4" d="M657.85,749.65h952.15c112.5,2.2,134.5-36.3,107.15-79.1-35.13-45.18-121.86-41.54-223.4-23.88l-835.9,102.98Z"/>
      </g>
      <g>
        <path class="cls-13" d="M1460.89,2220.55c-18.6,0-38.01-2.27-57.7-6.76l1.06-4.89c7.69,1.58,15.52,2.38,23.27,2.38,63.4,0,114.98-51.71,114.98-115.28v-958.1c0-17.85-4.21-35.68-12.19-51.58-15.35-30.66-43.31-52.74-76.69-60.59L94.12,713.73c-30.13-7.01-52.63-22.32-63.13-43.08-8.93-17.65-8.72-38.48,.61-60.23,21.61-32.47,57.38-51.61,95.9-51.61H1712.25c66.31,0,120.25,53.95,120.25,120.25v964.55c1.69,126.72-51.13,162.41-155.78,187.03l-1.47-4.77c31.88-12.22,56.53-37.76,67.63-70.08,4.16-12.02,6.26-24.61,6.26-37.44V753.81c0-10.52-1.4-20.82-4.16-30.62l-.09-.33v-.1c-13.81-49.59-59.41-84.19-111-84.19H166.27l1378.52,304.36c38.1,8.97,69.52,36.02,84.08,72.36,5.73,14.16,8.63,29.19,8.63,44.68v953.45c4.15,64.38-12.08,118.15-46.93,155.33-31.78,33.9-76.62,51.82-129.68,51.82Z"/>
        <path class="cls-4" d="M1712.25,561.31c65.05,0,117.75,52.75,117.75,117.75v964.55c1.7,127.3-53.75,161.05-153.85,184.6,32.35-12.4,57.8-38.7,69.1-71.6,4.15-12,6.4-24.85,6.4-38.25V753.81c0-10.85-1.45-21.35-4.25-31.3v-.1c-13.7-49.75-59.35-86.35-113.5-86.35H143.35l1400.9,309.3c38.2,9,68.35,36.05,82.3,70.85,5.5,13.6,8.45,28.4,8.45,43.75v953.45c8.44,131.02-68.45,204.64-174.11,204.64-18.29,0-37.42-2.2-57.14-6.69,8,1.64,15.96,2.43,23.77,2.43,63.16,0,117.48-51.3,117.48-117.78v-958.1c0-18.8-4.45-36.75-12.45-52.7-15.25-30.45-43.45-53.7-78.35-61.9L95.35,711.45c-.15-.05-.3-.05-.45-.1-52.6-12.25-82.35-50.15-61-99.95,20.15-30.2,54.55-50.1,93.6-50.1H1712.25m0-5H127.5c-39.36,0-75.9,19.56-97.76,52.32l-.25,.38-.18,.42c-9.63,22.46-9.82,44.02-.54,62.34,10.82,21.37,33.82,37.13,64.79,44.39l.16,.05,.45,.08h.07s1358.85,311.87,1358.85,311.87c32.63,7.67,59.98,29.27,75,59.27,7.8,15.55,11.92,33,11.92,50.46v958.1c0,62.19-50.46,112.78-112.48,112.78-7.58,0-15.24-.78-22.77-2.32l-2.11,9.77c19.86,4.53,39.46,6.82,58.25,6.82,53.76,0,99.23-18.19,131.5-52.6,35.32-37.67,51.78-92.02,47.61-157.2v-953.29c0-15.81-2.97-31.16-8.82-45.62-14.86-37.08-46.94-64.69-85.79-73.84L189.19,641.05H1633.9c50.36,0,94.88,33.7,108.5,82.04h0s.19,.77,.19,.77c2.7,9.58,4.06,19.66,4.06,29.95v964.55c0,12.54-2.06,24.87-6.13,36.62-10.86,31.62-34.98,56.61-66.16,68.57l2.93,9.54c43.61-10.26,88.04-24,117.56-54.8,28.22-29.44,40.97-72.26,40.14-134.74V679.05c0-67.69-55.07-122.75-122.75-122.75h0Z"/>
      </g>
      <g class="cls-7">
        <path class="cls-1" d="M1545,2096v31.25c0,34.1-14.3,64.25-36.8,85.45-31.4,7.45-66.9,7.2-104.45-1.35,72.65,14.9,141.25-40.65,141.25-115.35Z"/>
        <path class="cls-11" d="M1545,2096v31.25c0,34.1-14.3,64.25-36.8,85.45-31.4,7.45-66.9,7.2-104.45-1.35,72.65,14.9,141.25-40.65,141.25-115.35Z"/>
      </g>
      <g class="cls-7">
        <path class="cls-1" d="M1635,2013.4c.8,12.15,.85,23.85,.2,35-.05-1.25-.1-2.5-.2-3.75v-31.25Z"/>
        <path class="cls-11" d="M1635,2013.4c.8,12.15,.85,23.85,.2,35-.05-1.25-.1-2.5-.2-3.75v-31.25Z"/>
      </g>
      <g class="cls-7">
        <path class="cls-1" d="M1745.25,1756.6c4.15-12,6.4-24.85,6.4-38.25v31.25c0,13.4-2.25,26.25-6.4,38.25-2.75,8.05-6.4,15.7-10.75,22.85-17.3,6.9-36.8,12.45-58.35,17.5,32.35-12.4,57.8-38.7,69.1-71.6Z"/>
        <path class="cls-11" d="M1745.25,1756.6c4.15-12,6.4-24.85,6.4-38.25v31.25c0,13.4-2.25,26.25-6.4,38.25-2.75,8.05-6.4,15.7-10.75,22.85-17.3,6.9-36.8,12.45-58.35,17.5,32.35-12.4,57.8-38.7,69.1-71.6Z"/>
      </g>
      <g class="cls-7">
        <path class="cls-1" d="M1830,679.05v31.25c0-65-52.7-117.75-117.75-117.75H127.5c-39.05,0-73.45,19.9-93.6,50.1-2.25,5.25-3.9,10.35-5.05,15.3-3.6-13.75-2.3-29.45,5.05-46.55,20.15-30.2,54.55-50.1,93.6-50.1H1712.25c65.05,0,117.75,52.75,117.75,117.75Z"/>
      </g>
      <g class="cls-5">
        <path class="cls-4" d="M1635,2013.4c9.9,153.7-97.6,228.4-231.25,197.95,72.65,14.9,141.25-40.65,141.25-115.35v-958.1c0-18.8-4.45-36.75-12.45-52.7-10.9-75.55,45.5-107.4,94-69,5.5,13.6,8.45,28.4,8.45,43.75v953.45Z"/>
      </g>
      <path class="cls-4" d="M1461.28,2233.12c-19.51,0-39.89-2.36-60.86-7.14-8.02-1.83-13.07-9.76-11.33-17.8s9.63-13.17,17.67-11.52c30.29,6.22,61.43-1.46,85.45-21.07,24.02-19.59,37.79-48.6,37.79-79.59v-958.1c0-47.92-32.58-89.04-79.23-100L91.99,726.07c-.15-.03-.32-.07-.5-.11h0c-34.01-7.91-59.46-25.56-71.66-49.66-10.65-21.05-10.56-45.54,.27-70.8,.36-.84,.8-1.66,1.31-2.42,23.72-35.55,63.37-56.77,106.08-56.77H1712.25c73.2,0,132.75,59.55,132.75,132.75v964.55c1.78,133.6-59.3,174.24-165.42,199.2-7.67,1.83-15.45-2.64-17.77-10.19-2.32-7.54,1.6-15.6,8.97-18.42,28.42-10.9,50.39-33.67,60.28-62.47,3.71-10.73,5.59-21.95,5.59-33.38V753.81c0-56.66-46.09-102.75-102.75-102.75H280.86l1266.62,279.65c60.44,14.21,102.52,67.34,102.52,129.25v952.97c4.73,75.21-17.92,138.14-63.81,177.23-33.29,28.35-76.4,42.96-124.91,42.96ZM98.7,696.83l1358.85,311.85c60.35,14.18,102.45,67.31,102.45,129.22v958.1c0,38.2-16.2,74.07-44.63,99.27,19.23-5.97,36.53-15.32,51.36-27.95,39.16-33.36,57.6-86.25,53.3-152.95-.02-.32-.03-.64-.03-.96v-953.45c0-47.92-32.56-89.03-79.19-100L140.11,650.7c-7.47-1.65-12.51-8.67-11.68-16.27,.83-7.61,7.26-13.37,14.91-13.37H1633.9c73.2,0,132.75,59.55,132.75,132.75v964.55c0,14.78-2.43,29.3-7.22,43.15-3.33,9.68-7.71,18.84-13.03,27.34,47.24-24.34,69.69-63.92,68.61-145.04V679.05c0-56.66-46.1-102.75-102.75-102.75H127.5c-32.19,0-62.12,15.78-80.35,42.28-6.81,16.58-6.99,31.43-.55,44.17,8.12,16.04,26.46,28.11,51.65,33.98,.15,.03,.3,.06,.45,.1h0Z"/>
      <path class="cls-4" d="M1618.96,764.74c-3.03,0-6.11-.03-9.25-.09H657.85c-8.28,0-15-6.71-15-15s6.72-15,15-15h952.15c77.52,1.44,96.14-16.58,100.53-24.41,5.48-9.77-.25-22.58-6.02-31.61-4.46-6.98-2.42-16.25,4.56-20.72,6.98-4.46,16.26-2.42,20.72,4.57,18.45,28.87,13.95,49.88,6.91,62.43-14.82,26.46-54.42,39.84-117.75,39.84Z"/>
      <g>
        <g>
          <path class="cls-6" d="M1281.3,749.65l-536.7,3.8-.85-.2-120.75-26.65-65.4-14.45-80.45-17.75-12.4-58.35-15.9-74.75-72.4-340c-1.5-7,2.95-13.9,9.95-15.4l380.3-80.95,57.8-12.3,160.7-34.2,74.05-15.75h.05l59.75-12.75c7-1.5,13.9,2.95,15.4,9.95l4.65,21.85,7.5,35.25,94.6,444.3,15.9,74.75,24.2,113.6Z"/>
          <path class="cls-4" d="M744.32,755.95l-1.14-.27-268.14-59.19-28.63-134.67-72.4-340c-1.78-8.34,3.54-16.58,11.88-18.37L1059.25,60.2l59.28-12.7c8.34-1.77,16.58,3.54,18.37,11.88l147.49,692.75-3.07,.02-537,3.8Zm-265.06-63.65l265.62,58.65,533.34-3.78L1132,60.43c-.58-2.73-2.2-5.07-4.55-6.59-2.35-1.52-5.15-2.05-7.89-1.44L386.92,208.35c-5.63,1.21-9.24,6.78-8.03,12.43l100.37,471.52Z"/>
        </g>
        <g class="cls-7">
          <path class="cls-1" d="M1137.15,72.5l-44.75,9.55h-.05l-234.7,49.95-438.1,93.25c-7,1.5-11.5,8.4-10,15.4l72.45,340,15.9,74.75,9.65,45.7-30.4-6.7-12.4-58.35-15.9-74.75-72.4-340c-1.5-7,2.95-13.9,9.95-15.4l438.1-93.25,234.75-49.95h.05l59.75-12.75c7-1.5,13.9,2.95,15.4,9.95l2.7,12.6Z"/>
        </g>
        <g>
          <path class="cls-12" d="M1204.6,749.65l-460.85,3.6-186.15-41.1-16.2-76.1-15.9-74.75-48.55-228.1c36.9-7.85,60.45-44.15,52.6-81.1l275.65-58.65,201.95-43c7.85,36.9,44.15,60.45,81.1,52.6l76.25,358.25,15.9,74.75,24.2,113.6Z"/>
          <path class="cls-4" d="M743.49,755.75l-.28-.06-187.72-41.45-32.44-152.42-49.07-230.55,2.45-.52c35.49-7.55,58.23-42.6,50.67-78.14l-.52-2.44,2.44-.52,480.04-102.17,.52,2.44c7.55,35.5,42.62,58.22,78.13,50.68l2.44-.52,.52,2.44,116.99,549.6-464.2,3.62Zm-183.78-45.69l184.3,40.69,457.5-3.57-115.2-541.21c-36.55,6.5-72.07-16.58-81.05-52.56l-472.8,100.62c6.45,36.56-16.58,72.08-52.57,81.05l79.8,374.97Z"/>
        </g>
        <g class="cls-5">
          <polygon class="cls-4" points="1281.3 749.65 744.6 753.45 743.75 753.25 623 726.6 766.7 124.95 824.5 112.65 985.2 78.45 1146.6 117 1241.2 561.3 1257.1 636.05 1281.3 749.65"/>
        </g>
        <path class="cls-4" d="M1281.28,764.66c-6.93,0-13.15-4.83-14.66-11.88L1120.21,65.05l-57.78,12.32c-.19,.04-.38,.08-.56,.11L391.54,220.15l103.73,487.23c1.73,8.11-3.44,16.07-11.55,17.8-8.11,1.72-16.07-3.45-17.79-11.55l-104.15-489.2c-3.23-15.07,6.41-29.97,21.48-33.19L1056.13,48.03c.18-.04,.36-.07,.55-.1l59.25-12.64c7.29-1.56,14.76-.19,21.03,3.85,6.28,4.06,10.6,10.32,12.17,17.63l146.85,689.77c1.73,8.1-3.44,16.07-11.55,17.8-1.05,.22-2.1,.33-3.14,.33Z"/>
        <path class="cls-4" d="M1204.59,762.16c-5.77,0-10.96-4.03-12.21-9.9l-113.95-535.32c-34.95,1.95-67.48-19.16-79.96-51.85l-455.04,96.84c1.93,34.97-19.16,67.49-51.86,79.96l81.7,383.76c1.44,6.75-2.87,13.39-9.62,14.83-6.75,1.42-13.39-2.87-14.83-9.62l-84.1-395.05c-.69-3.24-.06-6.63,1.74-9.41,1.81-2.78,4.64-4.73,7.88-5.42,30.1-6.41,49.38-36.14,42.98-66.28-1.44-6.75,2.87-13.39,9.62-14.82l477.6-101.65c3.24-.67,6.63-.07,9.41,1.74,2.78,1.8,4.73,4.64,5.42,7.88,6.4,30.1,36.13,49.38,66.28,42.97,6.76-1.44,13.39,2.88,14.82,9.62l116.35,546.6c1.44,6.75-2.87,13.39-9.62,14.83-.88,.19-1.76,.28-2.62,.28Z"/>
      </g>
      <path class="cls-6" d="M1599.25,205.05l-77.9,326.05-52.2,218.55H672.35L845.45,24.95c1.65-6.95,8.65-11.25,15.65-9.6l728.55,174.05c6.95,1.65,11.25,8.65,9.6,15.65Z"/>
      <g class="cls-7">
        <path class="cls-1" d="M1599.25,205.05l-3.65,15.25L882.75,50c-7-1.65-14,2.65-15.65,9.6l-164.8,690.05h-29.95L845.45,24.95c1.65-6.95,8.65-11.25,15.65-9.6l728.55,174.05c6.95,1.65,11.25,8.65,9.6,15.65Z"/>
      </g>
      <path class="cls-4" d="M1469.15,764.65H672.35c-4.59,0-8.93-2.1-11.77-5.71-2.84-3.6-3.88-8.31-2.81-12.78L830.86,21.47c3.55-14.95,18.65-24.26,33.68-20.71l728.59,174.06c14.95,3.55,24.25,18.66,20.71,33.69,0,.01,0,.03,0,.04l-130.1,544.6c-1.61,6.75-7.65,11.51-14.59,11.51Zm-777.8-30h765.96l126.88-531.13L859.57,30.41l-168.22,704.24ZM1599.25,205.06h0Z"/>
      <g class="cls-5">
        <path class="cls-4" d="M1830,691.9v951.7c1.7,127.3-53.75,161.05-153.85,184.6,32.35-12.4,57.8-38.7,69.1-71.6,4.15-12,6.4-24.85,6.4-38.25V753.8c0-10.85-1.45-21.35-4.25-31.3v-.1c4.25-81.7,58.75-137.3,82.6-30.5Z"/>
      </g>
      <path class="cls-12" d="M1496,314.4l-104,435.25H749.45L888.1,169.2c36.75,8.75,73.6-13.9,82.35-50.6l474.95,113.45c-8.75,36.7,13.9,73.6,50.6,82.35Z"/>
      <path class="cls-6" d="M1131,518.69c-95.78-18.3-188.26,44.52-206.55,140.3-6,31.42-3.23,62.46,6.52,90.66h333.81c2.7-7.87,4.91-16,6.51-24.41,18.3-95.78-44.52-188.26-140.3-206.55Z"/>
      <path class="cls-12" d="M1050.27,747.87c-22.97-4.39-40.8-21.61-44.15-51.16l-27.89-5.33,6.79-35.54,23.53,4.5c4.24-19.6,12.98-37.55,20.24-46.24l32.42,14.86c-7.76,10.01-16.69,25.93-20.05,43.5-3.62,18.93,2.32,30.39,14.21,32.66,11.33,2.16,19.46-5.24,31.49-25.64,16.3-28.25,36.84-44.77,63.34-39.71,25.05,4.79,42.12,25.55,43.49,55.93l27.97,5.34-6.79,35.54-26.01-4.97c-4.02,14.08-9.62,24.5-15.04,32.26l-31.51-15.52c4.91-6.61,12.52-18.64,15.92-36.45,3.41-17.85-3.02-28.04-12.51-29.85-11.61-2.22-18.69,7.09-32.11,28.88-18.03,29.91-37.69,41.83-63.34,36.93Z"/>
      <circle class="cls-6" cx="1166.67" cy="331.95" r="50.27"/>
      <g class="cls-5">
        <path class="cls-4" d="M1566.35,528.87l-52.2,218.55h-326.9c-14.2-29.05-22.2-61.7-22.2-96.25,0-121.1,98.15-219.3,219.25-219.3,75.8,0,142.65,38.5,182.05,97Z"/>
      </g>
      <path class="cls-4" d="M1392,762.15H749.45c-3.83,0-7.44-1.75-9.81-4.76-2.37-3-3.23-6.93-2.35-10.65L875.94,166.3c1.6-6.7,8.34-10.87,15.05-9.25,29.95,7.11,60.16-11.41,67.3-41.34,.77-3.22,2.79-6.01,5.61-7.75,2.83-1.74,6.23-2.28,9.45-1.51l474.95,113.45c6.71,1.6,10.86,8.34,9.26,15.06-7.14,29.97,11.4,60.15,41.34,67.29,3.23,.77,6.02,2.79,7.75,5.62,1.74,2.82,2.28,6.22,1.51,9.45l-104,435.25c-1.35,5.62-6.37,9.59-12.16,9.59Zm-626.71-25h616.85l99.03-414.43c-32.39-13.27-52.67-46.28-49.88-81.19l-452.51-108.09c-13.27,32.37-46.3,52.68-81.19,49.87l-132.29,553.84Z"/>
      <g class="cls-5">
        <path class="cls-4" d="M1505,1214.2v881.8c0,42.9-34.75,77.8-77.45,77.8-5.25,0-10.55-.55-15.75-1.65l-1.2-.2L120.4,1868.35c-5.6-1.3-11-3.2-16.15-5.6,552.85,18.75,1104.4-206.25,1400.75-648.55Z"/>
      </g>
    </g>
    <g>
      <g>
        <path class="cls-8" d="M1703.18,681.8c-27.82,127-153.34,207.4-280.34,179.58-37.34-8.18-70.64-24.81-98.36-47.43-20.59-16.8-38.07-36.91-51.86-59.32-6.69-10.84-12.45-22.23-17.27-34.04-16.93-41.19-22.33-87.53-13.16-134.29,.35-1.77,.69-3.5,1.07-5.26,27.83-127.04,153.35-207.44,280.35-179.62,13.34,2.92,26.13,6.92,38.37,11.9,43.52,17.64,79.65,47.48,105.13,84.51,7.22,10.53,13.58,21.6,19.05,33.13,11.21,23.69,18.5,49.29,21.24,75.89,2.6,24.42,1.33,49.67-4.21,74.96Z"/>
        <path class="cls-11" d="M1703.18,681.8c-27.82,127-153.34,207.4-280.34,179.58-37.34-8.18-70.64-24.81-98.36-47.43-20.59-16.8-38.07-36.91-51.86-59.32-6.69-10.84-12.45-22.23-17.27-34.04-16.93-41.19-22.33-87.53-13.16-134.29,.35-1.77,.69-3.5,1.07-5.26,27.83-127.04,153.35-207.44,280.35-179.62,13.34,2.92,26.13,6.92,38.37,11.9,43.52,17.64,79.65,47.48,105.13,84.51,7.22,10.53,13.58,21.6,19.05,33.13,11.21,23.69,18.5,49.29,21.24,75.89,2.6,24.42,1.33,49.67-4.21,74.96Z"/>
      </g>
      <g class="cls-7">
        <path class="cls-1" d="M1703.18,681.8c-1.26,5.75-2.73,11.42-4.37,16.98,17.35-120.92-61.45-236.57-182.7-263.13-121.25-26.56-241.19,45.54-275.98,162.64,.83-5.73,1.87-11.5,3.13-17.25,27.83-127.04,153.35-207.44,280.35-179.62,127,27.82,207.4,153.34,179.57,280.38Z"/>
      </g>
      <path class="cls-14" d="M1703.18,681.8c-27.82,127-153.34,207.4-280.34,179.58-127-27.82-207.41-153.34-179.58-280.34,2.41-10.99,5.55-21.63,9.37-31.89-8.75,115.13,68.39,222.08,184.4,247.49,116.01,25.42,230.8-39.48,270.98-147.72-.82,10.92-2.42,21.9-4.82,32.89Z"/>
      <g>
        <path class="cls-2" d="M1438.09,791.77c-88.42-19.37-144.6-107.07-125.22-195.49,19.37-88.42,107.06-144.59,195.49-125.22,88.42,19.37,144.6,107.07,125.22,195.48-19.37,88.42-107.07,144.6-195.49,125.23Z"/>
        <path class="cls-11" d="M1438.09,791.77c-88.42-19.37-144.6-107.07-125.22-195.49,19.37-88.42,107.06-144.59,195.49-125.22,88.42,19.37,144.6,107.07,125.22,195.48-19.37,88.42-107.07,144.6-195.49,125.23Z"/>
      </g>
      <g class="cls-7">
        <path class="cls-1" d="M1633.56,666.55c-.95,4.32-2.07,8.57-3.32,12.71,11.5-83.88-43.41-164.15-127.5-182.57-84.09-18.42-167.54,31.53-192.16,112.54,.59-4.29,1.35-8.61,2.3-12.94,19.37-88.42,107.06-144.62,195.48-125.25,88.42,19.37,144.58,107.09,125.21,195.51Z"/>
      </g>
      <path class="cls-4" d="M1522.79,679.11c-4.61,21.03-20.9,37.01-48.18,39.37l-5.6,25.54-32.54-7.13,4.72-21.55c-17.93-4.39-34.24-12.88-42.06-19.77l14.48-29.47c9.02,7.39,23.45,16,39.54,19.53,17.33,3.8,28.03-1.39,30.41-12.27,2.27-10.37-4.34-18.04-22.81-29.61-25.59-15.71-40.29-35.02-34.98-59.27,5.03-22.94,24.56-38.13,52.55-38.64l5.61-25.61,32.54,7.13-5.22,23.82c12.86,4.05,22.31,9.46,29.32,14.64l-15.06,28.61c-5.96-4.69-16.84-11.98-33.15-15.56-16.34-3.58-25.88,2.09-27.78,10.77-2.33,10.63,6.06,17.38,25.78,30.26,27.08,17.34,37.56,35.72,32.42,59.21Z"/>
      <g class="cls-16">
        <path class="cls-15" d="M1667.11,497.83l-411.76,222.75c-16.93-41.19-22.33-87.53-13.16-134.29l319.79-172.97c43.52,17.64,79.65,47.48,105.13,84.51Z"/>
      </g>
      <g class="cls-16">
        <path class="cls-15" d="M1703.38,581.66l-387.22,222.77c-20.59-16.8-29.75-27.39-43.54-49.81l413.54-223.67c11.21,23.69,14.49,24.11,17.23,50.7Z"/>
      </g>
      <path class="cls-4" d="M1473.25,808.09c-12.48,0-25.15-1.33-37.84-4.11-46.03-10.08-85.41-37.54-110.88-77.32-25.48-39.78-33.96-87.03-23.87-133.06,10.08-46.03,37.54-85.41,77.31-110.88,39.78-25.48,87.02-33.95,133.06-23.87,46.03,10.08,85.4,37.54,110.88,77.32,25.48,39.78,33.96,87.03,23.87,133.05-18.07,82.47-91.37,138.87-172.54,138.87Zm-.22-328.37c-28.66,0-56.8,8.19-81.57,24.06-34.15,21.88-57.73,55.68-66.38,95.18-8.65,39.5-1.37,80.07,20.51,114.22,21.88,34.16,55.68,57.73,95.18,66.38,10.88,2.39,21.77,3.53,32.48,3.53,69.69,0,132.61-48.41,148.12-119.22,8.65-39.5,1.37-80.06-20.51-114.22-21.88-34.15-55.68-57.72-95.18-66.38-10.85-2.38-21.79-3.55-32.64-3.55Z"/>
      <path class="cls-4" d="M1473.26,881.87c-17.7,0-35.65-1.89-53.64-5.83-38.82-8.51-74.03-25.48-104.63-50.46-21.77-17.76-40.32-38.98-55.15-63.08-7.02-11.37-13.21-23.56-18.38-36.23-18.6-45.25-23.45-94.66-14-142.85,.41-2.06,.75-3.81,1.14-5.58,29.55-134.89,163.31-220.62,298.21-191.06,13.98,3.06,27.71,7.32,40.82,12.66,45.31,18.36,83.99,49.45,111.83,89.9,7.66,11.17,14.46,23.01,20.24,35.2,12.12,25.63,19.73,52.8,22.61,80.78,2.81,26.44,1.31,53.27-4.48,79.7-25.61,116.9-129.51,196.86-244.57,196.86Zm-.07-470.92c-101.28,0-192.74,70.39-215.29,173.31-.35,1.58-.65,3.12-.96,4.7-8.36,42.64-4.1,86.11,12.27,125.94,4.56,11.17,10,21.88,16.16,31.87,13.07,21.25,29.41,39.95,48.58,55.58,26.93,21.98,57.91,36.91,92.09,44.4,15.82,3.47,31.64,5.13,47.21,5.13,101.28,0,192.72-70.37,215.27-173.27h0c5.1-23.28,6.43-46.88,3.95-70.16-2.54-24.63-9.22-48.53-19.88-71.06-5.1-10.77-11.11-21.22-17.86-31.06-24.48-35.57-58.51-62.93-98.4-79.09-11.55-4.71-23.63-8.45-35.94-11.15-15.82-3.47-31.63-5.13-47.2-5.13Z"/>
    </g>
    <g>
      <g>
        <path class="cls-8" d="M1715.56,1576.92l-43.69-36.71c-10.38-8.72-12.02-23.95-4-34.68,.27-.37,.6-.76,.89-1.1l210.61-250.68c9.01-10.73,25.03-12.14,35.78-3.11l43.69,36.71c10.75,9.03,12.12,25.06,3.11,35.78l-210.61,250.68c-9.01,10.73-25.03,12.14-35.78,3.11Z"/>
        <path class="cls-4" d="M1731.88,1585.36c-6.34,0-12.71-2.14-17.92-6.52l-43.69-36.71c-11.33-9.52-13.25-26.25-4.39-38.09,.29-.39,.66-.84,.99-1.23l210.6-250.67c9.9-11.78,27.53-13.31,39.31-3.42l43.69,36.71c11.78,9.9,13.31,27.53,3.42,39.31l-210.61,250.68c-5.51,6.56-13.42,9.94-21.38,9.94Zm-14.71-10.35c9.67,8.12,24.14,6.86,32.26-2.8l210.61-250.68c8.12-9.67,6.86-24.15-2.81-32.27l-43.69-36.71c-9.67-8.12-24.14-6.86-32.26,2.8l-210.61,250.68c-.26,.31-.55,.65-.79,.98-7.29,9.74-5.71,23.47,3.59,31.28l43.69,36.71Z"/>
      </g>
      <rect class="cls-14" x="1693.43" y="1420.71" width="141.61" height="107.86" transform="translate(-499.68 1876.86) rotate(-49.96)"/>
      <g class="cls-7">
        <rect class="cls-15" x="1853.17" y="1273.92" width="68.79" height="107.86" transform="translate(-343.29 1918.92) rotate(-49.96)"/>
      </g>
      <path class="cls-4" d="M1731.85,1597.88c-9.48,0-18.58-3.31-25.93-9.48l-43.68-36.7c-8.26-6.94-13.33-16.68-14.26-27.44-.93-10.75,2.38-21.23,9.32-29.49l210.59-250.66c14.33-17.06,39.86-19.28,56.92-4.95l43.68,36.7c8.26,6.94,13.33,16.68,14.26,27.44,.93,10.75-2.38,21.23-9.32,29.49l-210.59,250.66c-6.94,8.27-16.69,13.33-27.44,14.26-1.19,.1-2.38,.16-3.56,.16Zm166.99-338.17c-2.97,0-5.92,1.26-7.98,3.71l-210.59,250.66h0c-1.79,2.13-2.64,4.82-2.4,7.59,.24,2.77,1.55,5.28,3.67,7.07l43.68,36.7c2.13,1.79,4.85,2.62,7.59,2.4,2.77-.24,5.28-1.54,7.07-3.67l210.59-250.66c1.79-2.13,2.64-4.82,2.4-7.59-.24-2.77-1.55-5.28-3.67-7.07l-43.68-36.7c-1.95-1.64-4.32-2.43-6.68-2.43Zm-230.05,244.72h0Z"/>
    </g>
    <g>
      <g>
        <path class="cls-8" d="M557.68,1211.01c-82.96-90.23-179.56-139.06-227.28-117.86h0s-66.56,14.36-90.26,88.63c-27.96,48.42,11.77,147.12,96.61,239.4,64.95,70.64,138.27,115.91,189.95,122.07h0s79.69,21.99,128.05-93.61c27.81-44.65-12.71-146.87-97.07-238.63Z"/>
        <path class="cls-4" d="M541.99,1547.29c-9.68,0-15.72-1.56-15.94-1.62-54.04-6.43-127.42-53.51-191.13-122.8-85.53-93.02-125.4-192.51-97.07-242.11,23.16-72.15,87.05-88.86,91.76-90,49.94-21.89,146.56,27.89,229.92,118.55h0c84.24,91.62,126.09,195.5,97.35,241.64-35.44,84.77-88.57,96.33-114.89,96.33Zm-185.79-456.59c-9.25,0-17.59,1.53-24.78,4.73l-.49,.16c-.65,.14-65.45,15-88.41,86.95l-.22,.49c-27.51,47.65,12.09,144.88,96.29,236.45,61.99,67.42,135.94,115.02,188.4,121.29,1.15,.27,78.54,20.03,125.45-92.1,27.77-44.65-13.84-145.95-96.61-235.96-68.44-74.44-148.19-122-199.64-122Z"/>
      </g>
      <path class="cls-14" d="M439.69,1382.97l-68.44,76.92,124.23,88.01s68.71-56.73,74.31-70.61c0,0-133.7-61.18-130.1-94.32Z"/>
      <g class="cls-7">
        <polygon class="cls-15" points="320.95 1204.45 255.02 1305.96 306.42 1387.82 368.7 1309.54 320.95 1204.45"/>
      </g>
      <g class="cls-7">
        <path class="cls-1" d="M308,1144.81s-39.63,15.68-45.71,69.46c0,0-17.69,51.96,12.91,99.61,0,0-41.02-83.96-43.77-90.86-2.75-6.9,27.74-94.93,27.74-94.93l29.3-14.99,19.53,31.7Z"/>
      </g>
      <g class="cls-7">
        <path class="cls-1" d="M445.58,1138.36s-45.06-17.71-82.11-17.99c-20.49-.15-36.9,16.22-36.22,36.7,.9,26.86,10.05,73.2,47.55,143.91l-66.01-112.34s-6.85-75.24,12.7-93.59c0,0,80.66-13.5,124.1,43.3Z"/>
      </g>
      <g>
        <ellipse class="cls-2" cx="475.14" cy="1272.36" rx="52.53" ry="150.28" transform="translate(-737.24 660.16) rotate(-42.73)"/>
        <path class="cls-4" d="M560.29,1390.88c-29.71,0-79.28-31.06-125.58-81.18-58.13-62.93-85.92-128.63-63.25-149.57,22.68-20.94,85.96,11.96,144.09,74.89,58.13,62.93,85.92,128.63,63.25,149.57-4.62,4.26-10.92,6.29-18.52,6.29Zm-170.41-232.07c-6.25,0-11.36,1.61-15.03,4.99-19.92,18.4,9.17,83.66,63.53,142.5,54.36,58.83,117.12,92.99,137.03,74.6,19.92-18.4-9.17-83.66-63.53-142.5-44.35-48.01-94.3-79.59-122-79.59Z"/>
      </g>
      <path class="cls-4" d="M560.34,1396.17c-34.49,0-87.95-38.03-129.44-82.95-51.97-56.25-91.69-130.37-62.96-156.91,28.74-26.55,99.48,18.92,151.44,75.18,51.97,56.25,91.69,130.37,62.96,156.91-5.79,5.35-13.29,7.77-22,7.77Zm-170.45-232.2c-4.94,0-8.85,1.19-11.5,3.64-15.57,14.39,6.8,73.43,63.82,135.16,55.38,59.94,114.13,88.67,129.69,74.32,15.57-14.39-6.8-73.43-63.82-135.16-45.92-49.72-94.18-77.96-118.18-77.96Z"/>
      <path class="cls-4" d="M510.43,1261.28c9.85,10.38,14.21,24.11,8.51,37.76l12.46,13.31-12.38,13.1-10.68-11.55c-7.4,7.09-16.83,11.73-23.02,12.75l-12.22-20.13c6.8-1.29,15.75-4.69,22.22-10.95,6.82-6.6,6.92-13.68,1.74-19.21-4.91-5.24-10.82-5.39-22.28-1.74-16.13,5.33-31.28,4.12-42.82-8.57-10.79-11.86-12.52-26.75-3.83-38.86l-11.56-12.5,13.83-10.2,10.6,11.32c5.88-3.56,11.39-5.2,16.02-5.95l10.32,17.05c-4.09,.6-10.99,2.21-17.65,7.57-6.82,5.49-6.75,11.9-2.72,16.26,4.95,5.36,11.07,4.4,23.64,.99,16.61-4.7,28.94-1.89,39.82,9.57Z"/>
      <g class="cls-9">
        <g class="cls-16">
          <path class="cls-15" d="M659.85,1313.85l-401.31-37.27c7.56-37.59,25.84-73.35,54.75-102.45l311.66,28.96c22.74,33.43,34.34,72.06,34.9,110.76Z"/>
        </g>
        <g class="cls-16">
          <path class="cls-15" d="M645.76,1391.22l-383.75-25.53c-6.72-21.87-8.21-33.83-7.38-56.47l403.02,37.46c-3.3,22.32-1.14,24.19-11.89,44.54Z"/>
        </g>
      </g>
      <path class="cls-4" d="M609.22,1484.34c-19.75,0-42.93-5.88-68.54-17.64-46.72-21.44-97.26-60.22-142.3-109.21-97-105.5-135.97-222.17-88.73-265.62,47.26-43.45,160.25,5.17,257.25,110.67,45.04,48.98,79.46,102.59,96.91,150.95,18.72,51.88,15.82,92.6-8.18,114.66-11.74,10.8-27.5,16.19-46.41,16.19Zm-253.56-383.33c-12.36,0-22.3,3.08-29.06,9.29-31.13,28.63-1.74,130.22,90.21,230.23,42.84,46.59,90.54,83.32,134.31,103.4,39.78,18.25,71.69,20.36,87.55,5.78,15.86-14.58,16.43-46.56,1.58-87.72-16.35-45.3-48.95-95.9-91.79-142.5h0c-72-78.31-148.18-118.48-192.8-118.48Z"/>
      <path class="cls-4" d="M541.56,1562.13c-8.45,0-14.67-.99-17.61-1.58-57.72-7.21-134.3-56-200.07-127.52-51.91-56.46-86.37-110.39-102.42-160.29-25.24-78.46,14.51-162.76,90.5-191.93,5.95-2.28,10.45-3.62,12.74-4.25,56.74-23.67,157.49,26.48,245.88,122.61,89.36,97.19,131.06,205.44,99.82,258.43-38.79,91.58-98.32,104.53-128.83,104.53Zm-10.34-35.79c3.13,.8,66.2,15,107.39-83.46,.36-.86,.79-1.7,1.29-2.5,20.37-32.71-10.19-125.18-95.1-217.52-82.99-90.26-172.21-129.29-207.29-113.72-.97,.43-1.99,.78-3.02,1.03h0s-3.9,.98-10,3.32c-58.64,22.51-89.27,87.75-69.71,148.54,14.49,45.04,46.4,94.6,94.87,147.31,59.71,64.94,130.02,110.68,179.14,116.54,.83,.1,1.65,.26,2.45,.47Z"/>
    </g>
  </g>
</svg>