<svg xmlns="http://www.w3.org/2000/svg" width="512pt" height="512pt" version="1.1" viewBox="0 0 512 512"><g id="#000000ff"><path fill="#000" d="M 74.41 93.52 C 81.32 89.82 89.33 89.83 96.95 89.99 C 223.63 90.02 350.31 89.98 476.98 90.01 C 486.90 89.84 496.75 94.28 503.09 101.92 C 508.30 108.00 511.05 116.00 510.99 123.98 C 511.02 189.65 510.98 255.32 511.01 320.99 C 511.09 328.41 511.33 336.18 507.96 343.02 C 503.50 353.14 493.73 360.18 483.00 362.33 C 481.92 369.82 479.08 377.22 473.68 382.68 C 468.59 388.24 461.51 391.42 454.23 392.91 C 452.89 404.19 446.23 414.91 435.89 419.98 C 428.92 423.82 420.76 423.86 413.02 423.68 C 316.34 423.66 219.66 423.65 122.99 423.69 C 120.86 423.61 118.55 423.55 116.76 422.24 C 114.77 420.84 114.10 418.36 113.24 416.23 C 114.18 413.79 114.96 410.81 117.54 409.60 C 119.87 408.55 122.51 408.68 125.00 408.60 C 145.01 408.79 165.02 408.53 185.03 408.75 C 186.72 408.72 188.44 408.68 190.09 408.25 C 190.65 401.15 190.09 394.02 190.28 386.91 C 190.27 384.78 190.27 382.66 190.27 380.54 C 154.50 380.54 118.73 380.50 82.96 380.57 C 80.39 380.50 77.46 380.38 75.55 378.40 C 72.65 375.78 73.60 371.54 73.30 368.08 C 73.33 354.59 62.36 342.06 49.00 340.25 C 45.72 339.58 41.92 340.04 39.15 337.86 C 36.76 336.00 36.59 332.77 36.52 329.99 C 36.57 300.33 36.58 270.66 36.52 241.00 C 36.63 238.44 36.61 235.51 38.53 233.55 C 40.93 230.85 44.89 231.33 48.11 230.70 C 59.48 229.49 69.42 220.60 72.34 209.61 C 73.30 205.90 73.12 201.97 74.35 198.33 C 75.56 195.36 78.93 194.15 81.93 194.22 C 93.61 194.10 105.29 194.30 116.97 194.14 C 119.81 194.25 122.95 193.92 125.45 195.55 C 127.56 196.93 128.24 199.53 129.07 201.76 C 128.18 204.10 127.41 206.86 125.05 208.14 C 122.90 209.30 120.35 209.14 117.99 209.25 C 107.99 209.18 97.99 209.20 87.99 209.21 C 85.65 221.05 78.83 232.03 68.65 238.67 C 63.55 242.25 57.57 244.19 51.57 245.65 C 51.58 272.16 51.57 298.67 51.58 325.18 C 63.80 327.56 75.01 334.81 81.64 345.42 C 85.52 351.46 87.54 358.47 88.48 365.54 C 122.41 365.52 156.34 365.56 190.28 365.52 C 190.27 358.76 190.25 352.00 190.36 345.24 C 190.59 342.55 190.07 339.88 187.56 338.46 C 174.32 328.58 165.35 313.33 162.99 297.00 C 160.30 279.54 165.11 261.03 176.23 247.26 C 180.19 242.17 185.14 237.97 190.28 234.12 C 190.27 225.81 190.28 217.50 190.27 209.20 C 177.54 209.21 164.81 209.16 152.08 209.25 C 149.68 209.13 147.04 209.28 144.95 207.90 C 142.84 206.54 142.16 203.96 141.36 201.74 C 142.11 199.58 142.76 197.11 144.71 195.70 C 147.10 193.99 150.19 194.23 152.98 194.14 C 165.41 194.25 177.84 194.18 190.27 194.19 C 190.28 184.82 190.27 175.44 190.27 166.07 C 140.52 166.05 90.77 166.09 41.03 166.05 C 35.34 166.13 29.27 165.40 24.03 168.13 C 17.82 171.24 13.86 178.03 14.03 184.95 C 13.97 252.29 14.10 319.62 13.96 386.95 C 13.53 393.61 15.64 400.77 21.24 404.82 C 26.77 409.40 34.31 408.70 41.00 408.69 C 57.33 408.61 73.67 408.73 89.99 408.61 C 92.41 408.72 95.03 408.60 97.21 409.84 C 99.46 411.21 100.19 413.92 101.03 416.24 C 100.17 418.44 99.47 421.01 97.35 422.37 C 94.89 423.94 91.82 423.62 89.03 423.72 C 69.69 423.54 50.35 423.81 31.01 423.59 C 16.60 423.24 3.50 412.41 0.00 398.50 L 0.00 176.31 C 3.17 163.32 14.62 153.34 27.73 151.25 C 28.72 144.72 30.82 138.22 35.12 133.09 C 40.17 126.52 47.81 122.49 55.81 120.76 C 57.03 109.32 63.96 98.57 74.41 93.52 M 79.82 107.70 C 75.08 110.38 72.32 115.33 70.91 120.44 C 122.34 120.53 173.77 120.41 225.20 120.49 C 230.42 115.39 235.56 110.19 240.71 105.01 C 192.79 104.97 144.87 105.03 96.96 104.99 C 91.19 105.00 84.92 104.41 79.82 107.70 M 215.93 151.06 C 223.58 151.07 231.22 151.08 238.86 151.06 C 243.25 150.97 247.66 151.32 252.04 150.90 C 254.37 149.34 256.16 147.11 258.17 145.16 C 271.54 131.77 284.95 118.40 298.32 105.01 C 293.75 104.99 289.18 105.00 284.61 105.00 C 277.07 105.00 269.53 105.00 261.99 105.00 C 246.65 120.36 231.28 135.70 215.93 151.06 M 319.45 105.38 C 314.07 110.07 309.31 115.46 304.20 120.44 C 352.45 120.51 400.70 120.43 448.95 120.48 C 458.98 120.33 468.93 124.88 475.26 132.68 C 480.21 138.59 482.91 146.28 482.92 153.98 C 483.04 218.30 482.78 282.62 483.05 346.94 C 490.42 344.17 496.17 337.10 495.94 329.01 C 496.03 260.68 495.97 192.35 495.97 124.02 C 496.20 117.05 492.20 110.18 485.94 107.06 C 481.05 104.41 475.30 105.06 469.95 104.99 C 422.97 105.01 375.99 105.01 329.01 104.99 C 325.83 105.07 322.55 104.60 319.45 105.38 M 51.42 138.39 C 46.81 141.11 44.24 146.04 42.83 151.03 C 93.47 151.08 144.11 151.10 194.75 151.03 C 199.83 145.83 205.06 140.79 210.11 135.56 C 162.74 135.49 115.38 135.57 68.01 135.52 C 62.41 135.46 56.28 135.06 51.42 138.39 M 273.63 151.02 C 322.44 151.28 371.25 151.15 420.06 151.07 C 433.45 150.67 446.46 159.17 451.51 171.57 C 454.87 178.94 454.09 187.20 454.15 195.07 C 454.19 255.93 454.09 316.78 454.20 377.64 C 457.59 376.14 461.12 374.53 463.48 371.56 C 466.75 367.86 468.06 362.85 467.93 358.00 C 467.89 289.99 467.96 221.99 467.89 153.98 C 468.00 146.53 463.12 139.38 456.14 136.75 C 451.65 135.04 446.75 135.59 442.05 135.52 C 391.04 135.55 340.04 135.52 289.04 135.53 C 283.90 140.70 278.69 145.79 273.63 151.02 M 205.30 166.07 C 205.31 242.81 205.29 319.55 205.31 396.29 C 205.29 400.42 205.30 404.54 205.30 408.67 C 219.48 408.66 233.67 408.66 247.85 408.67 C 247.86 327.80 247.85 246.93 247.86 166.07 C 243.66 166.07 239.47 166.06 235.28 166.06 C 225.28 166.07 215.29 166.06 205.30 166.07 M 262.88 166.07 C 262.87 175.44 262.87 184.82 262.88 194.20 C 298.94 194.21 335.00 194.19 371.06 194.20 C 374.36 194.00 378.01 195.64 379.09 198.97 C 380.05 202.59 379.78 206.43 380.88 210.02 C 383.72 219.79 391.94 227.77 401.83 230.20 C 405.03 230.96 408.36 230.89 411.57 231.63 C 414.10 232.18 415.25 234.74 416.67 236.62 C 416.20 246.74 416.65 256.90 416.49 267.04 C 416.62 289.46 416.25 311.90 416.67 334.31 C 415.27 335.99 414.24 338.33 412.01 339.05 C 408.86 339.96 405.52 339.81 402.33 340.51 C 391.44 342.93 382.51 352.15 380.31 363.06 C 379.23 367.36 380.42 371.93 379.20 376.17 C 377.03 381.38 370.60 380.57 366.02 380.70 C 331.66 380.43 297.31 380.24 262.95 380.52 C 262.97 382.67 262.94 384.83 262.83 386.99 C 262.94 394.22 262.82 401.45 262.93 408.68 C 312.96 408.65 363.00 408.66 413.03 408.68 C 418.50 408.62 424.39 409.27 429.36 406.46 C 435.36 403.32 439.25 396.70 439.11 389.93 C 439.16 321.95 439.10 253.96 439.14 185.98 C 439.32 180.37 437.30 174.60 433.01 170.87 C 428.83 166.82 422.84 165.81 417.24 166.10 C 365.78 166.03 314.33 166.08 262.88 166.07 M 262.88 209.20 C 262.87 217.52 262.88 225.85 262.88 234.18 C 273.94 241.89 282.74 252.93 287.16 265.73 C 293.60 283.64 291.56 304.37 281.67 320.64 C 277.29 328.01 271.28 334.29 264.42 339.40 C 262.28 340.60 263.07 343.29 262.78 345.29 C 263.00 352.04 262.77 358.80 262.96 365.56 C 296.87 365.51 330.79 365.54 364.70 365.55 C 365.52 358.94 367.30 352.37 370.78 346.65 C 377.26 335.44 388.84 327.56 401.54 325.26 C 401.61 298.70 401.56 272.15 401.57 245.60 C 394.31 244.18 387.50 241.08 381.56 236.70 C 373.11 229.77 367.17 219.97 365.20 209.20 C 331.10 209.20 296.99 209.20 262.88 209.20 M 177.66 281.16 C 175.73 295.40 180.63 310.16 190.25 320.76 C 190.29 298.50 190.29 276.24 190.25 253.98 C 183.48 261.53 178.87 271.06 177.66 281.16 M 262.89 253.98 C 262.87 276.24 262.87 298.50 262.89 320.76 C 269.59 313.27 274.17 303.85 275.43 293.86 C 277.46 279.55 272.60 264.63 262.89 253.98 Z" opacity="1"/></g><g id="#0d9653ff"><path fill="#0d9653" d="M 79.82 107.70 C 84.92 104.41 91.19 105.00 96.96 104.99 C 144.87 105.03 192.79 104.97 240.71 105.01 C 235.56 110.19 230.42 115.39 225.20 120.49 C 173.77 120.41 122.34 120.53 70.91 120.44 C 72.32 115.33 75.08 110.38 79.82 107.70 Z" opacity="1"/><path fill="#0d9653" d="M 319.45 105.38 C 322.55 104.60 325.83 105.07 329.01 104.99 C 375.99 105.01 422.97 105.01 469.95 104.99 C 475.30 105.06 481.05 104.41 485.94 107.06 C 492.20 110.18 496.20 117.05 495.97 124.02 C 495.97 192.35 496.03 260.68 495.94 329.01 C 496.17 337.10 490.42 344.17 483.05 346.94 C 482.78 282.62 483.04 218.30 482.92 153.98 C 482.91 146.28 480.21 138.59 475.26 132.68 C 468.93 124.88 458.98 120.33 448.95 120.48 C 400.70 120.43 352.45 120.51 304.20 120.44 C 309.31 115.46 314.07 110.07 319.45 105.38 Z" opacity="1"/><path fill="#0d9653" d="M 51.42 138.39 C 56.28 135.06 62.41 135.46 68.01 135.52 C 115.38 135.57 162.74 135.49 210.11 135.56 C 205.06 140.79 199.83 145.83 194.75 151.03 C 144.11 151.10 93.47 151.08 42.83 151.03 C 44.24 146.04 46.81 141.11 51.42 138.39 Z" opacity="1"/><path fill="#0d9653" d="M 273.63 151.02 C 278.69 145.79 283.90 140.70 289.04 135.53 C 340.04 135.52 391.04 135.55 442.05 135.52 C 446.75 135.59 451.65 135.04 456.14 136.75 C 463.12 139.38 468.00 146.53 467.89 153.98 C 467.96 221.99 467.89 289.99 467.93 358.00 C 468.06 362.85 466.75 367.86 463.48 371.56 C 461.12 374.53 457.59 376.14 454.20 377.64 C 454.09 316.78 454.19 255.93 454.15 195.07 C 454.09 187.20 454.87 178.94 451.51 171.57 C 446.46 159.17 433.45 150.67 420.06 151.07 C 371.25 151.15 322.44 151.28 273.63 151.02 Z" opacity="1"/><path fill="#0d9653" d="M 417.24 166.10 C 422.84 165.81 428.83 166.82 433.01 170.87 C 437.30 174.60 439.32 180.37 439.14 185.98 C 439.10 253.96 439.16 321.95 439.11 389.93 C 439.25 396.70 435.36 403.32 429.36 406.46 C 424.39 409.27 418.50 408.62 413.03 408.68 C 363.00 408.66 312.96 408.65 262.93 408.68 C 262.82 401.45 262.94 394.22 262.83 386.99 C 305.90 386.69 348.96 387.02 392.02 386.82 C 402.23 386.75 411.81 379.87 415.51 370.43 C 418.13 363.60 417.10 356.13 417.34 348.99 C 417.58 344.08 417.17 339.19 416.67 334.31 C 416.25 311.90 416.62 289.46 416.49 267.04 C 416.65 256.90 416.20 246.74 416.67 236.62 C 417.14 231.78 417.57 226.93 417.33 222.07 C 417.20 203.42 417.42 184.76 417.24 166.10 Z" opacity="1"/><path fill="#0d9653" d="M 13.96 386.95 C 72.73 386.77 131.51 386.89 190.28 386.91 C 190.09 394.02 190.65 401.15 190.09 408.25 C 188.44 408.68 186.72 408.72 185.03 408.75 C 165.02 408.53 145.01 408.79 125.00 408.60 C 122.51 408.68 119.87 408.55 117.54 409.60 C 114.96 410.81 114.18 413.79 113.24 416.23 C 109.17 416.27 105.10 416.26 101.03 416.24 C 100.19 413.92 99.46 411.21 97.21 409.84 C 95.03 408.60 92.41 408.72 89.99 408.61 C 73.67 408.73 57.33 408.61 41.00 408.69 C 34.31 408.70 26.77 409.40 21.24 404.82 C 15.64 400.77 13.53 393.61 13.96 386.95 Z" opacity="1"/></g><g id="#ffdc45ff"><path fill="#ffdc45" d="M 215.93 151.06 C 231.28 135.70 246.65 120.36 261.99 105.00 C 269.53 105.00 277.07 105.00 284.61 105.00 C 269.64 120.62 253.97 135.56 238.86 151.06 C 231.22 151.08 223.58 151.07 215.93 151.06 Z" opacity="1"/><path fill="#ffdc45" d="M 205.30 166.07 C 215.29 166.06 225.28 166.07 235.28 166.06 C 235.42 231.70 235.28 297.33 235.35 362.97 C 235.62 373.00 231.20 383.09 223.22 389.27 C 218.19 393.53 211.69 395.30 205.31 396.29 C 205.29 319.55 205.31 242.81 205.30 166.07 Z" opacity="1"/></g><g id="#d6b93aff"><path fill="#d6b93a" d="M 284.61 105.00 C 289.18 105.00 293.75 104.99 298.32 105.01 C 284.95 118.40 271.54 131.77 258.17 145.16 C 256.16 147.11 254.37 149.34 252.04 150.90 C 247.66 151.32 243.25 150.97 238.86 151.06 C 253.97 135.56 269.64 120.62 284.61 105.00 Z" opacity="1"/><path fill="#d6b93a" d="M 235.28 166.06 C 239.47 166.06 243.66 166.07 247.86 166.07 C 247.85 246.93 247.86 327.80 247.85 408.67 C 233.67 408.66 219.48 408.66 205.30 408.67 C 205.30 404.54 205.29 400.42 205.31 396.29 C 211.69 395.30 218.19 393.53 223.22 389.27 C 231.20 383.09 235.62 373.00 235.35 362.97 C 235.28 297.33 235.42 231.70 235.28 166.06 Z" opacity="1"/></g><g id="#10bb67ff"><path fill="#10bb67" d="M 24.03 168.13 C 29.27 165.40 35.34 166.13 41.03 166.05 C 90.77 166.09 140.52 166.05 190.27 166.07 C 190.27 175.44 190.28 184.82 190.27 194.19 C 177.84 194.18 165.41 194.25 152.98 194.14 C 150.19 194.23 147.10 193.99 144.71 195.70 C 142.76 197.11 142.11 199.58 141.36 201.74 C 137.26 201.73 133.16 201.74 129.07 201.76 C 128.24 199.53 127.56 196.93 125.45 195.55 C 122.95 193.92 119.81 194.25 116.97 194.14 C 105.29 194.30 93.61 194.10 81.93 194.22 C 78.93 194.15 75.56 195.36 74.35 198.33 C 73.12 201.97 73.30 205.90 72.34 209.61 C 69.42 220.60 59.48 229.49 48.11 230.70 C 44.89 231.33 40.93 230.85 38.53 233.55 C 36.61 235.51 36.63 238.44 36.52 241.00 C 36.58 270.66 36.57 300.33 36.52 329.99 C 36.59 332.77 36.76 336.00 39.15 337.86 C 41.92 340.04 45.72 339.58 49.00 340.25 C 62.36 342.06 73.33 354.59 73.30 368.08 C 73.60 371.54 72.65 375.78 75.55 378.40 C 77.46 380.38 80.39 380.50 82.96 380.57 C 118.73 380.50 154.50 380.54 190.27 380.54 C 190.27 382.66 190.27 384.78 190.28 386.91 C 131.51 386.89 72.73 386.77 13.96 386.95 C 14.10 319.62 13.97 252.29 14.03 184.95 C 13.86 178.03 17.82 171.24 24.03 168.13 Z" opacity="1"/><path fill="#10bb67" d="M 262.88 166.07 C 314.33 166.08 365.78 166.03 417.24 166.10 C 417.42 184.76 417.20 203.42 417.33 222.07 C 417.57 226.93 417.14 231.78 416.67 236.62 C 415.25 234.74 414.10 232.18 411.57 231.63 C 408.36 230.89 405.03 230.96 401.83 230.20 C 391.94 227.77 383.72 219.79 380.88 210.02 C 379.78 206.43 380.05 202.59 379.09 198.97 C 378.01 195.64 374.36 194.00 371.06 194.20 C 335.00 194.19 298.94 194.21 262.88 194.20 C 262.87 184.82 262.87 175.44 262.88 166.07 Z" opacity="1"/><path fill="#10bb67" d="M 416.67 334.31 C 417.17 339.19 417.58 344.08 417.34 348.99 C 417.10 356.13 418.13 363.60 415.51 370.43 C 411.81 379.87 402.23 386.75 392.02 386.82 C 348.96 387.02 305.90 386.69 262.83 386.99 C 262.94 384.83 262.97 382.67 262.95 380.52 C 297.31 380.24 331.66 380.43 366.02 380.70 C 370.60 380.57 377.03 381.38 379.20 376.17 C 380.42 371.93 379.23 367.36 380.31 363.06 C 382.51 352.15 391.44 342.93 402.33 340.51 C 405.52 339.81 408.86 339.96 412.01 339.05 C 414.24 338.33 415.27 335.99 416.67 334.31 Z" opacity="1"/></g><g id="#32d736ff"><path fill="#32d736" d="M 129.07 201.76 C 133.16 201.74 137.26 201.73 141.36 201.74 C 142.16 203.96 142.84 206.54 144.95 207.90 C 147.04 209.28 149.68 209.13 152.08 209.25 C 164.81 209.16 177.54 209.21 190.27 209.20 C 190.28 217.50 190.27 225.81 190.28 234.12 C 185.14 237.97 180.19 242.17 176.23 247.26 C 165.11 261.03 160.30 279.54 162.99 297.00 C 165.35 313.33 174.32 328.58 187.56 338.46 C 190.07 339.88 190.59 342.55 190.36 345.24 C 154.12 345.54 117.88 345.15 81.64 345.42 C 75.01 334.81 63.80 327.56 51.58 325.18 C 51.57 298.67 51.58 272.16 51.57 245.65 C 57.57 244.19 63.55 242.25 68.65 238.67 C 78.83 232.03 85.65 221.05 87.99 209.21 C 97.99 209.20 107.99 209.18 117.99 209.25 C 120.35 209.14 122.90 209.30 125.05 208.14 C 127.41 206.86 128.18 204.10 129.07 201.76 Z" opacity="1"/><path fill="#32d736" d="M 262.88 209.20 C 296.99 209.20 331.10 209.20 365.20 209.20 C 367.17 219.97 373.11 229.77 381.56 236.70 C 381.09 253.13 381.57 269.57 381.31 286.00 C 381.35 294.83 375.83 303.10 367.98 306.95 C 362.17 309.81 356.45 313.24 352.51 318.51 C 347.24 324.70 346.47 333.72 340.12 339.11 C 335.22 343.60 328.51 345.54 321.95 345.37 C 302.23 345.29 282.50 345.45 262.78 345.29 C 263.07 343.29 262.28 340.60 264.42 339.40 C 271.28 334.29 277.29 328.01 281.67 320.64 C 291.56 304.37 293.60 283.64 287.16 265.73 C 282.74 252.93 273.94 241.89 262.88 234.18 C 262.88 225.85 262.87 217.52 262.88 209.20 Z" opacity="1"/></g><g id="#2ab52dff"><path fill="#2ab52d" d="M 381.56 236.70 C 387.50 241.08 394.31 244.18 401.57 245.60 C 401.56 272.15 401.61 298.70 401.54 325.26 C 388.84 327.56 377.26 335.44 370.78 346.65 C 367.30 352.37 365.52 358.94 364.70 365.55 C 330.79 365.54 296.87 365.51 262.96 365.56 C 262.77 358.80 263.00 352.04 262.78 345.29 C 282.50 345.45 302.23 345.29 321.95 345.37 C 328.51 345.54 335.22 343.60 340.12 339.11 C 346.47 333.72 347.24 324.70 352.51 318.51 C 356.45 313.24 362.17 309.81 367.98 306.95 C 375.83 303.10 381.35 294.83 381.31 286.00 C 381.57 269.57 381.09 253.13 381.56 236.70 Z" opacity="1"/><path fill="#2ab52d" d="M 81.64 345.42 C 117.88 345.15 154.12 345.54 190.36 345.24 C 190.25 352.00 190.27 358.76 190.28 365.52 C 156.34 365.56 122.41 365.52 88.48 365.54 C 87.54 358.47 85.52 351.46 81.64 345.42 Z" opacity="1"/></g><g id="#e1e3faff"><path fill="#e1e3fa" d="M 177.66 281.16 C 178.87 271.06 183.48 261.53 190.25 253.98 C 190.29 276.24 190.29 298.50 190.25 320.76 C 180.63 310.16 175.73 295.40 177.66 281.16 Z" opacity="1"/><path fill="#e1e3fa" d="M 262.89 253.98 C 272.60 264.63 277.46 279.55 275.43 293.86 C 274.17 303.85 269.59 313.27 262.89 320.76 C 262.87 298.50 262.87 276.24 262.89 253.98 Z" opacity="1"/></g></svg>