<?xml version="1.0" encoding="UTF-8"?>
<svg id="Camada_2" data-name="Camada 2" xmlns="http://www.w3.org/2000/svg" viewBox="0 0 2444.92 2676.15">
  <defs>
    <style>
      .cls-1 {
        fill: #fff;
      }

      .cls-2 {
        fill: #ff8080;
      }

      .cls-3 {
        opacity: .5;
      }

      .cls-4 {
        fill: #fff3e9;
      }

      .cls-5 {
        fill: #ff6f03;
      }

      .cls-6 {
        fill: #66e9ff;
      }

      .cls-7 {
        fill: #f26666;
      }

      .cls-8 {
        opacity: .3;
      }

      .cls-9 {
        fill: #25b0d6;
      }

      .cls-10 {
        fill: #ffb8b8;
      }

      .cls-11 {
        fill: #000072;
      }

      .cls-12 {
        fill: #66dbff;
      }

      .cls-13 {
        fill: #f9a528;
      }

      .cls-14 {
        fill: #371a45;
      }

      .cls-15 {
        opacity: .25;
      }
    </style>
  </defs>
  <g id="Layer_1" data-name="Layer 1">
    <g>
      <path class="cls-13" d="M1250.59,119C1065.74,37.69,769.32-19.91,700.69,43.5c-71.74,66.28,58.66,390.03,137.33,516.03L1250.59,119Z"/>
      <path class="cls-1" d="M838.04,559.51l167.16-178.47,245.41-262.05C1065.75,37.7,769.32-19.89,700.69,43.5c-7.54,6.94-12.83,16.72-16.17,28.83-28.75,103.23,83.07,374.42,153.53,487.18Z"/>
      <g class="cls-15">
        <path class="cls-14" d="M838.04,559.51l167.16-178.47c1.91-56.44-4.32-128.12-34.85-198.45-31.63-72.87-206.58-156.15-285.84-110.26-28.75,103.23,83.07,374.42,153.53,487.18Z"/>
      </g>
      <path class="cls-11" d="M835.41,586.24l-11.27-18.05c-63.1-101.05-223.48-454.55-134.56-536.71,79.29-73.26,389.12-5.96,567.6,72.54l21.14,9.3-442.91,472.92Zm-23.54-553.75c-46.83,0-82.77,7.04-100.08,23.03-56.17,51.9,46.86,335.34,129.09,477.02L1222.65,124.9c-129.47-53.27-300.36-92.41-410.78-92.41Z"/>
      <path class="cls-1" d="M1607.39,2320.67c89.63,12.99,479.31,154.58,628.17,154.58,140.02,0,208.1-145.76,190.55-272.75-24.89-180.12-177.58-175-229.31-129.92,0,0-199.86-111.23-314.53-139.59"/>
      <path class="cls-1" d="M2410.97,2343.17c-27.73,74.4-87.35,132.06-175.4,132.06-148.88,0-538.54-141.56-628.18-154.55l51.21-72.24,223.66-315.46c114.66,28.35,314.55,139.6,314.55,139.6,51.71-45.09,204.42-50.21,229.32,129.9,6.49,47.13,1.21,96.8-15.16,140.68Z"/>
      <path class="cls-1" d="M1526.23,1913.77s84.03,128.25-131.49,316.87c-487.33,426.49-1153.36-16-1107.64,269.14,9.14,57.01-141.09-61.21-177.42-158.84-38.39-103.15,131.8-194.66,287.95-197.45,245.65,7.16,633.61,81.14,761.68-168.89,102.15-199.43,126.45-273.74,126.45-273.74"/>
      <path class="cls-1" d="M1394.73,2230.62c-33.15,29.01-67.13,54-101.66,75.46-473.01,294.19-1048.56-72.05-1005.97,193.69,.64,3.91,.51,7-.28,9.3-10.68,31.58-143.32-77.21-177.16-168.14-38.4-103.13,131.81-194.66,287.93-197.46,245.67,7.18,633.65,81.17,761.68-168.87,102.16-199.44,126.47-273.75,126.47-273.75l240.47,212.93s84.02,128.27-131.49,316.85Z"/>
      <g class="cls-15">
        <path class="cls-14" d="M1293.08,2306.08c-473.01,294.19-1048.56-72.05-1005.97,193.69,.64,3.91,.51,7-.28,9.3-35.4-54.79-80.39-150.27-29.24-227.11,60.36-90.61,363.58,153.17,804.23-93.41,134.94-75.51,200.46,3.41,231.26,117.54Z"/>
      </g>
      <g class="cls-15">
        <path class="cls-14" d="M636.87,2557.88c-6.35,10.68-14.27,20.49-23.53,29.42l-293.92-33.98s-138.26-156.54-61.83-271.36c21.55-32.37,74.08-22.05,152.81-6.68-10.4,44.06-14.27,50.83,37.48,61.32,14.55,2.9,33.47,6.17,57.87,10.59,139.92,25.51,177.99,132.23,131.12,210.68Z"/>
      </g>
      <g class="cls-15">
        <path class="cls-14" d="M636.91,2557.92c-6.35,10.68-14.23,20.44-23.48,29.37l-294.01-33.98s-138.26-156.54-61.83-271.36c18.23-27.35,58.56-24.22,118.09-13.31,3.18,18.28,4.28,39.59,2.85,64.5,0,0,31.03,1.2,69.34,3.45,14.55,2.9,33.47,6.17,57.87,10.59,91.76,16.76,139.73,68.37,148.62,124.12,4.74,29.24-1.34,59.58-17.45,86.6Z"/>
      </g>
      <path class="cls-11" d="M278.93,2530.63c-47.11,0-155.42-106.38-184.34-184.08-12.09-32.5-7.2-66.22,14.14-97.53,46.57-68.32,167.94-119.47,288.6-121.62h.38s.38,0,.38,0c39.03,1.14,81.19,3.92,125.83,6.87,230.8,15.23,518.02,34.18,621.06-167.01,100.03-195.29,125.23-270.68,125.48-271.42,2.78-8.44,11.87-13.04,20.3-10.27,8.44,2.77,13.04,11.84,10.28,20.28-1.01,3.08-25.86,77.79-127.42,276.07-112.7,220.02-411.63,200.29-651.83,184.45-44.18-2.92-85.93-5.67-124.26-6.8-109.11,2.05-221.78,48.26-262.21,107.56-15.43,22.63-18.98,45.57-10.57,68.18,26.22,70.46,113.51,148.54,145.63,161.41-5.02-37.48,1.61-65.23,20.21-84.71,42.36-44.38,136.37-33.75,266.5-19.04,221.36,25.02,555.89,62.84,827.05-174.47,200.99-175.9,131.62-291.22,128.56-296.04-4.72-7.47-2.58-17.4,4.85-22.18,7.43-4.8,17.29-2.74,22.14,4.65,3.74,5.72,89.13,142.21-134.36,337.79-281.85,246.66-624.87,207.89-851.86,182.23-116.36-13.15-208.27-23.55-239.6,9.28-12.09,12.67-15.65,33.27-10.89,62.98,3.17,19.79-7,29.82-17.59,32.62-2,.52-4.16,.78-6.47,.78Z"/>
      <path class="cls-1" d="M1442.6,2320.67c-89.63,12.99-479.31,154.58-628.17,154.58-140.02,0-208.1-145.76-190.55-272.75,24.89-180.12,177.58-175,229.31-129.92,0,0,199.86-111.23,314.53-139.59"/>
      <path class="cls-1" d="M1442.6,2320.68c-89.64,12.99-479.29,154.55-628.18,154.55-87.43,0-146.8-56.79-174.78-130.4-16.86-44.3-22.36-94.63-15.78-142.35,24.9-180.11,177.61-174.99,229.32-129.9,0,0,199.84-111.25,314.55-139.6l223.74,315.59,51.13,72.11Z"/>
      <g class="cls-15">
        <path class="cls-14" d="M1442.6,2320.68c-89.64,12.99-479.29,154.55-628.18,154.55-87.43,0-146.8-56.79-174.78-130.4,31.39,38.55,76.61,74.73,135.23,72.86,115.16-3.71,132.06-130.19,132.06-130.19,0,0,86.39,66.07,137.73,31.81,65.45-43.67-12.78-174.99-12.78-216.87,0-36.93,99.71,106.79,359.59,146.14l51.13,72.11Z"/>
      </g>
      <g class="cls-15">
        <path class="cls-14" d="M2410.97,2343.17c-27.73,74.4-87.35,132.06-175.4,132.06-148.88,0-538.54-141.56-628.18-154.55l51.21-72.24c259.3-39.51,358.85-182.9,358.85-146.01,0,41.88-78.27,173.2-12.78,216.87,51.33,34.27,137.68-31.81,137.68-31.81,0,0,16.95,126.48,132.11,130.19,59.45,1.87,105.13-35.35,136.52-74.53Z"/>
      </g>
      <g class="cls-15">
        <path class="cls-14" d="M1973.11,2121.42l-166.04,227.82c-66.03,17.44-164.29,36.06-282.4,36.06s-216.37-18.61-282.41-36.06l-165.08-227.16c65.03,45.67,204.63,136.23,447.48,136.23s383.83-91.47,448.44-136.89Z"/>
      </g>
      <path class="cls-11" d="M814.43,2491.34c-57.68,0-108.19-22.98-146.06-66.45-48.69-55.89-71.85-141.95-60.42-224.59,15.14-109.54,75.07-147.5,109.44-160.37,51.14-19.16,105.2-8.23,137.23,13.5,41.2-22.47,206.61-110.68,309.24-136.06l7.72,31.24c-111.25,27.51-308.58,136.92-310.56,138.02l-9.88,5.5-8.52-7.42c-22.3-19.44-69.82-31.18-113.95-14.64-33.79,12.66-76.64,46.29-88.85,134.63-10.19,73.7,10.05,149.98,52.81,199.05,31.58,36.25,73.7,55.42,121.8,55.42,93.22,0,291.8-59.49,436.79-102.92,87.05-26.08,155.81-46.67,189.07-51.49l4.61,31.85c-30.91,4.48-102.06,25.8-184.45,50.47-155.08,46.46-348.09,104.27-446.03,104.27Z"/>
      <path class="cls-11" d="M865.2,2061.86c42.29,52.37,55.93,122.57,49.06,188.44-1.29,9.99-16.18,8.99-16.02-1.15,1.04-48.56-10.33-99.35-36.68-140.47-3.05-4.33-6.52-8.94-9.61-13.25-2.37-2.66-8.35-9.4-10.76-12.14-15.99-16.73,9.28-39.34,24.01-21.43h0Z"/>
      <ellipse class="cls-2" cx="761.39" cy="2307.52" rx="73.86" ry="82.41"/>
      <ellipse class="cls-2" cx="830.26" cy="2199.86" rx="27.13" ry="30.27"/>
      <ellipse class="cls-2" cx="687.53" cy="2212.16" rx="27.13" ry="30.27"/>
      <ellipse class="cls-2" cx="755.08" cy="2178.57" rx="30.1" ry="33.59"/>
      <path class="cls-4" d="M475.9,2525.91c-1-.77-11.05-8.51-23.5-21.33,8.11,6.52,16.57,13.81,23.5,21.33Z"/>
      <path class="cls-11" d="M2235.56,2491.34c-97.94,0-290.94-57.81-446.02-104.27-82.39-24.68-153.55-46-184.45-50.48l4.61-31.85c33.26,4.82,102.02,25.41,189.07,51.49,144.99,43.43,343.57,102.92,436.79,102.92,48.1,0,90.22-19.16,121.8-55.42,42.76-49.07,63-125.35,52.81-199.05-12.21-88.35-55.06-121.98-88.85-134.63-44.13-16.53-91.65-4.79-113.95,14.64l-8.52,7.43-9.88-5.5c-1.98-1.1-199.31-110.51-310.57-138.02l7.72-31.24c102.63,25.38,268.04,113.59,309.24,136.06,32.03-21.73,86.09-32.65,137.23-13.5,34.38,12.87,94.3,50.83,109.44,160.37,11.42,82.65-11.73,168.71-60.42,224.59-37.88,43.47-88.39,66.45-146.06,66.45Z"/>
      <path class="cls-11" d="M2208.8,2083.29c-41.52,43.43-58.02,106.36-57.06,165.36,.38,4.58-3.15,8.63-7.77,8.75-4.2,.13-7.74-3.01-8.23-7.1-1.95-16.73-2.09-32.71-1.19-49.11,2.15-37.12,11.22-74.25,28.82-107.4,3.06-5.34,6.7-11.12,9.89-16.42,2.42-3.45,9-12.01,11.54-15.5,14.67-17.87,40.02,4.63,24.01,21.43h0Z"/>
      <ellipse class="cls-2" cx="2288.6" cy="2307.52" rx="73.86" ry="82.41"/>
      <ellipse class="cls-2" cx="2219.73" cy="2199.86" rx="27.13" ry="30.27"/>
      <ellipse class="cls-2" cx="2362.46" cy="2212.16" rx="27.13" ry="30.27"/>
      <ellipse class="cls-2" cx="2294.91" cy="2178.57" rx="30.1" ry="33.59"/>
      <path class="cls-1" d="M2046.91,2020.14c8.68-245.39-148.63-492.57-201.68-680.83-62.28-220.98-199.9-223.83-319.87-219.8h-.72c-119.97-4.03-257.59-1.19-319.87,219.8-53.06,188.26-210.37,435.45-201.68,680.83l239.17,329.12c66.04,17.41,164.27,36.02,282.41,36.02s216.37-18.61,282.41-36.02"/>
      <path class="cls-1" d="M2046.93,2020.13l-239.86,329.12c-66.03,17.44-164.29,36.06-282.4,36.06s-216.37-18.61-282.41-36.06l-239.19-329.12c-6.33-179.03,75.73-359.01,141.14-516.39,24.23-58.33,46.21-113.54,60.54-164.41,62.28-220.99,199.93-223.87,319.88-219.83h.75c119.95-4.04,257.59-1.17,319.83,219.83,14.36,50.96,36.39,106.29,60.7,164.71,65.41,157.29,147.34,337.2,141.02,516.1Z"/>
      <g class="cls-15">
        <path class="cls-14" d="M1972.15,2122.09l-165.08,227.16c-66.03,17.44-164.25,36.06-282.4,36.06s-216.37-18.61-282.41-36.06l-165.08-227.16c26.94,18.9,66.99,44.84,121.28,70.24,107.04,50.09-132.77-306.6-79.44-434.67,14.49-34.72,322.96,121.12,342.23,276.62,18.69,150.59,21.76,202.25,63.41,202.25s44.72-51.66,63.37-202.25c19.28-155.5,327.79-311.35,342.23-276.62,53.38,128.07-186.44,484.75-79.4,434.67,54.29-25.4,94.34-51.33,121.28-70.24Z"/>
      </g>
      <g class="cls-15">
        <path class="cls-14" d="M1905.91,1504.03c-100.38,51.96-233.94,83.68-380.54,83.68s-280.7-31.85-381.16-83.98c24.23-58.33,46.21-113.54,60.54-164.41,62.28-220.99,199.93-223.87,319.88-219.83h.75c119.95-4.04,257.59-1.17,319.83,219.83,14.36,50.96,36.39,106.29,60.7,164.71Z"/>
      </g>
      <path class="cls-11" d="M1244.3,2341.49c41.08,2.35,98.98,12.46,140.11,18.14,115.46,17.16,235.3,9.78,350.02-10.44,23.45-3.52,46.68-6.84,70.58-7.7,4.58-.18,8.45,3.44,8.56,8.03,.08,3.26-1.75,6.12-4.46,7.52-10.91,5.64-22.2,10.2-33.69,14.02-34.4,11.55-70.33,17.78-106.3,21.87-119.65,12.58-242.23,12.87-360.3-12.23-23.46-5.73-46.64-12.93-68.63-23.65-7.85-3.82-4.83-16.18,4.1-15.56h0Z"/>
      <path class="cls-11" d="M2038.87,2019.86c-7.64-142.1-53.1-277.53-105.9-408.58-35.63-89.09-76.69-175.99-103.62-268.9-12.81-44.52-30.59-87.83-57.91-123.47-60.05-80.38-152.53-87.67-245.8-83.3-24.61-.7-48.19-1.33-71.73,0-133.19,4.58-198.8,84.57-233.25,206.77-41.07,138.15-109.5,265.35-152.96,402.21-14.49,43.88-27.51,90.66-36.93,136-6.46,31.39-11.13,63.53-15.37,95.31-1.01,14.53-2.46,29.36-4.25,43.97-.24,4.65-4.46,8.28-9.12,7.63-3.74-.49-6.55-3.47-6.96-7.06-1.41-12.06-2.28-24.21-3.2-36.41-5.33-182.96,84.99-352.2,150.12-517.27,17.83-44.06,34.89-88.15,47.73-133.17,13.74-47.58,32.76-94.42,63.36-134.29,66.87-89.39,169.48-101.14,271.85-95.86,101.09-5.09,204.48,5.62,272.03,95.86,30.6,39.86,49.62,86.71,63.36,134.29,12.84,45.03,29.9,89.12,47.73,133.17,53.17,132.13,118.57,265.31,142.05,408.09,7.37,48.11,9.87,97.21,4.87,145.6-1.47,9.7-15.34,9.63-16.08-.57h0Z"/>
      <path class="cls-13" d="M1800.65,119c184.85-81.32,481.28-138.91,549.9-75.5,71.74,66.28-58.66,390.03-137.33,516.03L1800.65,119Z"/>
      <path class="cls-5" d="M2213.2,559.51l-167.16-178.47-245.41-262.05c184.86-81.29,481.29-138.88,549.92-75.49,7.54,6.94,12.83,16.72,16.17,28.83,28.75,103.23-83.07,374.42-153.53,487.18Z"/>
      <g class="cls-15">
        <path class="cls-14" d="M2213.2,559.51l-167.16-178.47c-1.91-56.44,4.32-128.12,34.85-198.45,31.63-72.87,206.58-156.15,285.84-110.26,28.75,103.23-83.07,374.42-153.53,487.18Z"/>
      </g>
      <path class="cls-11" d="M2215.83,586.24L1772.91,113.33l21.15-9.3c178.47-78.51,488.32-145.81,567.6-72.54,88.92,82.15-71.46,435.66-134.56,536.71l-11.27,18.05ZM1828.59,124.9l381.77,407.63c82.23-141.68,185.26-425.12,129.09-477.02-58.11-53.7-326.48-6.47-510.86,69.38Z"/>
      <path class="cls-1" d="M733.19,1052.12c6.84,41.7,22.7,87.57,53.29,133.39,86.17,128.95,289.46,257.58,738.22,292.44,454.27-34.7,657.12-165.82,741.65-296.27,28.64-44.18,43.71-88.28,50.35-128.57,16.4-99.17-13.42-181.83-16.56-211.75-20.53-181.58-67.89-824.45-774.52-824.89-353.32-.22-542,160.38-644.95,343.69-103,183.36-120.22,389.47-130.6,480.23-3.18,29.92-33.1,112.54-16.87,211.73Z"/>
      <g class="cls-15">
        <path class="cls-14" d="M785.77,1186c86.25,129.08,289.74,257.82,738.93,292.72,454.71-34.73,657.76-165.98,742.36-296.56,0,0-127.98,92.22-372.66,151.76-244.04,59.39-499.17,59.23-743.13-.47-211.51-51.75-335.72-127.78-365.5-147.46Z"/>
      </g>
      <path class="cls-1" d="M1556.56,148.89c-.16,254.99,206.49,461.9,461.53,462.06,83.69,.05,162.24-22.15,229.97-61.1-69.26-236.14-236.78-512.38-672.47-532.25-12.35,41.59-19,85.69-19.03,131.29Z"/>
      <path class="cls-5" d="M1556.56,148.89c-.16,254.99,206.49,461.9,461.53,462.06,83.69,.05,162.24-22.15,229.97-61.1-69.26-236.14-236.78-512.38-672.47-532.25-12.35,41.59-19,85.69-19.03,131.29Z"/>
      <path class="cls-11" d="M836.14,472.45c-13.69,56.8-29.11,112.3-40.97,169.34-13.35,63.79-21.18,129.17-27.76,194.41-2.08,22.41-8.77,44.74-12.61,66.26-24.14,113.47-2.08,226.59,76.59,313.81,96.62,107.96,237.93,161.64,374.55,199.39,56.1,15.27,113.13,27.8,170.6,38.94,4.37,.84,7.23,5.06,6.39,9.43-.79,4.09-4.59,6.86-8.65,6.5-176.24-17.32-357.72-61.76-502.12-169.17-73.07-55.1-132.23-133.05-152.97-223.41-17.93-74.59-7.61-152.29,10.18-225.52,2.79-12.24,4.27-29.5,5.82-41.94,10.37-87.82,23.83-176.94,51.05-261.65,9.57-28.19,20.74-55.9,34.9-82.18,4.52-7.88,17.17-3.79,15.01,5.81h0Z"/>
      <path class="cls-11" d="M1672.85,1454.78c191.52-39.8,409.17-87.97,545.67-237.98,93.56-106.26,100.74-224.48,67.63-356.91-1.5-7.16-2.83-16.35-3.44-23.43-6.51-65.28-14.31-130.7-27.62-194.55-11.84-57.09-27.34-112.59-40.91-169.47-1.09-4.38,1.64-8.84,6.04-9.85,3.64-.84,7.27,.91,8.96,4.04,14.2,26.28,25.39,54.01,34.93,82.24,27.13,84.81,40.56,173.99,50.83,261.89,1.11,7.43,2.65,25.39,3.85,32.16,3.09,17.5,7.73,34.93,11.16,53.12,60.03,283.43-146.43,448.5-393.35,524.6-84.77,26.48-173.3,42.47-261.51,50.07-9.61,.45-12.56-13.36-2.24-15.94h0Z"/>
      <g>
        <path class="cls-10" d="M2316.78,106.3c12.6,32.09-31.56,238.81-98.91,339.17-8.32-8.18-50.62-99.39-121.32-197.96-28.19-39.31-17.56-63.48,25.85-93.5,61.1-42.25,185.72-69.76,194.39-47.71Z"/>
        <path class="cls-2" d="M2318.21,139.44c-3.39,42.47-19.1,114.91-43.06,183.76-15.84,45.6-35.36,89.59-57.29,122.28-8.3-8.17-50.6-99.42-121.31-197.99-28.2-39.29-17.57-63.47,25.83-93.49,61.1-42.26,185.75-69.78,194.39-47.72,2.29,5.84,2.71,17.44,1.44,33.15Z"/>
        <path class="cls-7" d="M2318.21,139.44c-45.81-6.94-149.68,41.24-165.72,69.61-13.63,24.09,21.64,56.57,43.31,111.91,14.9,38.06,58.26,15.96,79.35,2.24-15.84,45.6-35.36,89.59-57.29,122.28-8.3-8.17-50.6-99.42-121.31-197.99-28.2-39.29-17.57-63.47,25.83-93.49,61.1-42.26,185.75-69.78,194.39-47.72,2.29,5.84,2.71,17.44,1.44,33.15Z"/>
      </g>
      <path class="cls-11" d="M2329.43,101.33c3.56,10.64,2.9,17.74,2.82,27.52-1.05,23.26-5.08,45.99-9.57,68.54-12.39,59.32-29.82,117.19-53.24,173.1-11.89,27.87-25.32,55.31-42.67,80.96-3.46,5.78-11.87,6.66-16.43,1.67-4.55-4.53-7.9-11.55-11.32-16.83,0,0-8.74-15.08-8.74-15.08-16.49-29.08-35.02-60.72-52.86-88.69-16.68-26.49-34.51-52.81-52.99-78.07-15.25-19.35-25.19-47.89-12.12-71.22,9.31-18.05,25.87-30.94,41.12-41.97,20.28-14.09,42.06-24.62,64.86-33.23,28.68-11.05,135.88-43.82,151.15-6.69h0Zm-25.31,9.94c.53,1.47,1.44,2.35,1.67,2.56,.25,.25,.13,.11-.41-.03-16.69-3.19-34.97,1.2-51.98,4.65-41.15,9.47-149.16,43.95-157.68,88.97-1.36,17.59,16.8,37.69,26.22,52.57,26.03,38.62,49.73,78.76,71.87,119.65,7.4,13.6,21.08,39.73,28.51,53.11,.91,1.81,2.32,3.67,3.07,5.08,0,0-16.42,1.67-16.42,1.67,46.28-74.34,71.02-161.68,88.45-247.06,3.9-21.35,7.37-42.91,8.02-64.39,.24-5.07-.08-12.99-1.31-16.78h0Z"/>
      <g>
        <path class="cls-10" d="M734.47,106.3c-12.6,32.09,31.56,238.81,98.91,339.17,8.32-8.18,50.62-99.39,121.32-197.96,28.19-39.31,17.56-63.48-25.85-93.5-61.1-42.25-185.72-69.76-194.39-47.71Z"/>
        <path class="cls-2" d="M733.04,139.44c3.39,42.47,19.1,114.91,43.06,183.76,15.84,45.6,35.36,89.59,57.29,122.28,8.3-8.17,50.6-99.42,121.31-197.99,28.2-39.29,17.57-63.47-25.83-93.49-61.1-42.26-185.75-69.78-194.39-47.72-2.29,5.84-2.71,17.44-1.44,33.15Z"/>
        <path class="cls-7" d="M733.04,139.44c45.81-6.94,149.68,41.24,165.72,69.61,13.63,24.09-21.64,56.57-43.31,111.91-14.9,38.06-58.26,15.96-79.35,2.24,15.84,45.6,35.36,89.59,57.29,122.28,8.3-8.17,50.6-99.42,121.31-197.99,28.2-39.29,17.57-63.47-25.83-93.49-61.1-42.26-185.75-69.78-194.39-47.72-2.29,5.84-2.71,17.44-1.44,33.15Z"/>
      </g>
      <path class="cls-11" d="M747.12,111.27c-1.16,3.92-1.55,11.69-1.31,16.78,.65,21.48,4.12,43.03,8.03,64.38,17.42,85.37,42.17,172.72,88.45,247.06,0,0-16.42-1.68-16.42-1.68,.81-1.34,2.12-3.37,3.07-5.08,7.35-13.3,21.11-39.44,28.5-53.11,22.14-40.89,45.84-81.03,71.87-119.65,9.39-14.88,27.59-34.99,26.22-52.57-8.3-44.84-116.63-79.58-157.68-88.97-17-3.45-35.3-7.85-51.98-4.65-.54,.15-.66,.29-.41,.03,.23-.21,1.13-1.09,1.67-2.56h0Zm-25.31-9.94c15.14-37.15,122.68-4.3,151.14,6.69,22.8,8.62,44.57,19.14,64.86,33.23,15.25,11.03,31.8,23.92,41.12,41.97,13.04,23.34,3.14,51.86-12.12,71.22-18.49,25.26-36.31,51.57-52.99,78.07-17.81,27.93-36.39,59.71-52.86,88.69-4.8,8.01-12.01,21.44-17.56,28.99-4.19,6.93-14.07,8.92-18.93,1.25-17.35-25.65-30.78-53.09-42.67-80.96-23.42-55.91-40.86-113.78-53.24-173.1-4.49-22.55-8.52-45.28-9.57-68.54-.06-9.77-.73-16.86,2.82-27.52h0Z"/>
      <g>
        <path class="cls-11" d="M1438.89,875.74c-.02,25.2,38.18,58.15,86.7,70.31,48.58-12.1,86.81-45,86.83-70.2,.01-21.83-65.1-26.95-86.77-26.97-21.67-.01-86.74,5.03-86.76,26.86Z"/>
        <g class="cls-8">
          <path class="cls-1" d="M1484.61,869.4c0,7.61,18.07,17.57,41.02,21.25,22.98-3.65,41.07-13.58,41.07-21.2,0-6.59-30.8-8.15-41.05-8.16-10.25,0-41.04,1.51-41.04,8.1Z"/>
        </g>
      </g>
      <path class="cls-11" d="M1633.05,1052.81c-4.57,0-8.93-2.61-10.97-7.02-.55-1.16-11.59-23.85-35.5-23.98h-.16c-9.61,0-17.28,4.85-26.15,10.47-9.75,6.17-20.8,13.15-35.27,13.15s-25.52-6.99-35.27-13.15c-8.87-5.62-16.54-10.47-26.15-10.47h-.16c-24.37,.14-35.37,23.7-35.48,23.93-2.76,6.07-9.9,8.75-15.98,5.98-6.06-2.76-8.74-9.92-5.98-15.98,.7-1.55,17.68-37.84,57.31-38.06,.1,0,.21,0,.31,0,16.59,0,28.51,7.54,39.04,14.2,7.99,5.06,14.89,9.42,22.37,9.42s14.38-4.37,22.37-9.42c10.53-6.66,22.45-14.2,39.04-14.2,.1,0,.21,0,.31,0,39.62,.22,56.6,36.51,57.31,38.06,2.76,6.06,.09,13.22-5.98,15.98-1.62,.74-3.32,1.09-5,1.09Z"/>
      <path class="cls-11" d="M1112.02,543.12c-5.89-12.14,62.95-111.13,122.74-101.95,34.11,5.23,45.76,52.79,19.74,68.75-21.37,13.11-132.3,54.16-142.47,33.21Z"/>
      <path class="cls-11" d="M1937.97,543.12c5.89-12.14-62.95-111.13-122.74-101.95-34.11,5.23-45.76,52.79-19.74,68.75,21.37,13.11,132.3,54.16,142.47,33.21Z"/>
      <g>
        <g>
          <path class="cls-11" d="M1062.54,917.65c27.84,50.54,86.11,25.15,153.07-2.6,66.88-27.72,105.09-36.22,103-82.2-2.67-58.72-87.75-106.48-172.91-81.11-86.22,25.7-113.37,111.06-83.15,165.91Z"/>
          <path class="cls-11" d="M1110.8,958.84c-24.13,0-44.53-9.41-58.83-35.36h0c-16.32-29.63-17.76-67.59-3.85-101.56,16.15-39.43,49.58-68.46,94.12-81.74,50.17-14.94,105.79-6.87,145.13,21.09,26.69,18.96,42.06,44.19,43.28,71.03,2.21,48.75-33.12,62.88-86.62,84.26-7.47,2.99-15.41,6.16-23.82,9.64l-3.88,1.61c-37.99,15.76-74.8,31.02-105.54,31.02Zm82.62-201.96c-14.79,0-29.78,2.11-44.28,6.44-37.4,11.15-65.35,35.21-78.68,67.75-11.17,27.28-10.18,57.47,2.65,80.76h0c21.03,38.17,64.61,22.47,133.99-6.31l3.89-1.61c8.5-3.53,16.54-6.74,24.1-9.76,54.17-21.65,72.83-30.67,71.46-60.75-.88-19.25-12.65-37.88-33.15-52.45-22.21-15.79-50.69-24.07-79.98-24.07Z"/>
        </g>
        <ellipse class="cls-1" cx="1237.74" cy="828.76" rx="40.91" ry="42.93" transform="translate(-81.18 136.45) rotate(-6.11)"/>
        <ellipse class="cls-1" cx="1126.02" cy="840.72" rx="26.81" ry="28.13" transform="translate(-83.1 124.65) rotate(-6.11)"/>
      </g>
      <path class="cls-6" d="M1194.71,924.16c-90.33,160.06-38.8,481.04-56.42,496.09-24.03,20.52-114.01-13.32-128.23-45.08-20.33-45.41-35.93-300.78,63.77-439.84,28.19-39.32,113.31-24.84,120.88-11.18Z"/>
      <path class="cls-12" d="M1118.95,1403.33c-1.01,.09-2.16,.14-3.5,.14-31.72,0-78.5-24.59-84.39-37.71-2.76-6.17-10.68-51.29-10.73-82.18,26.29,11.23,59.48,16.53,96.96,8.89,.28,15.15,.69,38.72,.83,43.37,.78,25.51,1.66,53.82,.83,67.49Z"/>
      <g>
        <g>
          <path class="cls-11" d="M1988.77,917.65c-27.84,50.54-86.11,25.15-153.07-2.6-66.88-27.72-105.09-36.22-103-82.2,2.67-58.72,87.75-106.48,172.91-81.11,86.22,25.7,113.37,111.06,83.15,165.91Z"/>
          <path class="cls-11" d="M1940.51,958.84c-30.75,0-67.55-15.26-105.55-31.02l-3.88-1.61c-8.4-3.48-16.35-6.66-23.82-9.64-53.49-21.38-88.83-35.51-86.61-84.26,1.22-26.84,16.59-52.07,43.28-71.03,39.35-27.96,94.95-36.04,145.13-21.09,44.54,13.28,77.96,42.3,94.12,81.74,13.92,33.96,12.48,71.93-3.84,101.56h0c-14.3,25.96-34.7,35.36-58.83,35.36Zm-82.62-201.96c-29.29,0-57.76,8.28-79.98,24.07-20.5,14.57-32.27,33.2-33.15,52.45-1.37,30.08,17.29,39.1,71.46,60.75,7.56,3.02,15.6,6.24,24.1,9.76l3.89,1.61c69.38,28.78,112.97,44.46,133.99,6.31h0c12.83-23.3,13.82-53.49,2.65-80.77-13.33-32.54-41.27-56.6-78.68-67.75-14.5-4.32-29.49-6.44-44.28-6.44Zm130.88,160.78h0Z"/>
        </g>
        <ellipse class="cls-1" cx="1813.58" cy="828.76" rx="42.93" ry="40.91" transform="translate(796.5 2543.82) rotate(-83.89)"/>
        <ellipse class="cls-1" cx="1925.3" cy="840.72" rx="28.13" ry="26.81" transform="translate(884.41 2665.58) rotate(-83.89)"/>
      </g>
      <path class="cls-11" d="M2069.47,993.37c45.03-19.34,93.17-29.59,140.89-39.97-11.23,4.96-22.56,9.61-33.94,14.08-34.33,12.81-68.34,26.76-104.54,33.57-4.58,.85-6.66-5.78-2.41-7.68h0Z"/>
      <path class="cls-11" d="M2210.36,1154.25c-34.5-7.54-72.34-17.68-106.57-27.1-11.73-3.37-23.34-7.11-34.47-12.39-2.28-1.08-3.25-3.81-2.17-6.09,.89-1.88,2.92-2.87,4.88-2.55,12.15,2.02,23.82,5.59,35.37,9.51,33.52,11.84,70.28,25.09,102.96,38.62h0Z"/>
      <path class="cls-11" d="M2210.36,1053.82c-33.56,3.12-70.91,4.67-104.76,6-11.64,.35-23.28,.26-34.92-1.47-2.5-.37-4.22-2.7-3.85-5.2,.3-2.04,1.91-3.56,3.85-3.85,11.64-1.73,23.28-1.83,34.92-1.47,33.9,1.33,71.15,2.88,104.76,6h0Z"/>
      <path class="cls-11" d="M978.11,1001.04c-48.01-9.84-93.38-28.92-138.48-47.65,12.05,2.34,24,5,35.9,7.82,35.5,9.09,71.38,17.06,104.99,32.15,4.24,1.91,2.17,8.55-2.41,7.68h0Z"/>
      <path class="cls-11" d="M839.63,1154.25c32.62-13.51,69.48-26.8,102.96-38.62,11.55-3.93,23.22-7.49,35.37-9.51,2.49-.41,4.84,1.27,5.26,3.76,.34,2.06-.75,4.02-2.55,4.88-11.13,5.28-22.74,9.02-34.47,12.39-34.28,9.43-72.01,19.55-106.57,27.1h0Z"/>
      <path class="cls-11" d="M839.63,1053.82c33.56-3.12,70.91-4.67,104.76-6,11.64-.35,23.28-.26,34.92,1.47,2.5,.37,4.22,2.7,3.85,5.2-.3,2.04-1.91,3.56-3.85,3.85-11.64,1.73-23.28,1.83-34.92,1.47-33.9-1.33-71.15-2.87-104.76-6h0Z"/>
      <path class="cls-11" d="M1539.59,941.69s-4.21,5.55-5.93,12.2c-2.57,9.94-3.42,22.34-7.25,22.34s-4.67-12.4-7.23-22.34c-1.71-6.65-5.92-12.2-5.92-12.2l13.15-10.15,13.18,10.15Z"/>
      <path class="cls-11" d="M1906.79,109.35c-213.69-92.72-461.63-99.17-683.2-31.06-19.25,6.47-38.75,13.62-57.5,21.35-7.58,3.13-15.04,6.54-22.64,9.71-4.13,1.88-9.04-.04-10.78-4.23-1.55-3.72-.1-7.94,3.23-9.98,21.61-13.14,44.09-25.11,67.35-35.15C1303.89,14.89,1415.76-.64,1525.12,.29c134.27-1.1,273.64,23.18,389.22,94.84,8.01,5.24,2,18.17-7.54,14.21h0Z"/>
      <path class="cls-1" d="M397.62,2143.49c-142.3-4.68-231.3,33.16-290.04,81.1-116.44,95.02-101.2,248.11-57.73,316,42.69,66.68,132.5,107.95,247.74,116.49,157.46,11.68,291.29-18.74,339.28-99.17,46.85-78.52,8.79-185.2-131.13-210.69-112.04-20.42-108.64-15.49-95.05-73.08"/>
      <path class="cls-1" d="M636.88,2557.9c-47.98,80.45-181.84,110.88-339.27,99.19-115.24-8.55-205.06-49.82-247.74-116.5-43.46-67.9-58.74-220.98,57.72-316.01,23.95-19.51,52.91-37.39,88.47-51.37,.08-.04,.16-.08,.24-.08h.04c51.61-20.29,117.11-32.38,201.27-29.61l13.08,130.63c-10.59,45.05-15.03,51.85,37.19,62.45,14.54,2.93,33.48,6.19,57.88,10.63,139.92,25.5,177.97,132.18,131.12,210.68Z"/>
      <g class="cls-15">
        <path class="cls-14" d="M636.87,2557.88c-6.35,10.68-14.27,20.49-23.53,29.42l-293.92-33.98s-138.26-156.54-61.83-271.36c21.55-32.37,74.08-22.05,152.81-6.68-10.4,44.06-14.27,50.83,37.48,61.32,14.55,2.9,33.47,6.17,57.87,10.59,139.92,25.51,177.99,132.23,131.12,210.68Z"/>
      </g>
      <path class="cls-13" d="M636.88,2557.9c-47.98,80.45-181.84,110.88-339.27,99.19-115.24-8.55-205.06-49.82-247.74-116.5-43.46-67.9-58.74-220.98,57.72-316.01,23.95-19.51,52.91-37.39,88.47-51.37,.08-.04,.16-.08,.24-.08h.04c8.55-2.77,194.79-60.16,182.16,160.04,0,0,31.08,1.18,69.37,3.42,14.54,2.93,33.48,6.19,57.88,10.63,139.92,25.5,177.97,132.18,131.12,210.68Z"/>
      <path class="cls-5" d="M636.9,2557.92c-48,80.44-181.86,110.87-339.28,99.17-115.24-8.58-205.05-49.84-247.76-116.49-24.48-38.22-40.01-103.46-28.1-170.16,9.2-51.75,34.97-104.38,85.85-145.89,23.94-19.48,52.88-37.39,88.47-51.34,.08-.04,.17-.08,.21-.08h.04c8.58-2.79,194.81-60.16,182.19,160.04,0,0,31.06,1.17,69.36,3.41,14.53,2.91,33.47,6.2,57.87,10.62,91.76,16.74,139.72,68.36,148.63,124.11,4.7,29.23-1.37,59.58-17.49,86.6Z"/>
      <g class="cls-3">
        <path class="cls-1" d="M242.98,2253.36s-119.8,43.56-41.29,105.01c62.88,49.21,268.68,12.07,351.84,65.63-18.03-96.45-421.05-22.7-310.55-170.63Z"/>
      </g>
      <g class="cls-15">
        <path class="cls-14" d="M378.54,2333.16s-137.94-2.86-120.95-51.2c18.23-27.35,58.56-24.22,118.09-13.31,3.18,18.28,4.28,39.59,2.85,64.5"/>
      </g>
      <g class="cls-15">
        <path class="cls-14" d="M639.45,2568.18c-48,80.44-181.86,110.87-339.28,99.17-115.24-8.58-205.05-49.84-247.76-116.49-24.48-38.22-40.01-103.46-28.1-170.16,13.32,49.92,69.24,171.7,297.68,182.9,212.5,10.45,310.55-31.98,334.95-82.02,4.7,29.23-1.37,59.58-17.49,86.6Z"/>
      </g>
      <path class="cls-11" d="M397.09,2159.57c-126.67-4.73-276.23,31.42-338.17,152.82-31.58,64.82-32.27,146.51,1.04,210.68,26.78,47.94,75.92,77.88,127.86,95.53,110.74,37.38,348.05,41.84,427.36-55.84,48.52-60.98,25.98-141.48-41.53-178.07-32.56-18.86-69.87-25.98-107.34-31.01-38.34-5.14-77.35-7.89-116.64-12.87-29.59-4.98-87.22-8.28-99.67-41.64-2.53-8.9-3.27-26.9,9.56-24.85,17.19,6.97-13.97,23.56,35.99,37.23,112.39,25.95,255.3-6.81,340.91,89,44.92,50.99,44.29,128.07,2.57,180.9-53.12,66.26-143.02,85.39-222.91,92.46-80.58,5.3-161.78,2.5-239.25-22.74-58.31-19.24-116.9-55.09-147.75-111.22-48.48-93.39-35.78-215.71,33.28-295.5,82.67-95.07,215.32-121.95,335.75-117.04,21.15,1.37,20.12,32.22-1.06,32.16h0Z"/>
      <g>
        <path class="cls-6" d="M1138.41,1286.44c1.56,73.43,5.48,127.81-1.52,133.79-24.03,20.53-113.99-13.31-128.22-45.07-6.91-15.33-13.21-54.56-14.73-105.2-2.99-99.35,12.43-242.49,78.5-334.62,28.18-39.32,113.3-24.86,120.85-11.19-54.37,96.41-57.32,251.15-54.88,362.29Z"/>
        <path class="cls-12" d="M1117.55,1403.34c-1.01,.09-2.16,.14-3.5,.14-31.72,0-78.5-24.59-84.39-37.71-2.76-6.17-10.68-51.29-10.73-82.18,26.29,11.23,59.48,16.53,96.96,8.89,.28,15.15,.69,38.72,.83,43.37,.78,25.51,1.66,53.82,.83,67.49Z"/>
        <path class="cls-9" d="M1114.02,1438.58c-9.14,0-18.45-1.46-26.5-3.27-35.13-7.91-78.57-29.94-89.88-55.2-20.61-46.02-37.75-308.52,64.97-451.8,21.85-30.47,66.74-31.29,85.02-30.24,4.76,.28,46.77,3.19,56.22,20.24,2.03,3.67,2.02,8.13-.04,11.78-61.26,108.55-55.48,293.88-52.03,404.61,2.13,68.48,2.3,86.72-7.06,94.72-8,6.84-19.21,9.15-30.71,9.15Zm24.39-516.66c-4.14,0-8.41,.2-12.77,.63-14.35,1.44-33.53,6.05-43.41,19.83-95.85,133.69-81.35,385.91-62.56,427.87,6.65,14.84,40.83,34.24,73.15,41.52,18.47,4.16,29.83,2.92,34.74,.31,2.19-9.48,1.13-43.57,.1-76.61-3.43-110.08-9.1-292.25,49.88-407.44-7.94-2.94-22.39-6.1-39.13-6.1Z"/>
        <path class="cls-1" d="M1093.94,969.8c-16.59,24.91-36.13,79.78-10.29,86.82,28.92,7.88,34.14-44.3,38.41-91.91,3.48-38.79-15.03-14.57-28.12,5.09Z"/>
        <path class="cls-1" d="M1069.55,1087.87c-13.68,17.88-8.97,41.47,6,44.05,19.27,3.32,26.84-13.15,24.35-31.4-3.34-24.58-20.37-25.7-30.35-12.65Z"/>
      </g>
      <g>
        <path class="cls-6" d="M1911.58,1286.44c-1.56,73.43-5.48,127.81,1.52,133.79,24.03,20.53,113.99-13.31,128.22-45.07,6.91-15.33,13.21-54.56,14.73-105.2,2.99-99.35-12.43-242.49-78.5-334.62-28.18-39.32-113.3-24.86-120.85-11.19,54.37,96.41,57.32,251.15,54.88,362.29Z"/>
        <path class="cls-12" d="M1932.44,1403.34c1.01,.09,2.16,.14,3.5,.14,31.72,0,78.5-24.59,84.39-37.71,2.76-6.17,10.68-51.29,10.73-82.18-26.29,11.23-59.48,16.53-96.96,8.89-.28,15.15-.69,38.72-.83,43.37-.78,25.51-1.66,53.82-.83,67.49Z"/>
        <path class="cls-9" d="M1935.97,1438.58c-11.5,0-22.7-2.31-30.71-9.15-9.37-8-9.19-26.24-7.06-94.72,3.45-110.73,9.23-296.06-52.03-404.61-2.06-3.65-2.08-8.12-.04-11.78,9.45-17.05,51.46-19.97,56.22-20.24,18.3-1.04,63.17-.24,85.02,30.24,102.72,143.28,85.58,405.78,64.97,451.8-11.31,25.26-54.75,47.29-89.88,55.2-8.04,1.81-17.36,3.27-26.5,3.27Zm-13.54-26.51c4.91,2.61,16.26,3.85,34.74-.31,32.32-7.28,66.51-26.68,73.15-41.52,18.79-41.96,33.29-294.18-62.56-427.87-9.88-13.78-29.06-18.39-43.41-19.83-21.98-2.2-41.99,1.8-51.89,5.47,58.98,115.2,53.31,297.37,49.88,407.45-1.03,33.04-2.09,67.13,.1,76.61Zm.42,1.4h0Z"/>
        <path class="cls-1" d="M1956.05,969.8c16.59,24.91,36.13,79.78,10.29,86.82-28.92,7.88-34.14-44.3-38.41-91.91-3.48-38.79,15.03-14.57,28.12,5.09Z"/>
        <path class="cls-1" d="M1980.44,1087.87c13.68,17.88,8.97,41.47-6,44.05-19.27,3.32-26.84-13.15-24.35-31.4,3.34-24.58,20.37-25.7,30.35-12.65Z"/>
      </g>
      <g>
        <path class="cls-1" d="M1428.77,2175.86c-39.1,22.15-99.21,19.64-147.51-28.31-18.01-17.83-34.08-38.7-48.48-61.47-88.95-140.42-112.81-351.56-112.81-351.56l239.63-59.71c25.36,81.15,74.94,197.58,101.45,302.9,3.39,13.34,6.38,26.55,8.89,39.45,8.5,43.46,17.57,125.36-41.17,158.69Z"/>
        <g class="cls-15">
          <path class="cls-14" d="M1157.44,1813.91s66.08,276.01,168.49,323.48c99.32,46.03,121.05-34.28,117.25-58.05-11.71,48.52-75.09,70.92-126.81,27.53-86.21-72.31-158.94-292.96-158.94-292.96Z"/>
        </g>
        <path class="cls-11" d="M1125.96,1733.84c19.6,92.28,43.96,184.19,82.23,270.48,36.17,78.54,107.71,204,209.96,156.49,67.32-37.84,33.39-149.39,18.16-210.15-18.97-68.32-44.05-135.76-64.3-204.14-6.88-22.98-13.28-46.21-18.19-69.9-1.46-6.78,8.54-10.44,11.51-3.63,18.87,43.8,37.98,87.5,55.67,132.06,17.74,44.53,33.85,89.9,47.66,136.37,23.02,79.72,55.86,200.31-33.2,251.61-36.88,19.92-83.18,18.17-119.96,.41-100.41-50.59-157.59-211.69-180.93-314.95-10.53-47.24-18.03-94.89-20.59-143.28-.22-7.34,10.53-8.86,11.99-1.36h0Z"/>
        <path class="cls-11" d="M1415.66,2055.56c24.77,22.73,46.33,48.81,62.73,78.69,0,0-30.51,10.23-30.51,10.23-5.39-30.82-17.07-61.16-32.22-88.92h0Z"/>
        <path class="cls-11" d="M1335.15,2106.87c23.39,24.61,51.34,47.5,84.26,57.06,1.42,.32,3.95,1.08,4.99,.95,0,0-9.13,30.86-9.13,30.86-36.62-18.41-61.58-53.53-80.12-88.86h0Z"/>
      </g>
      <g>
        <path class="cls-1" d="M1621.95,2175.86c39.1,22.15,99.21,19.64,147.51-28.31,18.01-17.83,34.08-38.7,48.48-61.47,88.95-140.42,112.81-351.56,112.81-351.56l-239.63-59.71c-25.36,81.15-74.94,197.58-101.45,302.9-3.39,13.34-6.38,26.55-8.89,39.45-8.5,43.46-17.57,125.36,41.17,158.69Z"/>
        <g class="cls-15">
          <path class="cls-14" d="M1893.27,1813.91s-66.08,276.01-168.49,323.48c-99.32,46.03-121.05-34.28-117.25-58.05,11.71,48.52,75.09,70.92,126.81,27.53,86.21-72.31,158.94-292.96,158.94-292.96Z"/>
        </g>
        <path class="cls-11" d="M1936.74,1735.19c-10.14,140.77-48.8,298-140.38,409.21-42.3,53.39-117.4,82.4-181.1,48.61-89.08-51.35-56.21-171.85-33.2-251.61,27.16-92.52,65.15-180.44,103.31-268.4,2.85-6.46,12.94-3.64,11.52,3.6-4.91,23.69-11.32,46.92-18.19,69.9-20.25,68.39-45.33,135.83-64.3,204.14-18.2,70.45-55.84,201.25,46.1,219.4,125.9,18.37,201.37-202.1,229.91-298.24,13.22-45.33,24.76-91.54,34.33-137.96,1.18-7.11,12.34-6.35,11.99,1.36h0Z"/>
        <path class="cls-11" d="M1635.05,2055.56c-15.15,27.76-26.83,58.11-32.22,88.92,0,0-30.51-10.23-30.51-10.23,16.39-29.88,37.97-55.97,62.73-78.69h0Z"/>
        <path class="cls-11" d="M1715.57,2106.87c-18.55,35.33-43.51,70.45-80.12,88.86,0,0-9.13-30.86-9.13-30.86,1.09,.12,3.56-.63,4.99-.95,32.92-9.56,60.88-32.45,84.26-57.06h0Z"/>
      </g>
      <path class="cls-11" d="M1405.43,863.97c59.37-54.62,155.54-60.67,224.26-20.28,9.72,5.84,19.16,12.23,27.12,20.28-10.39-4.3-20.67-8.11-31.13-11.26-72.05-23.88-150.7-18.46-220.25,11.26h0Z"/>
    </g>
  </g>
</svg>