<svg xmlns="http://www.w3.org/2000/svg" id="Camada_2" data-name="Camada 2" viewBox="0 0 2581.05 3243.46"><defs><style>.cls-1{fill:#fff}.cls-2{opacity:.2}.cls-3{fill:#f962bb}.cls-4{fill:#ff6f03}.cls-5{opacity:.4}.cls-6{opacity:.3}.cls-7{opacity:.55}.cls-8{fill:#ffff}.cls-9{fill:#f42552}.cls-10{fill:#000070}</style></defs><g id="Layer_1" data-name="Layer 1"><g class="cls-2"><ellipse cx="1471.05" cy="2999.07" class="cls-10" rx="1110" ry="228.16"/></g><path d="M2268.92,2927.02l-19.09,8.11s0,.05-.05,.05l-15.96,6.76-4.11,1.73-19.31,8.22h-.05l-29.37-1.62-152.49-8.38-52.04-93.31,20.12-65.29,1.51-4.92,81.14,10.06s.65,.27,1.89,.7c13.42,5.41,93.74,37.32,97.15,39.38,3.68,2.22,78.11,29.53,86.22,36.62,8.11,7.09,4.44,61.88,4.44,61.88Z" class="cls-1"/><path d="M1972.92,2828.52l-248.99,27.97,28.94-105.37,90.77-330.18c44.73,7.52,81.63,23.15,110.24,45.82,85.74,67.78,96.72,198.36,19.04,361.77Z" class="cls-1"/><path d="M856.73,2884.39l-217.72-55.88c-22.61-31.97-41.38-62.8-56.09-92.34-79.35-159.57-40.08-282.9,152.11-359.61l58.74,100.34,19.42,125.6,43.54,281.88Z" class="cls-1"/><g class="cls-6"><path d="M1972.92,2828.52l-248.99,27.97,28.94-105.37c22.94-12.12,46.25-23.85,68.97-35.05,172.56-85.2,133.34-244.23,132.04-249.31,85.74,67.78,96.72,198.36,19.04,361.77Z" class="cls-10"/></g><g class="cls-7"><path d="M608.17,2758.74c11.68,23.48,25.96,47.76,42.73,72.81l-11.9-3.03c-22.61-31.97-41.38-62.8-56.09-92.34-79.35-159.57-40.08-282.9,152.11-359.61l15.52,26.56c-183.75,76.92-220.37,198.79-142.37,355.6Z" class="cls-1"/></g><path d="M1674.33,2895.48c-4.27,2.98-8.65,5.9-13.04,8.76l-371.02,41.49-67.89,7.57-339.92-96.83c-205.23-153.41-207.72-491.97-14.23-873.81,14.33-28.45,29.86-57.12,46.41-85.95l828.43,152.87c14.5,39.11,27.42,76.49,38.78,112.13,6.55,20.5,12.55,40.41,18.12,59.77,115.38,401.58,23.91,570.51-125.66,673.99Z" class="cls-1"/><g class="cls-6"><path d="M856.73,2884.39l-217.72-55.88c-22.61-31.97-41.38-62.8-56.09-92.34,146.21,17.42,157.9-73.73,153.73-123.66,16.98,86.17,53.98,159.14,111.21,214.48l8.87,57.39Z" class="cls-10"/></g><g class="cls-7"><path d="M913.41,1999.06c-191.16,377.29-191.05,712.29,6.98,868.24l-37.92-10.82c-205.23-153.41-207.72-491.97-14.23-873.81,14.33-28.45,29.86-57.12,46.41-85.95l828.43,152.87c1.08,2.92,2.11,5.79,3.19,8.65l-786.45-145.13c-16.55,28.83-32.08,57.5-46.41,85.95Z" class="cls-1"/></g><g class="cls-6"><path d="M1746.01,2395.65c-.52,8.26-1.48,16.69-2.92,25.28-20.62,122.66-61.46,387.51-71.07,450.02,129.46-105.68,199.68-278.07,92.97-649.46-5.57-19.37-11.58-39.27-18.12-59.77-11.36-35.65-24.29-73.02-38.78-112.13l-796.73-147.02c1.11-1.95,2.19-3.9,3.31-5.85-16.55,28.83-32.08,57.5-46.41,85.95,188.52,145.3,463.36,242.26,727.71,250.91,86.5,2.83,155.53,75.69,150.05,162.07Z" class="cls-10"/></g><path d="M2387.76,559.23c-183.7-44.46-366.58-24.34-548.98,47.33h-.05c-157.36-87.95-342.13-123.39-522.21-99.31-152.7-118.03-309.9-215.5-478.88-258.67-52.79-13.47-105.48,21.8-113.81,75.62-25.31,163.14-15.69,354.25,8.06,556.61-19.2,29.05-37.27,59.93-54.09,92.55l-.05,.05c-57.61,111.81-100.4,244.55-123.01,399.36-57.34,487.05,897.18,884.2,1422.31,595.83,113.11-62.1,194.95-169.04,229.3-293.45,46.57-168.5,56.96-321.53,39.27-457.41,130.47-162.06,208.96-344.89,219.62-554.77,2.49-48.68-30.08-92.28-77.46-103.75ZM815.4,415.08c6.55-26.61,34.84-41.98,60.48-32.35,91.79,34.35,170.17,97.64,240.93,177.42-103.86,42.19-201.55,106.99-286.15,196.08-22.94-122.57-39.54-242.01-15.25-341.16Zm1555.7,317.9c-24.56,123.06-84.6,219.4-171.42,295.72-40.95-111.32-103.1-206.63-179.75-284.42,111.11-39.92,216.32-71.08,300.92-71.4,31.92-.11,56.53,28.78,50.25,60.1Z" class="cls-1"/><path d="M2387.76,559.23c-183.7-44.46-366.58-24.34-548.98,47.33h-.06c-19.27-10.77-38.96-20.74-59-29.93-88.61,86.29-143.67,206.86-143.67,340.31,0,262.34,212.66,475,475,475,49.58,0,97.38-7.61,142.31-21.7,1.24-52.97-1.43-103.85-7.76-152.5,130.47-162.06,208.96-344.89,219.61-554.77,2.49-48.68-30.07-92.28-77.46-103.75Zm-16.66,173.75c-24.56,123.06-84.6,219.4-171.42,295.72-40.95-111.32-103.1-206.63-179.75-284.42,111.11-39.92,216.32-71.08,300.92-71.4,31.92-.11,56.53,28.78,50.25,60.1Z" class="cls-4"/><g class="cls-7"><path d="M1090.84,571.24c-94.18,42.14-182.67,103.37-260.18,185-8.6-46.03-16.34-91.63-21.31-135.88,3.95,57.5,13.79,117.92,25.26,179.15,74.02-77.95,158.06-137.3,247.48-179.19,18.94-8.87,23.69-33.82,9.06-48.77l-.31-.31Zm1296.92-12.01c-183.7-44.46-366.58-24.34-548.98,47.33h-.05c-157.36-87.95-342.13-123.39-522.21-99.31-152.7-118.03-309.9-215.5-478.88-258.67-52.79-13.47-105.48,21.8-113.81,75.62-21.58,139.13-17.74,298.64-1.41,468.06-12.87-153.3-14.39-297.56,5.36-424.79,8.33-53.82,61.02-89.09,113.81-75.62,168.98,43.17,326.18,140.64,478.88,258.67,180.07-24.07,364.85,11.36,522.21,99.31h.05c182.4-71.67,365.29-91.8,548.98-47.33,35.54,8.6,62.69,35.21,73.02,68.53,.22-2.65,.32-5.36,.49-8.06,2.49-48.68-30.08-92.28-77.46-103.75Z" class="cls-1"/></g><path d="M1384.29,2338.9c-50.06-29.27-100.12-29.27-150.18,0l-22.83,493.46s73.29,109.14,77.22,100.74c3.92-8.4,71.07-100.74,71.07-100.74l24.72-493.46Z" class="cls-4"/><path d="M1511.08,1468.31c-22.88,111.76-51.5,199.55-82.27,265.32-112.13,240.06-252.77,187.21-249.58-64.32,.97-76.81,15.31-172.12,48.03-283.39,9.2-31.37,35.97-54.47,68.43-58.74l37.7-4.87c45.87-6,83.36-39.65,94.18-84.65l-3.62,15.15c-8.82,37.11,1.95,76.11,28.45,103.48l37.11,38.24c18.93,19.53,26.99,47.11,21.58,73.78Z" class="cls-10"/><path d="M829.94,2998.86h-170.14c-24.83,0-47.86-13.72-59.05-35.9-39.54-78.38,55.27-169.6,158.29-150.83,75.59,11.22,127.31,50.52,136.73,110.95,6.22,39.92-25.43,75.77-65.83,75.77Z" class="cls-1"/><g class="cls-6"><path d="M829.95,2998.85h-170.17c-24.83,0-47.82-13.74-59.02-35.86-3.62-7.25-6.17-14.6-7.57-21.96,1.35,.11,2.7,.16,4.06,.16h170.17c40.35,0,72.05-35.86,65.83-75.78-2-12.6-5.79-24.29-11.3-34.94,40.73,19.31,67.34,50.9,73.84,92.61,6.22,39.92-25.42,75.78-65.83,75.78Z" class="cls-10"/></g><path d="M1763.5,3020.81h186.8c27.26,0,52.55-14.58,64.83-38.15,43.41-83.3-60.68-180.25-173.79-160.3-82.99,11.92-139.77,53.7-150.12,117.92-6.83,42.42,27.92,80.53,72.28,80.53Z" class="cls-1"/><g class="cls-6"><path d="M2015.12,2982.68c-12.28,23.53-37.54,38.13-64.8,38.13h-186.83c-38.57,0-69.89-28.83-72.86-64.26,2.6,.27,5.25,.43,7.95,.43h186.83c27.26,0,52.52-14.55,64.8-38.14,13.9-26.72,12.66-54.8,.76-80,58.31,29.86,92.39,89.74,64.15,143.83Z" class="cls-10"/></g><path d="M2371.1,732.98c-24.56,123.06-84.6,219.4-171.42,295.72-40.95-111.32-103.1-206.63-179.75-284.42,111.11-39.92,216.32-71.08,300.92-71.4,31.92-.11,56.53,28.78,50.25,60.1Z" class="cls-3"/><g class="cls-6"><path d="M2371.1,732.98c-3.73,18.66-8.28,36.73-13.63,54.2-8.87-7.36-20.34-11.9-33-11.85-67.83,.27-148.97,20.34-235.74,48.9-21.31-28.4-44.3-55.07-68.81-79.95,111.11-39.92,216.32-71.08,300.92-71.4,31.92-.11,56.53,28.78,50.25,60.1Z" class="cls-10"/></g><path d="M1429.46,1729.47c-.16,1.35-.38,2.7-.65,4.11v.05c-109.48,234.33-246.12,189.54-249.58-46.74v-.05c-.05-5.73-.05-11.58,0-17.53,45.33-62.21,102.83-105.37,142.7-20.23,48.36-52.79,122.3-15.96,107.54,80.38Z" class="cls-9"/><g class="cls-7"><path d="M1431.08,1714.1c-4.76-71.13-66.75-93.69-109.16-47.44-39.87-85.14-97.31-41.98-142.7,20.18-.05-5.73-.05-11.58,0-17.53,45.33-62.21,102.83-105.37,142.7-20.23,45.71-49.87,114.24-19.74,109.16,65.02Z" class="cls-1"/></g><path d="M1116.8,560.15c-103.86,42.19-201.55,106.99-286.15,196.08-22.94-122.57-39.54-242.01-15.25-341.16,6.55-26.61,34.84-41.98,60.48-32.35,91.79,34.35,170.17,97.64,240.93,177.42Z" class="cls-3"/><g class="cls-6"><path d="M1116.8,560.15c-30.29,12.33-60.1,26.51-89.14,42.73-57.55-55.39-120.52-99.21-191.43-125.76-10.33-3.89-21.1-3.68-30.72-.32,1.84-21.31,5.08-41.92,9.9-61.72,6.55-26.61,34.84-41.98,60.48-32.35,91.79,34.35,170.17,97.64,240.93,177.42Z" class="cls-10"/></g><path d="M1557.86,2082.48c-50.92,0-103.4-3.35-157.17-10.11-206.6-25.96-408.66-99.74-568.97-207.75-98.95-66.67-174.93-141.62-225.85-222.79-55.4-88.3-78.02-179.46-67.25-270.95,27.91-191.17,87.25-357.19,176.47-494.04-27.27-234.97-29.58-411.49-7.29-555.13,4.69-30.32,22.05-57.41,47.62-74.29,25.38-16.76,56.81-22.08,86.24-14.56,147.71,37.73,300.2,119.59,479.45,257.43,178.11-22.34,361.77,12.49,518.85,98.41,189.03-72.87,374.59-88.09,551.64-45.24h0c54.95,13.3,92.73,63.92,89.85,120.35-10.21,201.05-83.83,388.99-218.86,558.72,17.5,142.48,3.85,296.18-40.59,456.95-35.81,129.71-122.24,240.28-237.13,303.35-120.08,65.94-265.62,99.64-426.99,99.65ZM814.72,261.91c-14.57,0-28.83,4.27-41.42,12.59-17.95,11.86-30.14,30.88-33.44,52.18-22.01,141.86-19.43,317.33,8.14,552.24,.44,3.8-.47,7.64-2.58,10.83-88.38,133.78-147.14,297.09-174.64,485.37-19.28,163.88,79.8,328.33,279.07,462.58,289.92,195.34,780.76,302.61,1119.37,116.68,107.25-58.89,187.97-162.24,221.46-283.54,44-159.17,57.06-310.91,38.82-451-.57-4.39,.67-8.82,3.45-12.27,135.27-168.03,205.94-346.44,216.05-545.42,2.09-40.87-25.28-77.52-65.07-87.15h0c-172.65-41.79-354.08-26.09-539.23,46.66-4.47,1.76-9.71,1.41-13.91-.94-154.42-86.31-336.31-120.9-512.14-97.4-4.31,.59-8.65-.6-12.08-3.24-177.94-137.54-328.23-218.81-472.97-255.79-6.28-1.6-12.62-2.4-18.9-2.4Zm1384.96,783.02c-1.33,0-2.67-.17-3.99-.5-5.19-1.31-9.39-5.1-11.24-10.13-38.92-105.82-98.16-199.56-176.08-278.62-3.88-3.95-5.49-9.59-4.26-15,1.23-5.4,5.12-9.8,10.33-11.67,99.02-35.58,212.85-72,306.34-72.36,.08,0,.16,0,.23,0,20.3,0,39.3,8.97,52.18,24.63,12.68,15.42,17.71,35.42,13.81,54.89-24.01,120.27-83.43,222.8-176.61,304.72-3,2.63-6.82,4.04-10.72,4.04Zm-150.71-293.74c67.24,72.63,120.05,156.36,157.32,249.47,78.74-74.95,127.52-163.78,148.89-270.86,0,0,0,0,0-.01,1.98-9.87-.6-20.03-7.06-27.9-6.68-8.13-16.56-12.79-27.1-12.79h-.12c-81.53,.32-185.32,31.75-271.93,62.09Zm-1218.32,21.27c-1.53,0-3.08-.22-4.59-.67-5.85-1.73-10.23-6.59-11.35-12.58-21.02-112.32-41.25-241.12-15.06-348.01,4.27-17.36,15.79-32.09,31.6-40.43,15.59-8.22,33.94-9.41,50.34-3.24,86.71,32.45,167.63,91.93,247.36,181.85,3.5,3.94,4.86,9.33,3.66,14.46-1.2,5.13-4.81,9.36-9.69,11.34-105.82,42.99-200.19,107.67-280.49,192.23-3.11,3.27-7.39,5.05-11.77,5.05Zm29.36-376.41c-4.66,0-9.3,1.15-13.63,3.43-7.62,4.02-13.16,11.11-15.22,19.46-22.36,91.28-8.21,202.42,9.84,303.65,72.97-71.53,156.33-128.07,248.41-168.49-71.13-76.48-143.02-127.68-219.22-156.19-3.32-1.25-6.76-1.87-10.18-1.87Z" class="cls-10"/><path d="M2199.62,1044.98c-4.15,0-8.31-1.58-11.47-4.75-6.34-6.34-6.34-16.61,0-22.95,6.34-6.34,16.64-6.36,22.98-.03,6.34,6.34,6.36,16.59,.03,22.92l-.05,.05c-3.17,3.17-7.32,4.75-11.47,4.75Z" class="cls-10"/><path d="M2019.93,760.51h-.05c-8.96,0-16.23-7.27-16.23-16.23s7.27-16.23,16.23-16.23,16.25,7.27,16.25,16.23-7.24,16.23-16.2,16.23Z" class="cls-10"/><path d="M1316.62,523.53c-2.52,0-5.05-.59-7.35-1.75-5.33-2.66-8.99-8.16-8.99-14.53,0-8.96,7.27-16.23,16.23-16.23,4.3,0,8.54,1.76,11.58,4.8,6.34,6.34,6.34,16.61,0,22.95-3.17,3.17-7.32,4.75-11.47,4.75Z" class="cls-10"/><path d="M1034.31,3013.57c-25.37-10.71-48.25-23.53-68.27-38.78h-.05c-47.49-35.97-79.19-85.14-91.58-150.43-2.87-15.31-4.22-30.89-4.65-46.47l-.22-7.79-12.82-432.69,381.35,8.11s-.22,6.6-.7,18.23c-2.06,57.23-8.82,236.87-14.98,361.07-3.35,68.1-6.55,119.6-8.65,125.12,136.2,99.42,31.1,215.02-179.42,163.63Z" class="cls-1"/><path d="M1743.08,2374.36l-2.76,21.75v.27l-51.44,407.48-.97,7.68c-1.95,15.47-4.71,30.89-8.92,45.87-25.59,90.77-84.87,145.45-168.98,173.53-101.91,15.9-174.83-7.52-204.69-45.76-29.8-37.97-17.09-90.55,51.66-133.61-1.46-5.68,.6-57.18,4-125.28,7.63-149.51,22.23-378.97,22.23-378.97l359.88,27.05Z" class="cls-1"/><path d="M1688.88,2803.85l-.97,7.68c-1.95,15.47-4.71,30.89-8.92,45.87-25.59,90.77-84.87,145.45-168.98,173.53-203.23,31.75-290.96-92.98-153.03-179.37-1.46-5.68,.6-57.18,4-125.28l.05-.05c86.44-91.85,276.41-34.29,327.85,77.62Z" class="cls-1"/><path d="M864.84,2337.17l5.56,93.19,5.11,93.21,4.69,93.22c1.55,31.07,3.29,62.14,4.11,93.24l1.17,46.64,.58,23.22c.27,7.46,.75,14.86,1.51,22.15,.8,7.31,1.76,14.47,3.31,21.6,1.61,7.16,3,14.39,5.2,21.35,3.85,14.11,9.23,27.67,15.71,40.6,12.91,25.91,31.21,48.87,53.44,67.65,22.11,18.97,48.08,33.61,75.42,45.37l-2.46-.81c15.57,3.54,31.19,6.92,46.94,8.83,7.86,1.25,15.74,1.71,23.61,2.5,7.86,.32,15.75,.94,23.57,.73,31.19,.07,62.71-4.86,88.72-17.96,12.93-6.51,23.69-15.66,30.59-26.22,3.13-5.42,5.39-11.1,6.45-17.06,.68-6.01,.78-12.2-.77-18.5-2.65-12.63-10.22-25.13-19.59-36.39-9.49-11.3-21.08-21.44-33.52-30.68h-.01s-5.58-18.94-5.58-18.94c-.13,.02-.22,.07-.26,.13-.02,.03-.03,.06-.02,.1l.07-.74,.34-3.36,.6-7.43,1.01-15.45,1.78-31.29,3.51-62.88,3.66-62.97,3.98-62.98c2.55-42,5.11-84.01,7.97-126.01,2.68-42.01,5.61-84.01,8.73-126,.33-4.47,4.22-7.83,8.69-7.5,4.26,.31,7.5,3.89,7.52,8.09,.05,42.14-.22,84.25-.84,126.36-.45,42.12-1.28,84.22-2.31,126.33l-1.53,63.17-2.27,63.17c-.72,21.07-1.97,42.12-3.21,63.21-.6,10.56-1.31,21.1-2.26,31.71l-1.47,16.02c-.31,2.77-.57,5.4-.98,8.28l-.67,4.47-.2,1.21-.45,2.02c-.32,1.34-.7,2.68-1.11,3.98l-5.58-18.93h.01c14.04,10.44,27.53,22.1,39.29,36.09,1.46,1.76,2.97,3.45,4.37,5.28l4.04,5.68c2.79,3.68,5.12,7.84,7.46,11.96l1.76,3.09,1.5,3.31,2.94,6.65c.94,2.24,1.57,4.68,2.35,7.02,.71,2.38,1.58,4.68,1.95,7.21,2.34,9.79,2.51,20.35,1.12,30.68-1.76,10.35-5.67,20.18-10.91,28.99-11.09,17.21-26.84,29.6-43.29,37.96-16.54,8.43-33.92,13.62-51.3,16.95-17.41,3.38-34.9,4.59-52.23,4.62-8.69,.21-17.29-.44-25.91-.81-8.55-.84-17.17-1.38-25.63-2.71-17.04-2.08-33.74-5.68-50.35-9.47-.79-.18-1.56-.43-2.28-.73l-.18-.08c-29.74-12.78-58.63-28.97-83.82-50.55-25.27-21.33-46.59-48-61.4-77.79-7.44-14.86-13.56-30.37-17.91-46.26-2.47-7.89-4.06-15.94-5.83-23.96-1.74-8.08-2.87-16.36-3.75-24.5-.86-8.17-1.38-16.31-1.67-24.39l-.82-23.42-1.59-46.63c-1.02-31.09-1.12-62.21-1.41-93.32l-.83-93.33-.41-93.35,.04-93.36c0-4.48,3.64-8.12,8.12-8.11,4.31,0,7.84,3.39,8.1,7.63Z" class="cls-10"/><path d="M1209.12,2866.56c-14.8-8.88-30.75-15.83-47.43-20.14-16.65-4.32-34.02-5.97-51.18-4.42-17.14,1.53-34.05,6.28-49.43,14.31-15.39,7.99-29.2,19.26-40.32,32.99-2.82,3.49-7.93,4.04-11.42,1.22-3.33-2.68-3.95-7.5-1.57-10.96,11.31-16.24,26.09-30.32,43.21-40.85,17.1-10.57,36.44-17.6,56.38-20.85,19.95-3.28,40.48-2.82,60.35,.81,19.9,3.63,39.16,10.4,57.16,19.53,8,4.05,11.2,13.83,7.15,21.83-4.05,8-13.83,11.2-21.83,7.15-.34-.17-.67-.35-.99-.54l-.1-.06Z" class="cls-10"/><path d="M1089.32,2924.99c5.73,15.26,10.65,31.16,11.95,48.67,.6,8.74,.18,17.97-2.22,27.39-2.29,9.43-7.13,18.85-13.71,26.95l-.79,.97c-5.78,7.1-16.22,8.18-23.32,2.41-7.11-5.78-8.18-16.22-2.41-23.32,1.25-1.53,2.77-2.81,4.37-3.78,5.04-3.01,9.73-7.01,13.38-12.56,3.72-5.47,6.57-12.19,8.54-19.47,3.95-14.64,4.7-31,4.22-47.27Z" class="cls-10"/><path d="M1187.13,2924.99c5.73,15.26,10.65,31.16,11.95,48.67,.6,8.74,.18,17.97-2.22,27.39-2.29,9.43-7.13,18.85-13.71,26.95l-.79,.97c-5.78,7.1-16.22,8.18-23.32,2.41-7.1-5.78-8.18-16.22-2.41-23.32,1.25-1.53,2.77-2.81,4.37-3.78,5.04-3.01,9.73-7.01,13.38-12.56,3.72-5.47,6.57-12.19,8.54-19.47,3.96-14.64,4.7-31,4.22-47.27Z" class="cls-10"/><path d="M1751.14,2375.39l-8.79,92.19-9.24,92.14-9.66,92.08c-3.23,30.69-6.26,61.41-10.31,92l-6.02,45.89-2.99,22.95c-.98,7.86-2.17,15.87-3.66,23.82-1.49,7.97-3.28,15.94-5.47,23.88-2.24,7.84-4.6,15.59-7.42,23.25-5.5,15.34-12.4,30.3-20.61,44.56-16.41,28.55-38.85,53.91-65.2,73.68-26.32,19.88-56.09,34.29-86.64,44.49h-.04c-.83,.29-1.76,.51-2.6,.64-32.57,4.99-65.95,6.98-99.47,3.45-16.74-1.79-33.5-4.98-49.95-10.16-16.42-5.22-32.61-12.5-47.37-23.11-14.63-10.53-28.16-24.83-35.69-43.28-3.73-9.13-5.92-19.14-6.02-29.11-.24-9.99,1.57-19.81,4.57-28.92,6.22-18.24,17.14-33.39,29.37-46.02,12.32-12.65,26.14-22.97,40.43-32.01h0s-7.11,17.79-7.11,17.79c-.22-.93-.4-1.88-.54-2.83l-.13-1.03-.07-.73c-.1-1.01-.17-1.95-.21-2.66l-.2-4.47c-.1-2.84-.12-5.57-.11-8.28l.16-16.07c.14-10.64,.49-21.2,.95-31.76,.88-21.11,1.75-42.17,3.14-63.2l4.05-63.07,4.77-63c3.17-41.99,6.53-83.96,10.28-125.91,3.58-41.96,7.49-83.89,11.73-125.8,.45-4.46,4.43-7.71,8.9-7.26,4.25,.43,7.4,4.09,7.3,8.29-1.07,42.09-2.33,84.17-3.85,126.23-1.34,42.07-2.97,84.12-4.62,126.16l-2.32,63.06-2.65,63.01c-.74,21-1.93,41.97-2.82,62.92l-1.39,31.33-.56,15.49-.16,7.5v3.42s.02,1.28,.02,1.28v.26c0,.13,0,.18-.02-.05-.04-.3-.12-.6-.23-.88l-7.11,17.79h0c-12.6,7.97-24.45,16.91-34.37,27.12-9.9,10.17-17.81,21.71-21.88,33.72-4.06,12.02-3.9,24.25,.71,35.43,4.52,11.23,13.51,21.26,24.62,29.24,11.13,8.03,24.32,14.11,38.23,18.51,13.94,4.4,28.63,7.23,43.55,8.82,29.91,3.17,60.68,1.42,91.03-3.24l-2.63,.64c27.91-9.33,54.39-22.25,77.37-39.62,23.01-17.29,42.29-39.07,56.66-64.03,7.18-12.47,13.27-25.65,18.18-39.35,2.52-6.81,4.65-13.84,6.65-20.83,1.91-6.94,3.51-14.03,4.85-21.22,1.35-7.21,2.44-14.47,3.37-21.92l2.81-22.97,5.57-45.95c3.68-30.64,8.37-61.15,12.87-91.68l13.52-91.6,13.95-91.54,14.39-91.49c.7-4.43,4.85-7.45,9.28-6.76,4.26,.67,7.21,4.56,6.82,8.79Z" class="cls-10"/><path d="M1347.04,2839.35c17.86-7.44,36.82-12.5,56.18-14.31,19.34-1.83,39.07-.35,57.8,4.89,18.73,5.2,36.38,14.19,51.33,26.34,15,12.12,27.18,27.36,35.95,44.07,2.03,3.86,.54,8.64-3.32,10.66-3.68,1.93-8.21,.64-10.38-2.83-8.95-14.35-20.58-26.78-34.18-36.19-13.57-9.44-29-15.87-45.01-19.06-16.02-3.22-32.59-3.23-48.69-.49-16.12,2.72-31.75,8.16-46.42,15.56l-.07,.04c-7.79,3.93-17.29,.8-21.22-6.98-3.93-7.79-.81-17.29,6.98-21.22,.33-.17,.71-.34,1.05-.48Z" class="cls-10"/><path d="M1466.83,2937.72c-1.94,16.06-2.75,32.31-.42,47.3,1.16,7.45,3.2,14.49,6.22,20.45,2.95,6.02,7.05,10.66,11.63,14.27,7,5.5,8.22,15.63,2.72,22.63-5.5,7-15.63,8.22-22.63,2.72-1.48-1.16-2.71-2.54-3.66-4.04l-.7-1.11c-5.53-8.8-9.04-18.63-10.18-28.1-1.25-9.49-.67-18.56,.8-27.09,3.03-17.08,9.25-32.38,16.2-47.01Z" class="cls-10"/><path d="M1374.73,2928.7c-1.94,16.06-2.75,32.31-.42,47.3,1.16,7.45,3.2,14.49,6.22,20.45,2.95,6.02,7.05,10.66,11.63,14.27,7,5.5,8.22,15.63,2.72,22.63-5.5,7-15.63,8.22-22.63,2.72-1.48-1.16-2.71-2.54-3.66-4.04l-.69-1.11c-5.53-8.8-9.04-18.63-10.18-28.1-1.25-9.49-.67-18.56,.8-27.09,3.03-17.08,9.25-32.38,16.2-47.01Z" class="cls-10"/><path d="M882.45,2872.69c-3.38,0-6.79-1.05-9.7-3.23-227.59-170.13-216.67-555.13,27.81-980.82,4.47-7.77,14.38-10.46,22.15-5.99,7.77,4.46,10.45,14.38,5.99,22.15-116.12,202.18-180.53,398.13-186.29,566.67-5.66,165.89,46.12,294.52,149.76,371.99,7.18,5.37,8.65,15.54,3.28,22.71-3.19,4.26-8.07,6.51-13.01,6.51Z" class="cls-10"/><path d="M1661.32,2920.49c-5.3,0-10.49-2.59-13.6-7.35-4.9-7.5-2.8-17.56,4.7-22.46,101.6-66.41,155.72-145.72,175.48-257.17,24.87-140.26-7.85-329.42-100.03-578.27-3.11-8.4,1.18-17.74,9.58-20.85,8.4-3.11,17.74,1.18,20.85,9.58,94.24,254.4,127.46,449.1,101.56,595.21-21.17,119.38-81.44,207.92-189.68,278.67-2.74,1.79-5.82,2.65-8.86,2.65Z" class="cls-10"/><path d="M639.02,2844.73c-5.09,0-10.1-2.39-13.26-6.86-83.65-118.21-113.74-219.82-89.42-302.03,21.69-73.32,86.52-131.97,192.69-174.33,8.32-3.32,17.77,.73,21.09,9.06,3.32,8.33-.73,17.77-9.06,21.09-96.46,38.49-154.87,90.1-173.59,153.39-21.35,72.19,7.17,164.39,84.79,274.07,5.18,7.31,3.44,17.45-3.87,22.62-2.85,2.01-6.12,2.98-9.36,2.98Z" class="cls-10"/><path d="M829.94,3015.09h-170.14c-31.42,0-59.6-17.17-73.54-44.82-18.28-36.25-13.54-77.4,13.01-112.92,35.69-47.73,100.93-72.32,162.41-61.22,85.05,12.7,139.76,58.05,150.12,124.46,3.65,23.42-3.17,47.26-18.71,65.41-15.83,18.49-38.85,29.09-63.16,29.09Zm-98.74-189.25c-46.65,0-85.7,23.88-105.94,50.95-11.11,14.86-27.18,44.86-10.02,78.87,8.26,16.39,25.75,26.98,44.56,26.98h170.14c14.82,0,28.85-6.47,38.5-17.74,9.37-10.94,13.48-25.26,11.29-39.3-8.03-51.48-52.89-86.99-123.08-97.4-.18-.02-.35-.05-.53-.08-8.5-1.55-16.83-2.27-24.93-2.27Z" class="cls-10"/><path d="M681.52,2916.35l16.23,68.81c2.11,8.96-3.44,17.94-12.4,20.05-8.96,2.11-17.94-3.44-20.05-12.4-.61-2.58-.56-5.24,0-7.65l16.23-68.81Z" class="cls-10"/><path d="M793.79,2916.35l16.23,68.81c2.11,8.96-3.44,17.94-12.4,20.05-8.96,2.11-17.94-3.44-20.06-12.4-.61-2.58-.56-5.24,0-7.65l16.23-68.81Z" class="cls-10"/><path d="M1972.93,2844.73c-2.33,0-4.7-.5-6.95-1.57-8.1-3.85-11.54-13.53-7.69-21.63,55.34-116.46,65.67-219.28,29.08-289.52-26.31-50.51-76.93-83.39-146.4-95.09-8.84-1.48-14.8-9.86-13.31-18.7,1.49-8.84,9.89-14.8,18.7-13.31,79.89,13.45,138.61,52.21,169.8,112.1,41.4,79.48,31.26,192.58-28.56,318.45-2.78,5.84-8.6,9.26-14.67,9.26Z" class="cls-10"/><path d="M1950.3,3037.04h-186.8c-26.77,0-51.93-11.51-69.04-31.6-16.12-18.93-23.14-43.62-19.26-67.74,11.29-70.11,70.91-117.98,163.57-131.36,68.56-12.03,140.37,15.04,178.72,67.37,27,36.84,31.39,79.28,12.02,116.45-15.07,28.92-45.42,46.88-79.22,46.88Zm-78.82-201.09c-8.89,0-18.02,.76-27.32,2.4-.17,.03-.34,.06-.51,.08-77.79,11.17-127.51,49.23-136.4,104.43-2.4,14.93,1.83,29.68,11.92,41.52,10.93,12.83,27.09,20.2,44.33,20.2h186.8c21.33,0,41.13-11.55,50.44-29.42,18.4-35.3,2-66.69-9.41-82.27-21.58-29.43-66.4-56.95-119.84-56.95Z" class="cls-10"/><path d="M1929.61,2933.12l16.23,73.13c1.99,8.96-3.66,17.84-12.63,19.83-8.96,1.99-17.84-3.66-19.83-12.63-.54-2.43-.5-4.92,0-7.2l16.23-73.13Z" class="cls-10"/><path d="M2349.24,3177.52c-46.46,32.62-102.29,49.12-159.03,49.66-1.03,.05-2,.05-3.03,.05h-138.75c-54.25,0-104.94-29.64-129.12-78.22-14.17-28.45-19.47-60.42-13.14-91.42,3.3-16.28,9.79-32.29,19.91-47.39,17.15-25.69,42.41-44.14,71.08-53.93,15.09-5.08,31.16-7.79,47.44-7.84,27.53-.11,65.88,.43,108.67,2.98,6.76,.38,13.63,.81,20.61,1.3,5.73,.43,11.04,.59,16.07,.59h.16c7.46-.05,14.23-.54,20.23-1.41h.05c13.14-1.84,22.94-5.41,30.29-9.84,3.62-2.11,6.6-4.44,9.09-6.87,.05,0,.05-.05,.05-.05,14.33-13.96,12.39-30.89,12.39-30.89l-185.81-56.74-62.1-18.99-17.74-45.22-2.05-5.25c34.08,3.08,63.45,.38,91.69-3.84,14.55-2.16,28.78-4.76,43.22-7.14,73.13-12.06,148.48,2.11,210.69,41.11v.05c8.33,5.19,16.44,10.82,24.23,16.93,133.45,104.18,106.18,267.22-15.09,352.36Z" class="cls-1"/><path d="M2190.21,3227.18c-1.03,.05-2,.05-3.03,.05h-138.75c-54.25,0-104.94-29.64-129.12-78.22-21.58-43.44-22.61-94.99,6.76-138.8,26.24-39.22,71.29-61.67,118.52-61.77,31.91-.11,78.27,.65,129.28,4.27,5.73,.43,11.04,.59,16.07,.59h.16c109.92,52.96,100.02,231.19,.11,273.87Z" class="cls-4"/><path d="M1810.3,2933.12l16.23,73.13c1.99,8.96-3.66,17.84-12.63,19.83-8.96,1.99-17.84-3.66-19.83-12.63-.54-2.43-.49-4.92,0-7.2l16.23-73.13Z" class="cls-10"/><path d="M2270.29,2903.34c.25,2.04,.32,3.25,.32,4.78,.05,1.47-.03,2.89-.15,4.31-.06,1.44-.28,2.84-.53,4.25-.24,1.41-.44,2.84-.9,4.2-1.35,5.61-4.11,10.79-7.28,15.66-6.63,9.67-16.41,16.45-26.31,20.62l-3.75,1.66c-1.25,.5-2.52,.82-3.78,1.23l-7.62,2.31c-5.06,1.08-10.17,2.07-15.25,2.83-5.03,.44-10.1,.96-15.14,1.29l-14.96,.09c-37.44-1.34-74.43-1.66-111.66-1.57-9.17,.07-19.02,.05-26.9,.59-8.28,.73-16.52,1.96-24.56,4.03-8.06,1.99-15.87,4.93-23.33,8.49-7.47,3.54-14.7,7.65-21.28,12.64-26.64,19.42-44.56,50.66-47.01,83.41-1.31,16.38,.74,33.17,6.07,49.04,2.59,7.9,5.9,15.84,9.98,23,1.84,3.71,4.28,7.06,6.45,10.57,2.53,3.26,4.78,6.75,7.62,9.77,21.44,25.25,53.55,41.34,86.87,43.94,4.22,.43,8.18,.4,12.67,.54h126.56c9.58-.04,18.34,.09,27.18-.52,17.72-.93,35.29-3.75,52.44-8.05,17.14-4.35,33.8-10.46,49.67-18.1,15.82-7.8,30.83-16.99,44.75-27.91,27.8-21.68,50.97-49.19,66.3-80.45,15.51-31.15,22.36-66.23,19.11-100.4-3.19-34.23-17.15-67.01-38.4-94.55-21.29-27.56-49.46-50.46-80.38-67.53-31.13-16.9-65.54-27.71-100.78-32.09-17.62-2.16-35.46-2.87-53.2-1.74-8.86,.63-17.72,1.42-26.51,2.8-8.79,1.2-18.22,2.99-27.46,4.5-18.62,3.12-37.7,6.1-57.2,7.55-19.48,1.52-39.28,1.46-58.89-.31h-.09c-8.93-.81-15.51-8.7-14.71-17.62,.8-8.93,8.69-15.51,17.62-14.71h.13c35.56,3.51,71.1-.53,107.75-6.92,9.26-1.51,18.27-3.24,28.05-4.59,9.74-1.52,19.57-2.42,29.41-3.1,19.69-1.25,39.49-.47,59.07,1.93,39.16,4.87,77.52,16.9,112.33,35.8,34.64,19.15,65.96,44.44,90.59,76.25,24.52,31.7,41.21,70.57,44.97,111.19,3.89,40.56-4.37,81.84-22.27,117.81-35.69,72.39-104.96,124.45-181.86,143.63-19.21,4.82-38.84,7.95-58.58,9-9.88,.67-19.88,.54-29.05,.57h-126.56c-4.88-.13-10.32-.14-15.42-.66-41.46-3.29-81.56-23.19-108.78-55.18-3.55-3.85-6.49-8.23-9.65-12.4-2.81-4.43-5.83-8.72-8.21-13.41-5.17-9.16-9.11-18.62-12.37-28.51-6.58-19.67-9.28-40.85-7.58-61.84,3.31-42.21,25.76-81.99,59.32-107.32,16.67-12.78,35.91-22.05,56.14-27.26,10.12-2.56,20.45-4.42,30.88-4.96,10.86-.44,19.77-.11,29.34,.03,37.77,.62,75.75,3.27,113.13,7.05l13.15,1.05h12.95c4.22-.28,8.4-.74,12.56-1.22,3.87-1,8.19-1.38,11.73-2.93,7.52-2.4,14.34-5.97,19.01-11.41,2.22-2.76,4.44-5.69,5.66-9.14,.71-1.67,1.3-3.45,1.69-5.24,.47-1.68,.63-3.9,.76-4.93l.23-1.87c.55-4.39,4.55-7.5,8.94-6.95,3.72,.47,6.52,3.42,6.95,6.98Z" class="cls-10"/><path d="M2159.5,1562c25.68,13.62,49.37,30.81,70.27,50.62,20.93,19.8,39.11,42.14,54.71,65.85,31.24,47.55,52.46,100.09,68.41,153.4,1.28,4.29-1.15,8.82-5.45,10.1-4.16,1.25-8.54-1.01-9.97-5.05l-.02-.06c-18.16-51.43-41.35-101.2-72.97-144.51-15.79-21.6-33.69-41.46-53.72-58.62-20-17.17-42.13-31.59-65.78-42.69-8.12-3.81-11.61-13.48-7.8-21.59,3.81-8.12,13.48-11.61,21.59-7.8,.22,.1,.51,.25,.73,.36Z" class="cls-10"/><path d="M2150.06,1414.38c32.9-3.67,66.19-4.81,99.33-2.55,33.13,2.25,66.1,7.95,97.91,17.56,31.81,9.57,62.39,23.04,90.79,39.94,28.43,16.88,54.66,37.13,78.43,59.71,3.25,3.09,3.38,8.22,.29,11.47-3,3.16-7.97,3.36-11.23,.52-23.88-20.85-49.83-39.16-77.51-54.06-27.67-14.92-57.05-26.4-87.34-34.14-30.29-7.77-61.45-11.82-92.7-12.63-31.26-.82-62.61,1.56-93.62,6.34h-.09c-8.86,1.38-17.15-4.7-18.51-13.56-1.36-8.86,4.71-17.15,13.57-18.51,.2-.03,.47-.07,.67-.09Z" class="cls-10"/><path d="M748.32,1141.47c-58.59-36.44-121.28-66.86-187.88-83.72-33.24-8.4-67.37-13.29-101.66-13.75-34.27-.48-68.66,3.52-102.05,12.03-4.34,1.11-8.76-1.51-9.87-5.85-1.08-4.24,1.41-8.55,5.56-9.79,34.38-10.19,70.23-15.8,106.23-16.67,36.01-.92,72.1,2.84,107.29,10.32,70.54,15,137.04,44.25,199.06,79.59,7.79,4.44,10.51,14.35,6.07,22.14-4.44,7.79-14.35,10.51-22.14,6.07-.16-.09-.32-.19-.48-.28l-.11-.07Z" class="cls-10"/><path d="M638.01,1269.66c-50.72-11.72-103.61-14.54-154.71-4.36-25.52,5.02-50.48,13.2-74.22,24.29-23.77,11.05-46.34,24.9-67.48,40.83-3.57,2.71-8.66,2.01-11.37-1.56-2.62-3.46-2.01-8.37,1.26-11.13,21.1-17.63,44-33.35,68.57-46.31,24.53-12.99,50.76-23.1,77.89-29.87,27.13-6.8,55.12-10.28,83.11-10.7,28-.44,55.98,2.13,83.46,7,8.83,1.56,14.72,9.99,13.15,18.82-1.57,8.83-9.99,14.72-18.82,13.15-.26-.05-.57-.11-.83-.17Z" class="cls-10"/><path d="M1552.05,1190.61c-8.3,33.08-72.38,42.95-113.75,35.11-41.22-7.81-91.99-51.59-83.69-84.67,8.3-33.08,54.13-28.49,108.65-14.81,54.52,13.68,97.08,31.29,88.78,64.36Z" class="cls-10"/><g class="cls-5"><path d="M1489.17,1163.26c-1.92,7.16-18.86,8.84-37.84,3.76-18.98-5.09-32.8-15.02-30.88-22.18s17.62-4.23,36.6,.86c18.98,5.09,34.04,10.4,32.12,17.56Z" class="cls-1"/></g><path d="M1278.73,1904.63c-21.71,0-42.15-8.75-59.25-25.71-72.47-71.93-75.53-267.24-7.81-497.57,11.06-37.63,43.22-65.2,81.92-70.23h0l37.69-4.91c38.91-5.06,71.17-34.01,80.41-72.12l3.31-13.95c2.07-8.72,10.81-14.11,19.53-12.05,8.72,2.07,14.11,10.81,12.05,19.53l-.12,.53-3.07,12.94c-.04,.19-.09,.37-.13,.56l-3.54,14.92c-7.55,31.86,1.55,64.91,24.34,88.42l37.08,38.25c22.7,23.4,32.35,56.42,25.81,88.31-49.51,241.55-132.86,402-222.94,429.23-8.54,2.58-17,3.85-25.29,3.85Zm128.44-600.63c-19.3,18.41-44.26,30.83-71.69,34.4l-37.69,4.91h0c-25.95,3.37-47.53,21.9-54.97,47.2-73.25,249.1-53.01,413.22-.47,465.38,15.19,15.07,32.78,19.73,52.28,13.83,57.82-17.48,145.04-133.94,200.53-404.67,4.38-21.37-2.1-43.5-17.32-59.2l-37.08-38.25c-17.39-17.93-28.83-40.01-33.59-63.59Zm-111.47,23.22h0Z" class="cls-10"/><path d="M868.48,1021.93c24.28-25.92,53.77-47.35,88.36-61.76,17.29-7.08,35.93-12.32,55.51-14.43,19.52-2.23,40.05-1.04,59.73,3.87,9.9,2.25,19.49,5.72,28.7,9.81,4.64,1.99,9.03,4.41,13.51,6.68,4.25,2.6,8.56,5.14,12.66,7.9,16.4,11.12,30.45,24.65,42.25,39.3,11.86,14.63,21.42,30.48,29.15,46.87,7.66,16.43,13.66,33.35,17.19,51.01,.91,4.58-2.06,9.02-6.63,9.94-2.89,.57-5.72-.39-7.65-2.33l-.12-.12c-12.25-12.51-23.4-25.04-34.81-36.81-11.35-11.79-22.79-22.87-34.44-32.86-11.7-9.95-23.7-18.69-36.02-25.88-12.37-7.16-25.12-12.46-38.38-16.11-26.46-7.38-55.64-6.37-86.02-.23-15.16,3.1-30.65,7.22-46.24,12.34-15.63,5.03-31.34,10.86-47.78,16.35l-.21,.07c-4.37,1.46-9.09-.9-10.55-5.27-1-3-.19-6.18,1.82-8.34Z" class="cls-10"/><path d="M1708.12,1222.75c24.28-25.92,53.77-47.34,88.36-61.76,17.29-7.09,35.93-12.32,55.51-14.43,19.52-2.23,40.05-1.04,59.73,3.87,9.9,2.25,19.49,5.72,28.7,9.81,4.64,1.99,9.03,4.41,13.51,6.68,4.25,2.6,8.56,5.14,12.66,7.9,16.4,11.12,30.45,24.65,42.25,39.3,11.86,14.63,21.42,30.48,29.15,46.87,7.66,16.43,13.66,33.35,17.19,51.01,.91,4.58-2.06,9.02-6.63,9.94-2.89,.58-5.72-.39-7.65-2.33l-.12-.12c-12.25-12.51-23.4-25.04-34.81-36.81-11.35-11.79-22.79-22.87-34.44-32.86-11.7-9.95-23.7-18.69-36.02-25.88-12.36-7.16-25.12-12.46-38.38-16.11-26.46-7.38-55.64-6.37-86.02-.23-15.16,3.1-30.65,7.22-46.24,12.34-15.63,5.03-31.34,10.86-47.78,16.35l-.21,.07c-4.37,1.46-9.09-.9-10.55-5.27-1-3-.19-6.18,1.82-8.34Z" class="cls-10"/><g class="cls-6"><path d="M1967.03,1928.61c113.11-62.1,194.95-169.04,229.3-293.45,46.57-168.5,56.96-321.53,39.27-457.41l-19.5-93.96c.25-.76,.5-1.51,.75-2.27-186.26,573.74-484.73,792.68-849.88,753.26-71.83,85.14-142.86,65.83-172.88-36.08-95.47-28.88-194.63-72.81-296.81-130.25-225.46-126.79-275.49-397.04-219.51-695.09l-.05,.05c-57.61,111.81-100.4,244.55-123.01,399.37-4.44,37.7-2.8,74.86,4.22,111.21,126.12,412.36,938.65,702.4,1408.09,444.62Z" class="cls-10"/></g><g class="cls-6"><path d="M1429.46,1729.47c-.16,1.35-.38,2.7-.65,4.11v.05c-109.48,234.33-246.12,189.54-249.58-46.74,62.15,110.35,145.62,124.2,250.23,42.57Z" class="cls-10"/></g><g class="cls-6"><path d="M1034.31,3013.57c-25.37-10.71-48.25-23.53-68.27-38.78,270.57,8.06,132.36-143.24,132.36-143.24,0,0-.97-77.62-4.76-269.65-3.84-192.03,142.37-200.14,142.37-200.14l1.35,2c-2.06,57.23-8.82,236.87-14.98,361.07-3.35,68.1-6.55,119.6-8.65,125.12,136.2,99.42,31.1,215.02-179.42,163.63Z" class="cls-10"/></g><g class="cls-6"><path d="M1740.33,2396.1v.27l-51.44,407.48-.97,7.68c-1.95,15.47-4.71,30.89-8.92,45.87-25.59,90.77-84.87,145.45-168.98,173.53-101.91,15.9-174.83-7.52-204.69-45.76,206.57,20.89,300.16-147.87,314.88-448.96,3.35-68.53,52.98-126,120.13-140.11h0Z" class="cls-10"/></g><g class="cls-6"><path d="M1222.39,2724.82c44.69,30.83,88.49,32.21,131.28,0l3.32,126.73-74.85,77.15-73.81-91.37" class="cls-10"/></g><path d="M2153.27,2951.41c-37.65,1.46-100.34,3.73-156.11,4.87,15.09-5.08,31.16-7.79,47.44-7.84,27.53-.11,65.88,.43,108.67,2.98Z" class="cls-10"/><g class="cls-6"><path d="M2240.68,2942.06l-10.98,1.62-42.3,6.33s-2.27,.11-6.44,.27l-152.49-8.38-52.04-93.31,20.12-65.29-2.05-5.25c34.08,3.08,63.45,.38,91.69-3.84,0,0-2.49,5.68-5.09,14.93-3.95,13.79-8.11,35.54-4.71,58.37,6.54,43.6,40.73,91.09,157.41,94.45,2.27,.05,4.54,.05,6.87,.11Z" class="cls-10"/></g><g class="cls-6"><path d="M2349.24,3177.52c-46.46,32.62-102.29,49.12-159.03,49.66-1.03,.05-2,.05-3.03,.05h-138.75c-54.25,0-104.94-29.64-129.12-78.22-14.17-28.45-19.47-60.42-13.14-91.42,6.6,1.89,10.76,3.3,10.76,3.3,96.77,98.12,544.93,20.28,423.16-252.67,8.33,5.19,16.44,10.82,24.23,16.93,133.45,104.18,106.18,267.22-15.09,352.36Z" class="cls-10"/></g><path d="M437.47,703.64h-179.34c-4.58,0-7.9-1.02-9.94-3.07-2.05-2.04-3.07-5.36-3.07-9.94v-48.45c0-4.58,.72-8.62,2.17-12.11,1.45-3.49,3.73-6.93,6.87-10.31l87.86-106.66h-77.37c-4.58,0-7.9-1.02-9.94-3.07-2.05-2.04-3.08-5.36-3.08-9.94v-43.75c0-4.58,1.02-7.89,3.08-9.94,2.04-2.05,5.36-3.08,9.94-3.08h166.32c4.58,0,7.89,1.03,9.94,3.08,2.04,2.05,3.07,5.37,3.07,9.94v53.87c0,4.83-.72,8.98-2.17,12.48-1.45,3.5-3.74,6.93-6.87,10.3l-83.88,101.6h86.42c4.57,0,7.89,1.03,9.94,3.07,2.04,2.05,3.07,5.37,3.07,9.94v43.03c0,4.58-1.03,7.9-3.07,9.94-2.05,2.05-5.37,3.07-9.94,3.07Z" class="cls-8"/><path d="M150.17,397.79H10.16c-3.58,0-6.17-.8-7.76-2.4-1.6-1.6-2.4-4.19-2.4-7.76v-37.83c0-3.57,.57-6.73,1.69-9.46,1.13-2.73,2.91-5.41,5.36-8.05l68.59-83.27H15.24c-3.58,0-6.17-.8-7.76-2.4-1.6-1.6-2.4-4.19-2.4-7.76v-34.15c0-3.57,.8-6.16,2.4-7.76,1.6-1.6,4.19-2.4,7.76-2.4H145.09c3.57,0,6.16,.8,7.76,2.4,1.6,1.6,2.4,4.19,2.4,7.76v42.06c0,3.77-.57,7.01-1.69,9.74-1.13,2.73-2.92,5.41-5.36,8.04l-65.49,79.32h67.47c3.57,0,6.16,.8,7.76,2.4,1.6,1.6,2.4,4.19,2.4,7.76v33.59c0,3.58-.8,6.17-2.4,7.76-1.6,1.6-4.19,2.4-7.76,2.4Z" class="cls-8"/><path d="M465.59,159.8h-110.08c-2.81,0-4.85-.63-6.1-1.89-1.26-1.25-1.89-3.29-1.89-6.1v-29.74c0-2.81,.44-5.29,1.33-7.43,.89-2.14,2.29-4.25,4.22-6.33l53.93-65.47h-47.5c-2.81,0-4.85-.63-6.1-1.89-1.26-1.25-1.89-3.29-1.89-6.1V7.99c0-2.81,.63-4.85,1.89-6.1,1.25-1.26,3.29-1.89,6.1-1.89h102.09c2.81,0,4.85,.63,6.1,1.89,1.25,1.26,1.89,3.29,1.89,6.1V41.06c0,2.96-.44,5.51-1.33,7.66-.89,2.15-2.3,4.25-4.22,6.32l-51.49,62.37h53.05c2.81,0,4.84,.63,6.1,1.89,1.25,1.26,1.89,3.29,1.89,6.1v26.41c0,2.81-.63,4.85-1.89,6.1-1.26,1.26-3.3,1.89-6.1,1.89Z" class="cls-8"/></g></svg>